<svg width="109" height="183" viewBox="0 0 109 183" fill="none" xmlns="http://www.w3.org/2000/svg">
<g clip-path="url(#clip0_1146_2583)">
<path fill-rule="evenodd" clip-rule="evenodd" d="M64.453 86.9744C64.3692 87.0302 64.2527 87.0581 64.104 87.0581C63.6944 87.0581 63.3406 87.1419 63.0432 87.3094C62.7452 87.4769 62.5686 87.6906 62.5127 87.9515C62.4569 88.2306 62.3265 88.3702 62.1219 88.3702C62.0473 88.3702 61.9544 88.3423 61.8427 88.2865C59.5906 87.0399 57.506 85.1877 55.5894 82.731C53.6723 80.2744 52.2485 77.2223 51.3181 73.5743C51.2435 73.2393 51.0851 73.0718 50.8435 73.0718C50.7131 73.0718 50.5735 73.1277 50.4248 73.2393C50.0152 73.5002 49.6989 73.686 49.4756 73.7977C49.2335 73.9469 49.1127 74.1144 49.1127 74.3002C49.1127 74.4306 49.1868 74.589 49.336 74.7748C50.2476 75.7985 50.9552 77.0221 51.4577 78.4458C51.9602 79.8696 52.2115 81.3073 52.2115 82.759C52.2115 84.5274 51.8485 86.0998 51.1227 87.4769C50.7131 88.2398 50.3131 88.7933 49.9223 89.138C49.5314 89.4821 49.066 89.6544 48.5264 89.6544C48.3214 89.6544 48.1914 89.6217 48.1356 89.5567C48.0798 89.4912 48.0422 89.3752 48.0239 89.2077C47.9864 88.9844 47.9123 88.7842 47.8006 88.6075C47.6889 88.4304 47.4839 88.2489 47.1864 88.0632C46.8326 87.8581 46.2931 87.6068 45.5673 87.3094C45.0648 87.1049 44.6643 86.9186 44.3668 86.7511C44.1618 86.6211 44.0597 86.4628 44.0597 86.2765C44.0597 86.1648 44.1016 86.0719 44.1854 85.9973C44.2691 85.9232 44.3668 85.8856 44.4785 85.8856C44.5714 85.8856 44.6739 85.9136 44.7856 85.9694C45.2135 86.1745 45.7111 86.3742 46.2791 86.5696C46.8466 86.765 47.326 86.8627 47.7169 86.8627C48.1818 86.8627 48.5495 86.7886 48.8196 86.6394C49.0891 86.4907 49.3543 86.2206 49.6152 85.8298C50.0989 85.0857 50.341 83.9782 50.341 82.5077C50.341 82.2661 50.3222 81.8656 50.2852 81.3073C50.2664 81.0839 50.1827 80.9723 50.0339 80.9723C49.9405 80.9723 49.8477 81.0099 49.7548 81.084C48.2655 82.2753 46.707 83.299 45.0787 84.1548C43.4499 85.0111 41.4817 85.746 39.1743 86.3602C39.0997 86.379 39.0068 86.3881 38.8951 86.3881C38.7647 86.3881 38.6621 86.3602 38.5881 86.3044C38.5134 86.2486 38.4764 86.1745 38.4764 86.0811C38.4764 85.8577 38.653 85.6902 39.0068 85.5786C40.0677 85.2623 41.2584 84.7647 42.5802 84.085C43.9014 83.4059 45.1297 82.6473 46.2652 81.8098C47.4001 80.9723 48.2473 80.1724 48.8056 79.4089C49.0289 79.1115 49.2614 78.9531 49.5035 78.9344C49.6334 78.8973 49.722 78.8506 49.7687 78.7948C49.8149 78.7389 49.8197 78.6552 49.7827 78.5435L49.6152 77.9852C49.5035 77.6878 49.336 77.5385 49.1127 77.5385C48.9822 77.5385 48.8335 77.5944 48.666 77.706C47.3819 78.6181 45.8368 79.4927 44.0318 80.3302C42.2264 81.1677 40.7747 81.7078 39.6768 81.9494C39.6022 81.9682 39.5093 81.9773 39.3976 81.9773C39.1185 81.9773 38.9789 81.8844 38.9789 81.6981C38.9789 81.6052 39.0299 81.5075 39.1324 81.405C39.2344 81.303 39.3697 81.2235 39.5372 81.1677C41.063 80.6652 42.6081 79.9114 44.1714 78.9064C45.7348 77.9014 47.0839 76.8503 48.2194 75.7518C48.331 75.659 48.3869 75.5564 48.3869 75.4447C48.3869 75.3519 48.3493 75.2681 48.2752 75.1935L48.1077 74.9423C48.0331 74.8123 47.9214 74.7468 47.7727 74.7468L47.5494 74.8027C45.4277 75.8077 42.8405 76.6452 39.7885 77.3152H39.6768C39.5834 77.3152 39.5045 77.2873 39.4395 77.2314C39.374 77.1756 39.3418 77.1015 39.3418 77.0081C39.3418 76.9152 39.3789 76.8266 39.4535 76.7429C39.5276 76.6591 39.6392 76.599 39.7885 76.5614L40.3468 76.3939C42.0401 75.9102 43.5852 75.3798 44.981 74.8027C46.3768 74.2261 47.7727 73.3886 49.1685 72.2902C49.3731 72.1415 49.4756 71.9831 49.4756 71.8156C49.4756 71.7039 49.4241 71.611 49.3221 71.5364C49.2195 71.4623 49.0751 71.4247 48.8894 71.4247L45.5673 71.3968C44.8226 71.3968 43.9202 71.4344 42.8593 71.5085L42.1893 71.5643C42.003 71.5831 41.8586 71.5321 41.7566 71.4108C41.6541 71.29 41.6031 71.1552 41.6031 71.006C41.6031 70.8385 41.6541 70.6989 41.7566 70.5872C41.8586 70.4756 42.003 70.4294 42.1893 70.4476L42.8593 70.5035C44.0318 70.5781 44.9343 70.6152 45.5673 70.6152H54.5285C54.9006 70.6152 55.2125 70.5362 55.4638 70.3779C55.715 70.22 55.9802 70.001 56.2594 69.7218C56.6685 69.3127 57.0781 69.1076 57.4877 69.1076C57.9527 69.1076 58.4648 69.4056 59.0232 70.001C59.2277 70.2431 59.3302 70.4756 59.3302 70.6989C59.3302 70.904 59.2465 71.0715 59.079 71.2014C58.9115 71.3319 58.6694 71.3968 58.3531 71.3968L53.3002 71.4247C52.9652 71.4247 52.686 71.5273 52.4627 71.7318C52.2764 71.8811 52.1835 72.0668 52.1835 72.2902C52.1835 72.346 52.2018 72.4485 52.2394 72.5972C52.7789 74.5332 53.5794 76.3939 54.6402 78.1806C54.7889 78.4039 54.9752 78.5156 55.1986 78.5156C55.3661 78.5156 55.5056 78.4694 55.6173 78.376C57.404 77.1106 58.8648 75.2316 60.0002 74.1885C60.2606 73.8352 60.5956 73.6581 61.0052 73.6581C61.3773 73.6581 61.7075 73.8073 61.9963 74.1048C62.2846 74.4027 62.429 74.7468 62.429 75.1377C62.429 75.5473 62.3356 75.7518 62.1498 75.7518C62.0564 75.7518 61.9635 75.696 61.8707 75.5843C61.8148 75.5285 61.7681 75.5006 61.7311 75.5006C61.6752 75.5006 61.5636 75.5564 61.3961 75.6681C59.9444 76.8406 58.1948 77.9852 56.1477 79.1019C55.8868 79.2511 55.7569 79.4277 55.7569 79.6323C55.7569 79.7627 55.8127 79.9023 55.9244 80.051C57.0969 81.5773 58.395 82.8754 59.8188 83.9454C61.2425 85.0159 62.6985 85.8298 64.1878 86.3881C64.2994 86.4257 64.3923 86.4815 64.4669 86.5556C64.541 86.6303 64.5786 86.6952 64.5786 86.7511C64.5786 86.8445 64.5367 86.9186 64.453 86.9744ZM63.9086 68.4237C63.7593 68.5074 63.5967 68.5681 63.42 68.6051C63.2429 68.6427 63.1269 68.6706 63.0711 68.6889C62.7173 68.7823 62.3871 68.9262 62.08 69.1216C61.773 69.317 61.3961 69.601 60.9494 69.9731C60.6515 70.2522 60.419 70.4294 60.2515 70.5035C60.1398 70.5593 60.0464 70.5872 59.9723 70.5872C59.8048 70.5872 59.7211 70.5131 59.7211 70.3639C59.7211 70.271 59.7581 70.1873 59.8327 70.1126C60.3911 69.5543 60.7631 69.0427 60.9494 68.5772C61.0052 68.4285 61.0332 68.2889 61.0332 68.1585C61.0332 67.9539 60.9494 67.7864 60.7819 67.656C60.6144 67.526 60.4002 67.4605 60.1398 67.4605H41.4635C41.1655 67.4605 40.9331 67.5631 40.7656 67.7676C40.5981 67.9727 40.4767 68.2798 40.4027 68.6889C40.2722 69.3777 40.058 69.9409 39.7606 70.3779C39.4626 70.8154 39.0718 71.0339 38.5881 71.0339C38.3647 71.0339 38.1784 70.9641 38.0297 70.8245C37.8805 70.6849 37.8064 70.5131 37.8064 70.3081C37.8064 69.9731 38.0201 69.6289 38.4485 69.2751C38.8951 68.9031 39.2022 68.4892 39.3697 68.0328C39.5372 67.577 39.658 67.0606 39.7327 66.4835C39.7509 66.3718 39.8024 66.2789 39.8862 66.2043C39.9699 66.1302 40.0677 66.0926 40.1793 66.0926C40.291 66.0926 40.3839 66.1302 40.4585 66.2043C40.4955 66.2419 40.5374 66.3117 40.5841 66.4137C40.6303 66.5162 40.6861 66.5908 40.7516 66.637C40.8166 66.6837 40.9234 66.7068 41.0727 66.7068H49.5873C49.9593 66.7068 50.1456 66.521 50.1456 66.1485V64.7526C50.1456 64.2877 50.2804 63.9387 50.5504 63.7057C50.8199 63.4733 51.1597 63.3568 51.5694 63.3568C51.9044 63.3568 52.1835 63.4223 52.4069 63.5522C52.6302 63.6827 52.7419 63.8131 52.7419 63.943C52.7419 64.0923 52.5926 64.176 52.2952 64.1943C52.1835 64.2131 52.095 64.278 52.03 64.3897C51.9645 64.5014 51.9323 64.6227 51.9323 64.7526V66.1485C51.9323 66.521 52.118 66.7068 52.4906 66.7068H60.5865C60.8839 66.7068 61.0981 66.6928 61.2286 66.6649C61.3585 66.637 61.4981 66.549 61.6473 66.3997C61.8148 66.2322 62.0103 66.1485 62.2336 66.1485C62.3823 66.1485 62.5686 66.2043 62.7919 66.316C63.2386 66.5581 63.5736 66.8373 63.7969 67.1535C64.0203 67.4702 64.1319 67.7494 64.1319 67.991C64.1319 68.196 64.0573 68.3399 63.9086 68.4237ZM57.2086 51.7434C58.0085 52.0413 58.8648 52.5068 59.7769 53.1392C60.6885 53.7722 61.3773 54.5072 61.8427 55.3447C61.9727 55.5862 62.0382 55.8284 62.0382 56.0705C62.0382 56.3679 61.9356 56.6149 61.7311 56.8103C61.526 57.0057 61.2844 57.1034 61.0052 57.1034C60.8002 57.1034 60.6004 57.0428 60.405 56.922C60.2096 56.8006 60.0561 56.61 59.9444 56.3497C59.5536 55.5304 59.0929 54.7724 58.5625 54.0744C58.0321 53.3765 57.4598 52.8321 56.8456 52.4413C56.6594 52.3296 56.5665 52.1809 56.5665 51.9946C56.5665 51.7901 56.6873 51.6876 56.9294 51.6876C57.0411 51.6876 57.1339 51.7063 57.2086 51.7434ZM52.1835 51.7155C52.2764 51.7155 52.379 51.7434 52.4906 51.7992C53.1048 52.116 53.7791 52.6507 54.5146 53.4044C55.2496 54.1582 55.7751 54.9447 56.0919 55.7634C56.1477 55.9309 56.1756 56.0887 56.1756 56.238C56.1756 56.5354 56.0731 56.7915 55.8686 57.0057C55.6635 57.2194 55.4219 57.3268 55.1427 57.3268C54.7143 57.3268 54.3981 57.0476 54.1935 56.4892C53.5418 54.6285 52.788 53.2418 51.9323 52.3296C51.8577 52.2556 51.8206 52.1621 51.8206 52.0505C51.8206 51.9576 51.8528 51.8787 51.9183 51.8132C51.9833 51.7482 52.0719 51.7155 52.1835 51.7155ZM47.326 51.6876C47.4559 51.6876 47.5676 51.7251 47.661 51.7992C48.3122 52.2459 48.8936 52.874 49.4058 53.6836C49.9174 54.4932 50.2197 55.233 50.3131 55.903C50.3872 56.3679 50.2895 56.7496 50.02 57.0476C49.7499 57.345 49.4477 57.4943 49.1127 57.4943C48.6843 57.4943 48.433 57.2709 48.3589 56.8242C48.0051 54.7584 47.5493 53.2509 46.991 52.3017C46.9534 52.2276 46.9352 52.153 46.9352 52.0784C46.9352 51.9667 46.9722 51.8739 47.0468 51.7992C47.1209 51.7251 47.2143 51.6876 47.326 51.6876ZM39.8164 55.5959C41.6401 54.7402 43.0451 53.5956 44.0318 52.1621C44.1993 51.9018 44.3851 51.7713 44.5902 51.7713C44.7759 51.7713 44.8693 51.9018 44.8693 52.1621C44.8693 52.2738 44.8597 52.3672 44.8414 52.4413C44.711 52.9814 44.4506 53.5719 44.0597 54.214C43.6689 54.8561 43.1986 55.4424 42.65 55.9728C42.1007 56.5032 41.5472 56.8704 40.9889 57.0755C40.7097 57.1684 40.4767 57.2151 40.291 57.2151C39.993 57.2151 39.7557 57.1313 39.5791 56.9638C39.4019 56.7963 39.3139 56.5912 39.3139 56.3497C39.3139 56.2004 39.3558 56.0565 39.4395 55.917C39.5233 55.7774 39.6489 55.67 39.8164 55.5959ZM63.6015 50.4592C63.434 50.5897 63.1919 50.6546 62.8757 50.6546H42.5522C41.8076 50.6546 40.9052 50.6922 39.8443 50.7663L39.1743 50.8221C38.988 50.8409 38.8436 50.7899 38.7416 50.6686C38.6391 50.5478 38.5881 50.413 38.5881 50.2638C38.5881 50.0963 38.6391 49.9567 38.7416 49.845C38.8436 49.7334 38.988 49.6872 39.1743 49.7055L39.8443 49.7613C41.0168 49.8359 41.9193 49.873 42.5522 49.873H49.001C49.3172 49.873 49.5594 49.7849 49.7269 49.6078C49.8944 49.4311 49.9781 49.1938 49.9781 48.8959V47.165C49.9781 46.8488 49.8944 46.6067 49.7269 46.4392C49.5594 46.2717 49.3172 46.1879 49.001 46.1879H46.2931C45.5485 46.1879 44.646 46.2255 43.5852 46.2996L42.9152 46.3555C42.7289 46.3742 42.5845 46.3232 42.4825 46.2019C42.3799 46.0811 42.3289 45.9464 42.3289 45.7971C42.3289 45.6296 42.3799 45.49 42.4825 45.3784C42.5845 45.2667 42.7289 45.2205 42.9152 45.2388L43.5852 45.2946C44.7577 45.3692 45.6601 45.4063 46.2931 45.4063H49.001C49.3172 45.4063 49.5594 45.3182 49.7269 45.1411C49.8944 44.9644 49.9781 44.7271 49.9781 44.4292V42.5588C49.9781 42.2426 49.8944 42.0004 49.7269 41.8329C49.5594 41.6654 49.3172 41.5817 49.001 41.5817H46.3768C46.0601 41.5817 45.8185 41.6515 45.651 41.7911C45.4835 41.9306 45.3998 42.1309 45.3998 42.3913C45.3998 42.7263 45.2693 43.0011 45.0089 43.2148C44.748 43.429 44.4688 43.5359 44.1714 43.5359C43.9851 43.5359 43.8316 43.48 43.7108 43.3684C43.5895 43.2567 43.5293 43.0988 43.5293 42.8938L43.5573 41.7492C43.5755 41.5634 43.5852 41.2934 43.5852 40.9396L43.6131 32.2016C43.6131 31.9971 43.7527 31.8946 44.0318 31.8946C44.3668 31.8946 44.6412 31.9413 44.8554 32.0341C45.0691 32.1275 45.2881 32.2483 45.5114 32.3971C45.7348 32.5463 45.8926 32.6204 45.986 32.6204H55.2265C55.394 32.6204 55.5566 32.5785 55.715 32.4948C55.8728 32.411 56.0173 32.3133 56.1477 32.2016C56.2594 32.1088 56.3802 32.0202 56.5106 31.9364C56.6406 31.8527 56.771 31.8108 56.9015 31.8108C57.106 31.8108 57.3712 31.9042 57.6971 32.09C58.0224 32.2763 58.3064 32.4905 58.5486 32.7321C58.7902 32.9742 58.9115 33.1696 58.9115 33.3183C58.9115 33.4488 58.8836 33.5465 58.8277 33.6114C58.7719 33.6769 58.6881 33.7558 58.5765 33.8487C58.4272 33.9604 58.3113 34.0817 58.2275 34.2116C58.1438 34.3421 58.1019 34.5375 58.1019 34.7979V42.3913C58.1019 42.7451 57.9714 43.0242 57.7111 43.2288C57.4501 43.4338 57.1619 43.5359 56.8456 43.5359C56.5847 43.5359 56.4172 43.4569 56.3431 43.2986C56.2685 43.1407 56.2315 42.9313 56.2315 42.6704C56.2315 42.3354 56.1477 42.0702 55.9802 41.8748C55.8127 41.6794 55.5706 41.5817 55.2544 41.5817H52.7419C52.4439 41.5817 52.2066 41.6654 52.03 41.8329C51.8528 42.0004 51.7648 42.2426 51.7648 42.5588V44.4292C51.7648 44.7271 51.8528 44.9644 52.03 45.1411C52.2066 45.3182 52.4439 45.4063 52.7419 45.4063H55.4219C55.7939 45.4063 56.1058 45.3274 56.3571 45.169C56.6083 45.0111 56.8736 44.7921 57.1527 44.5129C57.5618 44.1038 57.9806 43.8988 58.409 43.8988C58.6506 43.8988 58.8927 43.9734 59.1348 44.1221C59.414 44.3084 59.6744 44.5317 59.9165 44.7921C60.121 45.0342 60.2236 45.2667 60.2236 45.49C60.2236 45.6951 60.1398 45.8626 59.9723 45.9925C59.8048 46.123 59.5627 46.1879 59.2465 46.1879L52.7419 46.2159C52.4439 46.2159 52.2066 46.2996 52.03 46.4671C51.8528 46.6346 51.7648 46.8767 51.7648 47.193V48.8959C51.7648 49.1938 51.8528 49.4311 52.03 49.6078C52.2066 49.7849 52.4439 49.873 52.7419 49.873H59.0511C59.4231 49.873 59.735 49.794 59.9863 49.6357C60.2375 49.4778 60.5027 49.2588 60.7819 48.9796C61.191 48.5705 61.6097 48.3655 62.0382 48.3655C62.2797 48.3655 62.5219 48.4401 62.764 48.5888C63.0432 48.7751 63.3035 48.9984 63.5457 49.2588C63.7502 49.5009 63.8528 49.7334 63.8528 49.9567C63.8528 50.1618 63.769 50.3293 63.6015 50.4592ZM49.9781 34.3512C49.9781 34.035 49.8944 33.7929 49.7269 33.6254C49.5594 33.4579 49.3172 33.3741 49.001 33.3741H46.3768C46.0789 33.3741 45.8416 33.4579 45.665 33.6254C45.4878 33.7929 45.3998 34.035 45.3998 34.3512V35.6354C45.3998 35.9521 45.4835 36.1937 45.651 36.3612C45.8185 36.5287 46.051 36.6125 46.3489 36.6125H49.001C49.3172 36.6125 49.5594 36.5244 49.7269 36.3473C49.8944 36.1706 49.9781 35.9334 49.9781 35.6354V34.3512ZM49.9781 38.5387C49.9781 38.2225 49.8944 37.9804 49.7269 37.8129C49.5594 37.6454 49.3172 37.5617 49.001 37.5617H46.3489C46.051 37.5617 45.8185 37.6454 45.651 37.8129C45.4835 37.9804 45.3998 38.2225 45.3998 38.5387V39.8229C45.3998 40.1209 45.4878 40.3582 45.665 40.5348C45.8416 40.712 46.0789 40.8 46.3768 40.8H49.001C49.3172 40.8 49.5594 40.712 49.7269 40.5348C49.8944 40.3582 49.9781 40.1209 49.9781 39.8229V38.5387ZM56.3152 34.3512C56.3152 34.035 56.2315 33.7929 56.064 33.6254C55.8965 33.4579 55.6543 33.3741 55.3381 33.3741H52.7419C52.4439 33.3741 52.2066 33.4579 52.03 33.6254C51.8528 33.7929 51.7648 34.035 51.7648 34.3512V35.6633C51.7648 35.9613 51.8528 36.1986 52.03 36.3752C52.2066 36.5524 52.4439 36.6404 52.7419 36.6404H55.3661C55.6635 36.6404 55.8965 36.5567 56.064 36.3892C56.2315 36.2217 56.3152 35.9801 56.3152 35.6633V34.3512ZM52.03 40.5627C52.2066 40.7399 52.4439 40.8279 52.7419 40.8279H55.3381C55.6543 40.8279 55.8965 40.7399 56.064 40.5627C56.2315 40.3861 56.3152 40.1488 56.3152 39.8508V38.5108C56.3152 38.1946 56.2406 37.9525 56.0919 37.785C55.9426 37.6175 55.7381 37.5337 55.4777 37.5337H52.7419C52.4439 37.5337 52.2066 37.6175 52.03 37.785C51.8528 37.9525 51.7648 38.1946 51.7648 38.5108V39.8508C51.7648 40.1488 51.8528 40.3861 52.03 40.5627ZM59.079 2.07941C58.9297 2.24691 58.8138 2.41012 58.73 2.56795C58.6463 2.72633 58.6044 2.9357 58.6044 3.19608V24.2453C58.6044 24.5986 58.4739 24.8778 58.2136 25.0829C57.9526 25.2874 57.6644 25.3899 57.3481 25.3899C57.069 25.3899 56.8966 25.2826 56.8317 25.0689C56.7662 24.8547 56.734 24.4408 56.734 23.8266C56.734 23.4916 56.6502 23.2264 56.4827 23.031C56.3152 22.8355 56.0731 22.7378 55.7569 22.7378H45.9581C45.6413 22.7378 45.3998 22.8076 45.2323 22.9472C45.0648 23.0868 44.981 23.287 44.981 23.5474C44.981 24.1798 44.8597 24.6453 44.6181 24.9433C44.376 25.2407 44.0877 25.3899 43.7527 25.3899C43.3801 25.3899 43.1943 25.1757 43.1943 24.7478V0.59982C43.1943 0.395275 43.3339 0.292735 43.6131 0.292735C43.9481 0.292735 44.2224 0.339442 44.4366 0.432319C44.6503 0.525733 44.8693 0.646526 45.0927 0.795237C45.316 0.944485 45.4738 1.01857 45.5673 1.01857H55.729C55.8965 1.01857 56.0591 0.976696 56.2175 0.892946C56.3754 0.809196 56.5198 0.711487 56.6502 0.59982C56.7619 0.506943 56.8827 0.41836 57.0131 0.33461C57.1431 0.25086 57.2735 0.208984 57.404 0.208984C57.739 0.208984 58.1577 0.362527 58.6602 0.669612C59.1627 0.976696 59.414 1.24191 59.414 1.46524C59.414 1.68857 59.3023 1.89366 59.079 2.07941ZM56.8177 2.74941C56.8177 2.4332 56.734 2.19108 56.5665 2.02358C56.399 1.85608 56.1568 1.77233 55.8406 1.77233H45.9581C45.6601 1.77233 45.4228 1.85608 45.2462 2.02358C45.069 2.19108 44.981 2.4332 44.981 2.74941V7.32777C44.981 7.62573 45.069 7.86302 45.2462 8.03965C45.4228 8.21681 45.6601 8.30486 45.9581 8.30486H55.8406C56.1568 8.30486 56.399 8.21681 56.5665 8.03965C56.734 7.86302 56.8177 7.62573 56.8177 7.32777V2.74941ZM56.8177 10.1194C56.8177 9.80324 56.734 9.56111 56.5665 9.39361C56.399 9.22611 56.1568 9.14236 55.8406 9.14236H45.9581C45.6601 9.14236 45.4228 9.22611 45.2462 9.39361C45.069 9.56111 44.981 9.80324 44.981 10.1194V13.8324C44.981 14.1303 45.069 14.3676 45.2462 14.5443C45.4228 14.7214 45.6601 14.8095 45.9581 14.8095H55.8406C56.1568 14.8095 56.399 14.7214 56.5665 14.5443C56.734 14.3676 56.8177 14.1303 56.8177 13.8324V10.1194ZM56.8177 16.6241C56.8177 16.3079 56.734 16.0657 56.5665 15.8982C56.399 15.7307 56.1568 15.647 55.8406 15.647H45.9581C45.6601 15.647 45.4228 15.7307 45.2462 15.8982C45.069 16.0657 44.981 16.3079 44.981 16.6241V20.9791C44.981 21.277 45.069 21.5143 45.2462 21.691C45.4228 21.8681 45.6601 21.9562 45.9581 21.9562L55.8406 21.9841C56.1568 21.9841 56.399 21.896 56.5665 21.7189C56.734 21.5423 56.8177 21.305 56.8177 21.007V16.6241ZM26.9564 70.853C26.8909 70.9367 26.812 71.0065 26.7191 71.0624C26.5516 71.174 26.426 71.2948 26.3423 71.4253C26.2585 71.5557 26.2258 71.7512 26.2445 72.0115L26.2725 73.2119C26.2725 75.4453 26.1189 77.618 25.8118 79.7305C25.5047 81.8431 25.1139 83.634 24.6393 85.1045C24.1647 86.575 23.6665 87.5236 23.1458 87.952C22.5128 88.4728 21.9266 88.7337 21.387 88.7337C20.8657 88.7337 20.447 88.5007 20.1308 88.0358C19.8516 87.6074 19.4141 87.2493 18.8187 86.961C18.2228 86.6727 17.5345 86.3978 16.7528 86.1374C16.4737 86.0258 16.3341 85.8583 16.3341 85.6349C16.3341 85.5233 16.376 85.4304 16.4597 85.3558C16.5435 85.2811 16.6503 85.2441 16.7808 85.2441C16.9483 85.2441 17.3015 85.3558 17.8416 85.5791C18.4182 85.8024 18.9207 85.9748 19.3491 86.0956C19.777 86.2163 20.1769 86.277 20.5495 86.277C20.8099 86.277 21.0611 86.2303 21.3033 86.1374C22.3641 85.672 23.1549 84.1365 23.6762 81.5312C24.197 78.9258 24.4579 75.6037 24.4579 71.5649C24.4579 71.2486 24.3741 71.0065 24.2066 70.839C24.0391 70.6715 23.797 70.5878 23.4808 70.5878H22.7829C22.3732 70.5878 22.122 70.802 22.0291 71.2299C21.3961 75.0077 20.1168 78.2697 18.1905 81.0147C16.2643 83.7597 14.0261 85.8583 11.4766 87.3099C11.2903 87.4028 11.1416 87.4495 11.0299 87.4495C10.9365 87.4495 10.8576 87.4259 10.7926 87.3797C10.7271 87.333 10.6949 87.2729 10.6949 87.1983C10.6949 87.0308 10.8157 86.8821 11.0578 86.7516C12.5653 85.8583 13.9703 84.6208 15.2732 83.0387C16.5757 81.4565 17.6693 79.6516 18.5535 77.6228C19.4371 75.594 20.0191 73.5002 20.2983 71.3415C20.3165 71.0994 20.2704 70.9136 20.1587 70.7832C20.047 70.6527 19.8699 70.5878 19.6283 70.5878H18.5953C18.1857 70.5878 17.9253 70.7923 17.8137 71.2019C17.2365 73.6586 16.2734 75.841 14.9243 77.7484C13.5746 79.6559 12.0811 81.2241 10.4436 82.4524C10.2761 82.5641 10.1366 82.6199 10.0249 82.6199C9.95026 82.6199 9.8853 82.5968 9.82947 82.5501C9.77364 82.5034 9.74572 82.4433 9.74572 82.3687C9.74572 82.2199 9.8386 82.0616 10.0249 81.8941C11.4207 80.7586 12.677 79.2371 13.7937 77.3297C14.9103 75.4222 15.6641 73.4262 16.0549 71.3415C16.092 71.0994 16.0549 70.9136 15.9432 70.7832C15.8316 70.6527 15.6544 70.5878 15.4128 70.5878H14.4916C14.119 70.5878 13.8495 70.7553 13.682 71.0903C12.8069 72.6907 11.9511 73.882 11.1136 74.6636C10.9461 74.8311 10.7878 74.9149 10.6391 74.9149C10.5644 74.9149 10.5038 74.887 10.4576 74.8311C10.4109 74.7753 10.3878 74.7103 10.3878 74.6357C10.3878 74.5052 10.4528 74.3657 10.5832 74.217C11.5694 73.0632 12.3323 71.6674 12.8724 70.0294C13.4119 68.3915 13.7282 66.8281 13.8216 65.3394C13.8398 64.874 13.9794 64.5207 14.2403 64.2786C14.0175 64.0364 14.8169 63.9157 15.1895 63.9157C15.729 63.9157 16.1569 64.1202 16.4737 64.5298C16.5665 64.6603 16.6133 64.7719 16.6133 64.8648C16.6133 64.9577 16.5757 65.0275 16.5016 65.0742C16.427 65.1209 16.3244 65.1161 16.1945 65.0602C15.9894 64.9856 15.8407 65.0044 15.7478 65.1161C15.6544 65.2277 15.5895 65.442 15.5524 65.7582C15.422 66.7073 15.124 67.787 14.6591 68.9965C14.6032 69.127 14.5753 69.2478 14.5753 69.3594C14.5753 69.6574 14.7799 69.8061 15.1895 69.8061H23.3691C23.5366 69.8061 23.6993 69.7642 23.8577 69.6805C24.0155 69.5967 24.1599 69.499 24.2904 69.3874C24.6066 69.1452 24.8578 69.0244 25.0441 69.0244C25.2487 69.0244 25.5139 69.1173 25.8398 69.3036C26.1651 69.4899 26.4491 69.7036 26.6912 69.9457C26.9328 70.1878 27.0541 70.3832 27.0541 70.5319C27.0541 70.6624 27.0214 70.7692 26.9564 70.853ZM21.1218 15.5493C21.2426 15.6706 21.4053 15.7307 21.6104 15.7307C22.1129 15.7307 22.4709 15.6797 22.6852 15.5772C22.8988 15.4752 23.0803 15.3447 23.2295 15.1863C23.3782 15.0285 23.4808 14.9211 23.5366 14.8653C23.9457 14.4562 24.3553 14.2511 24.765 14.2511C25.2675 14.2511 25.7791 14.5491 26.3004 15.1445C26.5049 15.3866 26.6075 15.6191 26.6075 15.8424C26.6075 16.0475 26.5237 16.215 26.3562 16.3449C26.1887 16.4753 25.9466 16.5403 25.6304 16.5403L21.6383 16.5682C21.1728 16.5682 20.9404 16.8012 20.9404 17.2661V22.5145C20.9404 23.2962 20.7074 23.9007 20.2424 24.3291C19.777 24.757 19.2374 24.9712 18.6233 24.9712C18.437 24.9712 18.3162 24.9293 18.2603 24.8456C18.2045 24.7618 18.1669 24.6265 18.1487 24.4408C18.1299 24.1798 18.0741 23.9705 17.9812 23.8126C17.8878 23.6548 17.6741 23.5292 17.3391 23.4358L16.5574 23.2683L15.7478 23.1008C15.4128 23.0267 15.2453 22.8774 15.2453 22.6541C15.2453 22.5242 15.3055 22.4216 15.4268 22.347C15.5476 22.2729 15.692 22.245 15.8595 22.2633C16.0082 22.282 16.1988 22.3148 16.4318 22.361C16.6643 22.4077 16.9853 22.4495 17.3949 22.4866C17.9157 22.5242 18.3393 22.4265 18.6651 22.1935C18.9905 21.961 19.1537 21.612 19.1537 21.1466V17.2661C19.1537 16.8012 18.9207 16.5682 18.4558 16.5682L8.01488 16.5403C7.54942 16.5403 7.31696 16.7733 7.31696 17.2382V23.7149C7.31696 24.0499 7.19133 24.3243 6.94008 24.5385C6.68883 24.7521 6.42362 24.8595 6.14445 24.8595C5.95816 24.8595 5.80462 24.7989 5.68383 24.6781C5.5625 24.5567 5.51149 24.3849 5.53028 24.1616V17.2382C5.53028 16.7733 5.20441 16.5403 4.5532 16.5403C3.38069 16.5591 2.39394 16.6058 1.59402 16.6799L1.00776 16.7078C0.821474 16.7266 0.677058 16.6756 0.575054 16.5543C0.472514 16.4335 0.421512 16.2987 0.421512 16.1495C0.421512 15.982 0.472514 15.8424 0.575054 15.7307C0.677058 15.6191 0.821474 15.5729 1.00776 15.5911L1.84527 15.647C2.79444 15.7028 3.78978 15.7404 4.83237 15.7586C5.29729 15.7586 5.53028 15.5262 5.53028 15.0607V5.45734C5.53028 5.2528 5.66987 5.15026 5.94904 5.15026C6.32108 5.15026 6.65608 5.2995 6.95404 5.59693C7.12154 5.76443 7.29817 5.84818 7.48446 5.84818H11.6441C12.109 5.84818 12.342 5.61572 12.342 5.15026V3.19608C12.342 2.73116 12.109 2.49816 11.6441 2.49816H4.3857C3.64107 2.49816 2.73861 2.53574 1.67777 2.60983L1.00776 2.66566C0.821474 2.68445 0.677058 2.63345 0.575054 2.51212C0.472514 2.39133 0.421512 2.25657 0.421512 2.10733C0.421512 1.93983 0.472514 1.80024 0.575054 1.68857C0.677058 1.57691 0.821474 1.53074 1.00776 1.54899L1.67777 1.60482C2.85027 1.67945 3.75274 1.71649 4.3857 1.71649H21.8058C22.1778 1.71649 22.4897 1.63757 22.741 1.4792C22.9922 1.32136 23.2574 1.10232 23.5366 0.823154C23.9457 0.414065 24.3645 0.208984 24.7929 0.208984C25.0345 0.208984 25.2766 0.283608 25.5187 0.432319C25.7979 0.61861 26.0583 0.841944 26.3004 1.10232C26.5049 1.34445 26.6075 1.57691 26.6075 1.80024C26.6075 2.00532 26.5237 2.17282 26.3562 2.30274C26.1887 2.4332 25.9466 2.49816 25.6304 2.49816L14.8266 2.52608C14.3611 2.52608 14.1287 2.75908 14.1287 3.224V5.15026C14.1287 5.61572 14.3611 5.84818 14.8266 5.84818H18.037C18.2045 5.82992 18.3581 5.77839 18.4976 5.69463C18.6372 5.61088 18.7908 5.49492 18.9583 5.34568C19.2374 5.06651 19.4699 4.92692 19.6562 4.92692C19.9536 4.90867 20.2655 4.97846 20.5914 5.1363C20.9167 5.29467 21.1916 5.49009 21.4149 5.72255C21.6383 5.95555 21.7591 6.14614 21.7779 6.29485C21.7961 6.4253 21.7779 6.52301 21.722 6.58797C21.6662 6.65347 21.5728 6.74151 21.4429 6.85318C21.2754 7.00243 21.1497 7.13718 21.066 7.25798C20.9822 7.37931 20.9404 7.56989 20.9404 7.83027V15.0607C20.9404 15.2658 21.0005 15.4285 21.1218 15.5493ZM12.342 7.32777C12.342 6.86285 12.109 6.62985 11.6441 6.62985H8.29405C7.99609 6.62985 7.7588 6.7136 7.58217 6.8811C7.405 7.0486 7.31696 7.29072 7.31696 7.60694V10.1194C7.31696 10.5849 7.54942 10.8174 8.01488 10.8174H11.6441C12.109 10.8174 12.342 10.5849 12.342 10.1194V7.32777ZM12.342 12.297C12.342 11.832 12.109 11.599 11.6441 11.599H8.01488C7.54942 11.599 7.31696 11.832 7.31696 12.297V15.0607C7.31696 15.5262 7.54942 15.7586 8.01488 15.7586H11.6441C12.109 15.7586 12.342 15.5262 12.342 15.0607V12.297ZM19.1537 7.60694C19.1537 7.29072 19.0699 7.0486 18.9024 6.8811C18.7349 6.7136 18.4928 6.62985 18.1766 6.62985H14.8266C14.3611 6.62985 14.1287 6.86285 14.1287 7.32777V10.1194C14.1287 10.5849 14.3611 10.8174 14.8266 10.8174H18.4558C18.9207 10.8174 19.1537 10.5849 19.1537 10.1194V7.60694ZM19.1537 12.297C19.1537 11.832 18.9207 11.599 18.4558 11.599H14.8266C14.3611 11.599 14.1287 11.832 14.1287 12.297V15.0607C14.1287 15.5262 14.3611 15.7586 14.8266 15.7586H18.4558C18.9207 15.7586 19.1537 15.5262 19.1537 15.0607V12.297ZM14.9801 55.219C15.1567 55.3962 15.394 55.4842 15.692 55.4842H20.8008C21.1728 55.4842 21.4847 55.4053 21.736 55.2469C21.9872 55.0891 22.2524 54.8701 22.5316 54.5909C22.9407 54.1818 23.3595 53.9767 23.7879 53.9767C24.0295 53.9767 24.2716 54.0514 24.5137 54.2001C24.7929 54.3864 25.0532 54.6097 25.2954 54.8701C25.4999 55.1122 25.6025 55.3447 25.6025 55.568C25.6025 55.7725 25.5187 55.94 25.3512 56.0705C25.1837 56.2004 24.9416 56.2659 24.6254 56.2659H5.36278C4.61816 56.2659 3.71569 56.303 2.65486 56.3776L1.98485 56.4334C1.79856 56.4517 1.65415 56.4007 1.55214 56.2799C1.4496 56.1585 1.3986 56.0238 1.3986 55.8751C1.3986 55.7076 1.4496 55.568 1.55214 55.4563C1.65415 55.3447 1.79856 55.2985 1.98485 55.3167L2.65486 55.3726C3.82736 55.4472 4.72982 55.4842 5.36278 55.4842H11.9511C12.2674 55.4842 12.5095 55.3962 12.677 55.219C12.8445 55.0424 12.9282 54.8051 12.9282 54.5072V49.538C12.9282 49.2218 12.8445 48.9796 12.677 48.8121C12.5095 48.6446 12.2674 48.5609 11.9511 48.5609H9.5503C8.80567 48.5609 7.90321 48.5985 6.84237 48.6725L6.17237 48.7284C5.98608 48.7472 5.84166 48.6962 5.73966 48.5748C5.63712 48.454 5.58612 48.3193 5.58612 48.17C5.58612 48.0025 5.63712 47.863 5.73966 47.7513C5.84166 47.6396 5.98608 47.5935 6.17237 47.6117L6.84237 47.6675C8.01488 47.7422 8.91734 47.7792 9.5503 47.7792H11.9511C12.2674 47.7792 12.5095 47.6912 12.677 47.514C12.8445 47.3374 12.9282 47.1001 12.9282 46.8021V41.8888C12.9282 41.5725 12.8445 41.3304 12.677 41.1629C12.5095 40.9954 12.2674 40.9117 11.9511 40.9117L7.90321 40.8838C7.38192 40.8838 7.00987 41.135 6.78654 41.6375C5.65108 44.2059 4.0319 46.3372 1.92902 48.0305C1.76152 48.1421 1.62193 48.198 1.51027 48.198C1.43564 48.198 1.37498 48.1749 1.32881 48.1282C1.2821 48.082 1.25902 48.0213 1.25902 47.9467C1.25902 47.3148 1.34277 47.6396 1.51027 47.4721C2.96194 46.0204 4.0319 44.3551 4.7207 42.475C5.40895 40.5955 5.93937 38.2317 6.31195 35.3841C6.36779 34.9933 6.53958 34.6819 6.82842 34.4489C7.11671 34.2165 7.45654 34.1 7.84738 34.1C8.16359 34.1 8.46584 34.1794 8.75467 34.3373C9.04297 34.4956 9.28026 34.7329 9.46655 35.0491C9.54064 35.1426 9.57822 35.2542 9.57822 35.3841C9.57822 35.4776 9.54547 35.5565 9.48051 35.6214C9.41501 35.6869 9.31731 35.71 9.18738 35.6912L8.96405 35.6633C8.55442 35.6633 8.33109 35.8587 8.29405 36.2496C8.16359 37.1987 7.96817 38.12 7.70779 39.0133C7.67021 39.1996 7.65196 39.3204 7.65196 39.3763C7.65196 39.5996 7.72605 39.7768 7.8753 39.9067C8.02401 40.0371 8.23821 40.1021 8.51738 40.1021H11.9511C12.2674 40.1021 12.5095 40.014 12.677 39.8369C12.8445 39.6602 12.9282 39.423 12.9282 39.125V33.6812C12.9282 33.2163 13.063 32.8673 13.333 32.6343C13.6025 32.4019 13.9424 32.2854 14.352 32.2854C14.687 32.2854 14.9662 32.3509 15.1895 32.4808C15.4128 32.6113 15.5245 32.7417 15.5245 32.8716C15.5245 33.0209 15.3752 33.1046 15.0778 33.1229C14.9662 33.1417 14.8776 33.2066 14.8126 33.3183C14.7471 33.43 14.7149 33.5513 14.7149 33.6812V39.125C14.7149 39.423 14.803 39.6602 14.9801 39.8369C15.1567 40.014 15.394 40.1021 15.692 40.1021H18.8745C19.2466 40.1021 19.5585 40.0232 19.8097 39.8648C20.061 39.707 20.3262 39.4879 20.6054 39.2087C21.0144 38.7997 21.4332 38.5946 21.8616 38.5946C22.1032 38.5946 22.3453 38.6692 22.5874 38.8179C22.8666 39.0042 23.127 39.2275 23.3691 39.4879C23.5737 39.73 23.6762 39.9625 23.6762 40.1858C23.6762 40.3909 23.5925 40.5584 23.4249 40.6883C23.2574 40.3356 23.0153 40.8838 22.6991 40.8838L15.692 40.9117C15.394 40.9117 15.1567 40.9954 14.9801 41.1629C14.803 41.3304 14.7149 41.5725 14.7149 41.8888V46.8021C14.7149 47.1001 14.803 47.3374 14.9801 47.514C15.1567 47.6912 15.394 47.7792 15.692 47.7792H17.6183C17.9903 47.7792 18.3022 47.7003 18.5535 47.5419C18.8047 47.3841 19.0699 47.165 19.3491 46.8859C19.7582 46.4768 20.1769 46.2717 20.6054 46.2717C20.8469 46.2717 21.0891 46.3463 21.3312 46.495C21.6104 46.6813 21.8707 46.9047 22.1129 47.165C22.3174 47.4072 22.4199 47.6396 22.4199 47.863C22.4199 48.068 22.3362 48.2355 22.1687 48.3655C22.0012 48.4959 21.7591 48.5609 21.4429 48.5609L15.692 48.5888C15.394 48.5888 15.1567 48.6725 14.9801 48.84C14.803 49.0075 14.7149 49.2497 14.7149 49.5659V54.5072C14.7149 54.8051 14.803 55.0424 14.9801 55.219ZM1.46839 71.6346C1.7379 70.3226 1.8544 68.9498 1.81735 67.5169C1.79856 67.0703 1.93331 66.7353 2.22215 66.5119C2.51044 66.2886 2.8594 66.1769 3.26902 66.1769C3.5294 66.1769 3.77153 66.2236 3.99486 66.3165C4.2182 66.4094 4.39482 66.5398 4.52528 66.7073C4.58111 66.782 4.60903 66.856 4.60903 66.9307C4.60903 67.0053 4.57628 67.0563 4.51132 67.0842C4.44582 67.1121 4.35778 67.1073 4.24611 67.0703C4.09686 67.0144 3.96694 67.0982 3.85528 67.3215C3.74361 67.5448 3.67811 67.8798 3.65986 68.3265C3.62228 68.8848 3.58524 69.3036 3.54819 69.5828C3.51061 69.8249 3.54336 70.0106 3.6459 70.1411C3.74791 70.2716 3.92024 70.3365 4.16236 70.3365H4.91612C5.38104 70.3365 5.61403 70.1041 5.61403 69.6386V65.4511C5.61403 64.9856 5.74879 64.6367 6.01883 64.4042C6.28833 64.1717 6.62817 64.0552 7.03779 64.0552C7.37279 64.0552 7.65196 64.1202 7.8753 64.2507C8.09863 64.3811 8.2103 64.511 8.2103 64.6415C8.2103 64.7902 8.06105 64.8739 7.76363 64.8927C7.65196 64.9115 7.56338 64.9765 7.49842 65.0882C7.43292 65.1998 7.40071 65.3206 7.40071 65.4511V69.4432C7.40071 69.6477 7.44688 69.8152 7.54029 69.9457C7.63317 70.0761 7.74484 70.1411 7.8753 70.1411C7.94938 70.1411 8.0428 70.1041 8.15446 70.0294C8.32196 69.9178 8.5453 69.7223 8.82447 69.4432C9.23355 69.0336 9.60614 68.829 9.94114 68.829C10.1457 68.829 10.3459 68.9036 10.5413 69.0523C10.7368 69.2011 10.9644 69.4244 11.2253 69.7223C11.4299 69.9645 11.5324 70.1969 11.5324 70.4203C11.5324 70.6248 11.4486 70.7923 11.2811 70.9228C11.1136 71.0532 10.8715 71.1182 10.5553 71.1182L8.09863 71.1461C7.63317 71.1461 7.40071 71.3786 7.40071 71.844V76.7574C7.40071 77.167 7.54942 77.3716 7.84738 77.3716C7.9773 77.3716 8.10776 77.3345 8.23821 77.2599C9.48481 76.5899 10.4619 76.0128 11.1695 75.529C11.3182 75.4362 11.4299 75.3895 11.5045 75.3895C11.6532 75.3895 11.7278 75.4732 11.7278 75.6407C11.7278 75.8082 11.6441 75.9666 11.4766 76.1153L10.7786 76.6457C9.5503 77.5949 8.58234 78.274 7.8753 78.6836C7.55855 78.8699 7.40071 79.1491 7.40071 79.5211V88.3987C7.40071 88.7337 7.27508 89.008 7.02383 89.2222C6.77258 89.4359 6.50737 89.5433 6.2282 89.5433C6.04191 89.5433 5.88837 89.4826 5.76758 89.3618C5.64625 89.2405 5.59524 89.0687 5.61403 88.8453V80.9449C5.61403 80.7586 5.57216 80.6099 5.48841 80.4982C5.40466 80.3866 5.28816 80.3307 5.13945 80.3307C5.02778 80.3307 4.90645 80.3678 4.77653 80.4424C4.51562 80.5729 3.8644 80.8799 2.82236 81.3637C2.48735 81.4941 2.25919 81.6058 2.13839 81.6987C2.01706 81.7915 2.00311 81.8941 2.09652 82.0057C2.17061 82.0986 2.20819 82.192 2.20819 82.2849C2.20819 82.4154 2.09652 82.4712 1.87319 82.4524C1.51939 82.3966 1.2311 82.243 1.00776 81.9918C0.78443 81.7405 0.672763 81.4662 0.672763 81.1682C0.672763 80.9261 0.756514 80.7076 0.924014 80.5122C1.09152 80.3168 1.35189 80.1632 1.70568 80.0516C2.13356 79.9211 2.62211 79.7445 3.17132 79.5211C3.71999 79.2978 4.09687 79.1491 4.30195 79.0745L5.08362 78.7674C5.43687 78.6369 5.61403 78.3674 5.61403 77.9578V71.844C5.61403 71.3786 5.38104 71.1461 4.91612 71.1461L3.82736 71.1182C3.45478 71.1182 3.1944 71.3136 3.04569 71.7044C2.61728 72.9698 1.8356 74.152 0.70068 75.2499C0.551432 75.3986 0.421512 75.4732 0.309845 75.4732C0.235221 75.4732 0.174556 75.4453 0.128386 75.3895C0.0816788 75.3336 0.0585938 75.2687 0.0585938 75.194C0.0585938 75.0824 0.104764 74.9616 0.198178 74.8311C0.774767 74.0124 1.19835 72.9467 1.46839 71.6346ZM8.57321 98.0015C7.51238 98.0015 6.27921 98.0155 4.87424 98.0434C3.46874 98.0713 2.58023 98.1132 2.20819 98.169C2.0219 98.1878 1.87748 98.1411 1.77548 98.0294C1.67294 97.9178 1.62193 97.7782 1.62193 97.6107C1.62193 97.4432 1.67294 97.3036 1.77548 97.1919C1.87748 97.0803 2.0219 97.0341 2.20819 97.0524C2.67311 97.127 3.17561 97.1737 3.71569 97.1919C4.25524 97.2107 4.94403 97.2199 5.78154 97.2199C5.93025 97.2199 6.1305 97.164 6.38175 97.0524C6.633 96.9407 6.8515 96.792 7.03779 96.6057C7.44688 96.1966 7.8098 95.9915 8.12655 95.9915C8.29405 95.9915 8.49859 96.0661 8.74072 96.2148C9.01988 96.4011 9.28026 96.6245 9.52238 96.8849C9.6711 97.0711 9.74572 97.2295 9.74572 97.3594C9.74572 97.5457 9.64318 97.6993 9.43863 97.8201C9.23355 97.9414 8.94526 98.0015 8.57321 98.0015ZM0.295886 101.184C0.39789 101.072 0.0591307 101.026 0.728597 101.044C2.51527 101.156 4.44153 101.212 6.50737 101.212C6.87942 101.212 7.1865 101.133 7.42863 100.975C7.67021 100.817 7.94026 100.589 8.23821 100.291C8.6473 99.8816 9.06605 99.6765 9.49447 99.6765C9.73606 99.6765 9.97818 99.7512 10.2203 99.8999C10.4995 100.086 10.7599 100.309 11.002 100.57C11.2065 100.812 11.3091 101.054 11.3091 101.296C11.3091 101.501 11.2253 101.668 11.0578 101.798C10.8903 101.929 10.6482 101.994 10.332 101.994C5.67899 101.994 2.47769 102.049 0.728597 102.161C0.0591307 102.18 0.39789 102.129 0.295886 102.008C0.193346 101.887 0.142344 101.752 0.142344 101.603C0.142344 101.435 0.193346 101.296 0.295886 101.184ZM9.7178 105.386C9.51272 105.507 9.22443 105.567 8.85238 105.567C7.75396 105.567 6.44671 105.581 4.93007 105.609C3.4129 105.637 2.41273 105.679 1.92902 105.734C1.74273 105.753 1.59831 105.707 1.49631 105.595C1.39377 105.483 1.34277 105.344 1.34277 105.176C1.34277 105.009 1.39377 104.869 1.49631 104.757C1.59831 104.646 1.74273 104.6 1.92902 104.618C2.54319 104.692 3.12944 104.739 3.68778 104.757C4.24611 104.776 4.94403 104.785 5.78154 104.785C6.0607 104.785 6.33987 104.729 6.61904 104.618C6.89821 104.506 7.13067 104.357 7.31696 104.171C7.72605 103.762 8.08897 103.557 8.40571 103.557C8.57321 103.557 8.77776 103.148 9.01988 103.78C9.29905 103.967 9.55943 104.19 9.80155 104.45C9.95026 104.637 10.0249 104.795 10.0249 104.925C10.0249 105.111 9.92235 105.265 9.7178 105.386ZM9.7178 108.498C9.51272 108.629 9.22443 108.694 8.85238 108.694C7.75396 108.694 6.44671 108.708 4.93007 108.736C3.4129 108.763 2.41273 108.805 1.92902 108.861C1.74273 108.88 1.59831 108.833 1.49631 108.722C1.39377 108.61 1.34277 108.47 1.34277 108.303C1.34277 108.135 1.39377 107.996 1.49631 107.884C1.59831 107.772 1.74273 107.726 1.92902 107.744C2.54319 107.819 3.12944 107.866 3.68778 107.884C4.24611 107.903 4.94403 107.912 5.78154 107.912C6.0607 107.912 6.33504 107.856 6.60508 107.744C6.87459 107.633 7.11188 107.475 7.31696 107.27C7.72605 106.861 8.08897 106.656 8.40571 106.656C8.57321 106.656 8.77776 106.73 9.01988 106.879C9.29905 107.065 9.55943 107.289 9.80155 107.549C9.95026 107.735 10.0249 107.894 10.0249 108.024C10.0249 108.21 9.92235 108.368 9.7178 108.498ZM1.14735 118.213L1.17527 111.206C1.17527 111.002 1.31485 110.899 1.59402 110.899C1.92902 110.899 2.20335 110.946 2.41756 111.039C2.63123 111.132 2.85027 111.253 3.07361 111.402C3.29694 111.551 3.45478 111.625 3.54819 111.625H6.59112C6.75862 111.625 6.92129 111.583 7.07967 111.499C7.2375 111.416 7.38192 111.318 7.51238 111.206C7.62404 111.113 7.74484 111.025 7.8753 110.941C8.00522 110.857 8.13567 110.815 8.26613 110.815C8.56355 110.815 8.86634 110.909 9.17343 111.095C9.48051 111.281 9.74089 111.495 9.9551 111.737C10.1688 111.979 10.2761 112.174 10.2761 112.323C10.2761 112.453 10.2482 112.551 10.1924 112.616C10.1366 112.681 10.0528 112.76 9.94114 112.853C9.79189 112.965 9.67593 113.086 9.59218 113.216C9.50843 113.347 9.46655 113.542 9.46655 113.802V119.693C9.46655 120.046 9.33609 120.325 9.07572 120.53C8.8148 120.735 8.52651 120.837 8.2103 120.837C7.94938 120.837 7.78188 120.758 7.70779 120.6C7.63317 120.442 7.59613 120.232 7.59613 119.972C7.59613 119.637 7.51238 119.367 7.34488 119.162C7.17738 118.958 6.93525 118.855 6.61904 118.855H3.93903C3.28728 118.855 2.96194 119.135 2.96194 119.693C2.96194 120.028 2.83148 120.302 2.5711 120.516C2.31019 120.73 2.03102 120.837 1.7336 120.837C1.54731 120.837 1.39377 120.782 1.27297 120.67C1.15164 120.558 1.09152 120.4 1.09152 120.195L1.11943 119.023C1.13769 118.837 1.14735 118.567 1.14735 118.213ZM2.96194 117.097C2.96194 117.413 3.04999 117.66 3.22715 117.836C3.40378 118.014 3.64107 118.092 3.93903 118.074L6.70279 118.102C7.019 118.102 7.26113 118.014 7.42863 117.836C7.59613 117.66 7.67988 117.422 7.67988 117.125V113.356C7.67988 113.04 7.59613 112.797 7.42863 112.63C7.26113 112.462 7.019 112.379 6.70279 112.379H3.93903C3.64107 112.379 3.40378 112.462 3.22715 112.63C3.04999 112.797 2.96194 113.04 2.96194 113.356V117.097ZM11.0159 107.549C11.1179 107.437 11.2624 107.391 11.4486 107.409L13.5703 107.521C14.1287 107.577 14.5098 107.326 14.7149 106.767C15.1428 105.651 15.5707 104.441 15.9991 103.138C16.0173 103.064 16.027 102.971 16.027 102.859C16.027 102.506 15.8219 102.329 15.4128 102.329L13.3749 102.44L12.7049 102.496C12.5186 102.515 12.3742 102.464 12.2722 102.343C12.1696 102.222 12.1186 102.087 12.1186 101.938C12.1186 101.77 12.1696 101.631 12.2722 101.519C12.3742 101.407 12.5186 101.361 12.7049 101.379C13.2632 101.417 13.6353 101.435 13.8216 101.435L15.8595 101.547C16.2686 101.547 16.5295 101.352 16.6412 100.961L17.3112 98.3924C17.3294 98.3183 17.3622 98.2206 17.4089 98.0992C17.4551 97.9784 17.4787 97.8807 17.4787 97.8061C17.4787 97.6574 17.367 97.5828 17.1437 97.5828H15.6641C14.9195 97.5828 14.017 97.6204 12.9562 97.6944L12.2861 97.7503C12.0999 97.7691 11.9554 97.7181 11.8534 97.5967C11.7509 97.4759 11.6999 97.3412 11.6999 97.1919C11.6999 97.0244 11.7509 96.8849 11.8534 96.7732C11.9554 96.6615 12.0999 96.6153 12.2861 96.6336L12.9562 96.6894C14.1287 96.7641 15.0311 96.8011 15.6641 96.8011H20.9683C21.3403 96.8011 21.6522 96.7222 21.9035 96.5638C22.1547 96.406 22.4199 96.1869 22.6991 95.9078C23.1082 95.4987 23.5178 95.2936 23.9275 95.2936C24.43 95.2936 24.9416 95.5916 25.4629 96.1869C25.6674 96.4291 25.77 96.6615 25.77 96.8849C25.77 97.0899 25.6862 97.2574 25.5187 97.3874C25.3512 97.5178 25.1091 97.5828 24.7929 97.5828L20.1866 97.6107C20.112 97.6107 20.061 97.6247 20.0331 97.6526C20.0051 97.6805 19.9912 97.7181 19.9912 97.7642C19.9912 97.8109 19.9815 97.8528 19.9633 97.8899C19.9257 98.0391 19.777 98.1041 19.5166 98.0853C19.3303 98.0853 19.1907 98.2528 19.0978 98.5878C18.9116 99.3695 18.7161 100.095 18.5116 100.765C18.4928 100.821 18.4837 100.905 18.4837 101.017C18.4837 101.37 18.6882 101.547 19.0978 101.547H19.377C19.5445 101.529 19.6981 101.477 19.8376 101.393C19.9772 101.31 20.1308 101.194 20.2983 101.044C20.5774 100.765 20.8099 100.626 20.9962 100.626C21.2936 100.607 21.6055 100.677 21.9314 100.835C22.2567 100.993 22.5316 101.189 22.7549 101.421C22.9783 101.654 23.0991 101.845 23.1179 101.994C23.1361 102.124 23.1179 102.222 23.062 102.287C23.0062 102.352 22.9128 102.44 22.7829 102.552C22.6154 102.701 22.4897 102.836 22.406 102.957C22.3222 103.078 22.2804 103.269 22.2804 103.529V106.153C22.2804 106.544 22.3502 106.847 22.4897 107.061C22.6293 107.275 22.792 107.317 22.9783 107.186C23.127 107.074 23.3133 106.907 23.5366 106.684C23.9457 106.275 24.3553 106.069 24.765 106.069C25.2675 106.069 25.7791 106.367 26.3004 106.963C26.5049 107.205 26.6075 107.437 26.6075 107.661C26.6075 107.866 26.5237 108.033 26.3562 108.163C26.1887 108.294 25.9466 108.359 25.6304 108.359L21.8058 108.387L14.8266 108.359C14.0819 108.359 13.1795 108.396 12.1186 108.47L11.4486 108.526C11.2624 108.545 11.1179 108.494 11.0159 108.373C10.9134 108.252 10.8624 108.117 10.8624 107.968C10.8624 107.8 10.9134 107.661 11.0159 107.549ZM16.8087 107.396C16.9574 107.517 17.1716 107.577 17.4508 107.577H19.5166C19.8328 107.577 20.0749 107.489 20.2424 107.312C20.4099 107.135 20.4937 106.898 20.4937 106.6L20.5216 103.445C20.5216 103.092 20.4379 102.822 20.2704 102.636C20.1029 102.45 19.8607 102.357 19.5445 102.357H18.6791C18.2695 102.357 18.0182 102.524 17.9253 102.859C17.6462 103.715 17.2365 104.907 16.697 106.432C16.6224 106.656 16.5853 106.814 16.5853 106.907C16.5853 107.112 16.6594 107.275 16.8087 107.396ZM13.2632 109.727C13.5982 109.727 13.8726 109.773 14.0868 109.866C14.3005 109.96 14.5195 110.08 14.7428 110.229C14.9662 110.378 15.124 110.452 15.2174 110.452H21.3312C21.4987 110.452 21.6614 110.411 21.8197 110.327C21.9776 110.243 22.122 110.145 22.2524 110.034C22.3641 109.941 22.4849 109.852 22.6154 109.768C22.7453 109.685 22.8757 109.643 23.0062 109.643C23.3036 109.643 23.6064 109.736 23.9135 109.922C24.2206 110.108 24.481 110.322 24.6952 110.564C24.9088 110.806 25.0162 111.002 25.0162 111.15C25.0162 111.281 24.9883 111.379 24.9325 111.443C24.8766 111.509 24.7929 111.588 24.6812 111.681C24.532 111.792 24.416 111.914 24.3322 112.044C24.2485 112.174 24.2066 112.37 24.2066 112.63V119.86C24.2066 120.214 24.0762 120.493 23.8158 120.698C23.5549 120.902 23.2666 121.005 22.9504 121.005C22.6894 121.005 22.5219 120.926 22.4479 120.768C22.3732 120.609 22.3362 120.4 22.3362 120.14C22.3362 119.805 22.2524 119.539 22.0849 119.344C21.9174 119.148 21.6753 119.051 21.3591 119.051H15.6082C15.2915 119.051 15.0499 119.121 14.8824 119.26C14.7149 119.4 14.6312 119.599 14.6312 119.86C14.6312 120.195 14.0175 120.47 14.2403 120.684C13.9794 120.898 13.7002 121.005 13.4028 121.005C13.0302 121.005 12.8445 120.791 12.8445 120.363V110.034C12.8445 109.829 12.9841 109.727 13.2632 109.727ZM14.6312 117.292C14.6312 117.107 14.7192 117.827 14.8964 118.004C15.073 118.181 15.3103 118.269 15.6082 118.269L21.4429 118.297C21.7591 118.297 22.0012 118.209 22.1687 118.032C22.3362 117.855 22.4199 117.618 22.4199 117.32V112.183C22.4199 111.867 22.3362 111.625 22.1687 111.457C22.0012 111.29 21.7591 111.206 21.4429 111.206H15.6082C15.3103 111.206 15.073 111.29 14.8964 111.457C14.7192 111.625 14.6312 111.867 14.6312 112.183V117.292ZM63.5457 119.553C63.5639 119.572 63.6058 119.627 63.6713 119.721C63.7363 119.814 63.769 119.944 63.769 120.112C63.769 120.447 63.6385 120.754 63.3782 121.033C63.1173 121.312 62.7543 121.452 62.2894 121.452C62.1219 121.452 61.9915 121.442 61.8986 121.424C59.1627 120.902 56.9525 119.637 55.2683 117.627C53.5837 115.617 52.351 113.216 51.5694 110.425C51.4577 110.034 51.1968 109.838 50.7877 109.838L46.0139 109.81C45.716 109.81 45.4787 109.894 45.302 110.062C45.1249 110.229 45.0368 110.471 45.0368 110.787V116.79C45.0368 117.069 44.6186 117.288 45.2323 117.446C45.3622 117.604 45.5485 117.683 45.7906 117.683C45.8647 117.683 45.9763 117.665 46.1256 117.627C48.5447 117.087 50.3969 116.538 51.681 115.98L51.9323 115.924C52.044 115.924 52.132 115.957 52.1975 116.022C52.2625 116.087 52.2952 116.166 52.2952 116.259C52.2952 116.427 52.2018 116.566 52.016 116.678C51.2902 117.087 50.1687 117.576 48.6521 118.144C47.1349 118.711 45.5624 119.213 43.9341 119.651C42.3053 120.088 40.9792 120.363 39.956 120.475C39.6768 120.493 39.4814 120.549 39.3697 120.642C39.2581 120.735 39.2484 120.856 39.3418 121.005C39.3789 121.079 39.3976 121.135 39.3976 121.172C39.3976 121.265 39.3558 121.335 39.272 121.382C39.1883 121.428 39.0809 121.442 38.951 121.424C38.6342 121.349 38.369 121.168 38.1553 120.879C37.9411 120.591 37.8343 120.288 37.8343 119.972C37.8343 119.674 37.9272 119.418 38.1135 119.204C38.2992 118.991 38.5881 118.874 38.9789 118.855C39.8905 118.8 41.0168 118.642 42.3568 118.381C42.9522 118.269 43.2502 117.916 43.2502 117.32V95.7961C43.2502 95.5916 43.3898 95.489 43.6689 95.489C43.8923 95.489 44.1295 95.5685 44.3808 95.7263C44.632 95.8847 44.8226 96.0849 44.9531 96.3265C45.0272 96.457 45.0927 96.5499 45.1485 96.6057C45.2043 96.6615 45.2881 96.6894 45.3998 96.6894H57.0131C57.2177 96.6894 57.4877 96.5595 57.8227 96.2986C58.1948 96.0382 58.4831 95.9078 58.6881 95.9078C58.8927 95.9078 59.1531 96.0012 59.4698 96.1869C59.786 96.3732 60.0652 96.5874 60.3073 96.829C60.5489 97.0711 60.6702 97.2666 60.6702 97.4153C60.6702 97.5457 60.6466 97.6434 60.6005 97.7084C60.5537 97.7739 60.4748 97.8528 60.3632 97.9457C60.084 98.1878 59.9165 98.504 59.8607 98.8949V103.194C59.8607 103.529 59.7393 103.804 59.4977 104.018C59.2556 104.232 58.9952 104.339 58.7161 104.339C58.5298 104.339 58.3762 104.279 58.2554 104.157C58.1341 104.036 58.074 103.864 58.074 103.641V103.557C58.074 103.092 57.841 102.859 57.3761 102.859H53.2165C52.9931 102.859 52.8068 102.98 52.6581 103.222C52.5089 103.464 52.4251 103.771 52.4069 104.143C52.3322 105.409 52.4439 106.833 52.7419 108.414C52.816 108.824 53.0769 109.029 53.5235 109.029H58.7998C59.1719 109.029 59.4838 108.95 59.735 108.791C59.9863 108.634 60.2515 108.414 60.5307 108.135C60.9397 107.726 61.3585 107.521 61.7869 107.521C62.0285 107.521 62.2706 107.596 62.5127 107.744C62.7919 107.931 63.0523 108.154 63.2944 108.414C63.499 108.657 63.6015 108.889 63.6015 109.112C63.6015 109.317 63.5178 109.485 63.3503 109.615C63.1828 109.745 62.9406 109.81 62.6244 109.81L53.8865 109.838C53.4768 109.838 53.2723 110.015 53.2723 110.369C53.2723 110.48 53.2814 110.564 53.3002 110.62C53.9702 112.76 54.9237 114.626 56.1617 116.217C57.3991 117.808 58.9577 118.818 60.8377 119.246C61.1169 119.302 61.3445 119.195 61.5217 118.925C61.6983 118.656 61.8567 118.246 61.9963 117.697C62.1359 117.148 62.3265 116.269 62.5686 115.059C62.6427 114.724 62.7404 114.472 62.8617 114.305C62.9825 114.137 63.1081 114.054 63.2386 114.054C63.3685 114.054 63.4759 114.147 63.5596 114.333C63.6434 114.519 63.6756 114.761 63.6573 115.059C63.6386 115.301 63.5918 115.594 63.5178 115.938C63.4431 116.283 63.3964 116.52 63.3782 116.65C63.1919 117.506 63.099 118.092 63.099 118.409C63.099 118.576 63.1081 118.698 63.1269 118.772C63.201 119.088 63.3406 119.348 63.5457 119.553ZM45.0368 108.052C45.0368 108.35 45.1249 108.587 45.302 108.763C45.4787 108.941 45.716 109.029 46.0139 109.029H50.4527C50.6943 109.029 50.8714 108.959 50.9831 108.819C51.0948 108.68 51.1227 108.489 51.0669 108.247C50.7689 106.665 50.6202 105.102 50.6202 103.557C50.6202 103.297 50.5966 103.115 50.5504 103.013C50.5037 102.911 50.406 102.859 50.2573 102.859H46.0139C45.716 102.859 45.4787 102.943 45.302 103.11C45.1249 103.278 45.0368 103.52 45.0368 103.836V108.052ZM57.0969 102.105C57.4131 102.105 57.6552 102.017 57.8227 101.84C57.9902 101.663 58.074 101.426 58.074 101.128L58.1019 98.4482C58.1019 98.132 58.0181 97.8899 57.8506 97.7224C57.6831 97.5549 57.441 97.4711 57.1248 97.4711H46.0139C45.716 97.4711 45.4787 97.5549 45.302 97.7224C45.1249 97.8899 45.0368 98.132 45.0368 98.4482V101.128C45.0368 101.426 45.1249 101.663 45.302 101.84C45.4787 102.017 45.716 102.105 46.0139 102.105H57.0969ZM38.4485 132.925C38.8951 132.553 39.2022 132.139 39.3697 131.683C39.5372 131.227 39.658 130.711 39.7327 130.134C39.7509 130.022 39.8024 129.929 39.8862 129.855C39.9699 129.781 40.0677 129.743 40.1793 129.743C40.291 129.743 40.3839 129.781 40.4585 129.855C40.4955 129.892 40.5374 129.962 40.5841 130.064C40.6303 130.167 40.6861 130.241 40.7516 130.287C40.8166 130.334 40.9234 130.357 41.0727 130.357H49.5873C49.9593 130.357 50.1456 130.171 50.1456 129.799V128.403C50.1456 127.938 50.2804 127.589 50.5504 127.356C50.8199 127.124 51.1597 127.007 51.5694 127.007C51.9044 127.007 52.1835 127.073 52.4069 127.202C52.6302 127.333 52.7419 127.463 52.7419 127.593C52.7419 127.743 52.5926 127.826 52.2952 127.845C52.1835 127.863 52.095 127.928 52.03 128.04C51.9645 128.152 51.9323 128.273 51.9323 128.403V129.799C51.9323 130.171 52.118 130.357 52.4906 130.357H60.5865C60.8839 130.357 61.0981 130.343 61.2286 130.315C61.3585 130.287 61.4981 130.199 61.6473 130.05C61.8148 129.883 62.0103 129.799 62.2336 129.799C62.3823 129.799 62.5686 129.855 62.7919 129.966C63.2386 130.208 63.5736 130.488 63.7969 130.804C64.0203 131.121 64.1319 131.4 64.1319 131.641C64.1319 131.846 64.0573 131.99 63.9086 132.074C63.7593 132.158 63.5967 132.218 63.42 132.255C63.2429 132.293 63.1269 132.321 63.0711 132.339C62.7173 132.433 62.3871 132.576 62.08 132.772C61.773 132.967 61.3961 133.251 60.9494 133.623C60.6515 133.903 60.419 134.08 60.2515 134.154C60.1398 134.21 60.0464 134.238 59.9723 134.238C59.8048 134.238 59.7211 134.163 59.7211 134.014C59.7211 133.921 59.7581 133.838 59.8327 133.763C60.3911 133.205 60.7631 132.693 60.9494 132.228C61.0052 132.079 61.0332 131.939 61.0332 131.809C61.0332 131.604 60.9494 131.437 60.7819 131.306C60.6144 131.176 60.4002 131.111 60.1398 131.111H41.4635C41.1655 131.111 40.9331 131.213 40.7656 131.418C40.5981 131.623 40.4767 131.93 40.4027 132.339C40.2722 133.028 40.058 133.591 39.7606 134.028C39.4626 134.466 39.0718 134.684 38.5881 134.684C38.3647 134.684 38.1784 134.614 38.0297 134.475C37.8805 134.335 37.8064 134.163 37.8064 133.958C37.8064 133.623 38.0201 133.279 38.4485 132.925ZM39.0068 149.229C40.0677 148.913 41.2584 148.415 42.5802 147.735C43.9014 147.056 45.1297 146.298 46.2652 145.46C47.4001 144.623 48.2473 143.823 48.8056 143.059C49.0289 142.762 49.2614 142.603 49.5035 142.585C49.6334 142.548 49.722 142.501 49.7687 142.445C49.8149 142.389 49.8197 142.305 49.7827 142.194L49.6152 141.635C49.5035 141.338 49.336 141.189 49.1127 141.189C48.9822 141.189 48.8335 141.245 48.666 141.356C47.3819 142.268 45.8368 143.143 44.0318 143.981C42.2264 144.818 40.7747 145.358 39.6768 145.6C39.6022 145.618 39.5093 145.628 39.3976 145.628C39.1185 145.628 38.9789 145.535 38.9789 145.348C38.9789 145.256 39.0299 145.158 39.1324 145.055C39.2344 144.953 39.3697 144.874 39.5372 144.818C41.063 144.315 42.6081 143.562 44.1714 142.557C45.7348 141.552 47.0839 140.501 48.2194 139.402C48.331 139.309 48.3869 139.207 48.3869 139.095C48.3869 139.002 48.3493 138.918 48.2752 138.844L48.1077 138.593C48.0331 138.463 47.9214 138.397 47.7727 138.397L47.5494 138.453C45.4277 139.458 42.8405 140.295 39.7885 140.965H39.6768C39.5834 140.965 39.5045 140.938 39.4395 140.882C39.374 140.826 39.3418 140.752 39.3418 140.658C39.3418 140.566 39.3789 140.477 39.4535 140.393C39.5276 140.309 39.6392 140.249 39.7885 140.212L40.3468 140.044C42.0401 139.561 43.5852 139.03 44.981 138.453C46.3768 137.876 47.7727 137.039 49.1685 135.94C49.3731 135.792 49.4756 135.633 49.4756 135.466C49.4756 135.354 49.4241 135.261 49.3221 135.187C49.2195 135.113 49.0751 135.075 48.8894 135.075L45.5673 135.047C44.8226 135.047 43.9202 135.085 42.8593 135.159L42.1893 135.215C42.003 135.233 41.8586 135.182 41.7566 135.061C41.6541 134.94 41.6031 134.806 41.6031 134.656C41.6031 134.489 41.6541 134.349 41.7566 134.238C41.8586 134.126 42.003 134.08 42.1893 134.098L42.8593 134.154C44.0318 134.228 44.9343 134.265 45.5673 134.265H54.5285C54.9006 134.265 55.2125 134.187 55.4638 134.028C55.715 133.87 55.9802 133.651 56.2594 133.372C56.6685 132.963 57.0781 132.758 57.4877 132.758C57.9527 132.758 58.4648 133.056 59.0232 133.651C59.2277 133.893 59.3302 134.126 59.3302 134.349C59.3302 134.554 59.2465 134.722 59.079 134.852C58.9115 134.982 58.6694 135.047 58.3531 135.047L53.3002 135.075C52.9652 135.075 52.686 135.178 52.4627 135.382C52.2764 135.531 52.1835 135.717 52.1835 135.94C52.1835 135.996 52.2018 136.099 52.2394 136.248C52.7789 138.183 53.5794 140.044 54.6402 141.831C54.7889 142.054 54.9752 142.166 55.1986 142.166C55.3661 142.166 55.5056 142.12 55.6173 142.026C57.404 140.761 58.8648 139.365 60.0002 137.839C60.2606 137.486 60.5956 137.308 61.0052 137.308C61.3773 137.308 61.7075 137.458 61.9963 137.755C62.2846 138.053 62.429 138.397 62.429 138.788C62.429 139.198 62.3356 139.402 62.1498 139.402C62.0564 139.402 61.9635 139.346 61.8707 139.235C61.8148 139.179 61.7681 139.151 61.7311 139.151C61.6752 139.151 61.5636 139.207 61.3961 139.318C59.9444 140.491 58.1948 141.635 56.1477 142.752C55.8868 142.901 55.7569 143.078 55.7569 143.283C55.7569 143.413 55.8127 143.553 55.9244 143.701C57.0969 145.228 58.395 146.526 59.8188 147.596C61.2425 148.666 62.6985 149.48 64.1878 150.038C64.2994 150.076 64.3923 150.132 64.4669 150.206C64.541 150.281 64.5786 150.346 64.5786 150.401C64.5786 150.495 64.5367 150.569 64.453 150.625C64.3692 150.681 64.2527 150.708 64.104 150.708C63.6944 150.708 63.3406 150.792 63.0432 150.96C62.7452 151.127 62.5686 151.341 62.5127 151.602C62.4569 151.881 62.3265 152.021 62.1219 152.021C62.0473 152.021 61.9544 151.993 61.8427 151.937C59.5906 150.69 57.506 148.838 55.5894 146.381C53.6723 143.925 52.2485 140.873 51.3181 137.225C51.2435 136.89 51.0851 136.722 50.8435 136.722C50.7131 136.722 50.5735 136.778 50.4248 136.89C50.0152 137.151 49.6989 137.336 49.4756 137.448C49.2335 137.597 49.1127 137.765 49.1127 137.95C49.1127 138.081 49.1868 138.239 49.336 138.425C50.2476 139.449 50.9552 140.672 51.4577 142.096C51.9602 143.52 52.2115 144.958 52.2115 146.409C52.2115 148.178 51.8485 149.75 51.1227 151.127C50.7131 151.89 50.3131 152.444 49.9223 152.788C49.5314 153.132 49.066 153.305 48.5264 153.305C48.3214 153.305 48.1914 153.272 48.1356 153.207C48.0798 153.141 48.0422 153.026 48.0239 152.858C47.9864 152.635 47.9123 152.434 47.8006 152.258C47.6889 152.081 47.4839 151.899 47.1864 151.713C46.8326 151.508 46.2931 151.257 45.5673 150.96C45.0648 150.755 44.6643 150.569 44.3668 150.401C44.1618 150.271 44.0597 150.113 44.0597 149.927C44.0597 149.815 44.1016 149.722 44.1854 149.648C44.2691 149.574 44.3668 149.536 44.4785 149.536C44.5714 149.536 44.6739 149.564 44.7856 149.62C45.2135 149.825 45.7111 150.024 46.2791 150.22C46.8466 150.415 47.326 150.513 47.7169 150.513C48.1818 150.513 48.5495 150.439 48.8196 150.29C49.0891 150.141 49.3543 149.871 49.6152 149.48C50.0989 148.736 50.341 147.628 50.341 146.158C50.341 145.916 50.3222 145.516 50.2852 144.958C50.2664 144.734 50.1827 144.623 50.0339 144.623C49.9405 144.623 49.8477 144.66 49.7548 144.734C48.2655 145.926 46.707 146.949 45.0787 147.805C43.4499 148.661 41.4817 149.396 39.1743 150.011C39.0997 150.029 39.0068 150.038 38.8951 150.038C38.7647 150.038 38.6621 150.011 38.5881 149.955C38.5134 149.899 38.4764 149.825 38.4764 149.731C38.4764 149.508 38.653 149.341 39.0068 149.229ZM42.985 167.864C44.1108 166.719 45.2505 165.887 46.4048 165.365C47.7818 164.751 49.2614 164.444 50.8435 164.444C51.7927 164.444 52.7231 164.565 53.6352 164.807C54.5468 165.049 55.3752 165.393 56.1198 165.84C57.5715 166.677 58.7064 167.752 59.5257 169.064C60.3444 170.376 60.754 171.805 60.754 173.349C60.754 173.759 60.7261 174.159 60.6702 174.55C60.3535 176.82 59.451 178.621 57.9623 179.952C56.4731 181.283 54.5006 182.078 52.044 182.339C51.709 182.376 51.448 182.358 51.2623 182.283C51.076 182.208 50.9831 182.106 50.9831 181.976C50.9831 181.845 51.0712 181.738 51.2483 181.655C51.425 181.571 51.6714 181.529 51.9881 181.529C53.049 181.51 54.0722 181.166 55.059 180.496C56.0452 179.826 56.8639 178.938 57.5156 177.83C58.1669 176.723 58.5577 175.527 58.6881 174.243C58.7252 173.871 58.744 173.592 58.744 173.405C58.744 172.233 58.511 171.093 58.0461 169.986C57.5806 168.878 56.8687 167.915 55.9104 167.096C54.9516 166.277 53.7839 165.728 52.4069 165.449C52.1835 165.412 52.016 165.435 51.9044 165.519C51.7927 165.603 51.7369 165.737 51.7369 165.924C51.7369 166.035 51.7648 166.166 51.8206 166.314C52.1556 167.096 52.3231 167.775 52.3231 168.352C52.3231 168.78 52.2485 169.143 52.0998 169.441L50.7039 172.652C49.5685 175.276 48.6612 177.263 47.9821 178.612C47.3024 179.961 46.6184 180.868 45.9302 181.334C45.5576 181.594 45.2135 181.725 44.8973 181.725C44.5435 181.725 44.2272 181.599 43.9481 181.348C43.6689 181.096 43.306 180.692 42.8593 180.133C42.7659 180.003 42.6081 179.807 42.3847 179.547C41.7706 178.858 41.2863 178.03 40.9331 177.062C40.5793 176.094 40.4027 175.099 40.4027 174.075C40.4027 173.387 40.4864 172.726 40.6539 172.093C41.0818 170.418 41.8586 169.008 42.985 167.864ZM42.5243 176.309C42.8964 177.165 43.343 177.863 43.8643 178.402C44.3851 178.942 44.8318 179.212 45.2043 179.212C45.316 179.212 45.4089 179.184 45.4835 179.128C46.2093 178.682 46.9771 177.76 47.7866 176.365C48.5962 174.969 49.2705 173.401 49.8106 171.661C50.3502 169.921 50.6202 168.343 50.6202 166.929C50.6202 166.705 50.6014 166.37 50.5644 165.924C50.5268 165.719 50.443 165.566 50.3131 165.463C50.1827 165.36 50.006 165.319 49.7827 165.337C48.5544 165.524 47.4098 165.952 46.3489 166.622C45.2881 167.292 44.3948 168.11 43.6689 169.078C42.9431 170.046 42.4406 171.06 42.1614 172.121C42.031 172.587 41.966 173.089 41.966 173.629C41.966 174.559 42.1517 175.452 42.5243 176.309Z" fill="white"/>
<path fill-rule="evenodd" clip-rule="evenodd" d="M108.278 57.6386C108.225 57.6949 108.192 57.736 108.18 57.7607C107.929 57.5793 107.669 57.3523 107.4 57.08C107.131 56.8077 106.896 56.5278 106.696 56.2397V58.0517H106.152V56.3336C105.964 56.603 105.753 56.8676 105.518 57.1269C105.283 57.3869 105.047 57.614 104.809 57.8076C104.777 57.7765 104.716 57.7184 104.626 57.6339C104.535 57.5494 104.471 57.4949 104.434 57.4696C104.621 57.3194 104.815 57.1445 105.016 56.9439C105.216 56.7438 105.405 56.5325 105.584 56.3101C105.762 56.0883 105.917 55.88 106.048 55.6858H105.053V55.2258H106.152V54.3433H106.696V55.2258H108.095V55.6858H106.828C106.965 55.88 107.129 56.0819 107.32 56.2914C107.511 56.5014 107.715 56.6986 107.931 56.8828C108.147 57.0677 108.354 57.2255 108.555 57.357C108.536 57.3757 108.499 57.4133 108.442 57.4696C108.386 57.526 108.331 57.5823 108.278 57.6386ZM105.109 40.0447H104.499V37.7633H100.03V37.2094H101.852V34.928H104.499V33.3977H102.208C101.72 34.1675 101.132 34.8247 100.443 35.3693C100.418 35.3446 100.376 35.3053 100.317 35.2519C100.257 35.1991 100.196 35.1439 100.134 35.0876C100.071 35.0313 100.021 34.9937 99.9834 34.9749C100.384 34.681 100.753 34.3318 101.091 33.9281C101.429 33.5244 101.721 33.1055 101.969 32.6701C102.216 32.2353 102.402 31.8204 102.528 31.4261L103.11 31.6045C102.96 32.0176 102.772 32.4307 102.546 32.8438H108.104V33.3977H105.109V34.928H107.55V35.4819H105.109V37.2094H108.517V37.7633H105.109V40.0447ZM104.499 35.4819H102.462V37.2094H104.499V35.4819ZM101.241 14.5833V13.9918H107.335V14.5833H101.241ZM100.8 10.9781H107.795V11.579H100.8V10.9781ZM100.143 17.1933H108.414V17.8035H100.143V17.1933ZM103.973 29.3419V24.704H100.218V24.0938H103.973V20.8641H104.603V24.0938H108.377V24.704H104.603V29.3419H103.973ZM104.476 1.38314C104.385 1.65247 104.296 1.89364 104.208 2.10605H107.128V7.63584H101.457V2.10605H103.523C103.61 1.89364 103.697 1.65071 103.781 1.37845C103.866 1.10618 103.932 0.873233 103.983 0.67901H100.077V0.115704H108.471V0.67901H104.687C104.637 0.879688 104.566 1.1144 104.476 1.38314ZM102.068 7.07253H106.518V5.09157H102.068V7.07253ZM102.068 2.67875V4.51888H106.518V2.67875H102.068ZM107.123 45.6238C107.001 45.2893 106.823 44.9947 106.588 44.7413C106.353 44.4878 106.078 44.2859 105.762 44.1357C105.446 43.9855 105.106 43.901 104.743 43.8822H104.612C104.574 44.5206 104.483 45.1561 104.34 45.7881C104.195 46.4206 104.009 47.0009 103.781 47.5296C103.552 48.0589 103.282 48.4955 102.969 48.8393C102.787 49.04 102.596 49.1603 102.396 49.2008C102.196 49.2418 101.986 49.2184 101.767 49.1303C101.554 49.0429 101.36 48.8927 101.185 48.6797C101.01 48.4673 100.874 48.2091 100.777 47.9052C100.679 47.6018 100.641 47.2714 100.659 46.9147C100.684 46.3831 100.808 45.8931 101.03 45.4454C101.252 44.9983 101.551 44.6098 101.927 44.2812C102.302 43.9526 102.732 43.7027 103.218 43.5301C103.702 43.3582 104.221 43.2878 104.772 43.3189C105.19 43.3377 105.591 43.4351 105.973 43.61C106.355 43.7854 106.694 44.023 106.992 44.3235C107.289 44.6239 107.518 44.9795 107.677 45.3891C107.837 45.7992 107.904 46.2516 107.879 46.7457C107.842 47.5155 107.565 48.1763 107.048 48.7266C106.532 49.2776 105.819 49.6561 104.912 49.8626C104.887 49.7817 104.837 49.6813 104.762 49.5622C104.687 49.4437 104.618 49.3527 104.556 49.29C105.1 49.209 105.572 49.0429 105.973 48.7924C106.373 48.5424 106.687 48.2355 106.912 47.8723C107.137 47.5097 107.259 47.1212 107.278 46.7081C107.297 46.3203 107.245 45.9588 107.123 45.6238ZM102.622 44.4596C102.214 44.7448 101.89 45.1015 101.65 45.5299C101.409 45.9588 101.273 46.43 101.241 46.9428C101.223 47.3372 101.287 47.6769 101.434 47.9615C101.581 48.2467 101.751 48.4391 101.946 48.5389C102.027 48.5764 102.12 48.594 102.227 48.5905C102.333 48.5876 102.44 48.5295 102.546 48.4168C102.809 48.1352 103.044 47.7585 103.251 47.2855C103.457 46.8132 103.626 46.2857 103.758 45.7036C103.889 45.1215 103.973 44.5271 104.011 43.9198C103.491 43.9949 103.028 44.175 102.622 44.4596ZM100.598 58.4272C100.664 57.7953 100.697 57.0131 100.697 56.0801V53.4044H108.348V53.949H101.27V56.0801C101.27 56.7813 101.256 57.3886 101.227 57.9015C101.199 58.4149 101.149 58.8685 101.077 59.2628C101.005 59.6571 100.906 60.0233 100.781 60.3613C100.656 60.6992 100.5 61.0466 100.312 61.4034C100.28 61.3781 100.228 61.347 100.152 61.3095C100.077 61.2719 100.002 61.2344 99.9271 61.1968C99.852 61.1593 99.7986 61.1376 99.7675 61.1311C99.9799 60.8119 100.155 60.4399 100.293 60.0139C100.431 59.5885 100.533 59.0598 100.598 58.4272ZM89.7078 56.5355C89.6544 56.6076 89.6186 56.6593 89.5998 56.6904C89.074 56.4592 88.5542 56.1775 88.0413 55.8454C87.5279 55.5139 87.052 55.1507 86.6143 54.7564C86.176 54.3621 85.8069 53.9525 85.5064 53.5265C85.3058 53.8334 85.0464 54.1432 84.7272 54.4559C84.408 54.7693 84.0589 55.0709 83.6804 55.3619C83.3013 55.653 82.9152 55.9194 82.5209 56.1599C82.1266 56.4011 81.7511 56.603 81.3943 56.7655C81.3814 56.7344 81.3485 56.6828 81.2957 56.6106C81.2423 56.539 81.1878 56.4686 81.1314 56.3993C81.0751 55.8026 81.0311 56.2867 81 56.2679C81.3943 56.1118 81.8039 55.9053 82.2299 55.6483C82.6553 55.3918 83.0655 55.1055 83.4598 54.7892C83.8541 54.4735 84.2073 54.1479 84.5207 53.8128C84.8334 53.4784 85.0746 53.1574 85.2436 52.8505L85.7787 52.935C85.9723 53.2231 86.2211 53.5206 86.5251 53.8269C86.8285 54.1338 87.1682 54.4325 87.5437 54.7235C87.9193 55.0145 88.3183 55.2856 88.7408 55.5356C89.1632 55.7862 89.5869 55.9956 90.0129 56.1646C89.9812 56.1899 89.936 56.2397 89.8768 56.3148C89.8169 56.3899 89.7606 56.4639 89.7078 56.5355ZM85.8163 10.1332V11.2128H89.412V13.006H88.8112V11.748H82.1923V13.0154H81.6102V11.2128H85.206V10.1332H85.8163ZM81.6337 18.0241C81.5926 17.9525 81.5504 17.8804 81.507 17.8082C81.463 17.7366 81.4319 17.6908 81.4131 17.6721C81.7382 17.0753 82.0949 17.5031 82.4834 17.3716C82.8712 17.2402 83.2609 17.0841 83.6522 16.9022C84.043 16.7209 84.4156 16.5267 84.7695 16.3201C85.1227 16.1136 85.4278 15.9041 85.6848 15.6911C85.6408 15.5597 85.5939 15.4318 85.544 15.3062C85.4935 15.1812 85.4343 15.0592 85.3656 14.94C85.084 15.1718 84.7425 15.3907 84.3423 15.5972C83.9415 15.8038 83.5237 15.9886 83.0889 16.1511C82.6535 16.3143 82.2358 16.4486 81.8356 16.5548C81.8291 16.5237 81.8074 16.4721 81.7699 16.3999C81.7323 16.3283 81.6959 16.2579 81.6619 16.1887C81.6273 16.12 81.6009 16.0796 81.5821 16.0666C81.8696 16.0103 82.1747 15.9305 82.4975 15.8272C82.8196 15.724 83.1417 15.6037 83.4645 15.4658C83.7866 15.3285 84.09 15.1812 84.3751 15.0245C84.6597 14.8684 84.9056 14.7088 85.1121 14.5457C85.0429 14.4518 84.9695 14.3615 84.8915 14.2735C84.8129 14.186 84.7301 14.1015 84.6427 14.02C84.1979 14.2517 83.7209 14.4612 83.211 14.649C82.7005 14.8368 82.2047 14.9776 81.7229 15.0715C81.7165 15.0468 81.6959 14.9999 81.6619 14.9306C81.6273 14.862 81.5915 14.7916 81.5539 14.7194C81.5164 14.6478 81.4882 14.6021 81.4694 14.5833C82.1953 14.4583 82.8882 14.2582 83.549 13.9824C84.2091 13.7072 84.7741 13.4097 85.2436 13.0905H82.9059V12.5742H88.0695V13.0905H86.0604C85.9348 13.2096 85.7893 13.327 85.6238 13.4426C85.4577 13.5588 85.2776 13.6726 85.084 13.7853C85.2905 13.973 85.483 14.1843 85.6614 14.419C85.8397 14.6537 85.9882 14.9154 86.1073 15.2029C86.3637 15.0656 86.6407 14.9025 86.9382 14.7147C87.2351 14.5269 87.5138 14.3345 87.7738 14.1373C88.0331 13.9402 88.2385 13.7606 88.3887 13.5975L88.8018 14.02C88.5952 14.1954 88.357 14.3756 88.0883 14.5598C87.2908 14.7446 87.5437 14.9201 87.2621 15.0856C86.9804 15.2516 86.7176 15.3971 86.4735 15.5221C86.6859 15.7351 86.9347 15.9493 87.2198 16.1652C87.5044 16.3812 87.8049 16.5818 88.1211 16.7661C88.4368 16.9509 88.7419 17.1123 89.0365 17.2496C89.3305 17.3875 89.5933 17.4843 89.8251 17.5406C89.7999 17.5659 89.7641 17.6146 89.7172 17.6862C89.6702 17.7583 89.6262 17.8334 89.5857 17.9115C89.5446 17.9895 89.5153 18.0447 89.4965 18.0758C89.1585 17.9508 88.7936 17.7818 88.4028 17.5688C88.0114 17.3564 87.6341 17.1135 87.2715 16.8412C86.9083 16.5689 86.5984 16.2861 86.342 15.9915C86.3796 16.2169 86.3983 16.4486 86.3983 16.6863C86.3983 17.381 86.2745 17.8851 86.0275 18.1978C85.7799 18.5106 85.4278 18.6672 84.9713 18.6672H84.2108C84.2044 18.5857 84.1874 18.4871 84.1592 18.3715C84.131 18.2559 84.104 18.1667 84.0794 18.1039H84.915C85.209 18.1039 85.4343 18.0007 85.5909 17.7941C85.747 17.5876 85.8257 17.2249 85.8257 16.7051C85.8257 16.5425 85.8163 16.3829 85.7975 16.2262C85.4783 16.4703 85.0934 16.7191 84.6427 16.9726C84.1921 17.2261 83.7133 17.4597 83.2063 17.6721C82.6993 17.8851 82.2017 18.0541 81.7135 18.179C81.7006 18.1479 81.6742 18.0963 81.6337 18.0241ZM89.1679 50.2875H81.8262V47.0578H82.4364V49.696H85.1966V46.2786H82.1454V43.0959H82.765V45.6965H85.1966V42.3542H85.8163V45.6965H88.2197V43.0959H88.8487V46.2786H85.8163V49.696H88.5483V47.0578H89.1679V50.2875ZM88.9004 34.6862C89.06 35.0964 89.1269 35.5488 89.1022 36.0429C89.0647 36.8127 88.7877 37.4734 88.2713 38.0238C87.755 38.5748 87.0426 38.9533 86.1355 39.1598C86.1102 39.0789 86.0604 38.9785 85.9853 38.8594C85.9101 38.7409 85.8409 38.6499 85.7787 38.5871C86.3232 38.5062 86.7956 38.3401 87.1964 38.0896C87.5965 37.8396 87.9099 37.5327 88.1352 37.1695C88.3605 36.8069 88.4826 36.4184 88.5014 36.0053C88.5201 35.6175 88.4685 35.256 88.3464 34.921C88.2244 34.5865 88.046 34.2919 87.8113 34.0384C87.5766 33.785 87.3008 33.5831 86.9851 33.4329C86.6689 33.2827 86.3291 33.1982 85.9665 33.1794H85.835C85.7975 33.8178 85.7065 34.4533 85.5628 35.0853C85.4184 35.7178 85.2324 36.2981 85.0042 36.8268C84.7753 37.3561 84.5048 37.7926 84.1921 38.1365C84.0102 38.3372 83.8195 38.4575 83.6194 38.498C83.4187 38.539 83.2092 38.5156 82.9903 38.4275C82.7773 38.3401 82.5831 38.1899 82.4083 37.9769C82.2328 37.7645 82.0967 37.5063 81.9999 37.2023C81.9025 36.899 81.8637 36.5686 81.8825 36.2119C81.9072 35.6802 82.031 35.1903 82.2534 34.7426C82.4752 34.2955 82.7744 33.907 83.15 33.5784C83.5255 33.2498 83.9556 32.9999 84.4409 32.8273C84.9255 32.6554 85.4437 32.585 85.9946 32.6161C86.4136 32.6349 86.8144 32.7323 87.1964 32.9071C87.5778 33.0826 87.9175 33.3202 88.215 33.6207C88.5119 33.9211 88.7408 34.2767 88.9004 34.6862ZM83.8447 33.7568C83.4375 34.042 83.1136 34.3987 82.873 34.8271C82.6318 35.256 82.4957 35.7272 82.4646 36.24C82.4458 36.6343 82.5098 36.9741 82.6571 37.2587C82.8038 37.5439 82.9745 37.7363 83.1687 37.8361C83.2497 37.8736 83.3436 37.8912 83.4504 37.8877C83.5566 37.8848 83.6628 37.8267 83.7696 37.714C84.0325 37.4324 84.2672 37.0557 84.4737 36.5827C84.6803 36.1104 84.8493 35.5828 84.9807 35.0008C85.1121 34.4187 85.1966 33.8243 85.2342 33.217C84.7143 33.2921 84.2513 33.4722 83.8447 33.7568ZM83.7978 27.713C84.0542 27.8978 84.4045 28.0199 84.8493 28.0791C85.2934 28.139 85.7987 28.1437 86.3655 28.0932C86.9317 28.0433 87.5279 27.9495 88.154 27.8116C88.1223 27.8996 88.0959 28.0105 88.0742 28.1449C88.0519 28.2798 88.0413 28.3907 88.0413 28.4781C87.5091 28.572 86.9863 28.6395 86.4735 28.68C85.96 28.7205 85.483 28.724 85.0417 28.6894C84.6005 28.6554 84.212 28.5738 83.8776 28.4453C83.5425 28.3174 83.2796 28.1308 83.0889 27.8867C82.8976 27.6426 82.8026 27.3328 82.8026 26.9572C82.8026 26.6445 82.8947 26.3581 83.0795 26.0982C83.2638 25.8388 83.5208 25.5994 83.8494 25.38C84.178 25.1611 84.5547 24.961 84.9807 24.7791C84.7929 24.4165 84.6644 23.9547 84.5958 23.3943C84.5265 22.8345 84.4954 22.1192 84.5019 21.2491H85.1779C85.1338 21.6434 85.118 22.0506 85.1309 22.4696C85.1432 22.8891 85.1825 23.2834 85.2483 23.6525C85.314 24.0222 85.4032 24.3285 85.5158 24.5726C85.8286 24.4599 86.1525 24.3537 86.4875 24.2534C86.822 24.1536 87.1617 24.0627 87.5062 23.9811L87.6752 24.6101C87.0931 24.6981 86.545 24.8231 86.0322 24.9857C85.5188 25.1488 85.0664 25.3348 84.6756 25.5443C84.2842 25.7543 83.9761 25.9779 83.7508 26.2155C83.5255 26.4538 83.4128 26.6943 83.4128 26.9384C83.4128 27.2706 83.5407 27.5287 83.7978 27.713ZM89.4871 7.23213C89.4179 7.43281 89.3492 7.6018 89.2806 7.73911C89.2301 7.85177 89.1492 7.92218 89.0365 7.95035C88.9238 7.97851 88.7953 7.9615 88.6516 7.89871C88.4386 7.80483 88.2021 7.6687 87.9427 7.49032C87.6828 7.31194 87.4229 7.07722 87.1635 6.78618C86.9036 6.49514 86.6577 6.13838 86.4265 5.7159C86.1947 5.29342 85.9976 4.7976 85.835 4.22784H83.0373V6.72516C83.4128 6.65005 83.7895 6.57025 84.1686 6.48575C84.5471 6.40126 84.8944 6.32028 85.2107 6.24165C85.5264 6.16361 85.7723 6.09613 85.9477 6.0398V6.59372C85.7846 6.64418 85.5516 6.70814 85.2483 6.78618C84.9443 6.86481 84.6081 6.94755 84.239 7.03498C83.8693 7.12299 83.4985 7.20749 83.1265 7.28846C82.7539 7.37003 82.413 7.4422 82.1031 7.5044C81.7933 7.56718 81.5475 7.61413 81.3661 7.64523L81.2159 7.07253C81.3345 7.05375 81.4988 7.02559 81.7088 6.98804C81.9183 6.95048 82.1548 6.90706 82.4177 6.8566V-0.212891H88.5577V2.28443H86.0979C86.1226 2.54144 86.1525 2.78554 86.1871 3.01673C86.2211 3.24851 86.2605 3.47089 86.3045 3.68331H89.581V4.22784H86.4547C86.6424 4.84161 86.8725 5.35151 87.1447 5.75815C87.417 6.16537 87.7016 6.48927 87.9991 6.72985C88.296 6.97102 88.5729 7.15409 88.83 7.27908C88.8863 7.13532 88.9438 6.96926 89.0036 6.78149C89.0629 6.59372 89.1175 6.40771 89.1679 6.22288C89.2178 6.03863 89.2554 5.8802 89.2806 5.74876C89.3052 5.76167 89.3569 5.78808 89.4355 5.82856C89.5135 5.86964 89.5933 5.90719 89.6749 5.94123C89.7559 5.97584 89.8093 5.99638 89.8345 6.00225C89.797 6.18415 89.7465 6.38424 89.6843 6.60311C89.6215 6.82256 89.5558 7.03204 89.4871 7.23213ZM83.0373 3.68331H85.7036C85.6097 3.24557 85.544 2.77908 85.5064 2.28443H83.0373V3.68331ZM87.9474 1.7399V0.331638H83.0373V1.7399H87.9474ZM87.7127 55.9769V56.5402H83.3377V55.9769H87.7127ZM89.3275 58.277H85.1591C85.0587 58.4965 84.9431 58.7341 84.8117 58.9905C84.6803 59.2476 84.5453 59.4993 84.408 59.7463C84.2701 59.9939 84.1387 60.2146 84.0137 60.4082C84.4139 60.3648 84.8176 60.3178 85.2248 60.2674C85.6314 60.2175 86.0164 60.1629 86.3796 60.1031C86.7422 60.0438 87.0555 59.9892 87.3184 59.9388C87.1617 59.7575 87.0051 59.5885 86.849 59.4318C86.6923 59.2757 86.5515 59.1443 86.4265 59.0375L86.8865 58.6807C87.0426 58.8122 87.221 58.98 87.4217 59.183C87.6218 59.3866 87.8236 59.6055 88.0272 59.8402C88.2303 60.0749 88.4216 60.3049 88.5999 60.5302C88.7783 60.7556 88.9203 60.9527 89.0271 61.1217C89.0019 61.134 88.952 61.1669 88.8769 61.2203C88.8018 61.2737 88.7279 61.3283 88.6563 61.3846C88.5841 61.4409 88.5389 61.4814 88.5201 61.5066C88.4198 61.3441 88.2995 61.1657 88.1587 60.9715C88.0179 60.7773 87.8659 60.5836 87.7033 60.3894C87.3589 60.471 86.9523 60.5525 86.4828 60.6335C86.0134 60.7151 85.5235 60.7902 85.0136 60.8588C84.5031 60.9275 84.0102 60.9885 83.5349 61.0419C83.059 61.0953 82.6395 61.134 82.2768 61.1593L82.1548 60.5584C82.3109 60.5525 82.4863 60.5432 82.6805 60.5302C82.8742 60.5179 83.0778 60.5021 83.2908 60.4833C83.4034 60.3084 83.5331 60.089 83.6804 59.8261C83.8271 59.5632 83.9714 59.2927 84.1123 59.014C84.2531 58.7359 84.3669 58.49 84.4549 58.277H81.6854V57.7137H89.3275V58.277ZM82.7932 66.7736C82.8683 67.287 82.981 67.7846 83.1312 68.2663C83.2814 68.7486 83.4598 69.1676 83.6663 69.5244C83.7848 69.7186 83.9057 69.8266 84.0278 69.8483C84.1498 69.8706 84.2672 69.8406 84.3798 69.7591C84.5424 69.6464 84.7143 69.4915 84.8962 69.2943C85.0775 69.0972 85.209 68.9176 85.2905 68.7545C85.3339 68.8361 85.392 68.927 85.4642 69.0268C85.5358 69.1271 85.6033 69.2052 85.666 69.2615C85.5909 69.3806 85.4906 69.512 85.3656 69.6558C85.24 69.8001 85.1104 69.9345 84.976 70.0595C84.841 70.1851 84.7114 70.2848 84.5864 70.3599C84.442 70.448 84.2906 70.5043 84.131 70.5289C83.9714 70.5542 83.8148 70.526 83.6616 70.4444C83.5079 70.3635 83.3624 70.2068 83.2251 69.975C83.0496 69.681 82.8918 69.343 82.7509 68.9611C82.6101 68.5797 82.4892 68.1806 82.3895 67.764C82.2891 67.348 82.214 66.932 82.1642 66.5154C82.1137 66.0993 82.092 65.7068 82.0984 65.3371L82.6993 65.3465C82.6864 65.7848 82.7181 66.2607 82.7932 66.7736ZM87.8019 66.2431C87.9674 66.4966 88.1334 66.7659 88.2995 67.0505C88.465 67.3357 88.6123 67.6044 88.7408 67.8579C88.8687 68.1114 88.9643 68.3197 89.0271 68.4822C88.9268 68.501 88.8206 68.5327 88.7079 68.5761C88.5952 68.6201 88.5043 68.6671 88.4356 68.717C88.3793 68.5544 88.2901 68.3479 88.1681 68.0973C88.046 67.8474 87.9081 67.5845 87.755 67.3087C87.6012 67.0335 87.4452 66.7724 87.2856 66.5248C87.126 66.2777 86.9834 66.0788 86.8584 65.9286L87.356 65.6188C87.4874 65.7819 87.6359 65.9896 87.8019 66.2431ZM101.448 89.625V87.5595H100.021V86.9868H101.448V85.0622H102.03V86.9868H103.204V87.5595H102.03V89.4185C102.293 89.3187 102.532 89.2248 102.748 89.1368C102.964 89.0494 103.119 88.9837 103.213 88.9396V89.5123C103.131 89.5563 102.983 89.6238 102.767 89.7142C102.551 89.8051 102.305 89.9037 102.03 90.0099V92.8077C102.03 93.3082 101.748 93.5588 101.185 93.5588H100.5C100.487 93.4772 100.467 93.3739 100.439 93.2489C100.411 93.124 100.384 93.0301 100.359 92.9673H101.082C101.213 92.9673 101.307 92.9438 101.364 92.8969C101.42 92.8499 101.448 92.7672 101.448 92.6481V90.2446C101.141 89.8356 100.855 90.47 100.589 90.5638C100.323 90.6577 100.146 90.7205 100.059 90.7516L99.8895 90.132C100.04 90.0944 100.257 90.0287 100.542 89.9348C100.827 89.8409 101.129 89.7377 101.448 89.625ZM102.11 98.3339C102.451 98.2588 102.795 98.1884 103.143 98.1227C103.49 98.057 103.82 98.0006 104.133 97.9537C104.446 97.9068 104.718 97.8804 104.95 97.8739C105.901 97.8363 106.618 97.9866 107.1 98.3246C107.582 98.6625 107.835 99.1666 107.86 99.8361C107.885 100.425 107.719 100.919 107.363 101.319C107.006 101.72 106.505 102.044 105.861 102.291C105.216 102.538 104.465 102.728 103.607 102.859C103.589 102.772 103.549 102.667 103.49 102.545C103.43 102.423 103.369 102.324 103.307 102.249C104.096 102.155 104.789 102.011 105.386 101.817C105.984 101.623 106.446 101.365 106.771 101.043C107.096 100.72 107.25 100.327 107.231 99.8643C107.212 99.3508 107.015 98.9788 106.64 98.747C106.264 98.5153 105.707 98.4155 104.969 98.4466C104.768 98.453 104.524 98.4765 104.236 98.517C103.948 98.5575 103.641 98.6091 103.316 98.6719C102.991 98.7347 102.667 98.8045 102.345 98.8832C102.022 98.9612 101.721 99.041 101.443 99.1226C101.165 99.2041 100.932 99.2822 100.744 99.3573C100.737 99.3385 100.714 99.2804 100.673 99.1836C100.632 99.0868 100.589 98.9894 100.542 98.8926C100.495 98.7957 100.462 98.7376 100.443 98.7189C100.637 98.669 100.878 98.6109 101.166 98.5452C101.454 98.4795 101.768 98.409 102.11 98.3339ZM104.931 91.3947C105.087 91.5796 105.216 91.7409 105.316 91.8782C105.291 91.8911 105.244 91.9287 105.175 91.9909C105.106 92.0537 105.04 92.1147 104.978 92.174C104.915 92.2338 104.875 92.2725 104.856 92.2913C104.762 92.1476 104.64 91.9833 104.49 91.7984C104.34 91.6142 104.186 91.434 104.03 91.2586C103.873 91.0837 103.739 90.9458 103.626 90.8455L104.058 90.4606C104.164 90.5544 104.297 90.6877 104.457 90.8596C104.617 91.0321 104.774 91.2105 104.931 91.3947ZM108.452 89.7001V90.2446H107.1V92.7983C107.1 93.0612 107.032 93.2536 106.898 93.3757C106.763 93.4977 106.549 93.5588 106.255 93.5588H105.354C105.341 93.4772 105.321 93.3774 105.293 93.2583C105.264 93.1392 105.234 93.0488 105.203 92.9861H106.152C106.283 92.9861 106.377 92.9608 106.433 92.9109C106.49 92.8611 106.518 92.7766 106.518 92.6575V90.2446H103.222V89.7001H106.518V88.5923H103.091V88.0384H105.382V86.8366H103.579V86.3109H105.382V85.0528H105.983V86.3109H107.907V86.8366H105.983V88.0384H108.564V88.5923H107.1V89.7001H108.452ZM104.452 78.4528C104.333 78.3278 104.171 78.2621 103.964 78.2556C103.62 78.2368 103.26 78.2979 102.884 78.4387C102.509 78.5795 102.19 78.7907 101.927 79.0724C101.808 79.2038 101.69 79.3277 101.575 79.4433C101.459 79.5594 101.345 79.6703 101.232 79.7765L100.781 79.3259C101.244 78.9879 101.672 78.5736 102.063 78.0819C102.454 77.5908 102.775 77.0885 103.025 76.5751C102.606 76.6003 102.224 76.6161 101.88 76.622C101.535 76.6285 101.282 76.6285 101.119 76.622L101.091 76.0212C101.285 76.0399 101.582 76.0493 101.983 76.0493C102.383 76.0493 102.815 76.037 103.279 76.0118C103.373 75.7741 103.446 75.5394 103.499 75.3076C103.552 75.0765 103.579 74.8605 103.579 74.6598L104.199 74.6974C104.186 74.9104 104.157 75.1216 104.11 75.3311C104.063 75.5412 104.005 75.7554 103.936 75.9742C104.436 75.9431 104.908 75.9026 105.349 75.8522C105.79 75.8023 106.123 75.746 106.349 75.6832L106.405 76.2559C106.23 76.2934 105.998 76.3298 105.71 76.3638C104.894 76.3985 105.108 76.4296 104.767 76.4577C104.425 76.4859 104.077 76.5129 103.72 76.5375C103.607 76.7881 103.468 77.048 103.302 77.3168C103.136 77.5861 102.962 77.8396 102.781 78.0772C102.962 77.9646 103.172 77.8801 103.41 77.8237C103.648 77.7674 103.864 77.7392 104.058 77.7392C104.79 77.7392 105.175 78.1805 105.213 79.063C105.601 78.9193 105.988 78.7925 106.377 78.6828C106.765 78.5736 107.112 78.4844 107.419 78.4152L107.597 78.9785C107.178 79.0478 106.767 79.1369 106.363 79.2461C105.959 79.3558 105.579 79.4796 105.222 79.6169V80.9501H104.631V79.8516C104.199 80.0459 103.848 80.2553 103.579 80.4807C103.31 80.706 103.175 80.9254 103.175 81.1379C103.175 81.4007 103.332 81.595 103.645 81.7199C103.958 81.8455 104.374 81.9077 104.894 81.9077C105.181 81.9077 105.499 81.8831 105.846 81.8326C106.194 81.7827 106.521 81.7105 106.828 81.6167C106.821 81.6484 106.823 81.7047 106.832 81.7857C106.842 81.8672 106.852 81.9488 106.865 82.0298C106.871 82.0802 106.876 82.1225 106.879 82.1565C106.882 82.1911 106.884 82.2175 106.884 82.2363C106.565 82.3179 106.236 82.3801 105.898 82.4241C105.56 82.4681 105.241 82.4898 104.94 82.4898C104.49 82.4898 104.087 82.4428 103.734 82.349C103.38 82.2551 103.1 82.1131 102.894 81.9218C102.687 81.7311 102.584 81.4852 102.584 81.1848C102.584 80.9219 102.676 80.6767 102.861 80.4478C103.045 80.2196 103.293 80.0083 103.603 79.8141C103.912 79.6204 104.255 79.445 104.631 79.2883V79.1663C104.631 78.816 104.571 78.5783 104.452 78.4528ZM108.602 71.3927C108.589 71.4243 108.569 71.4818 108.541 71.5663C108.513 71.6508 108.489 71.7336 108.471 71.8151C108.452 71.8967 108.439 71.953 108.433 71.9841C107.413 71.9589 106.511 71.8404 105.729 71.6274C104.946 71.415 103.721 71.077 103.636 70.6134C103.254 71.033 102.77 71.3586 102.185 71.5898C101.599 71.8216 100.953 71.9965 100.246 72.1156C100.233 72.0845 100.212 72.0311 100.181 71.956C100.149 71.8809 100.118 71.8075 100.087 71.7353C100.055 71.6632 100.03 71.6115 100.012 71.5804C100.719 71.4742 101.343 71.3211 101.885 71.1204C102.426 70.9203 102.866 70.6293 103.204 70.2473C102.759 69.8283 102.355 69.3272 101.993 68.7451L102.471 68.4822C102.634 68.7328 102.805 68.9646 102.983 69.177C103.161 69.39 103.347 69.5872 103.542 69.7685C103.767 69.3554 103.898 68.8425 103.936 68.2288H100.997V65.2245H103.955V63.6848H104.556V65.2245H107.579V68.2288H104.546C104.521 68.6172 104.462 68.9693 104.368 69.285C104.274 69.6012 104.148 69.8876 103.992 70.144C104.605 70.6011 105.289 70.9156 106.044 71.0875C106.798 71.26 107.65 71.3616 108.602 71.3927ZM104.556 67.6655H106.968V65.7878H104.556V67.6655ZM103.955 65.7878H101.617V67.6655H103.955V65.7878ZM103.945 56.1271C104.096 56.265 104.252 56.3964 104.415 56.5214C104.577 56.647 104.727 56.7532 104.865 56.8406C104.847 56.8535 104.812 56.8893 104.762 56.9486C104.712 57.0084 104.664 57.0659 104.617 57.1222C104.57 57.1786 104.54 57.2161 104.527 57.2349C104.371 57.1164 104.208 56.9785 104.039 56.8218C103.87 56.6657 103.711 56.5091 103.56 56.3524V58.0517H103.025V56.3148C102.831 56.5842 102.618 56.8488 102.387 57.1082C102.155 57.3681 101.92 57.5952 101.683 57.7888C101.651 57.7577 101.59 57.6985 101.5 57.6104C101.409 57.523 101.345 57.4667 101.307 57.4415C101.495 57.3041 101.686 57.1352 101.88 56.9345C102.074 56.7344 102.26 56.5249 102.438 56.3055C102.617 56.0866 102.768 55.88 102.894 55.6858H101.73V55.2258H103.025V54.3433H103.56V55.2258H104.678V55.6858H103.56V55.7515C103.667 55.8642 103.795 55.9898 103.945 56.1271ZM108.32 60.549V61.0654H101.457V60.549H102.894V58.493H103.476V60.549H104.715V58.0423H105.297V59.0469H107.532V59.5632H105.297V60.549H108.32Z" fill="white"/>
</g>
<defs>
<clipPath id="clip0_1146_2583">
<rect width="109" height="183" fill="white"/>
</clipPath>
</defs>
</svg>
