<svg width="367" height="103" viewBox="0 0 367 103" fill="none" xmlns="http://www.w3.org/2000/svg">
<path d="M29.616 25.404C29.616 25.3347 29.5813 25.8027 29.512 26.808C29.3733 28.8187 29.304 30.76 29.304 32.632C29.304 32.84 29.3387 33.2733 29.408 33.932C29.4773 34.556 29.512 35.3187 29.512 36.22V36.688C29.512 37.1387 29.3733 37.364 29.096 37.364C28.8187 37.364 28.576 37.104 28.368 36.584C27.8827 35.44 27.3973 34.6947 26.912 34.348C24.416 36.532 21.4173 37.624 17.916 37.624C12.82 37.624 8.59067 35.856 5.228 32.32C1.9 28.7493 0.236 24.26 0.236 18.852C0.236 13.4093 1.76133 8.972 4.812 5.54C7.89733 2.07333 11.8667 0.339998 16.72 0.339998C18.488 0.339998 19.892 0.495998 20.932 0.807998C22.0067 1.08533 23.324 1.67466 24.884 2.576C25.6467 3.02666 26.2187 3.252 26.6 3.252C26.912 3.252 27.2067 2.97466 27.484 2.42C27.9347 1.44933 28.2987 0.963999 28.576 0.963999C28.8533 0.963999 28.992 1.10266 28.992 1.38C28.992 1.51866 28.9573 1.744 28.888 2.056C28.5067 3.72 28.316 6.84 28.316 11.416C28.316 12.0747 28.264 12.456 28.16 12.56C28.056 12.664 27.9173 12.716 27.744 12.716C27.3973 12.716 27.172 12.3867 27.068 11.728C26.6173 8.95466 25.976 6.892 25.144 5.54C23.4453 2.76666 20.776 1.38 17.136 1.38C14.328 1.38 12.1093 2.316 10.48 4.188C7.53333 7.55066 6.06 12.4733 6.06 18.956C6.06 24.7453 7.27333 29.2347 9.7 32.424C11.8147 35.1973 14.6227 36.584 18.124 36.584C19.9267 36.584 21.5733 36.1507 23.064 35.284C24.5547 34.3827 25.6987 33.1693 26.496 31.644C27.3973 29.876 28.0387 27.952 28.42 25.872C28.5587 25.04 28.784 24.624 29.096 24.624C29.4427 24.624 29.616 24.884 29.616 25.404ZM54.8527 25.768C54.8527 29.1307 53.83 31.956 51.7847 34.244C49.7393 36.4973 47.1913 37.624 44.1407 37.624C40.986 37.624 38.3513 36.4973 36.2367 34.244C34.122 31.956 33.0647 29.1307 33.0647 25.768C33.0647 22.3013 34.0873 19.424 36.1327 17.136C38.2127 14.848 40.7953 13.704 43.8807 13.704C47.0007 13.704 49.6007 14.8653 51.6807 17.188C53.7953 19.476 54.8527 22.336 54.8527 25.768ZM50.1207 25.716C50.1207 21.9027 49.5313 18.9387 48.3527 16.824C47.486 15.264 46.03 14.484 43.9847 14.484C42.0433 14.484 40.518 15.4893 39.4087 17.5C38.334 19.476 37.7967 22.232 37.7967 25.768C37.7967 29.2693 38.3687 32.008 39.5127 33.984C40.6913 35.9253 42.3207 36.896 44.4007 36.896C45.9953 36.896 47.174 36.2893 47.9367 35.076C49.3927 32.788 50.1207 29.668 50.1207 25.716ZM92.473 36.688C92.473 36.9653 92.1784 37.104 91.589 37.104C91.5197 37.104 91.1384 37.0867 90.445 37.052C89.7864 37.0173 88.885 37 87.741 37C87.637 37 85.7997 37.0347 82.229 37.104C81.7784 37.104 81.553 36.9827 81.553 36.74C81.553 36.4627 81.7437 36.324 82.125 36.324H82.541L83.841 36.272C84.361 36.2373 84.6557 36.116 84.725 35.908C84.829 35.7 84.881 34.972 84.881 33.724V20.828C84.881 18.8173 84.6037 17.396 84.049 16.564C83.529 15.6973 82.6277 15.264 81.345 15.264C80.4437 15.264 79.5944 15.5413 78.797 16.096C78.0344 16.616 77.497 17.292 77.185 18.124C77.0464 18.644 76.977 20.568 76.977 23.896V33.724C76.977 34.868 76.9944 35.5267 77.029 35.7C77.133 36.116 77.445 36.324 77.965 36.324H79.473C79.9237 36.324 80.149 36.4627 80.149 36.74C80.149 36.9827 79.889 37.104 79.369 37.104H79.005C78.6584 37.0347 77.4797 37 75.469 37C74.7757 37 73.8397 37.0173 72.661 37.052C71.517 37.0867 70.8237 37.104 70.581 37.104H70.009C69.593 37.104 69.385 36.9653 69.385 36.688C69.385 36.5147 69.489 36.4107 69.697 36.376C69.905 36.3413 70.5984 36.324 71.777 36.324C72.3317 36.2893 72.6264 36.116 72.661 35.804L72.713 35.076V20.568C72.713 18.5573 72.453 17.1707 71.933 16.408C71.4477 15.6453 70.5637 15.264 69.281 15.264C67.9984 15.264 66.9237 15.6627 66.057 16.46C65.225 17.2573 64.809 18.2627 64.809 19.476V34.244C64.809 35.284 64.8784 35.908 65.017 36.116C65.1904 36.2893 65.7104 36.376 66.577 36.376H66.993C67.201 36.3413 67.3917 36.324 67.565 36.324C67.9464 36.324 68.137 36.4627 68.137 36.74C68.137 36.9827 67.9117 37.104 67.461 37.104H66.941C66.109 37 64.809 36.9653 63.041 37L57.945 37.104C57.4597 37.104 57.217 36.9653 57.217 36.688C57.217 36.4453 57.4424 36.324 57.893 36.324C59.2104 36.324 59.973 36.272 60.181 36.168C60.389 36.0293 60.5104 35.804 60.545 35.492V21.972C60.545 19.372 60.493 17.8467 60.389 17.396C60.285 16.9453 59.7824 16.72 58.881 16.72H58.153C57.841 16.7547 57.5117 16.772 57.165 16.772C56.7144 16.772 56.489 16.6507 56.489 16.408C56.489 16.2 56.5584 16.0787 56.697 16.044C56.8704 16.0093 57.4424 15.9573 58.413 15.888C59.2104 15.8533 60.1984 15.6453 61.377 15.264C62.5904 14.8827 63.2837 14.5533 63.457 14.276C63.8384 13.8947 64.1157 13.704 64.289 13.704C64.4624 13.704 64.5664 13.8427 64.601 14.12C64.6357 14.3973 64.6704 15.368 64.705 17.032C66.0917 14.8133 68.2237 13.704 71.101 13.704C74.1864 13.704 76.0584 14.8653 76.717 17.188C78.069 14.8653 80.2357 13.704 83.217 13.704C85.7824 13.704 87.5157 14.6227 88.417 16.46C88.9024 17.4307 89.145 19.0427 89.145 21.296V34.14C89.145 35.3187 89.197 35.9773 89.301 36.116C89.4397 36.22 89.9944 36.3067 90.965 36.376L91.901 36.324C92.2824 36.2893 92.473 36.4107 92.473 36.688ZM128.516 36.688C128.516 36.9653 128.221 37.104 127.632 37.104C127.562 37.104 127.181 37.0867 126.488 37.052C125.829 37.0173 124.928 37 123.784 37C123.68 37 121.842 37.0347 118.272 37.104C117.821 37.104 117.596 36.9827 117.596 36.74C117.596 36.4627 117.786 36.324 118.168 36.324H118.584L119.884 36.272C120.404 36.2373 120.698 36.116 120.768 35.908C120.872 35.7 120.924 34.972 120.924 33.724V20.828C120.924 18.8173 120.646 17.396 120.092 16.564C119.572 15.6973 118.67 15.264 117.388 15.264C116.486 15.264 115.637 15.5413 114.84 16.096C114.077 16.616 113.54 17.292 113.228 18.124C113.089 18.644 113.02 20.568 113.02 23.896V33.724C113.02 34.868 113.037 35.5267 113.072 35.7C113.176 36.116 113.488 36.324 114.008 36.324H115.516C115.966 36.324 116.192 36.4627 116.192 36.74C116.192 36.9827 115.932 37.104 115.412 37.104H115.048C114.701 37.0347 113.522 37 111.512 37C110.818 37 109.882 37.0173 108.704 37.052C107.56 37.0867 106.866 37.104 106.624 37.104H106.052C105.636 37.104 105.428 36.9653 105.428 36.688C105.428 36.5147 105.532 36.4107 105.74 36.376C105.948 36.3413 106.641 36.324 107.82 36.324C108.374 36.2893 108.669 36.116 108.704 35.804L108.756 35.076V20.568C108.756 18.5573 108.496 17.1707 107.976 16.408C107.49 15.6453 106.606 15.264 105.324 15.264C104.041 15.264 102.966 15.6627 102.1 16.46C101.268 17.2573 100.852 18.2627 100.852 19.476V34.244C100.852 35.284 100.921 35.908 101.06 36.116C101.233 36.2893 101.753 36.376 102.62 36.376H103.036C103.244 36.3413 103.434 36.324 103.608 36.324C103.989 36.324 104.18 36.4627 104.18 36.74C104.18 36.9827 103.954 37.104 103.504 37.104H102.984C102.152 37 100.852 36.9653 99.0835 37L93.9875 37.104C93.5022 37.104 93.2595 36.9653 93.2595 36.688C93.2595 36.4453 93.4849 36.324 93.9355 36.324C95.2529 36.324 96.0155 36.272 96.2235 36.168C96.4315 36.0293 96.5529 35.804 96.5875 35.492V21.972C96.5875 19.372 96.5355 17.8467 96.4315 17.396C96.3275 16.9453 95.8249 16.72 94.9235 16.72H94.1955C93.8835 16.7547 93.5542 16.772 93.2075 16.772C92.7569 16.772 92.5315 16.6507 92.5315 16.408C92.5315 16.2 92.6009 16.0787 92.7395 16.044C92.9129 16.0093 93.4849 15.9573 94.4555 15.888C95.2529 15.8533 96.2409 15.6453 97.4195 15.264C98.6329 14.8827 99.3262 14.5533 99.4995 14.276C99.8809 13.8947 100.158 13.704 100.332 13.704C100.505 13.704 100.609 13.8427 100.644 14.12C100.678 14.3973 100.713 15.368 100.748 17.032C102.134 14.8133 104.266 13.704 107.144 13.704C110.229 13.704 112.101 14.8653 112.76 17.188C114.112 14.8653 116.278 13.704 119.26 13.704C121.825 13.704 123.558 14.6227 124.46 16.46C124.945 17.4307 125.188 19.0427 125.188 21.296V34.14C125.188 35.3187 125.24 35.9773 125.344 36.116C125.482 36.22 126.037 36.3067 127.008 36.376L127.944 36.324C128.325 36.2893 128.516 36.4107 128.516 36.688ZM136.686 4.292C136.686 5.852 135.906 6.632 134.346 6.632C133.687 6.632 133.133 6.424 132.682 6.008C132.231 5.55733 132.006 5.02 132.006 4.396C132.006 2.76667 132.786 1.952 134.346 1.952C135.906 1.952 136.686 2.732 136.686 4.292ZM140.586 36.688C140.586 37 140.291 37.156 139.702 37.156C139.737 37.156 139.321 37.1213 138.454 37.052C137.414 36.9827 136.547 36.948 135.854 36.948L130.446 37.052C130.273 37.0867 130.065 37.104 129.822 37.104C129.441 37.104 129.25 36.9827 129.25 36.74C129.25 36.3933 129.597 36.22 130.29 36.22C131.607 36.1853 132.318 36.0987 132.422 35.96C132.561 35.7867 132.63 35.0587 132.63 33.776L132.578 18.02C132.543 17.1533 132.491 16.6507 132.422 16.512C132.387 16.3387 132.179 16.252 131.798 16.252L130.29 16.304C130.151 16.3387 129.978 16.356 129.77 16.356C129.389 16.356 129.198 16.2173 129.198 15.94C129.198 15.6973 129.493 15.5587 130.082 15.524C132.405 15.42 134.398 14.8653 136.062 13.86L136.582 13.548C136.859 14.068 136.998 15.0213 136.998 16.408C136.998 16.3387 136.998 16.512 136.998 16.928C136.963 17.344 136.946 18.02 136.946 18.956V33.152C136.946 34.5387 136.963 35.3533 136.998 35.596C137.067 35.8387 137.258 35.9947 137.57 36.064C138.09 36.2027 138.853 36.272 139.858 36.272C140.343 36.272 140.586 36.4107 140.586 36.688ZM156.289 33.932C156.289 34.244 155.855 34.7987 154.989 35.596C153.498 36.948 151.73 37.624 149.685 37.624C147.778 37.624 146.339 37.1387 145.369 36.168C144.814 35.6133 144.537 33.984 144.537 31.28V15.784C144.502 15.4373 144.311 15.2467 143.965 15.212H141.989C141.226 15.212 140.845 15.0907 140.845 14.848C140.845 14.6053 141.035 14.4667 141.417 14.432C144.121 14.1893 146.235 12.872 147.761 10.48C147.969 10.168 148.229 10.012 148.541 10.012C148.783 10.012 148.905 10.1333 148.905 10.376V10.584C148.87 10.7573 148.853 11.052 148.853 11.468C148.853 12.924 148.922 13.86 149.061 14.276C149.373 14.3453 149.893 14.38 150.621 14.38C152.527 14.38 153.793 14.2933 154.417 14.12C154.555 14.0853 154.677 14.068 154.781 14.068C155.058 14.068 155.197 14.224 155.197 14.536C155.197 15.056 153.793 15.316 150.985 15.316C150.499 15.316 149.789 15.2987 148.853 15.264V24.884C148.853 29.7373 148.974 32.788 149.217 34.036C149.459 35.2493 150.257 35.856 151.609 35.856C152.753 35.856 154.035 35.2147 155.457 33.932C155.595 33.7587 155.751 33.672 155.925 33.672C156.167 33.672 156.289 33.7587 156.289 33.932ZM191.346 36.688C191.346 36.9653 191.051 37.104 190.462 37.104C190.393 37.104 190.011 37.0867 189.318 37.052C188.659 37.0173 187.758 37 186.614 37C186.51 37 184.673 37.0347 181.102 37.104C180.651 37.104 180.426 36.9827 180.426 36.74C180.426 36.4627 180.617 36.324 180.998 36.324H181.414L182.714 36.272C183.234 36.2373 183.529 36.116 183.598 35.908C183.702 35.7 183.754 34.972 183.754 33.724V20.828C183.754 18.8173 183.477 17.396 182.922 16.564C182.402 15.6973 181.501 15.264 180.218 15.264C179.317 15.264 178.467 15.5413 177.67 16.096C176.907 16.616 176.37 17.292 176.058 18.124C175.919 18.644 175.85 20.568 175.85 23.896V33.724C175.85 34.868 175.867 35.5267 175.902 35.7C176.006 36.116 176.318 36.324 176.838 36.324H178.346C178.797 36.324 179.022 36.4627 179.022 36.74C179.022 36.9827 178.762 37.104 178.242 37.104H177.878C177.531 37.0347 176.353 37 174.342 37C173.649 37 172.713 37.0173 171.534 37.052C170.39 37.0867 169.697 37.104 169.454 37.104H168.882C168.466 37.104 168.258 36.9653 168.258 36.688C168.258 36.5147 168.362 36.4107 168.57 36.376C168.778 36.3413 169.471 36.324 170.65 36.324C171.205 36.2893 171.499 36.116 171.534 35.804L171.586 35.076V20.568C171.586 18.5573 171.326 17.1707 170.806 16.408C170.321 15.6453 169.437 15.264 168.154 15.264C166.871 15.264 165.797 15.6627 164.93 16.46C164.098 17.2573 163.682 18.2627 163.682 19.476V34.244C163.682 35.284 163.751 35.908 163.89 36.116C164.063 36.2893 164.583 36.376 165.45 36.376H165.866C166.074 36.3413 166.265 36.324 166.438 36.324C166.819 36.324 167.01 36.4627 167.01 36.74C167.01 36.9827 166.785 37.104 166.334 37.104H165.814C164.982 37 163.682 36.9653 161.914 37L156.818 37.104C156.333 37.104 156.09 36.9653 156.09 36.688C156.09 36.4453 156.315 36.324 156.766 36.324C158.083 36.324 158.846 36.272 159.054 36.168C159.262 36.0293 159.383 35.804 159.418 35.492V21.972C159.418 19.372 159.366 17.8467 159.262 17.396C159.158 16.9453 158.655 16.72 157.754 16.72H157.026C156.714 16.7547 156.385 16.772 156.038 16.772C155.587 16.772 155.362 16.6507 155.362 16.408C155.362 16.2 155.431 16.0787 155.57 16.044C155.743 16.0093 156.315 15.9573 157.286 15.888C158.083 15.8533 159.071 15.6453 160.25 15.264C161.463 14.8827 162.157 14.5533 162.33 14.276C162.711 13.8947 162.989 13.704 163.162 13.704C163.335 13.704 163.439 13.8427 163.474 14.12C163.509 14.3973 163.543 15.368 163.578 17.032C164.965 14.8133 167.097 13.704 169.974 13.704C173.059 13.704 174.931 14.8653 175.59 17.188C176.942 14.8653 179.109 13.704 182.09 13.704C184.655 13.704 186.389 14.6227 187.29 16.46C187.775 17.4307 188.018 19.0427 188.018 21.296V34.14C188.018 35.3187 188.07 35.9773 188.174 36.116C188.313 36.22 188.867 36.3067 189.838 36.376L190.774 36.324C191.155 36.2893 191.346 36.4107 191.346 36.688ZM211.841 31.332C211.841 31.6787 211.563 32.3027 211.009 33.204C210.489 34.0707 209.951 34.7813 209.397 35.336C207.906 36.8613 205.913 37.624 203.417 37.624C200.297 37.624 197.679 36.4973 195.565 34.244C193.485 31.9907 192.445 29.2 192.445 25.872C192.445 22.4053 193.433 19.5107 195.409 17.188C197.419 14.8653 199.915 13.704 202.897 13.704C205.358 13.704 207.421 14.432 209.085 15.888C210.749 17.3093 211.633 19.1467 211.737 21.4C210.627 21.5733 209.154 21.6427 207.317 21.608L203.677 21.556C203.434 21.556 201.354 21.608 197.437 21.712C197.263 22.856 197.177 23.948 197.177 24.988C197.177 28.4893 197.835 31.1933 199.153 33.1C200.505 34.972 202.394 35.908 204.821 35.908C206.207 35.908 207.317 35.596 208.149 34.972C208.981 34.348 209.882 33.152 210.853 31.384C210.991 31.1067 211.182 30.968 211.425 30.968C211.702 30.968 211.841 31.0893 211.841 31.332ZM207.317 20.724C207.178 16.564 205.687 14.484 202.845 14.484C200.037 14.484 198.286 16.564 197.593 20.724H207.317ZM237.876 36.688C237.876 36.9653 237.616 37.104 237.096 37.104H236.472C235.848 37.0347 234.999 37 233.924 37C230.527 37 228.516 37.0347 227.892 37.104H227.528C227.078 37.104 226.852 36.9827 226.852 36.74C226.852 36.5667 226.939 36.4627 227.112 36.428C227.32 36.3933 227.996 36.3587 229.14 36.324C229.799 36.2893 230.18 36.2027 230.284 36.064C230.388 35.8907 230.44 35.3187 230.44 34.348V24.364C230.44 20.5853 230.302 18.332 230.024 17.604C229.435 16.044 228.256 15.264 226.488 15.264C224.755 15.264 223.299 16.0267 222.12 17.552C221.774 18.0027 221.6 18.6267 221.6 19.424L221.652 35.648C221.652 36.064 222.016 36.2893 222.744 36.324L224.304 36.376C224.651 36.376 224.824 36.4973 224.824 36.74C224.824 36.9827 224.616 37.104 224.2 37.104H223.368C222.606 37.0347 221.392 37 219.728 37C219.347 37 218.515 37.0173 217.232 37.052C215.984 37.0867 215.256 37.104 215.048 37.104H214.736C214.216 37.104 213.956 36.9827 213.956 36.74C213.956 36.4973 214.268 36.3413 214.892 36.272C215.343 36.272 215.776 36.272 216.192 36.272C216.712 36.272 217.024 36.1507 217.128 35.908L217.284 35.128V23.792C217.284 19.84 217.25 17.656 217.18 17.24C217.111 16.824 216.678 16.616 215.88 16.616C215.638 16.616 215.222 16.6507 214.632 16.72H214.372C213.679 16.72 213.332 16.5987 213.332 16.356C213.332 16.044 213.696 15.888 214.424 15.888C215.464 15.8533 216.591 15.6627 217.804 15.316C219.018 14.9693 219.867 14.5707 220.352 14.12C220.664 13.8427 220.907 13.704 221.08 13.704C221.323 13.704 221.444 14.0333 221.444 14.692V17.188C223.247 14.8653 225.57 13.704 228.412 13.704C230.908 13.704 232.711 14.6227 233.82 16.46C234.444 17.5 234.756 19.476 234.756 22.388V34.244C234.756 35.3533 234.808 35.96 234.912 36.064C235.12 36.272 235.623 36.376 236.42 36.376C236.524 36.376 236.715 36.3587 236.992 36.324H237.356C237.703 36.324 237.876 36.4453 237.876 36.688ZM253.334 33.932C253.334 34.244 252.9 34.7987 252.034 35.596C250.543 36.948 248.775 37.624 246.73 37.624C244.823 37.624 243.384 37.1387 242.414 36.168C241.859 35.6133 241.582 33.984 241.582 31.28V15.784C241.547 15.4373 241.356 15.2467 241.01 15.212H239.034C238.271 15.212 237.89 15.0907 237.89 14.848C237.89 14.6053 238.08 14.4667 238.462 14.432C241.166 14.1893 243.28 12.872 244.806 10.48C245.014 10.168 245.274 10.012 245.586 10.012C245.828 10.012 245.95 10.1333 245.95 10.376V10.584C245.915 10.7573 245.898 11.052 245.898 11.468C245.898 12.924 245.967 13.86 246.106 14.276C246.418 14.3453 246.938 14.38 247.666 14.38C249.572 14.38 250.838 14.2933 251.462 14.12C251.6 14.0853 251.722 14.068 251.826 14.068C252.103 14.068 252.242 14.224 252.242 14.536C252.242 15.056 250.838 15.316 248.03 15.316C247.544 15.316 246.834 15.2987 245.898 15.264V24.884C245.898 29.7373 246.019 32.788 246.262 34.036C246.504 35.2493 247.302 35.856 248.654 35.856C249.798 35.856 251.08 35.2147 252.502 33.932C252.64 33.7587 252.796 33.672 252.97 33.672C253.212 33.672 253.334 33.7587 253.334 33.932ZM276.72 33.932C276.72 34.244 276.286 34.7987 275.42 35.596C273.929 36.948 272.161 37.624 270.116 37.624C268.209 37.624 266.77 37.1387 265.8 36.168C265.245 35.6133 264.968 33.984 264.968 31.28V15.784C264.933 15.4373 264.742 15.2467 264.396 15.212H262.42C261.657 15.212 261.276 15.0907 261.276 14.848C261.276 14.6053 261.466 14.4667 261.848 14.432C264.552 14.1893 266.666 12.872 268.192 10.48C268.4 10.168 268.66 10.012 268.972 10.012C269.214 10.012 269.336 10.1333 269.336 10.376V10.584C269.301 10.7573 269.284 11.052 269.284 11.468C269.284 12.924 269.353 13.86 269.492 14.276C269.804 14.3453 270.324 14.38 271.052 14.38C272.958 14.38 274.224 14.2933 274.848 14.12C274.986 14.0853 275.108 14.068 275.212 14.068C275.489 14.068 275.628 14.224 275.628 14.536C275.628 15.056 274.224 15.316 271.416 15.316C270.93 15.316 270.22 15.2987 269.284 15.264V24.884C269.284 29.7373 269.405 32.788 269.648 34.036C269.89 35.2493 270.688 35.856 272.04 35.856C273.184 35.856 274.466 35.2147 275.888 33.932C276.026 33.7587 276.182 33.672 276.356 33.672C276.598 33.672 276.72 33.7587 276.72 33.932ZM298.621 25.768C298.621 29.1307 297.598 31.956 295.553 34.244C293.508 36.4973 290.96 37.624 287.909 37.624C284.754 37.624 282.12 36.4973 280.005 34.244C277.89 31.956 276.833 29.1307 276.833 25.768C276.833 22.3013 277.856 19.424 279.901 17.136C281.981 14.848 284.564 13.704 287.649 13.704C290.769 13.704 293.369 14.8653 295.449 17.188C297.564 19.476 298.621 22.336 298.621 25.768ZM293.889 25.716C293.889 21.9027 293.3 18.9387 292.121 16.824C291.254 15.264 289.798 14.484 287.753 14.484C285.812 14.484 284.286 15.4893 283.177 17.5C282.102 19.476 281.565 22.232 281.565 25.768C281.565 29.2693 282.137 32.008 283.281 33.984C284.46 35.9253 286.089 36.896 288.169 36.896C289.764 36.896 290.942 36.2893 291.705 35.076C293.161 32.788 293.889 29.668 293.889 25.716ZM33.308 71.216C33.308 75.9653 32.0427 80.004 29.512 83.332C26.9813 86.66 23.6013 88.7053 19.372 89.468V91.08C19.372 93.8187 19.8747 95.6907 20.88 96.696C21.92 97.736 23.792 98.256 26.496 98.256C26.808 98.256 27.2587 98.2213 27.848 98.152C28.472 98.1173 28.94 98.1 29.252 98.1C29.8067 98.1 30.084 98.2907 30.084 98.672C30.084 98.9493 29.564 99.192 28.524 99.4C26.652 99.7467 24.7107 99.92 22.7 99.92C19.3373 99.92 16.876 98.932 15.316 96.956C14.4493 95.8467 14.016 93.9053 14.016 91.132V89.936L14.068 89.26C10.74 88.428 8.12267 87.1453 6.216 85.412C2.22933 81.8067 0.236 76.9707 0.236 70.904C0.236 67.576 0.929333 64.4733 2.316 61.596C3.70267 58.684 5.57467 56.4133 7.932 54.784C10.324 53.1547 13.2013 52.34 16.564 52.34C20.5853 52.34 23.9307 53.484 26.6 55.772C28.7147 57.5747 30.3613 59.8453 31.54 62.584C32.7187 65.288 33.308 68.1653 33.308 71.216ZM27.484 71.58C27.484 65.2707 26.2707 60.348 23.844 56.812C22.2147 54.42 19.9093 53.224 16.928 53.224C13.4267 53.224 10.74 54.7667 8.868 57.852C6.996 60.9027 6.06 65.3053 6.06 71.06C6.06 76.78 7.01333 81.1653 8.92 84.216C10.8613 87.2667 13.6347 88.792 17.24 88.792C21.1573 88.792 23.9653 86.7813 25.664 82.76C26.8773 79.8827 27.484 76.156 27.484 71.58ZM61.0073 87.232C61.0073 87.4747 60.626 87.6133 59.8633 87.648C57.1593 87.8213 54.7847 88.4107 52.7393 89.416C52.6007 89.4853 52.4793 89.52 52.3753 89.52C52.1673 89.52 52.0633 89.3813 52.0633 89.104L52.1153 86.192C50.5207 88.48 48.2847 89.624 45.4073 89.624C42.842 89.624 41.0047 88.8787 39.8953 87.388C39.4447 86.764 39.1673 86.192 39.0633 85.672C38.994 85.152 38.9593 83.748 38.9593 81.46V69.552C38.9593 68.3387 38.89 67.628 38.7513 67.42C38.6127 67.212 38.1447 67.0907 37.3473 67.056L36.6713 67.108C35.7353 67.1773 35.2673 67.0387 35.2673 66.692C35.2673 66.4493 35.562 66.328 36.1513 66.328C36.7753 66.328 37.6767 66.3627 38.8553 66.432C39.4447 66.4667 39.7913 66.484 39.8953 66.484C41.1087 66.484 42.2353 66.432 43.2753 66.328V80.836C43.2753 83.5053 43.4487 85.2733 43.7953 86.14C44.35 87.492 45.4767 88.168 47.1753 88.168C49.0127 88.168 50.3647 87.4053 51.2313 85.88C51.8553 84.7707 52.1673 83.0027 52.1673 80.576V72.516C52.1673 71.3373 52.15 70.4533 52.1153 69.864L52.0113 68.148C51.9767 67.628 51.8553 67.3333 51.6473 67.264C51.474 67.16 51.0927 67.108 50.5033 67.108C49.0473 67.1427 48.3193 66.9867 48.3193 66.64C48.3193 66.432 48.6833 66.328 49.4113 66.328H49.8793C50.1567 66.3627 51.0753 66.38 52.6353 66.38C54.7153 66.38 55.998 66.3627 56.4833 66.328V80.836C56.4833 83.332 56.5353 84.9093 56.6393 85.568C56.7433 86.2267 57.0033 86.608 57.4193 86.712C57.87 86.816 58.858 86.868 60.3833 86.868C60.7993 86.868 61.0073 86.9893 61.0073 87.232ZM82.2875 86.66C82.2875 87.2493 81.6635 87.8733 80.4155 88.532C79.2022 89.156 78.0235 89.468 76.8795 89.468C74.4875 89.468 73.2395 88.2373 73.1355 85.776C71.8182 88.3413 69.7729 89.624 66.9995 89.624C65.5089 89.624 64.2782 89.1907 63.3075 88.324C62.3369 87.4227 61.8515 86.2787 61.8515 84.892C61.8515 82.0493 63.5675 79.796 66.9995 78.132C68.1782 77.5773 70.2235 77.0227 73.1355 76.468V75.168C73.1355 72.1173 72.9795 70.1067 72.6675 69.136C72.1129 67.368 70.8649 66.484 68.9235 66.484C67.7102 66.484 66.6875 66.8133 65.8555 67.472C65.0582 68.1307 64.6595 68.9627 64.6595 69.968C64.6595 70.2453 64.8675 70.384 65.2835 70.384C65.7342 70.384 66.1329 70.592 66.4795 71.008C66.8262 71.424 66.9995 71.892 66.9995 72.412C66.9995 73.9373 66.2369 74.7 64.7115 74.7C63.9142 74.7 63.2555 74.44 62.7355 73.92C62.2155 73.3653 61.9555 72.672 61.9555 71.84C61.9555 70.2107 62.5969 68.8067 63.8795 67.628C65.3009 66.3453 67.2769 65.704 69.8075 65.704C73.6209 65.704 75.9609 66.744 76.8275 68.824C77.1395 69.6213 77.2955 71.1987 77.2955 73.556V83.28C77.2955 84.8747 77.3129 85.8107 77.3475 86.088C77.5209 87.336 78.0235 87.96 78.8555 87.96C79.8262 87.96 80.6235 87.6133 81.2475 86.92C81.5942 86.5387 81.8542 86.348 82.0275 86.348C82.2009 86.348 82.2875 86.452 82.2875 86.66ZM73.1355 81.148V77.352C70.5355 77.9413 68.6635 78.7213 67.5195 79.692C66.4102 80.628 65.8555 81.8933 65.8555 83.488C65.8555 84.5973 66.1675 85.516 66.7915 86.244C67.4502 86.9373 68.2649 87.284 69.2355 87.284C70.7262 87.284 71.9222 86.452 72.8235 84.788C73.0315 84.4067 73.1355 83.1933 73.1355 81.148ZM91.8795 88.636C91.8795 88.948 91.6542 89.104 91.2035 89.104H90.5795C90.5102 89.104 89.5915 89.0693 87.8235 89L86.2115 88.948C85.9342 88.948 84.5475 89 82.0515 89.104C81.8435 89.1387 81.6355 89.156 81.4275 89.156C80.9075 89.1907 80.6475 89.0347 80.6475 88.688C80.6475 88.4453 80.8382 88.324 81.2195 88.324H82.5715C83.5422 88.324 84.0275 88.116 84.0275 87.7C84.0622 87.492 84.0795 86.14 84.0795 83.644V57.176C84.0795 56.032 84.0448 55.408 83.9755 55.304C83.8715 55.0267 83.5942 54.888 83.1435 54.888H82.7275L81.2715 54.94C80.7862 54.94 80.5435 54.784 80.5435 54.472C80.5435 54.1947 80.9768 54.0387 81.8435 54.004C83.5075 53.9 85.0502 53.5187 86.4715 52.86L87.5635 52.34L87.9795 52.184C88.2568 53.1893 88.3782 54.7147 88.3435 56.76L88.2915 60.452L88.3435 85.932C88.3435 86.972 88.3608 87.596 88.3955 87.804C88.4302 87.9773 88.5515 88.0987 88.7595 88.168C88.7942 88.2027 89.4355 88.2373 90.6835 88.272C91.4808 88.272 91.8795 88.3933 91.8795 88.636ZM100.53 56.292C100.53 57.852 99.7498 58.632 98.1898 58.632C97.5311 58.632 96.9764 58.424 96.5258 58.008C96.0751 57.5573 95.8498 57.02 95.8498 56.396C95.8498 54.7667 96.6298 53.952 98.1898 53.952C99.7498 53.952 100.53 54.732 100.53 56.292ZM104.43 88.688C104.43 89 104.135 89.156 103.546 89.156C103.58 89.156 103.164 89.1213 102.298 89.052C101.258 88.9827 100.391 88.948 99.6978 88.948L94.2898 89.052C94.1164 89.0867 93.9084 89.104 93.6658 89.104C93.2844 89.104 93.0938 88.9827 93.0938 88.74C93.0938 88.3933 93.4404 88.22 94.1338 88.22C95.4511 88.1853 96.1618 88.0987 96.2658 87.96C96.4044 87.7867 96.4738 87.0587 96.4738 85.776L96.4218 70.02C96.3871 69.1533 96.3351 68.6507 96.2658 68.512C96.2311 68.3387 96.0231 68.252 95.6418 68.252L94.1338 68.304C93.9951 68.3387 93.8218 68.356 93.6138 68.356C93.2324 68.356 93.0418 68.2173 93.0418 67.94C93.0418 67.6973 93.3364 67.5587 93.9258 67.524C96.2484 67.42 98.2418 66.8653 99.9058 65.86L100.426 65.548C100.703 66.068 100.842 67.0213 100.842 68.408C100.842 68.3387 100.842 68.512 100.842 68.928C100.807 69.344 100.79 70.02 100.79 70.956V85.152C100.79 86.5387 100.807 87.3533 100.842 87.596C100.911 87.8387 101.102 87.9947 101.414 88.064C101.934 88.2027 102.696 88.272 103.702 88.272C104.187 88.272 104.43 88.4107 104.43 88.688ZM120.133 85.932C120.133 86.244 119.699 86.7987 118.833 87.596C117.342 88.948 115.574 89.624 113.529 89.624C111.622 89.624 110.183 89.1387 109.213 88.168C108.658 87.6133 108.381 85.984 108.381 83.28V67.784C108.346 67.4373 108.155 67.2467 107.809 67.212H105.833C105.07 67.212 104.689 67.0907 104.689 66.848C104.689 66.6053 104.879 66.4667 105.261 66.432C107.965 66.1893 110.079 64.872 111.605 62.48C111.813 62.168 112.073 62.012 112.385 62.012C112.627 62.012 112.749 62.1333 112.749 62.376V62.584C112.714 62.7573 112.697 63.052 112.697 63.468C112.697 64.924 112.766 65.86 112.905 66.276C113.217 66.3453 113.737 66.38 114.465 66.38C116.371 66.38 117.637 66.2933 118.261 66.12C118.399 66.0853 118.521 66.068 118.625 66.068C118.902 66.068 119.041 66.224 119.041 66.536C119.041 67.056 117.637 67.316 114.829 67.316C114.343 67.316 113.633 67.2987 112.697 67.264V76.884C112.697 81.7373 112.818 84.788 113.061 86.036C113.303 87.2493 114.101 87.856 115.453 87.856C116.597 87.856 117.879 87.2147 119.301 85.932C119.439 85.7587 119.595 85.672 119.769 85.672C120.011 85.672 120.133 85.7587 120.133 85.932ZM140.682 66.692C140.682 66.9347 140.266 67.0733 139.434 67.108C138.602 67.1427 138.065 67.212 137.822 67.316C137.614 67.42 137.423 67.7147 137.25 68.2L136.886 69.136L136.47 70.436C135.985 72.0307 135.257 74.4053 134.286 77.56C131.547 86.3653 129.277 93.1947 127.474 98.048C126.365 100.995 124.839 102.468 122.898 102.468C122.066 102.468 121.373 102.225 120.818 101.74C120.298 101.255 120.038 100.631 120.038 99.868C120.038 99.2093 120.246 98.672 120.662 98.256C121.113 97.84 121.685 97.632 122.378 97.632C123.314 97.632 123.99 98.0133 124.406 98.776C124.718 99.3653 124.978 99.66 125.186 99.66C125.498 99.66 125.983 98.8107 126.642 97.112C127.613 94.5813 128.375 92.3107 128.93 90.3C126.365 83.5747 124.181 77.6987 122.378 72.672C121.13 69.24 120.437 67.5067 120.298 67.472C120.09 67.2987 119.535 67.212 118.634 67.212C117.698 67.212 117.23 67.0387 117.23 66.692C117.23 66.4147 117.455 66.276 117.906 66.276C118.287 66.276 118.877 66.3107 119.674 66.38C120.471 66.4147 121.078 66.432 121.494 66.432C121.633 66.432 121.945 66.432 122.43 66.432C123.158 66.3973 124.163 66.3627 125.446 66.328L128.098 66.276C128.479 66.276 128.67 66.4147 128.67 66.692C128.67 66.9347 128.029 67.0733 126.746 67.108C125.671 67.1427 125.134 67.316 125.134 67.628C125.134 67.9053 125.481 68.98 126.174 70.852C126.451 71.6493 126.746 72.4813 127.058 73.348L127.942 75.948C128.185 76.7107 128.826 78.444 129.866 81.148C130.213 81.98 130.594 82.9853 131.01 84.164C134.338 73.7293 136.002 68.252 136.002 67.732C136.002 67.42 135.863 67.2293 135.586 67.16C135.343 67.0907 134.615 67.056 133.402 67.056C133.055 67.056 132.882 66.9173 132.882 66.64C132.882 66.3973 133.09 66.276 133.506 66.276C133.679 66.276 133.818 66.2933 133.922 66.328C135.101 66.3973 136.071 66.432 136.834 66.432H138.29C138.914 66.432 139.313 66.4147 139.486 66.38C139.694 66.3453 139.937 66.328 140.214 66.328C140.526 66.328 140.682 66.4493 140.682 66.692ZM163.089 88.584C163.089 88.8613 162.881 89 162.465 89H161.945C161.737 88.896 159.38 88.844 154.873 88.844C154.007 88.844 153.14 88.8787 152.273 88.948C151.823 88.9827 151.129 89 150.193 89C149.743 89 149.517 88.844 149.517 88.532C149.517 88.2547 149.968 88.0987 150.869 88.064C152.256 88.0293 153.071 87.8733 153.313 87.596C153.556 87.284 153.677 86.2787 153.677 84.58V57.228C153.677 55.5293 153.591 54.576 153.417 54.368C153.209 54.0213 152.256 53.8133 150.557 53.744C149.899 53.7093 149.569 53.5707 149.569 53.328C149.569 53.016 149.777 52.86 150.193 52.86L157.213 52.964C157.733 52.964 158.739 52.9467 160.229 52.912L162.205 52.86C162.76 52.86 163.037 53.016 163.037 53.328C163.037 53.6053 162.275 53.7787 160.749 53.848C159.883 53.8827 159.345 54.0387 159.137 54.316C158.964 54.5933 158.877 55.3213 158.877 56.5V84.268C158.877 86.244 158.964 87.3187 159.137 87.492C159.519 87.8733 160.645 88.0987 162.517 88.168C162.899 88.168 163.089 88.3067 163.089 88.584ZM189.165 88.688C189.165 88.9653 188.905 89.104 188.385 89.104H187.761C187.137 89.0347 186.288 89 185.213 89C181.816 89 179.805 89.0347 179.181 89.104H178.817C178.366 89.104 178.141 88.9827 178.141 88.74C178.141 88.5667 178.228 88.4627 178.401 88.428C178.609 88.3933 179.285 88.3587 180.429 88.324C181.088 88.2893 181.469 88.2027 181.573 88.064C181.677 87.8907 181.729 87.3187 181.729 86.348V76.364C181.729 72.5853 181.59 70.332 181.313 69.604C180.724 68.044 179.545 67.264 177.777 67.264C176.044 67.264 174.588 68.0267 173.409 69.552C173.062 70.0027 172.889 70.6267 172.889 71.424L172.941 87.648C172.941 88.064 173.305 88.2893 174.033 88.324L175.593 88.376C175.94 88.376 176.113 88.4973 176.113 88.74C176.113 88.9827 175.905 89.104 175.489 89.104H174.657C173.894 89.0347 172.681 89 171.017 89C170.636 89 169.804 89.0173 168.521 89.052C167.273 89.0867 166.545 89.104 166.337 89.104H166.025C165.505 89.104 165.245 88.9827 165.245 88.74C165.245 88.4973 165.557 88.3413 166.181 88.272C166.632 88.272 167.065 88.272 167.481 88.272C168.001 88.272 168.313 88.1507 168.417 87.908L168.573 87.128V75.792C168.573 71.84 168.538 69.656 168.469 69.24C168.4 68.824 167.966 68.616 167.169 68.616C166.926 68.616 166.51 68.6507 165.921 68.72H165.661C164.968 68.72 164.621 68.5987 164.621 68.356C164.621 68.044 164.985 67.888 165.713 67.888C166.753 67.8533 167.88 67.6627 169.093 67.316C170.306 66.9693 171.156 66.5707 171.641 66.12C171.953 65.8427 172.196 65.704 172.369 65.704C172.612 65.704 172.733 66.0333 172.733 66.692V69.188C174.536 66.8653 176.858 65.704 179.701 65.704C182.197 65.704 184 66.6227 185.109 68.46C185.733 69.5 186.045 71.476 186.045 74.388V86.244C186.045 87.3533 186.097 87.96 186.201 88.064C186.409 88.272 186.912 88.376 187.709 88.376C187.813 88.376 188.004 88.3587 188.281 88.324H188.645C188.992 88.324 189.165 88.4453 189.165 88.688ZM214.45 68.772C214.45 70.3667 213.74 71.164 212.318 71.164C211.833 71.164 211.382 71.008 210.966 70.696C210.585 70.3493 210.394 69.968 210.394 69.552C210.394 69.4133 210.446 69.2053 210.55 68.928C210.654 68.616 210.706 68.3733 210.706 68.2C210.706 67.7493 210.464 67.524 209.978 67.524C209.562 67.524 209.164 67.7493 208.782 68.2C208.401 68.616 208.21 69.0493 208.21 69.5C208.21 69.604 208.297 70.1933 208.47 71.268C208.644 72.3427 208.73 73.1573 208.73 73.712C208.73 76.0693 207.916 78.0453 206.286 79.64C204.657 81.2347 202.629 82.032 200.202 82.032C199.578 82.032 198.434 81.772 196.77 81.252C196.32 81.1133 196.025 81.044 195.886 81.044C195.158 81.044 194.5 81.3387 193.91 81.928C193.321 82.5173 193.026 83.1587 193.026 83.852C193.026 85.6547 194.118 86.556 196.302 86.556C197.134 86.556 198.469 86.4 200.306 86.088C201.728 85.8453 203.028 85.724 204.206 85.724C206.321 85.724 207.968 86.2787 209.146 87.388C210.36 88.4973 210.966 90.04 210.966 92.016C210.966 94.9973 209.684 97.476 207.118 99.452C204.588 101.428 201.381 102.416 197.498 102.416C194.621 102.416 192.35 101.827 190.686 100.648C189.057 99.504 188.242 97.9093 188.242 95.864C188.242 93.888 189.005 92.3973 190.53 91.392C191.293 90.9067 192.506 90.4733 194.17 90.092C191.709 89.1213 190.478 87.6307 190.478 85.62C190.478 83.124 192.073 81.3907 195.262 80.42C193.182 78.7907 192.142 76.6413 192.142 73.972C192.142 71.476 192.94 69.4827 194.534 67.992C196.129 66.4667 198.226 65.704 200.826 65.704C202.248 65.704 203.392 65.8947 204.258 66.276C205.16 66.6573 206.2 67.42 207.378 68.564C208.488 66.9347 209.857 66.12 211.486 66.12C213.462 66.12 214.45 67.004 214.45 68.772ZM204.778 73.92C204.778 68.8933 203.392 66.38 200.618 66.38C197.914 66.38 196.562 68.72 196.562 73.4C196.562 78.6693 198.001 81.304 200.878 81.304C203.478 81.304 204.778 78.8427 204.778 73.92ZM208.782 93.836C208.782 90.9587 207.084 89.52 203.686 89.52C202.716 89.52 201.277 89.676 199.37 89.988C197.498 90.3 196.094 90.456 195.158 90.456C193.39 91.392 192.506 93.0387 192.506 95.396C192.506 97.164 193.13 98.5853 194.378 99.66C195.661 100.735 197.342 101.272 199.422 101.272C202.057 101.272 204.276 100.544 206.078 99.088C207.881 97.6667 208.782 95.916 208.782 93.836ZM230.144 69.24C230.144 70.0373 229.901 70.696 229.416 71.216C228.931 71.736 228.307 71.996 227.544 71.996C226.92 71.996 226.4 71.8227 225.984 71.476C225.568 71.0947 225.36 70.6267 225.36 70.072C225.36 69.5867 225.516 69.1707 225.828 68.824C226.14 68.4773 226.296 68.2347 226.296 68.096C226.296 67.576 225.915 67.316 225.152 67.316C224.181 67.316 223.349 67.9227 222.656 69.136C221.859 70.5573 221.46 73.192 221.46 77.04V87.336C221.46 87.752 221.599 88.012 221.876 88.116C222.188 88.22 223.089 88.2893 224.58 88.324C224.961 88.3933 225.152 88.532 225.152 88.74C225.152 88.9827 224.927 89.104 224.476 89.104C223.679 89.104 222.933 89.0867 222.24 89.052C221.547 89.0173 220.229 89 218.288 89C217.283 89 216.555 89.0173 216.104 89.052C215.653 89.0867 215.081 89.104 214.388 89.104C213.833 89.104 213.556 88.9827 213.556 88.74C213.556 88.4973 213.781 88.376 214.232 88.376H214.96C216.139 88.376 216.832 88.2373 217.04 87.96C217.109 87.8213 217.144 87.18 217.144 86.036V71.736C217.144 69.8293 216.849 68.7373 216.26 68.46C215.705 68.148 214.804 67.9747 213.556 67.94C213.14 67.94 212.932 67.8187 212.932 67.576C212.932 67.3333 213.105 67.212 213.452 67.212H213.816C214.336 67.212 214.856 67.2467 215.376 67.316C215.896 67.3507 216.121 67.368 216.052 67.368C217.335 67.368 218.756 67.004 220.316 66.276L220.992 65.964L221.408 65.808C221.547 66.64 221.616 67.472 221.616 68.304V69.344C222.725 66.9173 224.285 65.704 226.296 65.704C227.405 65.704 228.324 66.0507 229.052 66.744C229.78 67.4027 230.144 68.2347 230.144 69.24ZM250.678 83.332C250.678 83.6787 250.401 84.3027 249.846 85.204C249.326 86.0707 248.789 86.7813 248.234 87.336C246.743 88.8613 244.75 89.624 242.254 89.624C239.134 89.624 236.517 88.4973 234.402 86.244C232.322 83.9907 231.282 81.2 231.282 77.872C231.282 74.4053 232.27 71.5107 234.246 69.188C236.257 66.8653 238.753 65.704 241.734 65.704C244.195 65.704 246.258 66.432 247.922 67.888C249.586 69.3093 250.47 71.1467 250.574 73.4C249.465 73.5733 247.991 73.6427 246.154 73.608L242.514 73.556C242.271 73.556 240.191 73.608 236.274 73.712C236.101 74.856 236.014 75.948 236.014 76.988C236.014 80.4893 236.673 83.1933 237.99 85.1C239.342 86.972 241.231 87.908 243.658 87.908C245.045 87.908 246.154 87.596 246.986 86.972C247.818 86.348 248.719 85.152 249.69 83.384C249.829 83.1067 250.019 82.968 250.262 82.968C250.539 82.968 250.678 83.0893 250.678 83.332ZM246.154 72.724C246.015 68.564 244.525 66.484 241.682 66.484C238.874 66.484 237.123 68.564 236.43 72.724H246.154ZM276.35 87.96C276.35 88.2027 276.107 88.324 275.622 88.324H275.362C275.085 88.324 274.79 88.3067 274.478 88.272C274.201 88.272 274.062 88.272 274.062 88.272C272.363 88.272 270.925 88.6187 269.746 89.312C269.261 89.5893 268.966 89.728 268.862 89.728C268.55 89.728 268.394 89.52 268.394 89.104L268.446 87.492C266.955 88.9133 265.187 89.624 263.142 89.624C260.23 89.624 257.821 88.5147 255.914 86.296C254.042 84.0427 253.106 81.1827 253.106 77.716C253.106 74.1453 254.042 71.2507 255.914 69.032C257.821 66.8133 260.299 65.704 263.35 65.704C265.707 65.704 267.475 66.5533 268.654 68.252V60.14C268.654 57.5053 268.533 55.876 268.29 55.252C268.082 54.732 267.77 54.4893 267.354 54.524C266.349 54.628 265.742 54.68 265.534 54.68C265.083 54.68 264.858 54.524 264.858 54.212C264.858 53.9 265.049 53.744 265.43 53.744L267.302 53.796C268.342 53.8307 269.937 53.3453 272.086 52.34C272.225 52.2707 272.346 52.236 272.45 52.236C272.797 52.236 272.97 52.652 272.97 53.484C272.97 53.692 272.97 54.056 272.97 54.576C272.935 55.1307 272.918 55.616 272.918 56.032V73.972C272.918 82.188 273.005 86.5907 273.178 87.18C273.247 87.4227 274.062 87.544 275.622 87.544C276.107 87.544 276.35 87.6827 276.35 87.96ZM268.654 74.908C268.654 71.58 268.29 69.448 267.562 68.512C266.626 67.3333 265.43 66.744 263.974 66.744C262.102 66.744 260.611 67.7147 259.502 69.656C258.393 71.5973 257.838 74.1973 257.838 77.456C257.838 80.576 258.323 83.2453 259.294 85.464C259.71 86.4 260.317 87.18 261.114 87.804C261.946 88.3933 262.795 88.688 263.662 88.688C264.737 88.688 265.707 88.376 266.574 87.752C267.441 87.0933 267.995 86.3133 268.238 85.412C268.515 84.5107 268.654 81.0093 268.654 74.908ZM284.388 56.292C284.388 57.852 283.608 58.632 282.048 58.632C281.39 58.632 280.835 58.424 280.384 58.008C279.934 57.5573 279.708 57.02 279.708 56.396C279.708 54.7667 280.488 53.952 282.048 53.952C283.608 53.952 284.388 54.732 284.388 56.292ZM288.288 88.688C288.288 89 287.994 89.156 287.404 89.156C287.439 89.156 287.023 89.1213 286.156 89.052C285.116 88.9827 284.25 88.948 283.556 88.948L278.148 89.052C277.975 89.0867 277.767 89.104 277.524 89.104C277.143 89.104 276.952 88.9827 276.952 88.74C276.952 88.3933 277.299 88.22 277.992 88.22C279.31 88.1853 280.02 88.0987 280.124 87.96C280.263 87.7867 280.332 87.0587 280.332 85.776L280.28 70.02C280.246 69.1533 280.194 68.6507 280.124 68.512C280.09 68.3387 279.882 68.252 279.5 68.252L277.992 68.304C277.854 68.3387 277.68 68.356 277.472 68.356C277.091 68.356 276.9 68.2173 276.9 67.94C276.9 67.6973 277.195 67.5587 277.784 67.524C280.107 67.42 282.1 66.8653 283.764 65.86L284.284 65.548C284.562 66.068 284.7 67.0213 284.7 68.408C284.7 68.3387 284.7 68.512 284.7 68.928C284.666 69.344 284.648 70.02 284.648 70.956V85.152C284.648 86.5387 284.666 87.3533 284.7 87.596C284.77 87.8387 284.96 87.9947 285.272 88.064C285.792 88.2027 286.555 88.272 287.56 88.272C288.046 88.272 288.288 88.4107 288.288 88.688ZM309.243 83.332C309.243 83.6787 308.966 84.3027 308.411 85.204C307.891 86.0707 307.354 86.7813 306.799 87.336C305.309 88.8613 303.315 89.624 300.819 89.624C297.699 89.624 295.082 88.4973 292.967 86.244C290.887 83.9907 289.847 81.2 289.847 77.872C289.847 74.4053 290.835 71.5107 292.811 69.188C294.822 66.8653 297.318 65.704 300.299 65.704C302.761 65.704 304.823 66.432 306.487 67.888C308.151 69.3093 309.035 71.1467 309.139 73.4C308.03 73.5733 306.557 73.6427 304.719 73.608L301.079 73.556C300.837 73.556 298.757 73.608 294.839 73.712C294.666 74.856 294.579 75.948 294.579 76.988C294.579 80.4893 295.238 83.1933 296.555 85.1C297.907 86.972 299.797 87.908 302.223 87.908C303.61 87.908 304.719 87.596 305.551 86.972C306.383 86.348 307.285 85.152 308.255 83.384C308.394 83.1067 308.585 82.968 308.827 82.968C309.105 82.968 309.243 83.0893 309.243 83.332ZM304.719 72.724C304.581 68.564 303.09 66.484 300.247 66.484C297.439 66.484 295.689 68.564 294.995 72.724H304.719ZM335.279 88.688C335.279 88.9653 335.019 89.104 334.499 89.104H333.875C333.251 89.0347 332.402 89 331.327 89C327.93 89 325.919 89.0347 325.295 89.104H324.931C324.48 89.104 324.255 88.9827 324.255 88.74C324.255 88.5667 324.342 88.4627 324.515 88.428C324.723 88.3933 325.399 88.3587 326.543 88.324C327.202 88.2893 327.583 88.2027 327.687 88.064C327.791 87.8907 327.843 87.3187 327.843 86.348V76.364C327.843 72.5853 327.704 70.332 327.427 69.604C326.838 68.044 325.659 67.264 323.891 67.264C322.158 67.264 320.702 68.0267 319.523 69.552C319.176 70.0027 319.003 70.6267 319.003 71.424L319.055 87.648C319.055 88.064 319.419 88.2893 320.147 88.324L321.707 88.376C322.054 88.376 322.227 88.4973 322.227 88.74C322.227 88.9827 322.019 89.104 321.603 89.104H320.771C320.008 89.0347 318.795 89 317.131 89C316.75 89 315.918 89.0173 314.635 89.052C313.387 89.0867 312.659 89.104 312.451 89.104H312.139C311.619 89.104 311.359 88.9827 311.359 88.74C311.359 88.4973 311.671 88.3413 312.295 88.272C312.746 88.272 313.179 88.272 313.595 88.272C314.115 88.272 314.427 88.1507 314.531 87.908L314.687 87.128V75.792C314.687 71.84 314.652 69.656 314.583 69.24C314.514 68.824 314.08 68.616 313.283 68.616C313.04 68.616 312.624 68.6507 312.035 68.72H311.775C311.082 68.72 310.735 68.5987 310.735 68.356C310.735 68.044 311.099 67.888 311.827 67.888C312.867 67.8533 313.994 67.6627 315.207 67.316C316.42 66.9693 317.27 66.5707 317.755 66.12C318.067 65.8427 318.31 65.704 318.483 65.704C318.726 65.704 318.847 66.0333 318.847 66.692V69.188C320.65 66.8653 322.972 65.704 325.815 65.704C328.311 65.704 330.114 66.6227 331.223 68.46C331.847 69.5 332.159 71.476 332.159 74.388V86.244C332.159 87.3533 332.211 87.96 332.315 88.064C332.523 88.272 333.026 88.376 333.823 88.376C333.927 88.376 334.118 88.3587 334.395 88.324H334.759C335.106 88.324 335.279 88.4453 335.279 88.688ZM350.736 85.932C350.736 86.244 350.303 86.7987 349.436 87.596C347.946 88.948 346.178 89.624 344.132 89.624C342.226 89.624 340.787 89.1387 339.816 88.168C339.262 87.6133 338.984 85.984 338.984 83.28V67.784C338.95 67.4373 338.759 67.2467 338.412 67.212H336.436C335.674 67.212 335.292 67.0907 335.292 66.848C335.292 66.6053 335.483 66.4667 335.864 66.432C338.568 66.1893 340.683 64.872 342.208 62.48C342.416 62.168 342.676 62.012 342.988 62.012C343.231 62.012 343.352 62.1333 343.352 62.376V62.584C343.318 62.7573 343.3 63.052 343.3 63.468C343.3 64.924 343.37 65.86 343.508 66.276C343.82 66.3453 344.34 66.38 345.068 66.38C346.975 66.38 348.24 66.2933 348.864 66.12C349.003 66.0853 349.124 66.068 349.228 66.068C349.506 66.068 349.644 66.224 349.644 66.536C349.644 67.056 348.24 67.316 345.432 67.316C344.947 67.316 344.236 67.2987 343.3 67.264V76.884C343.3 81.7373 343.422 84.788 343.664 86.036C343.907 87.2493 344.704 87.856 346.056 87.856C347.2 87.856 348.483 87.2147 349.904 85.932C350.043 85.7587 350.199 85.672 350.372 85.672C350.615 85.672 350.736 85.7587 350.736 85.932ZM366.71 82.396C366.71 84.4067 365.964 86.1227 364.474 87.544C363.018 88.9307 361.267 89.624 359.222 89.624C358.043 89.624 356.604 89.208 354.906 88.376C354.455 88.1333 354.056 88.012 353.71 88.012C353.224 88.012 352.86 88.3413 352.618 89C352.479 89.416 352.288 89.624 352.046 89.624C351.803 89.624 351.682 89.4853 351.682 89.208C351.682 89.0347 351.699 88.8267 351.734 88.584C351.838 87.8907 351.89 86.868 351.89 85.516C351.89 85.412 351.872 84.996 351.838 84.268C351.803 83.54 351.786 83.0547 351.786 82.812V82.24C351.786 81.8587 351.907 81.668 352.15 81.668C352.427 81.668 352.583 81.8587 352.618 82.24C352.826 83.8347 353.276 85.0827 353.97 85.984C355.356 87.7867 357.211 88.688 359.534 88.688C360.782 88.688 361.787 88.324 362.55 87.596C363.312 86.868 363.694 85.8973 363.694 84.684C363.694 83.332 363.26 82.2573 362.394 81.46C361.908 81.0093 361.458 80.6973 361.042 80.524C360.66 80.316 359.499 79.848 357.558 79.12C353.71 77.664 351.786 75.48 351.786 72.568C351.786 70.6267 352.444 68.9973 353.762 67.68C355.079 66.3627 356.708 65.704 358.65 65.704C359.343 65.704 360.383 65.912 361.77 66.328C362.116 66.432 362.428 66.484 362.706 66.484C363.434 66.484 363.884 66.1373 364.058 65.444C364.162 65.0973 364.318 64.924 364.526 64.924C364.768 64.924 364.89 65.0627 364.89 65.34C364.89 65.3747 364.872 65.4787 364.838 65.652L364.786 67.836C364.751 68.668 364.838 70.0027 365.046 71.84V71.944C365.046 72.2213 364.907 72.36 364.63 72.36C364.422 72.36 364.162 71.84 363.85 70.8C363.468 69.552 362.792 68.5467 361.822 67.784C360.886 67.0213 359.794 66.64 358.546 66.64C357.367 66.64 356.396 67.004 355.634 67.732C354.871 68.46 354.49 69.3787 354.49 70.488C354.49 72.2213 355.651 73.5387 357.974 74.44C361.579 75.8613 363.867 77.04 364.838 77.976C366.086 79.1893 366.71 80.6627 366.71 82.396Z" fill="#333333"/>
</svg>
