<svg width="144" height="41" viewBox="0 0 144 41" fill="none" xmlns="http://www.w3.org/2000/svg">
<path d="M14.1406 28.2994C14.0643 28.4345 14.0204 28.6112 13.9064 28.6986C13.3398 29.1308 12.7556 29.5413 12.1749 29.9553C11.2049 30.6472 10.1979 31.2786 9.06907 31.6917C8.9568 31.7324 8.81909 31.7073 8.69366 31.7116C8.58051 31.7159 8.43491 31.6744 8.36036 31.7289C7.78146 32.1533 7.09029 32.1195 6.43069 32.1992C6.32719 32.2113 6.18861 32.1143 6.09827 32.032C5.87109 31.8259 5.66848 31.8372 5.45709 32.0468C5.1694 32.3317 4.89223 32.3568 4.53173 32.1143C4.22825 31.9099 3.83881 31.8363 3.50901 31.664C2.82398 31.3054 2.01177 31.1833 1.47848 30.5346C1.23815 30.2419 0.896075 30.0306 0.599609 29.782C1.55918 29.2183 2.5433 28.7064 3.45463 28.0898C5.01941 27.0315 6.51402 25.8727 8.08406 24.8231C9.20414 24.0739 10.3584 23.3517 11.5706 22.7654C13.531 21.817 15.5545 20.9943 17.5455 20.1066C18.0771 19.8693 18.6156 19.6147 18.7507 18.9608C18.7595 18.9193 18.7603 18.8751 18.7568 18.8326C18.7542 18.8058 18.7349 18.7815 18.7086 18.727C17.9648 18.992 17.2166 19.2527 16.4728 19.5246C15.9939 19.7004 15.5273 19.9109 15.0449 20.0763C13.8678 20.4807 12.8275 20.3162 11.9732 19.3445C11.4732 18.7755 10.9189 18.2489 10.7023 17.4149C11.1794 17.2002 11.675 17.0044 12.1451 16.7593C14.0669 15.7599 15.9887 14.7596 17.892 13.7273C18.3192 13.4952 18.6954 13.1549 19.048 12.8162C19.1963 12.6733 19.2849 12.4057 19.2893 12.1935C19.305 11.3327 19.3208 10.4684 19.2498 9.61187C19.2068 9.09397 18.8524 8.88266 18.3858 9.11389C17.7753 9.41614 17.2228 9.17365 16.6386 9.14161C15.9623 9.10437 15.3966 8.84455 14.8598 8.47562C14.8168 8.44617 14.751 8.45137 14.6975 8.43491C14.4423 8.3587 14.1871 8.28076 13.8809 8.18809C14.0441 8.00882 14.1257 7.91875 14.2081 7.82868C14.1958 7.78711 14.1827 7.74641 14.1704 7.70484C13.7599 7.78365 13.3503 7.86159 12.9389 7.9404C13.1906 7.61737 13.4433 7.29347 13.695 6.96957C13.6739 6.9176 13.6529 6.86478 13.631 6.81281C13.1792 6.91501 12.7249 7.00854 12.2758 7.12372C12.1179 7.16443 11.9934 7.39133 11.8109 7.12286C11.7759 7.07176 11.4899 7.15836 11.3364 7.22072C11.1803 7.28481 11.0452 7.39739 10.8514 7.52037C10.9198 7.36448 10.9645 7.26142 11.0101 7.1575C10.9873 7.13758 10.9636 7.11679 10.9408 7.09688L9.80409 8.08763C9.78567 8.06858 9.76725 8.04952 9.74883 8.03134C10.0172 7.56194 10.2848 7.09255 10.5303 6.66299C10.3804 6.55386 10.2488 6.45687 10.019 6.28886C10.3155 6.04376 10.5926 5.75451 10.9242 5.55445C11.5057 5.20457 12.1206 4.90751 12.724 4.59314C12.8494 4.52732 12.9863 4.48229 13.1187 4.42946C13.7906 4.16012 14.5318 3.99124 15.1177 3.59719C15.8466 3.10614 16.6947 2.93726 17.4508 2.53022C18.2937 2.07641 19.2673 1.86423 20.1392 1.45286C20.8058 1.13849 21.4022 0.678618 22.075 0.36511C22.2206 0.291496 22.4171 0.255123 22.5039 0.138207C22.7732 -0.2238 22.8705 0.245596 23.1328 0.195365C23.1609 0.172848 23.2494 0.104431 23.3284 0.0429416C23.4863 0.116555 23.6336 0.20749 23.7933 0.256855C24.6625 0.525328 25.5633 0.719322 26.3974 1.06834C26.8956 1.27706 27.3394 1.68236 27.7113 2.08507C27.8701 2.25655 27.8394 2.6558 27.7982 2.93813C27.6491 3.96786 27.1263 4.75596 26.2106 5.31109C25.458 5.7675 24.7528 6.29838 24.0187 6.78597C23.8476 6.89942 23.6459 6.9661 23.4591 7.05617C22.8319 7.35842 22.2013 7.65547 21.5803 7.97071C21.4408 8.04173 21.3364 8.17857 21.2154 8.28595C21.3785 8.43751 21.5171 8.64277 21.7101 8.7285C22.0715 8.88959 22.396 9.02729 22.5556 9.44645C22.6574 9.71406 22.9547 9.90373 23.0854 10.167C23.36 10.7213 23.5643 11.3093 23.838 11.8645C23.9275 12.0455 24.1397 12.1676 24.2976 12.3157C24.5371 12.5417 24.7695 12.7747 25.0186 12.9894C25.258 13.1956 25.5159 13.38 25.865 13.652C25.8922 14.2357 25.9264 14.9727 25.9641 15.798C25.43 16.1514 24.8037 16.5645 24.1783 16.9784L24.2827 17.1698C24.9037 16.9256 25.5317 16.6996 26.1431 16.4337C26.9614 16.0778 27.7499 15.6517 28.5814 15.3338C29.1165 15.1294 29.7428 15.0983 30.1541 15.5867C30.4909 15.986 30.9225 16.2406 31.3014 16.5723C31.8119 17.0191 31.6382 17.7752 31.0383 18.0601C29.7445 18.6733 28.4753 19.3375 27.1842 19.9559C26.6606 20.2062 26.0904 20.3629 25.5677 20.6141C25.2142 20.7838 24.9046 21.0437 24.5756 21.2628C24.5967 21.3061 24.6178 21.3494 24.6388 21.3927C25.5957 20.9839 26.5527 20.5751 27.5096 20.1664C27.5289 20.2045 27.5482 20.2426 27.5675 20.2815C27.4526 20.35 27.3377 20.4184 27.2219 20.4859C26.586 20.8601 25.9536 21.2411 25.3116 21.6057C24.9475 21.8118 24.5739 22.0032 24.1941 22.1782C23.9204 22.3046 23.7783 22.4744 23.724 22.7861C23.6538 23.1863 23.681 23.6582 23.188 23.88C23.1135 23.9137 23.11 24.0878 23.0591 24.1891C22.8661 24.5693 22.7925 24.9729 22.4828 25.3418C22.1601 25.7255 22.1337 26.3629 22.011 26.8964C21.9452 27.183 21.9636 27.4879 21.9162 27.7798C21.811 28.4258 21.6013 29.0693 21.5961 29.7145C21.5908 30.3406 21.7259 30.9867 21.9101 31.5912C22.2653 32.7569 22.4574 33.9287 22.517 35.1489C22.5697 36.2202 22.6732 37.3192 23.3258 38.2684C23.4801 38.4936 23.5222 38.8054 23.574 39.0851C23.6284 39.377 23.5099 39.5952 23.1837 39.6506C23.1556 39.6558 23.117 39.6385 23.0977 39.6515C21.8636 40.5305 21.0645 39.5476 20.2216 38.9483C19.7164 38.5889 19.3612 38.0285 18.8814 37.6249C18.2946 37.1322 17.5499 36.9953 16.8 36.9399C16.6711 36.9304 16.5342 37.0204 16.4018 37.0672C16.0404 37.1971 15.6869 37.3868 15.3142 37.4379C15.1142 37.4656 14.8686 37.2785 14.666 37.153C14.2862 36.9191 13.8616 36.7139 13.5704 36.3952C13.3433 36.1475 13.2898 35.7448 13.2099 35.5395C13.3354 35.3594 13.388 35.2277 13.4854 35.1567C13.6818 35.0147 13.9143 34.7878 14.1116 34.806C14.7756 34.8666 15.4299 35.0233 16.0886 35.1377C16.9289 35.2832 17.7701 35.42 18.6086 35.5724C18.7068 35.5906 18.813 35.6677 18.8761 35.7482C19.1208 36.0591 19.3375 36.1059 19.7348 35.9041C19.5638 35.1264 19.4199 34.34 19.2129 33.5701C19.0542 32.9795 18.7937 32.4166 18.6209 31.8294C18.3428 30.8845 17.9771 29.976 17.9043 28.9602C17.8315 27.9547 17.8902 26.9674 17.9376 25.9723C17.9394 25.9368 17.8999 25.8996 17.8288 25.7723C17.2622 26.1559 16.7079 26.5301 16.1544 26.9042C16.1378 26.8782 16.1211 26.8514 16.1044 26.8254C16.4123 26.5777 16.7202 26.3309 17.028 26.0832C16.9982 26.0468 16.9684 26.0096 16.9386 25.9732C16.3018 26.2607 15.6264 26.5846 15.3045 27.196C15.0782 27.6265 14.801 27.9278 14.437 28.1955C14.373 28.2422 14.2695 28.2353 14.1835 28.2535C14.2406 28.1591 14.2984 28.0638 14.3555 27.9694C14.3353 27.953 14.3142 27.9374 14.2941 27.9209C13.9906 28.1444 13.6862 28.3678 13.3827 28.5912C13.4117 28.6311 13.4406 28.6709 13.4696 28.7116C13.6941 28.5748 13.9195 28.4379 14.1441 28.3011L14.1406 28.2994ZM17.5403 25.6727C18.1946 25.7056 18.3744 25.6398 18.42 25.3488C17.8841 25.2552 17.8411 25.2708 17.5403 25.6727Z" fill="white"/>
<path d="M49.8714 35.9712C49.5621 35.9712 49.255 36.048 48.9915 35.9523C48.6238 35.8189 48.2519 35.6163 47.9469 35.3407C47.1382 34.6082 46.4029 33.7902 45.8046 32.7885C45.3455 32.0195 45.2775 32.0598 44.6049 32.5292C43.7208 33.1459 42.7867 33.6203 41.8399 34.096C40.5137 34.763 39.4649 34.276 38.3842 33.5083C38.2938 33.4441 38.212 33.3132 38.1217 33.3057C37.4798 33.2528 37.6435 32.8375 37.8348 32.4361C37.3375 31.9805 36.8624 31.5438 36.4193 31.1373C36.7349 29.9581 37.6658 29.9606 38.3969 29.7089C39.3671 29.3742 40.0897 28.6228 40.8856 27.9898C41.4956 27.504 42.0981 26.9931 42.6486 26.4205C43.1204 25.9297 43.5019 25.3193 43.9492 24.792C44.3615 24.3062 44.8408 23.8959 45.2265 23.385C45.4401 23.1018 45.5698 22.6941 45.6548 22.3165C45.7865 21.7301 45.8609 21.1235 45.9332 20.5219C45.9746 20.1783 45.9693 19.8247 45.9789 19.4761C46.0065 18.4995 46.0618 17.5217 46.0448 16.5463C46.0352 15.9825 45.659 15.839 45.2531 15.9473C44.5666 16.131 43.8982 16.4356 43.2054 16.5539C41.5338 16.8408 39.8538 17.0573 38.1759 17.2825C37.974 17.3102 37.6966 17.2989 37.5617 17.1592C36.9007 16.4784 36.0602 16.6269 35.2812 16.4091C35.548 15.688 34.9794 15.6578 34.7 15.386C34.7563 14.5428 34.3344 13.9639 33.5938 13.8506C33.8583 13.2667 34.3153 13.2 34.8307 13.1295C35.4034 13.0515 35.9645 12.8124 36.5182 12.5984C38.3119 11.9037 40.094 11.1675 41.893 10.4955C42.2958 10.3457 42.7516 10.3583 43.182 10.3608C43.4795 10.3633 43.6857 10.3344 43.9035 10.0198C44.1777 9.6246 44.5294 9.2395 44.9173 9.0331C45.6558 8.64045 46.4486 8.28178 46.6282 7.26869C46.7759 6.43179 46.6877 5.53449 46.693 4.66487C46.694 4.47987 46.6197 4.29235 46.625 4.10861C46.6409 3.60647 46.4858 3.2994 46.1447 3.30443C45.7897 2.52039 45.472 1.81941 45.1553 1.11969C45.1915 1.08067 45.2276 1.04166 45.2637 1.00391C45.9374 1.89366 46.9342 1.99057 47.7408 2.51032C48.915 3.26668 49.7396 4.47987 49.8756 6.15744C49.9149 6.647 49.9224 7.08369 50.4792 7.07237C50.544 7.07111 50.6078 7.19822 50.6779 7.25485C50.8702 7.41216 51.0658 7.56318 51.2645 7.72049C51.2592 7.72553 51.172 7.79978 51.1242 7.84005C51.2847 8.36107 51.443 8.86069 51.5918 9.36409C51.7182 9.79072 51.9074 10.1154 52.3261 10.0475C52.3962 10.3759 52.4493 10.6666 52.5195 10.951C52.6544 11.4998 52.4196 11.876 52.0902 12.1806C51.7746 12.4726 51.3994 12.684 51.1083 13.0037C50.8692 13.2654 50.6779 13.6128 50.5281 13.9589C50.2762 14.5403 50.0754 15.1519 49.8512 15.7509C49.4516 16.8156 49.2221 17.9181 49.3825 19.1577C49.5866 18.8846 49.8384 18.6442 49.9861 18.3346C50.5578 17.1353 51.0945 15.9133 51.646 14.7014C51.7352 14.5038 51.8266 14.3062 51.9233 14.1136C52.3154 13.3309 52.7107 12.5493 53.105 11.7678C53.1454 11.6873 53.1772 11.5916 53.2357 11.535C54.4322 10.3696 55.7297 9.4333 57.2727 9.05576C57.3162 9.04569 57.3503 8.98151 57.38 8.77385C56.9294 8.80154 56.4789 8.82923 56.0283 8.85817C56.0071 8.80532 55.9869 8.75246 55.9656 8.69834C56.5416 8.37743 57.0973 7.97848 57.6988 7.75447C58.6042 7.41845 59.5563 7.2624 60.4606 6.92638C61.3214 6.60673 62.1396 6.12472 62.9918 5.76857C64.0385 5.33061 65.0969 4.97823 66.1978 4.71017C67.9055 4.29361 69.6419 3.9664 71.3039 3.2025C72.2539 2.7658 73.3123 2.28757 74.4174 2.57073C74.5651 2.60849 74.7075 2.67896 74.8329 2.72553C74.5853 3.16852 74.3621 3.56746 74.1815 3.89089C74.6873 4.3515 75.1188 4.74541 75.5927 5.17833C75.208 5.425 75.1432 5.73836 75.3398 6.20275C75.5109 6.60547 74.9147 7.57073 74.495 7.64498C73.8701 7.75573 73.2411 7.8325 72.6205 7.96842C72.0403 8.09552 71.4632 8.25787 70.8969 8.45168C70.6004 8.55362 70.3368 8.78518 70.0425 8.90474C69.6334 9.07212 69.2158 9.26593 68.7907 9.31249C67.7769 9.4245 66.7557 9.44463 65.7398 9.5365C65.5762 9.5516 65.4338 9.78191 65.2638 9.84861C64.7431 10.0537 64.2054 10.1985 63.6911 10.4225C63.3404 10.5748 63.0163 10.8114 62.6847 11.0203C61.2555 11.9239 59.6806 12.2171 58.1302 12.6576C57.4438 12.8526 56.8009 13.4945 56.2621 14.0897C56.0209 14.3565 56.0995 15.0147 56.0071 15.4879C55.8732 16.1826 55.7999 16.9188 55.5501 17.5531C55.1623 18.536 54.6405 19.4421 54.1878 20.3898C53.7426 21.321 53.3207 22.2674 52.8712 23.1937C52.7681 23.4064 52.6162 23.6165 52.443 23.7449C51.5992 24.3666 51.0828 25.3432 50.493 26.2342C50.0605 26.8874 49.6588 27.5758 49.2933 28.283C48.8608 29.1187 49.3007 29.9078 49.4984 30.683C49.679 31.3928 49.9532 32.0699 50.1933 32.757C50.4399 33.463 50.2592 35.2173 49.8703 35.9775L49.8714 35.9712ZM52.9913 15.5911C53.1857 15.3646 53.427 15.1733 53.5672 14.9078C54.1761 13.7499 54.767 12.5884 55.8902 12.0082C56.1441 11.8773 56.3716 11.6747 56.6744 11.4607C55.2101 11.1914 53.3802 13.2038 52.9913 15.5911ZM54.6671 11.1386C54.8998 11.1172 55.124 11.097 55.4439 11.0681C55.2292 11.2871 55.1038 11.4154 54.9784 11.5425L55.0549 11.6621C55.4949 11.3714 55.9348 11.0807 56.3747 10.79C56.3588 10.7522 56.3429 10.7145 56.328 10.6767C56.1952 10.6918 56.0634 10.7069 55.8572 10.7308C55.9794 10.576 56.0517 10.4854 56.1378 10.3759C55.4662 10.206 54.8063 10.5496 54.6671 11.1373V11.1386Z" fill="white"/>
<path d="M70.2017 23.215C70.3707 23.6404 69.8266 24.1023 70.2729 24.5226C70.2963 24.5453 70.2729 24.7026 70.2325 24.7466C69.8829 25.1305 70.3271 25.5722 70.1624 25.9648C70.2506 26.0101 70.3388 26.0555 70.4589 26.1171V27.1529C70.5747 27.1239 70.664 27.1013 70.7139 27.0887C70.8095 27.6877 70.903 28.2767 71.0125 28.9601C70.6469 29.3238 70.7702 29.9958 70.8233 30.5974C70.8659 31.0769 71.106 31.5274 71.2048 32.0056C71.2718 32.3253 71.3727 32.8048 71.2388 32.9847C70.6161 33.8229 70.9275 34.8939 70.5896 35.7924C70.563 35.7522 70.4971 35.6779 70.4621 35.5873C70.4195 35.4803 70.4025 35.3582 70.3345 35.0776C70.2134 35.3998 70.1433 35.5873 70.0625 35.8012C69.9743 35.6666 69.8787 35.5193 69.7543 35.3306C69.647 35.5458 69.562 35.7157 69.5184 35.8038C68.8309 35.1821 68.1391 34.5906 67.4845 33.9462C67.2146 33.6807 67.051 33.2691 66.7917 32.9847C65.8916 31.9956 64.9246 31.1146 63.7663 30.5735C63.6569 30.5219 63.5676 30.4136 63.4656 30.3406C63.1043 30.0801 62.7409 29.8221 62.3955 29.5755C63.1787 29.6384 64.0341 29.7076 64.8895 29.7768C64.898 29.846 64.9055 29.9153 64.914 29.9845C64.9671 29.8687 65.0192 29.7529 65.0128 29.768C65.4942 29.9316 66 29.987 66.3921 30.2676C66.8788 30.6162 67.3719 30.7207 67.9723 30.8604C67.815 29.5843 67.6163 28.4416 67.5504 27.29C67.4994 26.4066 67.6163 25.5105 67.6545 24.6208C67.6588 24.5213 67.6715 24.3565 67.6301 24.3301C67.1944 24.0482 67.3676 23.5599 67.3687 23.1697C67.3783 20.9271 67.4314 18.6832 67.4378 16.4406C67.4378 16.1045 67.2529 15.7723 67.1806 15.43C67.0935 15.0134 67.0329 14.5893 66.9638 14.1677C66.9139 13.8594 66.8671 13.5511 66.8204 13.2528C66.9404 13.3019 67.1498 13.3862 67.2518 13.4277C67.3836 13.2352 67.4845 12.9797 67.5632 12.9885C68.0881 13.0489 68.6099 13.1571 69.1306 13.2654C70.1369 13.4768 70.8234 14.6321 70.7553 15.9434C70.7235 16.5664 70.783 17.2183 70.6469 17.806C70.4164 18.804 70.0604 19.7605 69.7639 20.7371C69.7299 20.8491 69.7384 20.9799 69.7097 21.2996C69.8914 20.9699 69.986 20.7975 70.0752 20.6364C70.1698 20.722 70.258 20.8 70.224 20.7698C70.2803 21.1763 70.3207 21.4468 70.3547 21.7174C70.4259 22.2875 70.2548 22.728 69.7108 23.0791C69.9584 23.1471 70.0922 23.1823 70.2017 23.2125V23.215Z" fill="white"/>
<g clip-path="url(#clip0_2692_1108)">
<path d="M95.2426 17.598C94.8297 18.0386 94.4117 18.4747 94.006 18.922C93.5173 19.4608 93.0702 20.0306 92.7739 20.7041C92.7913 20.7211 92.8082 20.7385 92.8256 20.7555C92.9703 20.6077 93.1151 20.4599 93.3294 20.241C93.3389 20.4807 93.3496 20.6505 93.3473 20.8192C93.3473 20.8457 93.2873 20.8728 93.2531 20.8971C93.1297 20.9856 93.0057 21.0725 92.8822 21.1605C92.9002 21.1893 92.9181 21.2181 92.9361 21.2468C92.9899 21.2372 93.0444 21.2271 93.1465 21.2085C92.9989 21.442 92.8603 21.6349 92.7504 21.8431C92.6359 22.0603 92.4895 22.2019 92.2095 22.15C92.2045 22.1263 92.191 22.062 92.1585 21.9102C91.7651 22.4783 91.3421 22.9516 91.0823 23.5028C90.8265 24.046 90.5353 24.6119 90.6369 25.282C90.6778 25.1591 90.7075 25.0304 90.7631 24.9142C90.8501 24.7309 90.9516 24.5538 91.0548 24.3783C91.0689 24.3546 91.1295 24.3591 91.1682 24.3501C91.153 24.3823 91.1311 24.4133 91.1233 24.4477C91.0363 24.8178 90.9454 25.1873 90.8708 25.5602C90.8551 25.6397 90.9028 25.7317 90.9264 25.8428C90.9774 25.7982 91.01 25.7695 91.0431 25.7407C91.0543 25.7537 91.075 25.7672 91.0745 25.779C91.0694 25.8529 91.0464 25.9274 91.0537 25.9996C91.1008 26.4436 90.9785 26.8673 90.9107 27.2977C90.8882 27.4421 90.859 27.5905 90.8691 27.7343C90.8955 28.1027 90.9359 28.4711 90.9841 28.8372C90.9987 28.9472 91.0554 29.0516 91.0436 29.1695C91.0756 29.3099 91.1132 29.4487 91.1379 29.5903C91.148 29.6484 91.1553 29.733 91.1233 29.768C90.9348 29.9762 91.0133 30.1951 91.0734 30.4393C90.8242 30.5713 90.8512 30.7733 90.9724 30.9989C90.9914 31.0345 90.974 31.0937 90.9645 31.1405C90.8983 31.4627 90.8057 31.7859 91.0717 32.095C91.0941 31.9895 91.1149 31.8914 91.1368 31.7859C91.2664 32.1751 91.2103 32.3207 90.854 32.3365C90.9539 32.6671 91.0582 32.9807 91.1424 33.2995C91.2378 33.6611 91.2983 34.0328 91.4055 34.3905C91.5071 34.7307 91.6316 35.0669 91.7809 35.389C91.8431 35.5233 91.9879 35.6237 92.1068 35.7258C92.3329 35.9204 92.6522 36.0597 92.7812 36.3029C93.1297 36.959 93.7984 37.0216 94.3589 37.2952C94.8022 37.5118 95.2314 37.7589 95.6589 38.0066C95.9282 38.1623 96.1824 38.3439 96.4674 38.5295C96.294 38.6124 96.1684 38.6728 96.0421 38.7332L95.9636 38.864C96.119 38.9554 96.2744 39.0468 96.4298 39.1382C96.4135 39.158 96.3973 39.1777 96.381 39.198C96.2879 39.2172 96.1942 39.2364 96.0696 39.2618C96.2323 39.4784 96.4175 39.6634 96.3283 39.963C96.1768 39.9037 96.0399 39.8507 95.9058 39.7977C95.7902 39.9793 95.8385 40.0972 96.0842 40.3291C95.9748 40.2964 95.866 40.2631 95.7324 40.223C95.7588 40.2952 95.7835 40.3635 95.7908 40.3832C95.6466 40.5908 95.5203 40.7731 95.3621 41.0004C95.026 40.9017 94.6838 40.7708 94.3298 40.7048C93.9381 40.632 93.5976 40.4972 93.2755 40.2512C92.9675 40.016 92.6202 39.814 92.2606 39.673C92.0614 39.5951 91.8645 39.5579 91.686 39.3379C91.8168 39.3616 91.8914 39.3751 91.9666 39.3887C91.8504 39.3362 91.8089 39.1303 91.5946 39.2618C91.5132 39.3114 91.2737 39.1343 91.125 39.0322C90.4416 38.5628 89.7622 38.0748 89.3256 37.3505C88.897 36.6397 88.4773 35.9165 88.1368 35.1611C87.8731 34.5772 87.7305 33.9375 87.5504 33.3181C87.5145 33.1945 87.5779 33.0439 87.5544 32.9136C87.5095 32.6626 87.4354 32.4172 87.3659 32.1402C87.4506 32.1661 87.5443 32.1943 87.6548 32.2282C87.7362 32.1193 87.9712 32.0262 87.7906 31.7876C87.84 31.7526 87.8871 31.6928 87.9393 31.6883C88.0526 31.6787 88.2153 31.7859 88.2417 31.589C88.2568 31.4751 88.1917 31.3498 88.1575 31.2099C88.0431 31.3318 87.9735 31.4051 87.8512 31.5354C87.8332 31.329 87.8237 31.2201 87.8141 31.1118C87.4298 31.1202 87.358 31.0429 87.3748 30.6142C87.3833 30.3964 87.4141 30.1798 87.4422 29.891C87.5499 30.0004 87.634 30.0867 87.7143 30.168C87.7457 29.7629 87.6077 29.5373 87.3092 29.5723C87.2088 28.8259 86.9596 28.0897 87.1858 27.2954C87.2419 27.336 87.2637 27.3434 87.2699 27.3575C87.3126 27.4568 87.3513 27.5572 87.3917 27.6576C87.4332 27.5397 87.5033 27.4229 87.5095 27.3028C87.519 27.1268 87.4831 26.9479 87.4668 26.7742C87.3501 26.7217 87.2385 26.6709 87.1268 26.6207C87.1571 26.6134 87.1874 26.6061 87.2177 26.5987C87.2256 26.3449 87.2262 26.0904 87.2424 25.8371C87.2593 25.5681 87.2458 25.2843 87.3305 25.0366C87.3877 24.868 87.5908 24.7495 87.7395 24.5972C87.6851 24.5825 87.6385 24.5695 87.6453 24.5712C87.7788 24.2683 87.8832 23.9496 88.0554 23.6743C88.1519 23.5197 88.3623 23.4373 88.5211 23.3228C88.5542 23.3584 88.5867 23.3939 88.6198 23.4294C88.5351 23.5293 88.4504 23.6291 88.3662 23.729C88.6642 23.8751 88.3359 24.138 88.4824 24.389C88.603 24.2559 88.7107 24.1369 88.8263 24.0094C88.8123 24.1606 88.7983 24.3089 88.7842 24.4573C88.7977 24.459 88.8112 24.4607 88.8252 24.4624C89.1506 23.5778 89.476 22.6927 89.8009 21.8081C89.7711 21.7867 89.742 21.7653 89.7122 21.7444C89.6208 21.8487 89.5321 21.9554 89.4367 22.0558C89.3414 22.1562 89.2224 22.2386 89.1455 22.3508C89.0597 22.4761 89.0098 22.6261 88.9441 22.7655C88.9144 22.7536 88.8852 22.7418 88.8555 22.7294C89.0373 22.2916 89.2185 21.8544 89.4003 21.4166C89.3818 21.4042 89.3632 21.3918 89.3442 21.3794C89.2875 21.464 89.2432 21.5627 89.1702 21.6293C89.1023 21.6908 89.0042 21.719 88.9194 21.7613C88.8987 21.7314 88.8779 21.7021 88.8572 21.6722C88.9531 21.5554 89.0603 21.4465 89.1422 21.3207C89.4059 20.9151 89.6651 20.5061 89.9131 20.0904C89.9411 20.0435 89.9041 19.9358 89.866 19.8771C89.8188 19.8055 89.7386 19.7553 89.6634 19.6881C89.4833 19.7479 89.2673 19.7795 89.0951 19.8844C88.3937 20.3121 87.6082 20.5501 86.8609 20.8649C86.136 21.1707 85.3298 21.2739 84.5746 21.5148C83.8042 21.7607 83.0047 21.9328 82.2955 22.3565C82.1076 22.4687 81.8736 22.5009 81.6688 22.5883C81.5695 22.6306 81.4792 22.7074 81.4018 22.7863C81.1583 23.0351 80.9221 23.2907 80.6853 23.5462C80.6612 23.5722 80.6365 23.6218 80.6449 23.6506C80.692 23.8142 80.6067 23.8824 80.4861 23.9783C80.3408 24.094 80.2449 24.2723 80.127 24.4234C79.9363 24.6677 79.709 24.8465 79.3359 24.82C79.3847 24.9063 79.4156 24.9605 79.4599 25.0383C79.245 25.1529 79.029 25.2679 78.8416 25.3678C78.8854 25.5128 78.9735 25.6685 78.9365 25.7091C78.8663 25.7858 78.7238 25.7937 78.6127 25.8349C78.4955 25.8783 78.381 25.928 78.2817 26.003C77.8755 26.0961 77.4771 26.1108 77.3952 25.5793C77.2061 25.5607 77.0367 25.5444 76.8577 25.5263C76.8342 25.3977 76.8128 25.2804 76.8022 25.2194C76.6451 25.1275 76.5278 25.0592 76.3915 24.9791C76.3679 25.0084 76.3264 25.0615 76.2753 25.1252C76.1519 25.0124 75.9791 24.9233 75.9151 24.7839C75.5987 24.0968 75.4444 23.3826 75.8091 22.665C75.9028 22.48 76.1037 22.3508 76.2523 22.1934C76.2905 22.1534 76.341 22.106 76.3472 22.0575C76.4122 21.5385 76.8487 21.3433 77.1921 21.068C77.5041 20.8181 77.8183 20.5727 78.1341 20.3273C78.2149 20.2647 78.2963 20.1812 78.3894 20.1586C78.9084 20.0328 79.0952 19.5736 79.3977 19.2143C79.8443 18.684 80.0266 18.0031 80.4665 17.4734C80.7251 17.1614 80.8974 16.7626 81.1953 16.5025C81.4236 16.3028 81.4769 16.1053 81.5577 15.8464C81.6217 15.6422 81.8658 15.4521 82.0756 15.3488C82.2922 15.2422 82.3993 15.1215 82.4106 14.8919C82.4207 14.6916 82.4532 14.5168 82.7304 14.5591C82.7803 14.567 82.8667 14.4857 82.8998 14.4254C83.0676 14.1241 83.2925 13.9272 83.6146 13.7648C83.9193 13.6108 84.1358 13.2796 84.3911 13.0263C84.4769 12.9411 84.5039 12.7522 84.7019 12.861C84.7204 12.8712 84.8158 12.7719 84.8495 12.7093C84.8697 12.6709 84.8141 12.5863 84.8366 12.5553C85.0633 12.2461 85.24 11.9026 85.4611 11.5946C85.6513 11.3289 85.9486 11.141 86.1983 10.9187C86.1416 11.115 86.0844 11.3114 86.0277 11.5077C86.0575 11.5195 86.0872 11.5314 86.1164 11.5427C86.1955 11.4202 86.301 11.3069 86.3442 11.1732C86.3745 11.0795 86.3778 10.9193 86.1876 10.9272C86.4429 10.5131 86.8564 10.27 87.2217 9.9772C87.2924 9.92022 87.427 9.95125 87.5258 9.92079C88.0868 9.74816 88.6238 9.5163 89.0951 9.1609C89.2931 9.01141 89.6028 8.81565 89.6039 8.63965C89.6056 8.29947 90.1038 8.1827 89.9114 7.80417C89.8991 7.77935 89.9944 7.6936 90.0455 7.64283C90.9684 6.72781 91.8998 5.82012 92.8132 4.89551C93.1611 4.5435 93.4713 4.15368 93.7939 3.77741C93.8652 3.69448 93.9174 3.59463 94.006 3.46037C93.8332 3.4096 93.6969 3.36277 93.5577 3.32949C93.0494 3.20707 92.545 3.05984 92.0305 2.97634C91.291 2.85618 90.6009 3.08014 89.9524 3.41467C89.1635 3.82198 88.419 4.30205 87.7794 4.92936C87.7367 4.97111 87.6829 5.02075 87.6739 5.07378C87.5965 5.52621 87.3934 5.95382 87.4371 6.43333C87.4506 6.58283 87.344 6.7436 87.2929 6.8993C87.1656 7.28686 87.0376 7.67442 86.9114 8.06254C86.8401 8.28086 86.7723 8.49974 86.7027 8.71862L86.6365 8.64077C86.3627 8.75304 86.0659 8.82919 85.8229 8.98884C85.6204 9.12198 85.4465 9.07967 85.3174 8.97305C85.1025 8.79535 84.9095 8.78688 84.6739 8.94033C84.5706 8.45405 84.1179 8.34573 83.8054 8.115C83.4261 7.83576 82.998 7.62365 82.7203 7.22424C82.3674 6.71653 81.983 6.23194 81.9544 5.56006C81.9325 5.0405 81.8097 4.52601 81.7816 4.00645C81.7637 3.67643 81.8444 3.3419 81.8686 3.00794C81.9112 2.42575 82.3253 2.18769 82.7954 2.05963C83.0939 1.9784 83.4182 1.9626 83.7324 2.12507C84.0573 2.29318 84.4152 2.39529 84.7507 2.54366C84.8618 2.59274 84.9505 2.69484 85.0447 2.77777C85.0767 2.80598 85.0868 2.86183 85.1205 2.88665C85.3741 3.0762 85.6389 3.25108 85.8813 3.4536C85.9626 3.52129 85.9727 3.66853 86.0418 3.75936C86.2482 4.03296 86.4743 4.2919 86.6802 4.56606C86.8351 4.7731 87.0253 4.69074 87.179 4.61627C87.5729 4.42559 87.9522 4.20333 88.3365 3.99178C89.2679 3.47842 90.1689 2.89511 91.1384 2.47088C91.9553 2.11379 92.8693 2.13015 93.7637 2.17866C94.3483 2.21026 94.9419 2.14651 95.5192 2.22323C96.7665 2.38908 97.0655 2.99778 96.9606 4.08712C96.905 4.66196 96.9 5.2684 96.6144 5.80489C96.5101 6.00065 96.3754 6.18568 96.3058 6.39328C96.1319 6.91115 95.8284 7.35061 95.5181 7.78612C95.3963 7.95705 95.2325 8.09695 95.0945 8.2566C94.8948 8.48789 94.6529 8.68929 94.5822 9.01366C94.5682 9.07685 94.4869 9.1248 94.438 9.18121C94.1727 9.48415 93.9123 9.7916 93.6419 10.09C93.3322 10.4319 93.0096 10.7613 92.7016 11.1043C92.4294 11.4073 92.1641 11.717 91.9054 12.0318C91.4515 12.5829 91.015 13.1442 90.3726 13.5058C90.2424 13.5792 90.2121 13.8302 90.1353 13.9989C90.1151 14.0434 90.1055 14.1021 90.0713 14.1292C89.6505 14.4649 89.2325 14.805 88.7999 15.1249C88.4392 15.3917 88.0605 15.6326 87.6655 15.9017C87.7608 15.9254 87.8439 15.9451 87.9746 15.9773C87.7019 16.1245 87.4568 16.2548 87.2138 16.3902C87.147 16.4275 87.0921 16.4867 87.0253 16.5245C86.9086 16.5905 86.7925 16.6757 86.6657 16.7022C86.4962 16.7372 86.3268 16.8855 86.3049 17.0756C86.301 17.1084 86.2909 17.1501 86.2684 17.1693C86.0575 17.3442 85.8431 17.5145 85.6456 17.712C85.8213 17.6629 86.0535 17.73 86.1102 17.4525C86.1158 17.426 86.1775 17.4096 86.214 17.391C86.5748 17.2122 86.9294 17.0198 87.298 16.8601C87.615 16.7231 87.9365 16.6159 88.304 16.6424C88.6266 16.6655 88.9267 16.5211 89.1955 16.2988C89.1209 16.2108 89.0642 16.1437 89.0086 16.0777C89.2123 15.9259 89.4132 15.7697 89.6225 15.6253C89.6853 15.5818 89.7706 15.5694 89.8469 15.5485C89.9596 15.517 90.073 15.4887 90.1869 15.4622C90.2879 15.4391 90.3928 15.4284 90.4915 15.3985C90.5953 15.3675 90.7328 15.3483 90.7878 15.2738C90.978 15.0138 91.1777 14.9212 91.4981 15.0572C91.7449 15.1621 92.1035 14.8626 92.0547 14.5365C92.1467 14.66 92.1932 14.7221 92.2325 14.7751C92.5417 14.6871 92.8435 14.5907 93.151 14.5162C93.7956 14.3594 94.3466 14.0017 94.727 13.4985C94.9245 13.2373 95.1147 13.1916 95.3621 13.1273C95.5759 13.0715 95.7824 12.9677 95.9984 12.9451C96.5869 12.8836 97.1788 12.8537 97.8347 12.8069C97.7304 12.9276 97.6956 12.9682 97.6804 12.9857C97.9301 13.0111 98.1764 13.0359 98.4233 13.0613C98.4025 13.0912 98.3818 13.1205 98.361 13.1504C98.4867 13.3242 98.6129 13.4985 98.7694 13.7146C98.8014 13.5831 98.8216 13.4985 98.8441 13.4065C98.981 13.4167 99.1218 13.4274 99.2867 13.4404C99.179 13.5673 98.9041 13.5261 99.0427 13.7952C98.9501 13.8274 98.8508 13.8511 98.7622 13.8962C98.7139 13.921 98.6836 13.9825 98.6455 14.0271C98.6999 14.0474 98.7549 14.0858 98.8082 14.0841C98.9742 14.0779 99.1392 14.0564 99.3552 14.0361C99.2851 14.1275 99.2469 14.1777 99.2082 14.2279L99.2334 14.2697C99.3378 14.2279 99.4422 14.1862 99.5465 14.1444C99.5639 14.1647 99.5813 14.1845 99.5993 14.2048C99.496 14.2934 99.3928 14.3819 99.2576 14.4976C99.3709 14.5433 99.45 14.5754 99.5392 14.6115C99.4663 14.6431 99.4001 14.6719 99.2851 14.7215C99.4001 14.7751 99.4725 14.809 99.5684 14.853C99.4242 14.994 99.698 15.2039 99.4674 15.3455C99.3889 15.3934 99.3423 15.4966 99.2626 15.5401C99.0887 15.6349 98.9131 15.7088 98.9047 15.9547C98.9024 16.0286 98.8463 16.1358 98.7852 16.1657C98.4749 16.3191 98.1601 16.4658 97.837 16.5882C97.5239 16.7067 97.2002 16.7987 96.8775 16.8895C96.79 16.9143 96.6733 16.8601 96.5981 16.8985C96.3765 17.0108 96.1695 17.1524 95.9552 17.2804C95.8878 17.321 95.802 17.4023 95.7498 17.3854C95.5063 17.3069 95.3874 17.4846 95.2359 17.6037C95.2056 17.5196 95.1758 17.435 95.1439 17.343C95.0244 17.431 94.9065 17.5179 94.7865 17.6071C94.7579 17.545 94.736 17.4971 94.709 17.4378C94.6187 17.4892 94.539 17.5348 94.4515 17.5845C94.4981 17.7351 94.5446 17.8852 94.585 18.0172C94.8083 17.8745 95.026 17.7351 95.2437 17.5963L95.2426 17.598ZM91.6058 19.1663C91.5789 19.1511 91.5519 19.1353 91.525 19.1201C91.2854 19.2374 90.1796 20.8796 90.1869 21.1814C90.6385 20.6505 91.0571 20.1592 91.474 19.6667C91.4829 19.656 91.4779 19.6328 91.4801 19.6131C91.4352 19.6052 91.3909 19.5979 91.3376 19.5883C91.4352 19.4348 91.5205 19.3006 91.6064 19.1663H91.6058ZM94.2686 17.5444C94.2507 17.5191 94.2327 17.4937 94.2147 17.4683C94.0414 17.5884 93.8551 17.6939 93.698 17.8333C93.5488 17.9658 93.459 18.1977 93.2924 18.2727C92.9776 18.4143 92.857 18.64 92.8682 18.9943C93.335 18.5108 93.8018 18.0279 94.2686 17.5444ZM89.9804 24.1182C90.0101 24.129 90.0393 24.1402 90.0691 24.151C90.2834 23.6839 90.4983 23.2162 90.7126 22.7491C90.6868 22.7373 90.661 22.7248 90.6352 22.713C90.3934 23.1699 90.0376 23.5727 89.981 24.1182H89.9804ZM94.3584 17.853C94.0049 18.1311 93.7378 18.3997 93.5807 18.7714C94.0515 18.6061 94.2765 18.3585 94.3584 17.853ZM92.9114 21.077C92.568 21.0776 92.2269 21.4809 92.1613 21.8933C92.4126 21.6197 92.6415 21.3704 92.9114 21.077ZM90.7889 23.3792C90.8237 23.3995 90.8579 23.4199 90.8927 23.4407C91.0661 23.1039 91.2394 22.7666 91.4122 22.4298C91.3825 22.414 91.3533 22.3982 91.3236 22.383C91.1452 22.7153 90.9668 23.0475 90.7883 23.3798L90.7889 23.3792ZM87.6071 11.0897C87.5757 11.0553 87.5437 11.0208 87.5123 10.9864C87.3395 11.255 86.9406 11.2837 86.889 11.6831C87.1285 11.4851 87.3675 11.2871 87.6071 11.0891V11.0897ZM89.3717 9.47343L89.4771 9.56482C89.6589 9.38035 89.8407 9.19644 90.0225 9.01197C89.9911 8.98094 89.9596 8.94992 89.9282 8.91889C89.7425 9.10392 89.5568 9.28896 89.3711 9.47343H89.3717ZM86.9703 11.0124C86.7285 10.9661 86.4951 10.9249 86.3997 11.2267C86.747 11.3339 86.7852 11.3193 86.9703 11.0124ZM79.9985 18.9198C79.9705 18.904 79.943 18.8882 79.915 18.8724C79.8089 19.0552 79.7034 19.2374 79.5974 19.4202C79.6282 19.4377 79.6591 19.4546 79.6894 19.4721C79.7926 19.2882 79.8953 19.1037 79.9985 18.9198ZM88.2776 32.4561C88.2282 32.4674 88.1783 32.4787 88.1289 32.4905C88.1912 32.6868 88.2535 32.8831 88.3157 33.0795C88.3359 33.0744 88.3561 33.0699 88.3763 33.0648C88.3432 32.8617 88.3107 32.6592 88.2776 32.4561Z" fill="white"/>
<path d="M77.9543 26.7428C77.6261 26.6542 77.8673 26.4483 77.9201 26.3045C77.9358 26.2622 78.1198 26.2825 78.2264 26.2734C78.2315 26.366 78.2707 26.4793 78.232 26.5465C78.1871 26.6249 78.0732 26.6633 77.9537 26.7422L77.9543 26.7428Z" fill="white"/>
<path d="M77.9258 27.0887C78.1171 27.0588 78.3079 27.0283 78.5368 26.9922C78.5317 27.048 78.5368 27.1445 78.5216 27.1479C78.3354 27.1868 78.1463 27.2122 77.9583 27.2415C77.9477 27.1908 77.9364 27.14 77.9258 27.0887Z" fill="white"/>
</g>
<g clip-path="url(#clip1_2692_1108)">
<path d="M120.899 27.3769C120.558 27.2789 120.597 27.0459 120.593 26.7626C120.589 26.407 120.899 26.388 121.028 26.2116C121.135 26.2194 121.238 26.2273 121.341 26.2351C121.344 26.2161 121.346 26.1965 121.349 26.1774C121.305 26.1528 121.263 26.1281 121.182 26.0817C121.261 26.0273 121.315 25.9853 121.375 25.9512C121.439 25.9142 121.557 25.8952 121.567 25.8498C121.643 25.5055 121.967 25.5816 122.178 25.5055C122.415 25.4203 122.686 25.4248 122.943 25.4058C123.216 25.3851 123.491 25.375 123.765 25.3744C124.05 25.3733 124.336 25.3772 124.62 25.4013C124.804 25.417 124.99 25.4562 125.166 25.5133C125.361 25.5777 125.547 25.6746 125.76 25.7205C125.643 25.6152 125.526 25.5099 125.409 25.4047C125.611 25.422 125.767 25.6399 125.96 25.4047C125.968 25.3951 126.075 25.4321 126.089 25.4663C126.217 25.7804 126.547 25.6992 126.771 25.8213C126.831 25.8538 126.9 25.8689 126.959 25.903C127.062 25.9635 127.157 26.038 127.262 26.0962C127.588 26.2765 127.915 26.4524 128.244 26.6265C128.274 26.6422 128.316 26.636 128.399 26.6455C128.44 26.3107 128.518 25.9825 128.516 25.6544C128.51 24.2763 128.473 22.8983 128.463 21.5202C128.457 20.7531 128.481 19.9853 128.496 19.2182C128.513 18.3071 128.538 17.3961 128.552 16.485C128.554 16.3456 128.507 16.2056 128.476 16.0242C128.07 16.214 127.713 16.3691 127.366 16.5444C126.519 16.9727 125.647 17.3126 124.704 17.4879C123.583 17.6962 122.47 17.9146 121.321 17.8905C120.698 17.8771 120.074 17.9152 119.452 17.9532C119.281 17.9633 119.112 18.0473 118.949 18.1134C118.639 18.2383 118.335 18.3749 117.977 18.5289C118.379 17.7528 118.915 17.213 119.645 16.8563C120.028 16.6692 120.385 16.429 120.765 16.2353C120.959 16.1356 121.197 16.1149 121.386 16.0074C121.988 15.6658 122.581 15.308 123.169 14.9418C123.676 14.6259 124.169 14.2866 124.673 13.9669C124.753 13.9159 124.84 13.7703 124.967 13.9159C124.97 13.9193 125.041 13.884 125.053 13.8549C125.212 13.4903 125.595 13.4304 125.885 13.2451C125.936 13.2126 125.993 13.1868 126.036 13.1454C126.104 13.0804 126.161 12.9584 126.223 13.1504C126.225 13.1583 126.329 13.1476 126.374 13.1247C126.533 13.0452 126.682 12.9444 126.844 12.8738C127.018 12.7971 127.167 12.6588 127.407 12.7445C127.491 12.7747 127.668 12.5922 127.781 12.4858C127.904 12.3715 127.979 12.1643 128.117 12.1156C128.654 11.9252 128.872 11.512 128.957 11.0103C129.049 10.471 129.192 9.91498 129.135 9.38525C129.098 9.03976 129.251 8.73402 129.179 8.3818C129.112 8.41596 129.057 8.44508 128.958 8.49547C129.125 7.56034 129.279 6.65264 129.451 5.7483C129.595 4.99571 129.805 4.26496 130.158 3.57452C130.308 3.27998 130.56 3.16071 130.825 3.07895C131.064 3.00504 131.333 3.02688 131.673 3C131.583 3.39309 131.535 3.70443 131.437 3.99897C131.323 4.34279 131.324 4.67429 131.345 5.03434C131.366 5.42184 131.284 5.83845 131.147 6.20579C130.938 6.76631 130.825 7.33355 130.98 7.90023C131.246 8.87849 131.179 9.87578 131.239 10.8664C131.241 10.9117 131.248 10.9571 131.258 11.059C131.542 11.0019 131.814 10.9593 132.077 10.8854C132.132 10.8697 132.183 10.7387 132.185 10.6592C132.188 10.5763 132.128 10.4923 132.079 10.3669C132.181 10.424 132.259 10.4458 132.304 10.4968C132.556 10.7818 132.868 10.7146 133.189 10.6754C133.825 10.5981 134.464 10.5365 135.103 10.4817C135.217 10.4721 135.337 10.5287 135.463 10.5561C135.458 10.653 135.454 10.742 135.451 10.8272C135.581 10.8815 135.699 10.9302 135.843 10.9901C135.779 11.0713 135.733 11.1301 135.693 11.1799C135.813 11.288 135.928 11.3933 136.044 11.498C136.021 11.5114 135.997 11.5243 135.974 11.5378C136.025 11.6318 136.054 11.7539 136.131 11.8144C136.255 11.9118 136.268 11.9908 136.228 12.1425C136.139 12.483 135.946 12.6482 135.634 12.8497C134.946 13.2938 134.187 13.3162 133.444 13.4803C132.88 13.6046 132.332 13.8017 131.782 13.9803C131.569 14.0497 131.479 14.1981 131.478 14.4479C131.478 15.0207 131.427 15.5936 131.404 16.1664C131.376 16.8585 131.362 17.5518 131.331 18.2439C131.315 18.6056 131.248 18.9668 131.255 19.3268C131.261 19.6544 131.363 19.9803 131.37 20.3079C131.374 20.528 131.273 20.7486 131.245 20.9726C131.23 21.0935 131.274 21.2206 131.284 21.3455C131.294 21.476 131.297 21.6064 131.299 21.7375C131.306 22.1266 131.326 22.5164 131.31 22.9044C131.29 23.3692 131.236 23.8323 131.203 24.2965C131.2 24.3435 131.227 24.4163 131.264 24.4376C131.425 24.5322 131.427 24.6347 131.318 24.7725C131.204 24.9169 131.235 25.6544 131.328 25.809C131.373 25.8823 131.399 26.024 131.358 26.0811C131.225 26.267 131.179 26.4199 131.341 26.6192C131.381 26.6691 131.297 26.8141 131.278 26.9166C131.254 27.0465 131.012 27.187 131.296 27.3113C131.311 27.3181 131.293 27.4536 131.259 27.5107C130.919 28.0796 131.176 28.9268 131.786 29.1049C131.916 29.143 131.935 29.2113 132.001 29.2718C132.075 29.3401 132.147 29.4106 132.218 29.4818C132.308 29.5719 132.398 29.6609 132.485 29.7539C132.573 29.8485 132.631 30.0484 132.77 29.8771C132.905 29.9101 133.045 29.9096 133.134 29.9756C133.244 30.0568 133.342 30.1828 133.388 30.3099C133.475 30.549 133.556 30.6633 133.837 30.7669C133.778 30.6493 133.732 30.5574 133.686 30.4656C133.702 30.4516 133.719 30.4376 133.735 30.4236C133.959 30.6862 134.213 30.9287 134.399 31.2154C134.71 31.6925 135.018 32.1589 135.537 32.4423C135.595 32.4736 135.624 32.556 135.665 32.6159C135.88 32.93 136.095 33.2441 136.31 33.5588C136.32 33.5734 136.336 33.5913 136.334 33.6064C136.271 34.1384 136.602 34.5763 136.683 35.0724C136.718 35.2908 136.713 35.5165 136.725 35.7141C136.353 35.7259 136.672 36.0143 136.529 36.096C136.373 36.1436 136.108 36.0378 136.146 36.3083C135.97 36.2948 135.803 36.2825 135.635 36.2696C135.678 36.2478 135.72 36.2259 135.762 36.2041C135.627 36.1263 135.492 36.0484 135.357 35.97C135.182 36.0417 135.084 36.3027 134.931 36.0619C134.879 36.1285 134.828 36.1957 134.729 36.3239C134.552 36.2467 134.304 36.1391 134.047 36.0272C134.057 36.1039 134.067 36.1811 134.083 36.3049C133.906 36.1856 133.777 36.1056 133.556 36.1431C133.393 36.1711 133.216 36.0563 133.115 36.2937C132.74 35.848 132.493 35.2964 132.037 34.9727C131.925 34.8115 131.831 34.6737 131.735 34.5371C131.714 34.5074 131.665 34.4721 131.671 34.4514C131.755 34.1625 131.511 34.0208 131.394 33.822C131.315 33.6871 131.258 33.5387 131.17 33.411C131.072 33.2682 130.972 33.1086 130.833 33.0174C130.636 32.8886 130.407 32.813 130.682 32.5072C130.527 32.5224 130.426 32.5319 130.299 32.5442V32.1388C130.146 32.1841 130.024 32.2211 129.874 32.2653C129.892 32.1629 129.907 32.0805 129.921 31.9977C129.795 32.1937 129.447 32.2804 129.644 32.6254C129.19 32.8342 128.752 33.0358 128.277 33.2542H127.197C127.035 33.1204 126.875 33.0134 126.746 32.8779C126.576 32.6987 126.411 32.79 126.233 32.8438C126.175 32.8611 126.106 32.846 126.042 32.8415C125.897 32.8309 125.752 32.8225 125.607 32.804C125.454 32.7844 125.301 32.7553 125.093 32.7211C125.173 32.8247 125.22 32.8852 125.293 32.9798C125.081 33.0028 124.893 32.9955 124.725 33.0504C124.601 33.0907 124.491 33.1993 124.398 33.2985C124.176 33.5359 124.036 33.5555 123.781 33.3483C123.666 33.2548 123.565 33.1422 123.445 33.0566C123.246 32.9149 123.037 32.8074 122.769 32.8483C122.68 32.8617 122.535 32.79 122.484 32.7127C122.214 32.3028 121.983 31.8666 121.704 31.4635C121.533 31.2188 121.273 31.0357 121.106 30.7898C121.014 30.6549 120.981 30.437 121.012 30.2735C121.059 30.0249 121.067 29.8429 120.908 29.6038C120.775 29.4045 120.525 29.171 120.73 28.816C120.813 28.6715 120.655 28.3893 120.604 28.1703C120.593 28.1216 120.542 28.0622 120.557 28.0309C120.661 27.8153 120.778 27.6053 120.901 27.3724L120.899 27.3769ZM122.834 28.3557C122.805 28.3461 122.776 28.3366 122.747 28.3271C122.733 28.7818 122.681 29.2438 123.025 29.6531C123.04 29.5187 123.052 29.4034 123.06 29.3289C123.233 29.7119 123.408 30.1218 123.604 30.521C123.658 30.6297 123.766 30.7652 123.87 30.7865C124.207 30.8565 124.555 30.8794 124.947 30.9265C124.953 30.9349 124.989 31.0362 125.051 31.0553C125.341 31.1437 125.646 31.2916 125.93 31.2647C126.367 31.2227 126.789 31.0474 127.221 30.9427C127.501 30.8749 127.491 30.5535 127.703 30.4214C127.735 30.4018 127.7 30.1811 127.633 30.1201C127.484 29.9829 127.301 29.8776 127.121 29.7808C127.074 29.7556 126.984 29.8088 126.95 29.8172C126.813 29.7354 126.684 29.6593 126.556 29.5831C126.524 29.6408 126.491 29.6985 126.444 29.7819C126.342 29.6789 126.222 29.5596 126.079 29.4168C125.811 29.4571 125.734 29.2085 125.623 28.9789C125.453 29.1419 125.289 29.0758 125.162 28.9414C124.921 28.6838 124.687 28.4229 124.339 28.303C124.205 28.2566 124.07 28.2106 123.944 28.167C124.031 28.0589 124.141 27.9788 124.129 27.9245C124.114 27.8523 124.013 27.7789 123.932 27.7448C123.681 27.6384 123.423 27.5504 123.174 27.4586C123.094 27.5437 123.028 27.6137 122.962 27.6832C123.073 27.7912 123.173 27.8875 123.256 27.9676C123.15 28.0505 123.085 28.093 123.031 28.1457C122.961 28.2118 122.9 28.2862 122.835 28.3573L122.834 28.3557Z" fill="white"/>
<path d="M114.656 36.2085C114.716 36.4308 114.822 36.7074 114.86 36.9936C114.921 37.4499 114.774 37.857 114.458 38.2008C114.397 38.2669 114.355 38.3509 114.292 38.4147C114.212 38.4954 114.126 38.5727 114.032 38.6359C113.888 38.7334 113.736 38.8174 113.616 38.9338C113.476 38.9579 113.331 39.0173 113.198 38.9971C112.979 38.9641 112.754 38.9064 112.558 38.8056C112.471 38.7608 112.452 38.5861 112.395 38.4545C112.478 38.4433 112.527 38.4371 112.598 38.4276C112.42 38.0468 112.572 37.7574 112.805 37.4662C112.907 37.3379 112.951 37.1492 112.981 36.9812C113.043 36.6313 113.08 36.2768 113.124 35.9235C113.132 35.8591 113.125 35.793 113.125 35.7275C113.098 35.7247 113.071 35.7219 113.044 35.7191C113 35.9475 112.955 36.176 112.912 36.4039C112.947 35.7913 112.514 35.4565 112.143 35.0623C111.921 34.8259 111.782 34.504 111.64 34.2038C111.176 33.2211 110.857 32.1975 110.721 31.1117C110.648 30.526 110.495 29.9459 110.33 29.3775C110.196 28.9161 109.957 28.4849 109.826 28.023C109.718 27.645 109.69 27.2424 109.646 26.8487C109.542 25.9091 109.619 24.9756 109.742 24.0422C109.786 23.704 109.777 23.3585 109.787 23.0158C109.794 22.7588 109.799 22.5012 109.793 22.2436C109.78 21.6646 109.74 21.0856 109.748 20.5071C109.758 19.8514 109.811 19.1968 109.839 18.5411C109.854 18.2001 109.89 17.8552 109.855 17.5181C109.814 17.125 110.004 16.8209 110.145 16.4916C110.176 16.42 110.214 16.3169 110.185 16.2587C109.989 15.86 110.161 15.472 110.216 15.0867C110.287 14.5945 110.401 14.1079 110.51 13.6224C110.556 13.4186 110.628 13.2192 110.705 13.0244C110.904 12.517 111.035 12.0019 111.019 11.4481C111.006 11.0298 111.013 10.6042 111.076 10.1915C111.132 9.82474 111.278 9.4714 111.383 9.11134C111.433 8.93999 111.502 8.77033 111.525 8.59506C111.609 7.95726 111.818 7.35922 112.197 6.84741C112.613 6.28689 113.194 5.98507 113.917 6.00915C113.927 6.00915 113.937 6.00747 113.945 6.01195C114.36 6.25217 114.792 6.46832 115.184 6.74158C115.561 7.00364 115.682 7.46169 115.887 7.84695C115.967 7.99646 115.925 8.20812 115.943 8.39067C115.964 8.59842 115.96 8.80728 116.146 8.96687C116.451 9.23006 116.51 9.56043 116.423 9.95073C116.374 10.1747 116.405 10.4183 116.415 10.6524C116.463 11.7185 116.13 12.7097 115.833 13.7109C115.655 14.3084 115.518 14.9176 115.361 15.5218C115.25 15.9524 115.163 16.3914 115.018 16.8103C114.753 17.5724 114.623 18.3591 114.53 19.1532C114.439 19.9276 114.373 20.7048 114.306 21.4815C114.271 21.8942 114.274 22.3102 114.228 22.7218C114.195 23.0152 114.108 23.3025 114.045 23.5925C114.036 23.6368 113.997 23.7006 114.014 23.7219C114.298 24.0758 113.993 24.4022 113.974 24.7405C113.968 24.8497 113.983 24.96 113.983 25.0697C113.983 25.1867 113.981 25.3038 113.974 25.4203C113.965 25.5726 113.948 25.7243 113.938 25.8766C113.935 25.9225 113.96 25.9769 113.942 26.0138C113.702 26.5178 113.882 27.1046 113.624 27.6058C113.599 27.6534 113.605 27.7514 113.639 27.7889C113.969 28.1568 113.856 28.6115 113.898 29.0348C113.939 29.4581 113.982 29.8809 114.014 30.3054C114.061 30.9045 114.065 31.5087 114.147 32.1028C114.243 32.8039 114.405 33.4966 114.535 34.1926C114.602 34.5476 114.609 34.8791 114.422 35.2269C114.31 35.4357 114.338 35.7308 114.351 35.9851C114.355 36.0573 114.529 36.1211 114.653 36.2091L114.656 36.2085Z" fill="white"/>
<path d="M140.153 4.85757C140.088 4.82509 140.024 4.79205 139.959 4.75958C139.959 4.74278 139.96 4.72598 139.96 4.70918C140.222 4.70918 140.492 4.67334 140.742 4.72598C140.848 4.74782 140.953 4.9466 140.987 5.08267C141.037 5.27698 141.123 5.3453 141.32 5.40353C141.645 5.49929 141.947 5.67344 142.259 5.81399C142.25 5.83582 142.24 5.85822 142.231 5.88006C142.192 5.89126 142.152 5.9019 142.154 5.90134C142.255 6.06373 142.417 6.22164 142.448 6.40195C142.487 6.63489 142.639 6.74184 142.79 6.85552C143.079 7.07278 143.319 7.28557 143.327 7.7005C143.332 7.9368 143.484 8.17031 143.596 8.47605C143.131 8.44077 142.783 8.70003 142.328 8.44917C142.008 8.27222 141.738 8.0404 141.436 7.85001C141.322 7.77833 141.283 7.59859 141.183 7.49275C140.879 7.17134 140.55 6.87344 140.255 6.54474C140.072 6.33923 139.932 6.09453 139.812 5.81007C139.91 5.86102 140.007 5.91366 140.106 5.96182C140.181 5.99821 140.258 6.02957 140.335 6.06373C140.322 5.95398 140.318 5.8431 140.293 5.73615C140.285 5.70255 140.224 5.68127 140.162 5.63592C140.367 5.57544 140.504 5.54408 140.692 5.68743C140.824 5.78823 141.076 5.73223 141.275 5.74623C141.282 5.72383 141.289 5.70087 141.296 5.67847C141.101 5.58776 140.901 5.50545 140.714 5.40185C140.643 5.36266 140.566 5.28146 140.551 5.20755C140.506 4.97628 140.356 4.88837 140.147 4.85645L140.153 4.85757Z" fill="white"/>
<path d="M138.228 6.55469C138.214 6.6594 138.209 6.70196 138.203 6.74675C138.328 6.73948 138.443 6.73276 138.558 6.72548C138.573 6.74731 138.586 6.76915 138.6 6.79099C138.417 6.95618 138.234 7.12137 138.045 7.2916C138.444 7.26416 138.859 7.23504 139.283 7.20592C139.232 7.34815 139.189 7.46463 139.126 7.63654C139.221 7.6035 139.309 7.58838 139.309 7.57102C139.313 7.41759 139.393 7.34535 139.522 7.42151C139.626 7.48367 139.781 7.66733 139.764 7.69253C139.542 8.00667 139.945 7.95067 139.926 8.10242C139.946 8.26593 139.967 8.43 139.98 8.53472C139.875 8.73014 139.785 8.89757 139.672 9.107C139.532 9.04036 139.388 8.93901 139.232 8.91213C139.158 8.89981 139.06 9.03252 138.943 9.12324C138.589 9.02692 139.039 8.75814 138.858 8.57895C138.793 8.63159 138.72 8.69038 138.65 8.7475C138.551 8.48768 138.145 8.2245 137.888 8.32249C137.751 8.37457 137.684 8.33817 137.575 8.30849C137.478 8.28217 137.363 8.32585 137.176 8.34881C137.485 7.8734 137.927 7.75189 138.338 7.57662C138.239 7.27536 138.054 7.5027 137.875 7.53462C137.87 7.46575 137.866 7.40415 137.856 7.27368C137.604 7.36831 137.38 7.45735 137.151 7.53686C137.057 7.5699 136.955 7.58166 136.824 7.61022C137.124 6.98922 137.654 6.78091 138.228 6.55525V6.55469Z" fill="white"/>
<path d="M140.148 4.85495C140.229 4.91318 140.31 4.97142 140.397 5.03413C140.171 5.14501 139.704 5.02797 139.418 4.76367C139.626 4.80623 139.771 4.84151 139.918 4.86279C139.996 4.87398 140.078 4.86055 140.156 4.85719C140.155 4.85607 140.148 4.85495 140.148 4.85495Z" fill="white"/>
<path d="M137.204 6.97519C137.041 7.09838 136.878 7.22214 136.709 7.35037C136.58 7.03399 136.654 6.95391 137.115 6.88672C137.145 6.9164 137.174 6.94551 137.204 6.97519Z" fill="white"/>
</g>
<defs>
<clipPath id="clip0_2692_1108">
<rect width="24" height="39" fill="white" transform="translate(75.5977 2)"/>
</clipPath>
<clipPath id="clip1_2692_1108">
<rect width="34" height="36" fill="white" transform="translate(109.598 3)"/>
</clipPath>
</defs>
</svg>
