<svg width="191" height="90" viewBox="0 0 191 90" fill="none" xmlns="http://www.w3.org/2000/svg">
<g clip-path="url(#clip0_2718_1111)">
<path d="M35.9153 53.1699V46.4899C35.9153 42.8499 36.2853 40.8299 36.8653 39.7199C36.7153 33.2399 35.2053 32.6699 33.5353 32.6699C31.7753 32.6699 30.1953 33.2899 30.1953 40.7999V47.4799C30.1953 55.5199 31.5153 56.1199 33.5353 56.1199C34.5253 56.1199 35.3453 55.9699 35.9253 54.8699C35.9153 54.3399 35.9053 53.7799 35.9053 53.1799L35.9153 53.1699Z" fill="#636864"/>
<path d="M33.9366 27.8789C29.0166 27.8789 23.9766 29.2489 23.9766 40.8289V47.5089C23.9766 59.3989 28.4866 60.9889 33.9366 60.9889C39.3866 60.9889 43.8966 59.4089 43.8966 47.5089V40.8289C43.8966 29.2389 38.8566 27.8789 33.9366 27.8789ZM37.4566 47.5089C37.4566 55.2289 36.3066 56.3289 33.9366 56.3289C31.5666 56.3289 30.4266 55.2289 30.4266 47.5089V40.8289C30.4266 34.0289 31.6166 32.5289 33.9366 32.5289C36.2566 32.5289 37.4566 34.0289 37.4566 40.8289V47.5089Z" fill="white"/>
<path d="M33.9397 32.5312C31.6197 32.5312 30.4297 34.0312 30.4297 40.8312V47.5112C30.4297 55.2312 31.5697 56.3312 33.9397 56.3312C36.3097 56.3312 37.4597 55.2312 37.4597 47.5112V40.8312C37.4597 34.0312 36.2697 32.5312 33.9397 32.5312ZM36.6997 47.5112C36.6997 55.5713 35.4197 55.5712 33.9397 55.5712C32.4597 55.5712 31.1897 55.5713 31.1897 47.5112V40.8312C31.1897 33.8612 32.4397 33.2912 33.9397 33.2912C35.4397 33.2912 36.6997 33.8612 36.6997 40.8312V47.5112Z" fill="#636864"/>
<path d="M58.3077 53.1699V46.4899C58.3077 42.8499 58.6777 40.8299 59.2577 39.7199C59.1077 33.2399 57.5977 32.6699 55.9277 32.6699C54.1677 32.6699 52.5977 33.2899 52.5977 40.7999V47.4799C52.5977 55.5199 53.9177 56.1199 55.9277 56.1199C56.9177 56.1199 57.7377 55.9699 58.3277 54.8699C58.3177 54.3399 58.3077 53.7799 58.3077 53.1799V53.1699Z" fill="#636864"/>
<path d="M56.3264 32.5312C54.0064 32.5312 52.8164 34.0312 52.8164 40.8312V47.5112C52.8164 55.2312 53.9564 56.3312 56.3264 56.3312C58.6964 56.3312 59.8464 55.2312 59.8464 47.5112V40.8312C59.8464 34.0312 58.6564 32.5312 56.3264 32.5312ZM59.0864 47.5112C59.0864 55.5713 57.8064 55.5712 56.3264 55.5712C54.8464 55.5712 53.5764 55.5713 53.5764 47.5112V40.8312C53.5764 33.8612 54.8264 33.2912 56.3264 33.2912C57.8264 33.2912 59.0864 33.8612 59.0864 40.8312V47.5112Z" fill="#636864"/>
<path d="M46.3789 47.5089C46.3789 59.3989 50.8989 60.9889 56.3389 60.9889C61.7789 60.9889 66.2989 59.4089 66.2989 47.5089V40.8289C66.2989 29.2389 61.2589 27.8789 56.3389 27.8789C51.4189 27.8789 46.3789 29.2489 46.3789 40.8289V47.5089ZM56.3389 32.5289C58.6689 32.5289 59.8489 34.0289 59.8489 40.8289V47.5089C59.8489 55.2289 58.7089 56.3289 56.3389 56.3289C53.9689 56.3289 52.8289 55.2289 52.8289 47.5089V40.8289C52.8289 34.0289 54.0089 32.5289 56.3389 32.5289Z" fill="white"/>
<path d="M12.9088 27.8811C5.83875 27.8811 2.46875 31.0911 2.46875 42.2411V46.5411C2.46875 57.6911 5.83875 60.9011 12.9088 60.9011C18.7488 60.9011 21.7787 57.3411 21.7787 53.0011V50.2811C21.7787 50.0211 21.5688 49.4911 21.0287 49.4911C20.4587 49.4911 17.3887 49.4911 16.8087 49.4911C16.4187 49.4911 16.1088 49.7711 16.0688 50.1211C15.9488 50.8611 15.7587 52.1411 15.6488 53.0311C15.3387 55.2211 14.4688 56.2311 12.9288 56.2311C10.2487 56.2311 9.32875 55.0511 9.32875 45.6011V43.1511C9.32875 33.7111 10.2487 32.5211 12.9288 32.5211C14.4688 32.5211 15.3387 33.5311 15.6488 35.7311C15.7688 36.6211 15.9588 37.8911 16.0688 38.6411C16.1188 39.0011 16.4187 39.2711 16.8087 39.2711C17.3987 39.2711 20.4587 39.2711 21.0287 39.2711C21.5688 39.2711 21.7787 38.7411 21.7787 38.4911V35.7811C21.7787 31.4311 18.7488 27.8711 12.9088 27.8711V27.8811Z" fill="white"/>
<path d="M73.7494 60.0102C74.0194 60.1502 74.2894 60.2802 74.5694 60.3802C74.8494 60.4902 75.1394 60.5802 75.4294 60.6602C75.7194 60.7402 76.0194 60.8002 76.3194 60.8502C76.4494 60.8702 76.5794 60.8802 76.7194 60.9002C76.8094 60.9102 76.9094 60.9302 77.0094 60.9402C77.0794 60.9402 77.1594 60.9602 77.2294 60.9702C77.3194 60.9702 77.3994 60.9802 77.4894 60.9902C77.6094 61.0002 77.7394 61.0102 77.8694 61.0202C77.9594 61.0202 78.0594 61.0402 78.1494 61.0402C78.4594 61.0502 78.7694 61.0602 79.0694 61.0602C79.3694 61.0602 79.6894 61.0602 79.9894 61.0402C80.2994 61.0302 80.5994 61.0102 80.9094 60.9802C81.2094 60.9502 81.5194 60.9102 81.8194 60.8602C82.1194 60.8102 82.4094 60.7402 82.6994 60.6702C82.9894 60.5902 83.2794 60.5002 83.5594 60.3902C83.8394 60.2802 84.1094 60.1602 84.3794 60.0202C84.6494 59.8802 84.9094 59.7202 85.1594 59.5402C85.4094 59.3602 85.6594 59.1602 85.8894 58.9302C86.1194 58.7102 86.3494 58.4602 86.5594 58.1902C86.7694 57.9202 86.9794 57.6202 87.1694 57.3002C87.3594 56.9802 87.5394 56.6302 87.6994 56.2502C87.8694 55.8702 88.0194 55.4602 88.1494 55.0302C88.1694 54.9702 88.1794 54.9202 88.1994 54.8702C89.6694 50.4402 87.6794 47.4402 87.6794 47.4402C87.3394 46.8002 86.8894 46.1902 86.3494 45.6102C86.3194 45.5702 86.2794 45.5402 86.2394 45.5002H86.2494C86.1894 45.4402 86.0994 45.3502 85.9794 45.2402C85.5094 44.7802 84.9794 44.3402 84.3694 43.9102C84.2794 43.8402 84.1894 43.7802 84.0994 43.7102C84.0094 43.6402 83.9194 43.5802 83.8294 43.5102C83.7394 43.4402 83.6394 43.3802 83.5494 43.3202C83.5194 43.3002 83.4894 43.2802 83.4494 43.2602C82.1294 42.2902 80.4594 41.1502 78.6494 40.0502C77.6894 39.4602 76.8594 38.8502 76.5994 38.5002C76.1694 37.9202 75.6294 37.0002 75.6394 35.9902C75.6394 33.8002 77.2094 32.6102 78.8094 32.6102C79.4894 32.6102 80.1894 32.8102 80.7694 33.2702C80.9794 33.4602 81.0994 33.6102 81.3294 33.9902C81.5094 34.2802 81.7494 35.0802 81.9594 36.2202C82.0794 37.0502 82.2294 38.0502 82.3194 38.6802C82.3694 39.0402 82.6694 39.3102 83.0594 39.3102C83.6494 39.3102 86.7094 39.3102 87.2894 39.3102C87.8294 39.3102 88.0394 38.7802 88.0394 38.5302V35.8202C88.0394 35.1802 87.9694 34.5502 87.8394 33.9502H87.8594C87.8394 33.8702 87.8094 33.8002 87.7894 33.7402C87.7894 33.7202 87.7894 33.6902 87.7794 33.6702C87.4394 32.3702 86.7894 31.2102 85.8294 30.2702C85.7494 30.1902 85.6794 30.1102 85.5994 30.0302C85.3594 29.8102 85.1194 29.6002 84.8694 29.4302C84.6194 29.2502 84.3594 29.0902 84.0894 28.9502C83.8194 28.8102 83.5494 28.6802 83.2694 28.5802C82.9894 28.4702 82.6994 28.3802 82.4094 28.3002C82.1194 28.2202 81.8194 28.1602 81.5194 28.1102C81.2194 28.0602 80.9194 28.0202 80.6094 27.9902C80.4394 27.9702 80.2594 27.9602 80.0794 27.9502C80.0694 27.9502 80.0594 27.9502 80.0394 27.9502C79.9194 27.9502 79.7994 27.9302 79.6894 27.9302C79.3794 27.9202 79.0694 27.9102 78.7694 27.9102C78.4694 27.9102 78.1494 27.9102 77.8494 27.9302C77.5394 27.9402 77.2394 27.9602 76.9294 27.9902C76.6294 28.0202 76.3194 28.0602 76.0194 28.1102C75.7194 28.1602 75.4294 28.2202 75.1294 28.3002C74.8394 28.3802 74.5494 28.4702 74.2694 28.5802C73.9894 28.6902 73.7094 28.8102 73.4494 28.9502C73.1794 29.0902 72.9194 29.2502 72.6694 29.4302C72.4194 29.6102 72.1694 29.8102 71.9394 30.0302C71.7094 30.2502 71.4794 30.5002 71.2694 30.7702C71.0594 31.0402 70.8494 31.3402 70.6594 31.6602C70.4694 31.9802 70.2894 32.3302 70.1194 32.7102C69.9494 33.0902 69.7994 33.5002 69.6694 33.9402C69.6494 34.0002 69.6394 34.0502 69.6194 34.1002C68.1494 38.5302 70.1394 41.5302 70.1394 41.5302C70.4794 42.1702 70.9294 42.7802 71.4694 43.3602C71.4994 43.4002 71.5394 43.4302 71.5794 43.4702H71.5694C71.6294 43.5302 71.7194 43.6202 71.8394 43.7302C72.3094 44.1902 72.8394 44.6302 73.4394 45.0602C73.5294 45.1302 73.6194 45.1902 73.7094 45.2602C73.7994 45.3302 73.8894 45.3902 73.9794 45.4602C74.0694 45.5202 74.1694 45.5902 74.2594 45.6502C74.2894 45.6702 74.3194 45.6902 74.3594 45.7102C75.6794 46.6802 77.3494 47.8202 79.1594 48.9202C80.1194 49.5102 80.9494 50.1202 81.2094 50.4702C81.6394 51.0502 82.1794 51.9602 82.1694 52.9802C82.1694 55.1702 80.6094 56.3602 78.9994 56.3602C78.3194 56.3602 77.6194 56.1702 77.0394 55.7102C76.8394 55.5202 76.7094 55.3602 76.4794 54.9902C76.3194 54.7202 76.0394 54.0402 75.8094 53.0602C75.6894 52.1802 75.5094 51.0002 75.4094 50.3002C75.3594 49.9402 75.0594 49.6702 74.6594 49.6702C74.0694 49.6702 71.0094 49.6702 70.4394 49.6702C69.8694 49.6702 69.6894 50.2002 69.6894 50.4502V53.1602C69.6894 53.9102 69.7794 54.6302 69.9594 55.3102C70.3994 57.0302 71.4094 58.5202 72.9494 59.5502C73.1994 59.7302 73.4594 59.8902 73.7294 60.0302L73.7494 60.0102Z" fill="white"/>
<path d="M96.458 51.6104C97.008 53.4404 96.648 54.5504 95.198 54.6804C94.958 54.7004 94.648 54.7104 94.298 54.7104C93.778 54.7104 93.178 54.7004 92.658 54.7004C92.218 54.7004 91.828 54.7004 91.578 54.7504C91.228 54.8004 90.948 55.1004 90.948 55.5004C90.948 56.0904 90.948 59.4804 90.948 60.0604C90.948 60.6404 91.478 60.8204 91.738 60.8204H96.448C99.038 60.8204 100.898 59.7404 101.978 57.6204C102.578 56.4504 103.068 54.2904 103.558 52.1004C109.088 29.3504 107.998 34.0804 108.418 32.0804C108.858 30.0004 108.968 29.1904 108.998 28.9504C109.028 28.7104 108.888 28.1504 108.298 28.1504H103.488C102.878 28.1504 102.708 28.5304 102.658 28.8304C102.578 29.3004 100.398 38.9604 99.438 43.0204C99.418 43.0904 99.378 43.1304 99.338 43.1304C99.298 43.1304 99.258 43.1004 99.248 43.0304C98.288 38.9704 96.098 29.3004 96.028 28.8304C95.988 28.5404 95.808 28.1604 95.198 28.1504H90.528C89.938 28.1504 89.798 28.7004 89.828 28.9504C89.848 29.1904 90.398 30.9604 90.858 33.0404C91.588 36.3104 96.478 51.6304 96.478 51.6304L96.458 51.6104Z" fill="white"/>
<path d="M85.3594 69.7898C85.0494 69.7898 84.7294 69.7898 84.4194 69.7698L83.4794 69.7098L83.2294 69.6698L82.5494 69.5798C82.2294 69.5298 81.9194 69.4598 81.6194 69.3798C81.3094 69.2998 81.0094 69.1998 80.7194 69.0898C80.4294 68.9798 80.1394 68.8498 79.8594 68.6998C79.5694 68.5498 79.2994 68.3798 79.0394 68.1798C78.6694 67.9198 76.7494 65.8398 72.6594 61.2398C72.6594 61.2398 72.5894 61.5698 72.5594 61.6798L72.3594 62.4398L72.1394 63.1498L72.0994 63.2798C71.9994 63.5698 71.9294 63.7598 71.8494 63.9498L71.7494 64.1898C71.6794 64.3598 71.5994 64.5298 71.5294 64.6898L71.4194 64.9198C71.3694 65.0198 71.3194 65.1198 71.2594 65.2198L71.1194 65.4698L70.9894 65.6898L70.4794 65.5698L70.8994 65.8298L70.7894 65.9998L70.4694 66.4498C70.4694 66.4498 70.1894 66.7998 70.1294 66.8698C70.0794 66.9298 69.7694 67.2598 69.7694 67.2598L69.5994 67.4298C69.5394 67.4898 69.4694 67.5498 69.3994 67.6098C69.3194 67.6798 69.2394 67.7498 69.1494 67.8198L68.9794 67.9598C68.8794 68.0398 68.7894 68.0998 68.6894 68.1598L68.5294 68.2698C68.3294 68.3998 68.1194 68.5198 67.9094 68.6298C67.8694 68.6498 67.8194 68.6798 67.7594 68.6998C67.5594 68.7998 67.3394 68.8998 67.1194 68.9898C66.8494 69.0898 66.6294 69.1698 66.4094 69.2298L66.2894 69.2698C66.0694 69.3298 65.8394 69.3898 65.5994 69.4398L65.3594 68.9798L65.4594 69.4698C65.2194 69.5198 64.9894 69.5598 64.7394 69.5898C64.4594 69.6298 64.2194 69.6498 63.9794 69.6698H63.8394C63.6094 69.6998 63.3694 69.7098 63.1194 69.7198H62.9694C62.7194 69.7198 62.4594 69.7298 62.2094 69.7298C59.7494 69.7298 56.6494 69.3998 54.5294 66.8398C53.7994 65.9498 53.1594 65.1998 52.5994 64.5498C52.2294 64.1098 51.8994 63.7198 51.5994 63.3698C50.7694 62.3798 50.2094 61.6898 49.8294 61.2398L49.7294 61.6898L49.5294 62.4498L49.4494 62.7198L48.9294 62.6998L49.4094 62.8498C49.3794 62.9598 49.3394 63.0698 49.3094 63.1798L49.2594 63.3298C49.1694 63.5898 49.0994 63.7798 49.0194 63.9698L48.9394 64.1598C48.8494 64.3798 48.7694 64.5498 48.6894 64.7098L48.5894 64.9298L48.2894 65.4898C48.2294 65.5998 47.9994 65.9598 47.9594 66.0198L47.6394 66.4698L47.5294 66.6098L47.2994 66.8898C47.2994 66.8898 47.0094 67.2098 46.9394 67.2798L46.7694 67.4498L46.5694 67.6298C46.4794 67.7098 46.1494 67.9798 46.1494 67.9798C46.0494 68.0498 45.7094 68.2898 45.7094 68.2898C45.5094 68.4198 45.2994 68.5398 45.0894 68.6498L44.9594 68.7198C44.7494 68.8298 44.5294 68.9298 44.2994 69.0098C44.0294 69.1098 43.8094 69.1798 43.5894 69.2498L43.4694 69.2798C43.2394 69.3498 43.0094 69.3998 42.7794 69.4498L42.6294 69.4798C42.3994 69.5298 42.1594 69.5698 41.9194 69.5998C41.6394 69.6398 41.3994 69.6598 41.1594 69.6798H41.0194C40.7894 69.7098 40.5494 69.7198 40.2994 69.7298H40.1494C39.8994 69.7298 39.6394 69.7398 39.3894 69.7398C36.6894 69.7398 33.6594 69.3998 31.6994 66.8398L27.6894 61.5898C27.6794 61.7598 27.6594 61.9398 27.6394 62.1098L27.6194 62.2898C27.5894 62.4698 27.5594 62.6598 27.5194 62.8398L27.4694 63.0898C27.4194 63.3098 27.3494 63.5398 27.2794 63.7498C27.1794 64.0598 27.0894 64.2798 26.9894 64.4998L26.9094 64.6698C26.8094 64.8798 26.7094 65.0898 26.5894 65.2998C26.4494 65.5398 26.3194 65.7298 26.1894 65.9298L25.7094 65.7398L26.1194 66.0298C25.9794 66.2198 25.8294 66.3998 25.6794 66.5798C25.6794 66.5798 25.6094 66.6498 25.6094 66.6598C25.4094 66.8898 25.2394 67.0598 25.0594 67.2198C25.0594 67.2198 25.0594 67.2198 25.0494 67.2298C24.8594 67.3998 24.6694 67.5598 24.4694 67.7098C24.4194 67.7498 24.3594 67.7898 24.2994 67.8298C24.1294 67.9498 23.9794 68.0498 23.8194 68.1498L23.5694 68.2998C23.3994 68.3998 23.2194 68.4898 23.0494 68.5798L22.8294 68.6898C22.5894 68.7998 22.3294 68.9098 22.0594 69.0098L21.8994 69.0598C21.6794 69.1298 21.4494 69.1998 21.2194 69.2698C21.1394 69.2898 21.0394 69.3198 20.9394 69.3398C20.7194 69.3898 20.5194 69.4298 20.3094 69.4698C20.2094 69.4898 20.0894 69.5098 19.9794 69.5298C19.7594 69.5598 19.5394 69.5898 19.3194 69.6098C19.1894 69.6198 19.0994 69.6298 19.0094 69.6398C18.6794 69.6598 18.3494 69.6798 17.9994 69.6798C14.0994 69.6798 11.5394 68.6998 9.9194 66.5798C9.2594 65.7198 8.4394 64.7198 7.5694 63.6698C5.4094 61.0598 3.1794 58.3598 2.5794 56.6898C1.5494 53.7998 1.1094 50.1498 1.1094 44.4698V42.2798C1.0994 31.0698 4.5194 26.5198 12.9094 26.5198C16.0294 26.5198 18.6494 27.4598 20.4794 29.2198C21.3894 30.0998 22.5494 32.4098 23.3194 33.9298C23.3394 33.9698 23.3594 34.0098 23.3794 34.0498C23.9594 31.8998 24.8794 30.2398 26.1694 29.0198C28.4994 26.7998 31.5394 26.5098 33.9394 26.5098C36.9794 26.5098 40.7694 26.9898 43.0894 30.7098L43.1494 30.8098C44.1794 32.5498 45.0194 33.9298 45.5894 34.8298C46.1594 32.3098 47.1394 30.3998 48.5694 29.0298C50.8994 26.8098 53.9394 26.5198 56.3394 26.5198C59.3594 26.5198 63.1194 26.9898 65.4394 30.6398C65.6394 30.9498 67.0694 33.0698 68.0794 34.4898C68.1494 34.2098 68.2294 33.9298 68.3294 33.6498L68.3994 33.4498C68.5294 33.0198 68.6994 32.5798 68.8794 32.1498C69.0694 31.7098 69.2794 31.3098 69.4894 30.9498C69.7094 30.5798 69.9494 30.2298 70.1994 29.9098C70.4394 29.5998 70.7094 29.2998 70.9994 29.0298C71.2594 28.7798 71.5594 28.5298 71.8794 28.2998C72.1894 28.0798 72.4994 27.8898 72.8194 27.7198C73.1294 27.5598 73.4494 27.4098 73.7894 27.2798C74.1094 27.1598 74.4394 27.0498 74.7894 26.9598C75.1094 26.8798 75.4494 26.7998 75.7894 26.7398C76.1094 26.6898 76.4394 26.6398 76.7894 26.6098C77.1094 26.5798 77.4294 26.5598 77.7894 26.5398C78.0994 26.5298 78.4194 26.5198 78.7694 26.5198C79.1194 26.5198 79.4394 26.5198 79.7494 26.5398L80.2994 26.5798C80.4594 26.5798 80.6094 26.5998 80.7494 26.6098C81.0994 26.6398 81.4394 26.6898 81.7494 26.7398C82.0994 26.7998 82.4294 26.8698 82.7594 26.9598C83.0994 27.0498 83.4394 27.1598 83.7594 27.2798C84.0994 27.4098 84.4294 27.5598 84.7394 27.7198C85.0494 27.8798 85.3694 28.0798 85.6694 28.2998C85.9794 28.5198 86.2794 28.7698 86.5494 29.0298C86.6094 29.0798 86.6694 29.1498 86.7394 29.2198L86.9294 29.3998C86.9894 29.4598 87.0494 29.5298 87.1094 29.5898C87.3494 29.8398 87.5394 30.0598 87.7094 30.2798C87.7094 30.2898 87.7494 30.3198 87.7494 30.3298C88.1694 30.8798 88.8394 31.9198 89.4994 32.9798C89.1594 31.7498 88.8394 30.5798 88.7494 30.2498C88.5594 29.5398 88.4994 29.3098 88.4694 29.0998C88.3994 28.5198 88.5994 27.9098 88.9894 27.4698C89.3794 27.0298 89.9194 26.7898 90.5294 26.7898H95.1994C95.6194 26.7898 96.0194 26.8898 96.3494 27.0798C96.4294 27.1298 96.5794 27.2198 100.599 31.8098C101.059 29.7798 101.279 28.7498 101.309 28.6098C101.479 27.5098 102.329 26.7898 103.479 26.7898H108.299C108.909 26.7898 109.449 27.0298 109.839 27.4698C109.879 27.5098 115.149 33.7198 117.439 36.7198C117.459 36.7398 117.499 36.8098 117.509 36.8298C117.569 36.9298 117.609 37.0198 117.629 37.1198C117.629 37.1398 117.659 37.2198 117.659 37.2398C117.659 37.2898 117.679 37.3498 117.679 37.3998C117.679 37.5298 117.679 37.5998 117.669 37.6598V37.7498C117.669 37.7498 117.629 37.8798 117.619 37.8998L117.599 38.0198L117.559 38.1998C117.459 38.6898 117.269 39.4898 116.929 40.7898L116.799 41.2998C116.746 41.5064 116.569 42.1231 116.269 43.1498C115.689 45.1198 114.349 49.6198 111.129 60.5798L110.579 62.5398L110.399 63.1598L110.019 64.3398C110.019 64.3398 109.839 64.8398 109.769 65.0098C109.679 65.2398 109.609 65.4098 109.539 65.5698L109.479 65.7098C109.409 65.8698 109.329 66.0198 109.249 66.1498C109.169 66.2998 109.079 66.4398 108.989 66.5798C108.799 66.8598 108.649 67.0698 108.479 67.2698C108.299 67.4898 108.119 67.6698 107.929 67.8398L107.859 67.9098C107.799 67.9698 107.509 68.1998 107.509 68.1998C107.439 68.2498 107.369 68.3098 107.289 68.3598L107.139 68.4598C107.009 68.5498 106.879 68.6198 106.739 68.6998C106.739 68.6998 106.409 68.8698 106.319 68.9098L106.199 68.9598L105.899 68.5398L106.089 68.9998C106.009 69.0298 105.939 69.0598 105.859 69.0898C105.819 69.1098 105.749 69.1298 105.689 69.1498C105.579 69.1898 105.489 69.2198 105.399 69.2398C105.329 69.2598 105.259 69.2798 105.189 69.2998C105.099 69.3198 105.009 69.3398 104.909 69.3598L104.709 69.3998L104.409 69.4498L104.199 69.4798C104.109 69.4898 103.669 69.5298 103.669 69.5298C103.499 69.5298 103.319 69.5498 103.139 69.5498H98.4294C98.1194 69.5498 97.6794 69.3998 97.4094 69.0498L94.4494 65.1898L94.3694 65.3398C94.2694 65.5198 94.1694 65.6898 94.0594 65.8598C93.9694 66.0098 93.8694 66.1398 93.7794 66.2698C93.6094 66.5098 93.4894 66.6498 93.3694 66.7898C93.2594 66.9198 93.1394 67.0498 93.0194 67.1798L92.8994 67.2998C92.8194 67.3798 92.7194 67.4798 92.6194 67.5698C92.3494 67.8198 92.0794 68.0198 91.8094 68.2098C91.7194 68.2798 91.6194 68.3398 91.5094 68.3998L91.3494 68.4998C91.2194 68.5798 91.0794 68.6498 90.9394 68.7198C90.6494 68.8698 90.3494 68.9998 90.0494 69.1098C89.7494 69.2198 89.4394 69.3198 89.1294 69.3998C88.8194 69.4798 88.4994 69.5498 88.1894 69.5998C87.8794 69.6498 87.5594 69.6898 87.2494 69.7198C86.9294 69.7498 86.6094 69.7698 86.2994 69.7798C85.9894 69.7898 85.6694 69.7998 85.3594 69.7998V69.7898ZM73.2594 59.1198C73.4894 59.2898 73.7294 59.4298 73.9794 59.5598C74.2294 59.6898 74.4894 59.8098 74.7494 59.9098C75.0094 60.0098 75.2794 60.0898 75.5594 60.1698C75.8294 60.2398 76.1194 60.2998 76.3994 60.3498L77.2694 60.4698L78.1494 60.5298C78.4494 60.5398 78.7494 60.5498 79.0594 60.5498C79.3694 60.5498 79.6594 60.5498 79.9594 60.5298C80.2594 60.5198 80.5494 60.4998 80.8494 60.4698C81.1394 60.4398 81.4294 60.3998 81.7194 60.3498C81.9994 60.2998 82.2794 60.2398 82.5594 60.1698C82.8294 60.0998 83.0994 60.0098 83.3694 59.9098C83.6294 59.8098 83.8894 59.6898 84.1394 59.5598C84.3894 59.4298 84.6294 59.2798 84.8694 59.1098C85.0994 58.9398 85.3294 58.7598 85.5494 58.5498C85.7694 58.3398 85.9794 58.1098 86.1794 57.8598C86.3894 57.5998 86.5794 57.3198 86.7494 57.0298C86.9294 56.7198 87.0994 56.3798 87.2594 56.0298C87.4194 55.6698 87.5694 55.2698 87.6994 54.8598C87.7194 54.8098 87.7394 54.7498 87.7794 54.6998H87.7594C89.1294 50.5698 87.3094 47.7198 87.2894 47.6998C86.9394 47.0598 86.5294 46.4898 86.0094 45.9298C85.9794 45.8998 85.9494 45.8598 85.9194 45.8098C85.9194 45.8098 85.7894 45.6898 85.6794 45.5898C85.2294 45.1498 84.7194 44.7198 84.1594 44.3198C84.1394 44.3098 84.1194 44.2998 84.0994 44.2798L83.8394 44.0798L83.5694 43.8898C83.5694 43.8898 83.1894 43.6298 83.1794 43.6298C82.1094 42.8498 80.4194 41.6598 78.4194 40.4398C78.0194 40.1898 76.6694 39.3498 76.2294 38.7598C75.7394 38.1098 75.1594 37.0898 75.1694 35.9498C75.1694 33.4098 77.0094 32.0798 78.8394 32.0798C79.6894 32.0798 80.4794 32.3398 81.1094 32.8398C81.3794 33.0898 81.5294 33.2798 81.7794 33.6998C82.0094 34.0898 82.2694 34.9798 82.4694 36.0998C82.5894 36.9498 82.7394 37.9498 82.8394 38.5698C82.8594 38.6998 82.9594 38.7698 83.0894 38.7698C83.6794 38.7698 86.7394 38.7698 87.3094 38.7698C87.5294 38.7698 87.5594 38.4898 87.5594 38.4898V35.7798C87.5594 35.1898 87.4994 34.5898 87.3694 34.0098C87.3694 33.9798 87.3594 33.9398 87.3594 33.9098L87.3394 33.8398C87.3394 33.8398 87.3194 33.7498 87.3194 33.7398C86.9994 32.4998 86.3894 31.4298 85.4994 30.5698C85.3994 30.4698 85.3394 30.3998 85.2694 30.3298C85.0494 30.1298 84.8294 29.9398 84.5994 29.7698C84.3594 29.5998 84.1194 29.4498 83.8794 29.3198C83.6294 29.1898 83.3694 29.0698 83.1094 28.9698C82.8494 28.8698 82.5794 28.7798 82.2994 28.7098C82.0194 28.6398 81.7394 28.5798 81.4594 28.5298C81.1694 28.4798 80.8794 28.4398 80.5894 28.4098C80.4694 28.3998 80.3594 28.3898 80.2494 28.3798L79.6894 28.3398C79.3894 28.3298 79.0894 28.3198 78.7894 28.3198C78.4894 28.3198 78.1894 28.3198 77.8894 28.3398C77.5894 28.3498 77.2994 28.3698 76.9994 28.3998C76.7094 28.4298 76.4194 28.4698 76.1294 28.5198C75.8394 28.5698 75.5594 28.6298 75.2894 28.6998C75.0194 28.7698 74.7494 28.8598 74.4794 28.9598C74.2194 29.0598 73.9594 29.1798 73.7094 29.3098C73.4594 29.4398 73.2194 29.5898 72.9894 29.7598C72.7594 29.9298 72.5294 30.1098 72.3094 30.3198C72.0894 30.5298 71.8794 30.7598 71.6794 31.0098C71.4794 31.2598 71.2894 31.5398 71.1094 31.8498C70.9294 32.1598 70.7594 32.4898 70.5994 32.8498C70.4394 33.2098 70.2994 33.6098 70.1594 34.0298L70.1094 34.1998C70.1094 34.1998 70.0894 34.2598 70.0694 34.2898C68.7594 38.3698 70.5494 41.1698 70.5694 41.1998C70.9194 41.8398 71.3394 42.4198 71.8494 42.9698C71.8794 42.9998 71.9094 43.0398 71.9394 43.0898C71.9894 43.1398 72.0694 43.2198 72.1794 43.3098C72.6394 43.7598 73.1494 44.1798 73.6994 44.5798C73.7194 44.5898 73.7394 44.5998 73.7594 44.6198L74.2894 45.0098C74.2894 45.0098 74.6694 45.2698 74.6794 45.2698C75.7494 46.0498 77.4394 47.2398 79.4394 48.4598C79.8394 48.7098 81.1894 49.5498 81.6294 50.1398C82.1194 50.7898 82.6994 51.8098 82.6894 52.9498C82.6894 55.4898 80.8494 56.8198 79.0194 56.8198C78.1694 56.8198 77.3794 56.5598 76.7494 56.0598C76.4694 55.7998 76.3194 55.6098 76.0794 55.1998C75.8894 54.8698 75.5894 54.1598 75.3594 53.1298C75.2394 52.2098 75.0594 51.0298 74.9494 50.3298C74.9294 50.2098 74.8294 50.1298 74.6994 50.1298C74.1094 50.1298 71.0494 50.1298 70.4794 50.1298C70.2594 50.1298 70.2294 50.4098 70.2294 50.4098V53.1198C70.2294 53.8198 70.3094 54.5098 70.4794 55.1498C70.8994 56.7998 71.8694 58.1598 73.2594 59.0998C73.2594 59.0998 73.2794 59.1098 73.2894 59.1198H73.2594ZM56.3294 28.3798C51.4194 28.3798 46.8694 29.8898 46.8694 40.8298V47.5098C46.8694 59.4798 51.5394 60.4898 56.3294 60.4898C61.1194 60.4898 65.7894 59.4898 65.7894 47.5098V40.8298C65.7894 29.8898 61.2394 28.3798 56.3294 28.3798ZM33.9294 28.3798C29.0194 28.3798 24.4694 29.8898 24.4694 40.8298V47.5098C24.4694 59.4798 29.1394 60.4898 33.9294 60.4898C38.7194 60.4898 43.3894 59.4898 43.3894 47.5098V40.8298C43.3894 29.8898 38.8494 28.3798 33.9294 28.3798ZM12.8994 28.3798C4.5894 28.3798 2.9694 33.4598 2.9694 42.2398V46.5398C2.9694 55.3198 4.5994 60.3998 12.9094 60.3998C17.9894 60.3998 21.2794 57.4898 21.2794 52.9998V50.2798C21.2794 50.2798 21.2494 49.9898 21.0294 49.9898H21.0194C20.4194 49.9898 17.3994 49.9898 16.8094 49.9898C16.6794 49.9898 16.5694 50.0698 16.5594 50.1898C16.4394 50.9398 16.2494 52.2098 16.1394 53.0898C15.7894 55.5398 14.7394 56.7298 12.9194 56.7298C9.5894 56.7298 8.8194 54.6498 8.8194 45.5998V43.1498C8.8194 34.0998 9.5894 32.0198 12.9194 32.0198C14.7394 32.0198 15.7894 33.2098 16.1394 35.6598C16.2594 36.5498 16.4494 37.8198 16.5594 38.5598C16.5794 38.6898 16.6794 38.7598 16.8094 38.7598C17.3994 38.7598 20.4594 38.7598 21.0294 38.7598C21.2494 38.7598 21.2794 38.4798 21.2794 38.4798V35.7698C21.2794 31.2698 17.9994 28.3598 12.9094 28.3598L12.8994 28.3798ZM92.6494 55.1898C92.3394 55.1898 91.8894 55.1898 91.6494 55.2298C91.5194 55.2498 91.4394 55.3498 91.4394 55.4898C91.4394 56.0798 91.4394 59.4698 91.4394 60.0398C91.4394 60.2598 91.7194 60.2998 91.7294 60.2998H96.4394C98.8194 60.2998 100.529 59.3198 101.519 57.3698C102.089 56.2398 102.579 54.0698 103.059 51.9698C105.819 40.6298 106.929 36.1198 107.399 34.1998C107.633 33.2598 107.769 32.6898 107.809 32.4898L107.919 31.9698C108.379 29.7598 108.469 29.0598 108.489 28.8898C108.489 28.8498 108.479 28.7398 108.429 28.6898C108.419 28.6798 108.389 28.6498 108.289 28.6498H103.479C103.229 28.6498 103.179 28.7298 103.149 28.8998C103.069 29.4198 100.869 39.1098 99.9194 43.1298C99.8494 43.4198 99.6194 43.6198 99.3294 43.6198C99.0394 43.6198 98.8094 43.4198 98.7494 43.1298C97.7694 38.9998 95.5994 29.3898 95.5194 28.9098C95.4894 28.7298 95.4394 28.6498 95.1894 28.6498H90.5194C90.4194 28.6498 90.3994 28.6798 90.3794 28.6898C90.3294 28.7498 90.3094 28.8498 90.3094 28.8798C90.3294 28.9998 90.4094 29.3098 90.5294 29.7498C90.7394 30.5098 91.0494 31.6598 91.3294 32.9198C92.0494 36.1398 96.8894 51.3098 96.9394 51.4598C97.3294 52.7498 97.2994 53.6898 96.8594 54.3398C96.5294 54.8298 95.9894 55.1198 95.2494 55.1898C94.9994 55.2098 94.6694 55.2198 94.2994 55.2198C94.0394 55.2198 92.9194 55.2098 92.6594 55.2098L92.6494 55.1898ZM80.4994 54.1498C80.4994 54.1498 80.5194 54.1198 80.5194 54.1098L80.3694 53.9898C80.4094 54.0398 80.4594 54.0998 80.4994 54.1498ZM21.0194 48.1198C21.6494 48.1198 22.2394 48.3998 22.6294 48.8798C22.6294 48.6698 22.6194 48.4598 22.6094 48.2398C22.3294 48.1798 22.0794 48.0198 21.8994 47.7998L17.5294 42.0898C17.4494 42.1698 17.3994 42.2198 17.3494 42.2798C17.3394 42.2998 17.3194 42.3098 17.3094 42.3298C17.2894 42.3598 17.2394 42.4298 17.1894 42.4998C17.0894 42.6498 17.0294 42.7498 16.9794 42.8698L16.8594 43.1398L16.7394 43.4398L16.2294 43.3898L16.7094 43.5398L16.6294 43.8098L16.1194 43.7898L16.5994 43.9298C16.5594 44.0598 16.5294 44.1898 16.4994 44.3298C16.4594 44.5298 16.3694 44.9398 16.3694 44.9398L16.2294 45.7298L16.1294 46.4398L15.6094 46.5598L16.1094 46.6198C16.0794 46.8198 16.0294 47.3798 16.0294 47.3798L15.9394 48.3198C15.9394 48.3198 15.9694 48.3098 15.9794 48.2998C16.2294 48.1898 16.5094 48.1398 16.7894 48.1298C17.3094 48.1298 19.6594 48.1298 21.0294 48.1298L21.0194 48.1198ZM74.6894 48.2798C74.9094 48.2798 75.1294 48.3198 75.3394 48.3798L74.8094 47.6798C74.3794 47.3798 73.9894 47.0998 73.6594 46.8598C73.6594 47.0198 73.6694 47.6298 73.6694 47.6298V48.2698C74.1494 48.2698 74.5294 48.2698 74.6994 48.2698L74.6894 48.2798Z" fill="#636864"/>
<path d="M78.7677 27C79.1077 27 79.4277 27 79.7277 27.02C79.8077 27.02 79.8877 27.03 79.9777 27.04H80.1077L80.1377 27.05H80.2677C80.4177 27.07 80.5577 27.07 80.6977 27.09C81.0377 27.12 81.3577 27.17 81.6677 27.22C81.9977 27.28 82.3277 27.35 82.6277 27.43C82.9577 27.52 83.2777 27.62 83.5777 27.73C83.8977 27.85 84.2077 27.99 84.4977 28.15C84.8077 28.31 85.0977 28.5 85.3777 28.69C85.6677 28.9 85.9377 29.13 86.2077 29.37C86.2777 29.43 86.3377 29.5 86.4077 29.57C86.4677 29.62 86.5277 29.67 86.5877 29.73C86.6677 29.8 86.7377 29.89 86.8077 29.97C87.0177 30.19 87.2177 30.42 87.3977 30.65C87.3877 30.64 87.3777 30.62 87.3677 30.61C88.3677 31.93 90.9577 36.3 90.9577 36.3C90.8077 35.76 89.4477 30.84 89.2377 30.09C89.0477 29.4 88.9977 29.18 88.9777 29.02C88.9377 28.68 89.0177 28.17 89.3777 27.77C89.6677 27.44 90.0777 27.26 90.5377 27.26H95.2077C95.5477 27.26 95.8577 27.34 96.1077 27.49C96.2877 27.59 100.878 32.85 100.878 32.85C101.388 30.6 101.768 28.87 101.808 28.67C101.938 27.8 102.588 27.26 103.488 27.26H108.298C108.758 27.26 109.178 27.44 109.458 27.77C109.488 27.81 114.778 34.04 117.038 36.99C117.058 37.01 117.068 37.04 117.078 37.06C117.108 37.11 117.128 37.17 117.148 37.22C117.148 37.24 117.158 37.25 117.168 37.27C117.168 37.27 117.168 37.28 117.168 37.29C117.168 37.33 117.178 37.36 117.178 37.39C117.178 37.4 117.178 37.41 117.178 37.43C117.178 37.47 117.178 37.51 117.178 37.54C117.178 37.57 117.178 37.6 117.158 37.65C117.158 37.67 117.158 37.69 117.158 37.71C117.158 37.71 117.158 37.71 117.158 37.72C117.158 37.74 117.158 37.76 117.148 37.77C117.148 37.78 117.148 37.8 117.148 37.81C117.148 37.83 117.148 37.84 117.138 37.86C117.138 37.88 117.138 37.9 117.128 37.93C117.128 37.94 117.128 37.95 117.128 37.96C117.128 37.99 117.108 38.03 117.108 38.07C117.108 38.07 117.108 38.07 117.108 38.08C117.008 38.55 116.818 39.34 116.488 40.63C115.968 42.61 117.288 37.94 110.688 60.41C110.608 60.7 110.528 60.99 110.448 61.27C110.428 61.36 110.398 61.44 110.378 61.52C110.318 61.73 110.258 61.93 110.198 62.14C110.168 62.25 110.138 62.35 110.108 62.45C110.058 62.63 110.008 62.8 109.948 62.98C109.918 63.09 109.878 63.2 109.848 63.31C109.798 63.47 109.748 63.62 109.698 63.77C109.658 63.89 109.618 64.02 109.578 64.14C109.558 64.18 109.548 64.22 109.538 64.27C109.478 64.45 109.408 64.63 109.348 64.8C109.348 64.82 109.338 64.83 109.328 64.85C109.258 65.02 109.188 65.18 109.118 65.34C109.098 65.38 109.078 65.42 109.058 65.47C108.988 65.62 108.918 65.76 108.848 65.88C108.768 66.02 108.688 66.16 108.598 66.29C108.588 66.31 108.578 66.32 108.568 66.34C108.428 66.55 108.288 66.74 108.128 66.93C108.128 66.93 108.118 66.94 108.108 66.95C107.958 67.13 107.788 67.3 107.618 67.46C107.598 67.48 107.578 67.5 107.548 67.53C107.488 67.59 107.418 67.64 107.358 67.69C107.318 67.73 107.268 67.77 107.228 67.8C107.158 67.85 107.088 67.9 107.018 67.95C106.968 67.98 106.928 68.02 106.878 68.05C106.758 68.13 106.638 68.2 106.518 68.27C106.478 68.29 106.428 68.31 106.388 68.34C106.298 68.38 106.218 68.43 106.128 68.47C106.078 68.49 106.018 68.52 105.968 68.54C105.888 68.57 105.808 68.61 105.718 68.64C105.658 68.66 105.598 68.68 105.538 68.7C105.458 68.73 105.368 68.76 105.278 68.78C105.218 68.8 105.158 68.82 105.088 68.83C104.998 68.85 104.908 68.87 104.818 68.89C104.758 68.9 104.688 68.91 104.628 68.93C104.538 68.95 104.438 68.96 104.338 68.98C104.278 68.98 104.218 69 104.148 69.01C104.038 69.02 103.928 69.03 103.818 69.04C103.758 69.04 103.708 69.05 103.658 69.05C103.488 69.05 103.318 69.07 103.148 69.07H98.4377C98.2577 69.07 97.9777 68.98 97.8177 68.76L94.3777 64.26C94.3277 64.36 94.2877 64.46 94.2377 64.56C94.1777 64.68 94.1177 64.79 94.0477 64.91C94.0177 64.98 93.9777 65.05 93.9477 65.11C93.8477 65.28 93.7477 65.44 93.6477 65.6C93.5577 65.74 93.4677 65.86 93.3777 65.99C93.3577 66.01 93.3477 66.04 93.3277 66.07C93.2177 66.21 93.1077 66.35 92.9977 66.48C92.8877 66.61 92.7777 66.73 92.6677 66.85C92.6277 66.89 92.5977 66.92 92.5577 66.96C92.4677 67.05 92.3777 67.14 92.2877 67.22C92.0477 67.44 91.7977 67.64 91.5377 67.82C91.4377 67.89 91.3377 67.95 91.2377 68.01C91.1977 68.04 91.1577 68.06 91.1177 68.09C90.9877 68.16 90.8677 68.23 90.7377 68.3C90.4577 68.44 90.1777 68.56 89.8977 68.67C89.6077 68.78 89.3277 68.87 89.0277 68.94C88.7277 69.02 88.4377 69.08 88.1277 69.13C87.8277 69.18 87.5177 69.22 87.2177 69.25C86.9177 69.28 86.6077 69.3 86.2977 69.31C85.9877 69.32 85.6777 69.33 85.3677 69.33C85.0577 69.33 84.7477 69.33 84.4477 69.31C84.3577 69.31 84.2577 69.3 84.1677 69.29C84.0377 69.29 83.9177 69.27 83.7977 69.26C83.7077 69.26 83.6277 69.26 83.5377 69.24C83.4577 69.23 83.3877 69.22 83.3177 69.21C83.2277 69.2 83.1277 69.19 83.0377 69.18C82.9077 69.16 82.7777 69.15 82.6477 69.13C82.3477 69.08 82.0577 69.02 81.7677 68.94C81.4777 68.86 81.1977 68.77 80.9177 68.67C80.6377 68.56 80.3777 68.44 80.1177 68.3C79.8577 68.16 79.6077 68 79.3577 67.82C78.7477 67.4 72.4077 60.22 72.3777 60.2C72.3777 60.26 72.3577 60.31 72.3477 60.36C72.3177 60.51 72.2977 60.67 72.2677 60.81C72.2377 60.94 72.2177 61.06 72.1877 61.18C72.1577 61.32 72.1277 61.46 72.0977 61.6C72.0677 61.72 72.0377 61.84 72.0077 61.96C71.9677 62.09 71.9377 62.22 71.9077 62.35C71.8777 62.47 71.8377 62.58 71.7977 62.7C71.7577 62.81 71.7277 62.93 71.6877 63.04C71.6677 63.11 71.6376 63.18 71.6177 63.25C71.5477 63.44 71.4777 63.62 71.4077 63.8C71.3777 63.88 71.3477 63.95 71.3077 64.03C71.2377 64.2 71.1677 64.36 71.0877 64.51C71.0577 64.58 71.0277 64.65 70.9877 64.72C70.9377 64.82 70.8877 64.91 70.8377 65.01C70.7977 65.09 70.7477 65.18 70.6977 65.26C70.6477 65.35 70.5877 65.43 70.5377 65.52C70.4877 65.6 70.4377 65.68 70.3877 65.75C70.3477 65.81 70.3077 65.87 70.2677 65.93C70.2077 66.01 70.1477 66.1 70.0877 66.18C70.0377 66.24 69.9977 66.3 69.9477 66.36C69.8877 66.43 69.8277 66.51 69.7677 66.58C69.7177 66.64 69.6677 66.69 69.6177 66.75C69.5577 66.82 69.4977 66.88 69.4277 66.95C69.3777 67 69.3277 67.05 69.2677 67.1C69.2077 67.16 69.1477 67.22 69.0877 67.27C69.0077 67.34 68.9377 67.4 68.8577 67.46C68.8077 67.51 68.7477 67.55 68.6877 67.59C68.6077 67.65 68.5177 67.71 68.4377 67.77C68.3876 67.8 68.3377 67.84 68.2877 67.88C68.0977 68 67.9077 68.11 67.7077 68.22C67.6677 68.24 67.6277 68.27 67.5777 68.29C67.3777 68.39 67.1777 68.48 66.9677 68.56C66.9477 68.56 66.9277 68.57 66.9077 68.58C66.7077 68.66 66.5077 68.73 66.2977 68.79C66.2577 68.8 66.2177 68.81 66.1777 68.82C65.9677 68.88 65.7477 68.93 65.5277 68.98C65.4777 68.98 65.4377 69 65.3877 69.01C65.1577 69.06 64.9377 69.1 64.6977 69.13C64.6877 69.13 64.6677 69.13 64.6577 69.13C64.4277 69.16 64.1977 69.18 63.9677 69.2C63.9277 69.2 63.8777 69.2 63.8377 69.21C63.6077 69.23 63.3677 69.24 63.1277 69.25C63.0777 69.25 63.0277 69.25 62.9877 69.25C62.7377 69.25 62.4877 69.26 62.2477 69.26C59.3177 69.26 56.7677 68.74 54.9577 66.55C53.7277 65.07 52.7777 63.97 52.0277 63.08C50.0777 60.73 49.5877 60.12 49.5877 60.12C49.5777 60.2 49.5577 60.29 49.5377 60.37C49.5077 60.51 49.4877 60.66 49.4577 60.8C49.4277 60.93 49.3977 61.06 49.3677 61.19C49.3377 61.33 49.3077 61.46 49.2777 61.59C49.2477 61.71 49.2177 61.83 49.1877 61.95C49.1577 62.08 49.1177 62.21 49.0877 62.33C49.0577 62.45 49.0177 62.56 48.9877 62.67C48.9477 62.79 48.9177 62.91 48.8777 63.02C48.8577 63.09 48.8277 63.16 48.8077 63.22C48.7377 63.41 48.6677 63.6 48.5977 63.78C48.5677 63.86 48.5377 63.93 48.4977 64.01C48.4277 64.18 48.3577 64.34 48.2777 64.49C48.2477 64.56 48.2077 64.63 48.1777 64.7C48.1277 64.8 48.0777 64.89 48.0277 64.99C47.9777 65.07 47.9377 65.15 47.8977 65.24C47.8477 65.33 47.7877 65.42 47.7277 65.51C47.6777 65.59 47.6377 65.66 47.5877 65.73C47.5477 65.79 47.4977 65.85 47.4577 65.92C47.3977 66 47.3377 66.08 47.2777 66.16C47.2277 66.22 47.1877 66.28 47.1377 66.33C47.0777 66.4 47.0177 66.48 46.9577 66.55C46.9077 66.61 46.8577 66.66 46.8077 66.72C46.7477 66.79 46.6877 66.85 46.6277 66.92C46.5777 66.97 46.5277 67.02 46.4677 67.07C46.4077 67.13 46.3477 67.18 46.2877 67.24C46.2077 67.31 46.1377 67.37 46.0577 67.43C45.9977 67.48 45.9477 67.52 45.8877 67.57C45.8077 67.63 45.7177 67.69 45.6377 67.75C45.5877 67.78 45.5377 67.82 45.4877 67.85C45.2977 67.97 45.1077 68.08 44.9077 68.19C44.8677 68.21 44.8277 68.23 44.7777 68.25C44.5777 68.35 44.3677 68.44 44.1577 68.53C44.1377 68.53 44.1177 68.54 44.0977 68.55C43.8977 68.63 43.6977 68.7 43.4877 68.76C43.4477 68.77 43.4077 68.78 43.3777 68.79C43.1677 68.85 42.9477 68.9 42.7277 68.95C42.6777 68.95 42.6377 68.97 42.5877 68.98C42.3577 69.03 42.1277 69.07 41.8977 69.1C41.8877 69.1 41.8777 69.1 41.8577 69.1C41.6277 69.13 41.3977 69.16 41.1677 69.17C41.1277 69.17 41.0777 69.17 41.0377 69.18C40.7977 69.2 40.5677 69.21 40.3277 69.22C40.2777 69.22 40.2277 69.22 40.1777 69.22C39.9277 69.22 39.6877 69.23 39.4277 69.23C36.4977 69.23 33.8577 68.78 32.1377 66.52L27.2977 60.19C27.2777 60.57 27.2577 60.96 27.2477 61.32C27.2377 61.56 27.2077 61.8 27.1777 62.03C27.1777 62.09 27.1677 62.14 27.1577 62.19C27.1277 62.37 27.0977 62.54 27.0577 62.71C27.0377 62.79 27.0277 62.86 27.0077 62.94C26.9577 63.15 26.8977 63.36 26.8277 63.56C26.8277 63.58 26.8177 63.61 26.8077 63.63C26.7377 63.84 26.6477 64.06 26.5577 64.26C26.5377 64.31 26.5077 64.36 26.4877 64.42C26.3977 64.62 26.2977 64.82 26.1877 65.01C26.1877 65.02 26.1677 65.03 26.1677 65.05C26.0577 65.24 25.9377 65.42 25.8077 65.6C25.7877 65.63 25.7577 65.67 25.7377 65.7C25.6077 65.88 25.4677 66.05 25.3277 66.21C25.2977 66.25 25.2577 66.29 25.2277 66.33C25.0677 66.5 24.9077 66.67 24.7377 66.82C24.5677 66.98 24.3777 67.13 24.1877 67.27C24.1277 67.31 24.0677 67.36 24.0077 67.4C23.8677 67.5 23.7277 67.59 23.5777 67.69C23.4977 67.74 23.4277 67.78 23.3477 67.83C23.1877 67.92 23.0177 68.01 22.8577 68.09C22.7877 68.12 22.7277 68.16 22.6577 68.19C22.4177 68.3 22.1677 68.4 21.9177 68.49C21.8677 68.51 21.8177 68.52 21.7677 68.54C21.5577 68.61 21.3377 68.68 21.1177 68.74C21.0277 68.77 20.9277 68.79 20.8377 68.81C20.6477 68.86 20.4577 68.89 20.2577 68.93C20.1577 68.95 20.0477 68.97 19.9377 68.98C19.7277 69.01 19.5177 69.04 19.2977 69.06C19.1977 69.07 19.0977 69.08 18.9977 69.09C18.6777 69.11 18.3577 69.13 18.0177 69.13C14.5177 69.13 11.9577 68.35 10.3277 66.23C8.06766 63.27 3.86766 58.72 3.06766 56.48C2.11766 53.81 1.62766 50.32 1.62766 44.43V42.24C1.59766 31.28 4.76766 27.02 12.9077 27.02C15.8977 27.02 18.3877 27.91 20.1277 29.58C21.3477 30.76 23.2077 34.99 23.5677 35.46C24.0877 32.77 25.0677 30.77 26.5177 29.38C28.7177 27.28 31.6377 27.01 33.9377 27.01C37.2377 27.01 40.5777 27.64 42.6577 30.97C42.6777 31 45.1477 35.2 45.8477 36.1C46.3377 33.09 47.3477 30.87 48.9077 29.38C51.1077 27.28 54.0277 27.01 56.3277 27.01C59.6077 27.01 62.9277 27.63 65.0077 30.9C65.2777 31.33 67.4777 34.57 68.3377 35.69C68.4277 35.09 68.5677 34.46 68.7877 33.79L68.8577 33.59C68.9977 33.15 69.1577 32.72 69.3277 32.33C69.5077 31.93 69.6977 31.54 69.9077 31.18C70.1177 30.83 70.3377 30.5 70.5777 30.19C70.8077 29.89 71.0677 29.61 71.3377 29.36C71.5977 29.11 71.8777 28.88 72.1577 28.68C72.4377 28.48 72.7277 28.3 73.0377 28.14C73.3277 27.99 73.6377 27.85 73.9577 27.72C74.2577 27.61 74.5777 27.5 74.9077 27.42C75.2177 27.34 75.5377 27.27 75.8677 27.21C76.1777 27.16 76.4977 27.11 76.8377 27.08C77.1477 27.05 77.4577 27.03 77.8077 27.01C78.1077 27 78.4277 26.99 78.7677 26.99M69.6277 34.06C68.1577 38.49 70.1477 41.49 70.1477 41.49C70.4877 42.13 70.9377 42.74 71.4777 43.32C71.5077 43.36 71.5477 43.39 71.5877 43.43H71.5777C71.6377 43.49 71.7277 43.58 71.8477 43.69C72.3177 44.15 72.8477 44.59 73.4477 45.02C73.5377 45.09 73.6277 45.15 73.7177 45.22C73.8077 45.29 73.8977 45.35 73.9877 45.42C74.0777 45.48 74.1777 45.55 74.2677 45.61C74.2977 45.63 74.3277 45.65 74.3677 45.67C75.6877 46.64 77.3577 47.78 79.1677 48.88C80.1277 49.47 80.9577 50.08 81.2177 50.43C81.6477 51.01 82.1877 51.92 82.1777 52.94C82.1777 55.13 80.6177 56.32 79.0077 56.32C78.3277 56.32 77.6277 56.13 77.0477 55.67C76.8477 55.48 76.7177 55.32 76.4877 54.95C76.3277 54.68 76.0477 54 75.8177 53.02C75.6977 52.14 75.5177 50.96 75.4177 50.26C75.3677 49.9 75.0677 49.63 74.6677 49.63C74.0777 49.63 71.0177 49.63 70.4477 49.63C69.8777 49.63 69.6977 50.16 69.6977 50.41V53.12C69.6977 53.87 69.7877 54.59 69.9677 55.27C70.4077 56.99 71.4177 58.48 72.9577 59.51C73.2077 59.69 73.4677 59.85 73.7377 59.99C74.0077 60.13 74.2777 60.26 74.5577 60.36C74.8377 60.47 75.1277 60.56 75.4177 60.64C75.7077 60.72 76.0077 60.78 76.3077 60.83C76.4377 60.85 76.5677 60.86 76.7077 60.88C76.7977 60.89 76.8977 60.91 76.9977 60.92C77.0677 60.92 77.1477 60.94 77.2177 60.95C77.3077 60.95 77.3877 60.96 77.4777 60.97C77.5977 60.98 77.7277 60.99 77.8577 61C77.9477 61 78.0477 61.02 78.1377 61.02C78.4477 61.03 78.7577 61.04 79.0577 61.04C79.3577 61.04 79.6777 61.04 79.9777 61.02C80.2877 61.01 80.5877 60.99 80.8977 60.96C81.1977 60.93 81.5077 60.89 81.8077 60.84C82.1077 60.79 82.3977 60.72 82.6877 60.65C82.9777 60.57 83.2677 60.48 83.5477 60.37C83.8277 60.26 84.0977 60.14 84.3677 60C84.6376 59.86 84.8977 59.7 85.1477 59.52C85.3977 59.34 85.6477 59.14 85.8777 58.91C86.1077 58.69 86.3377 58.44 86.5477 58.17C86.7577 57.9 86.9677 57.6 87.1577 57.28C87.3477 56.96 87.5276 56.61 87.6877 56.23C87.8577 55.85 88.0077 55.44 88.1377 55.01C88.1577 54.95 88.1677 54.9 88.1877 54.85C89.6577 50.42 87.6677 47.42 87.6677 47.42C87.3277 46.78 86.8777 46.17 86.3377 45.59C86.3077 45.55 86.2677 45.52 86.2277 45.48H86.2377C86.1777 45.42 86.0877 45.33 85.9677 45.22C85.4977 44.76 84.9677 44.32 84.3577 43.89C84.2677 43.82 84.1777 43.76 84.0877 43.69C83.9977 43.62 83.9077 43.56 83.8177 43.49C83.7277 43.42 83.6277 43.36 83.5377 43.3C83.5077 43.28 83.4777 43.26 83.4377 43.24C82.1177 42.27 80.4477 41.13 78.6377 40.03C77.6777 39.44 76.8477 38.83 76.5877 38.48C76.1577 37.9 75.6177 36.98 75.6277 35.97C75.6277 33.78 77.1977 32.59 78.7977 32.59C79.4777 32.59 80.1777 32.79 80.7577 33.25C80.9677 33.44 81.0877 33.59 81.3177 33.97C81.4977 34.26 81.7377 35.06 81.9477 36.2C82.0677 37.03 82.2177 38.03 82.3077 38.66C82.3577 39.02 82.6577 39.29 83.0477 39.29C83.6376 39.29 86.6977 39.29 87.2777 39.29C87.8177 39.29 88.0277 38.76 88.0277 38.51V35.8C88.0277 35.16 87.9577 34.53 87.8277 33.93H87.8477C87.8277 33.85 87.7977 33.78 87.7777 33.72C87.7777 33.7 87.7777 33.67 87.7677 33.65C87.4277 32.35 86.7777 31.18 85.8177 30.25C85.7377 30.17 85.6677 30.09 85.5877 30.01C85.3477 29.79 85.1077 29.58 84.8577 29.41C84.6077 29.23 84.3477 29.07 84.0777 28.93C83.8077 28.79 83.5377 28.66 83.2577 28.56C82.9777 28.45 82.6877 28.36 82.3977 28.28C82.1077 28.2 81.8077 28.14 81.5077 28.09C81.2077 28.04 80.9077 28 80.5977 27.97C80.4277 27.95 80.2477 27.94 80.0677 27.93C80.0577 27.93 80.0477 27.93 80.0277 27.93C79.9077 27.93 79.7877 27.91 79.6777 27.91C79.3677 27.9 79.0577 27.89 78.7577 27.89C78.4577 27.89 78.1377 27.89 77.8377 27.91C77.5277 27.92 77.2277 27.94 76.9177 27.97C76.6177 28 76.3077 28.04 76.0077 28.09C75.7077 28.14 75.4177 28.2 75.1177 28.28C74.8277 28.36 74.5377 28.45 74.2577 28.56C73.9777 28.67 73.6977 28.79 73.4377 28.93C73.1677 29.07 72.9077 29.23 72.6577 29.41C72.4077 29.59 72.1577 29.79 71.9277 30.01C71.6977 30.23 71.4677 30.48 71.2577 30.75C71.0477 31.02 70.8377 31.32 70.6477 31.64C70.4577 31.96 70.2777 32.31 70.1077 32.69C69.9377 33.07 69.7877 33.48 69.6577 33.92C69.6377 33.98 69.6277 34.03 69.6077 34.08M56.3177 61C61.7677 61 66.2777 59.42 66.2777 47.52V40.84C66.2777 29.25 61.2377 27.89 56.3177 27.89C51.3977 27.89 46.3577 29.26 46.3577 40.84V47.52C46.3577 59.41 50.8777 61 56.3177 61ZM33.9177 61C39.3677 61 43.8777 59.42 43.8777 47.52V40.84C43.8777 29.25 38.8477 27.89 33.9177 27.89C28.9877 27.89 23.9577 29.26 23.9577 40.84V47.52C23.9577 59.41 28.4677 61 33.9177 61ZM12.8877 60.91C18.7277 60.91 21.7577 57.35 21.7577 53.01V50.29C21.7577 50.03 21.5477 49.5 21.0077 49.5C20.4377 49.5 17.3677 49.5 16.7777 49.5C16.3877 49.5 16.0877 49.78 16.0377 50.13C15.9177 50.87 15.7277 52.15 15.6177 53.04C15.3077 55.23 14.4377 56.24 12.8977 56.24C10.2177 56.24 9.29766 55.06 9.29766 45.61V43.16C9.29766 33.72 10.2177 32.53 12.8977 32.53C14.4377 32.53 15.3077 33.54 15.6177 35.74C15.7277 36.63 15.9277 37.9 16.0377 38.65C16.0877 39.01 16.3877 39.28 16.7777 39.28C17.3677 39.28 20.4277 39.28 21.0077 39.28C21.5477 39.28 21.7577 38.75 21.7577 38.5V35.79C21.7577 31.44 18.7277 27.88 12.8877 27.88C5.83766 27.88 2.46766 31.09 2.46766 42.24V46.54C2.46766 57.69 5.83766 60.9 12.9077 60.9M99.3277 43.11C99.3277 43.11 99.2477 43.08 99.2377 43.01C98.2777 38.95 96.0877 29.28 96.0177 28.81C95.9777 28.52 95.7977 28.14 95.1877 28.13H90.5177C89.9277 28.13 89.7877 28.68 89.8177 28.93C89.8377 29.17 90.3877 30.94 90.8477 33.02C91.5777 36.29 96.4677 51.61 96.4677 51.61C97.0177 53.44 96.6577 54.55 95.2077 54.68C94.9677 54.7 94.6577 54.71 94.3077 54.71C93.7877 54.71 93.1877 54.7 92.6677 54.7C92.2277 54.7 91.8377 54.7 91.5877 54.75C91.2377 54.8 90.9577 55.1 90.9577 55.5C90.9577 56.09 90.9577 59.48 90.9577 60.06C90.9577 60.64 91.4877 60.82 91.7477 60.82H96.4577C99.0477 60.82 100.908 59.74 101.988 57.62C102.588 56.45 103.068 54.29 103.568 52.1C109.098 29.35 108.008 34.08 108.428 32.08C108.868 30 108.978 29.19 109.008 28.95C109.038 28.71 108.898 28.15 108.308 28.15H103.498C102.888 28.15 102.718 28.53 102.668 28.83C102.588 29.3 100.408 38.96 99.4477 43.02C99.4277 43.09 99.3877 43.13 99.3477 43.13M87.5377 30.88C87.5777 30.94 87.6177 31 87.6577 31.06C87.6477 31.04 87.6377 31.02 87.6277 31C87.5977 30.96 87.5677 30.92 87.5377 30.88C87.5377 30.88 87.5277 30.86 87.5177 30.85C87.5177 30.85 87.5277 30.87 87.5377 30.88ZM15.3777 49.04C15.4577 49.02 16.0277 48.82 16.1677 48.76C16.3577 48.68 16.5677 48.63 16.7877 48.63C17.3077 48.63 19.6577 48.63 21.0177 48.63C21.6477 48.63 22.1277 48.97 22.3977 49.42C22.4177 49.46 23.2477 50.81 23.2477 50.81C23.1677 49.87 23.1177 48.86 23.1177 47.78C23.0277 47.78 22.9477 47.78 22.8977 47.78C22.6477 47.78 22.4477 47.67 22.3177 47.5L17.6677 41.42C17.6077 41.45 17.5377 41.49 17.4777 41.53H17.4677C17.3877 41.58 17.3077 41.65 17.2277 41.71C17.2277 41.71 17.2077 41.72 17.1977 41.73L17.1777 41.75C17.1077 41.81 17.0477 41.88 16.9877 41.95C16.9277 42.03 16.8577 42.11 16.7977 42.2C16.7977 42.21 16.7777 42.22 16.7777 42.23C16.7777 42.24 16.7677 42.25 16.7577 42.26C16.6877 42.37 16.6177 42.49 16.5577 42.61C16.5577 42.61 16.5577 42.62 16.5477 42.63C16.5377 42.65 16.5277 42.68 16.5177 42.7C16.4877 42.77 16.4577 42.83 16.4277 42.9C16.4077 42.94 16.3977 42.98 16.3777 43.02C16.3477 43.09 16.3277 43.16 16.2977 43.24C16.2977 43.26 16.2777 43.28 16.2677 43.31C16.2677 43.33 16.2577 43.35 16.2477 43.36C16.2177 43.45 16.1877 43.54 16.1677 43.63C16.1577 43.67 16.1477 43.71 16.1377 43.75C16.0977 43.88 16.0677 44.02 16.0277 44.17C16.0277 44.2 16.0177 44.23 16.0077 44.26C15.9777 44.38 15.9477 44.51 15.9277 44.64C15.9177 44.7 15.9077 44.76 15.8977 44.81C15.8777 44.92 15.8577 45.03 15.8377 45.15C15.8377 45.18 15.8277 45.21 15.8177 45.24C15.8177 45.28 15.8077 45.32 15.7977 45.35C15.7777 45.46 15.7577 45.58 15.7377 45.7C15.7277 45.77 15.7177 45.84 15.7077 45.91C15.6877 46.05 15.6677 46.19 15.6477 46.33C15.6477 46.39 15.6277 46.45 15.6277 46.51C15.5977 46.72 15.5777 46.93 15.5577 47.16C15.5577 47.2 15.5577 47.24 15.5477 47.28C15.5277 47.47 15.5077 47.66 15.4877 47.86C15.4877 47.94 15.4777 48.03 15.4677 48.11C15.4577 48.28 15.4377 48.45 15.4277 48.62C15.4277 48.72 15.4177 48.81 15.4077 48.91C15.4077 48.94 15.4077 48.97 15.4077 48.99M80.5277 54.88C80.8077 54.64 81.0377 54.31 81.1777 53.9C81.1377 53.87 81.0977 53.84 81.0477 53.81C80.9577 53.75 80.8677 53.68 80.7877 53.62C80.6977 53.55 80.6177 53.49 80.5277 53.42C79.9377 52.99 79.4277 52.55 78.9777 52.1C78.8677 52 78.7777 51.91 78.7177 51.85L78.6577 51.77C78.6577 51.77 78.6377 51.75 78.6377 51.74C78.4777 51.56 78.3277 51.38 78.1877 51.2C77.1877 49.89 76.1877 48.58 75.1877 47.28C74.6977 46.94 74.2577 46.63 73.8977 46.36L73.8677 46.34L73.8177 46.3C73.7177 46.23 73.6177 46.17 73.5177 46.1C73.4177 46.03 73.3277 45.96 73.2277 45.89C73.1977 45.87 73.1677 45.85 73.1377 45.82C73.1377 45.87 73.1377 45.93 73.1377 45.98C73.1477 46.16 73.1577 46.34 73.1677 46.53C73.1677 46.61 73.1677 46.7 73.1677 46.78C73.1677 46.95 73.1677 47.13 73.1677 47.31C73.1677 47.4 73.1677 47.49 73.1677 47.58C73.1677 47.77 73.1677 47.96 73.1677 48.16C73.1677 48.24 73.1677 48.32 73.1677 48.41C73.1677 48.51 73.1677 48.62 73.1577 48.73C73.8677 48.73 74.4677 48.73 74.6977 48.73C75.2577 48.73 75.7477 49 76.0377 49.43C76.1677 49.62 80.5077 54.88 80.5077 54.88M3.83766 57.76C3.83766 57.76 3.86766 57.79 3.87766 57.81C3.86766 57.8 3.84766 57.78 3.83766 57.77M78.7677 26C78.4077 26 78.0877 26 77.7677 26.02C77.4077 26.03 77.0677 26.06 76.7477 26.09C76.3977 26.12 76.0377 26.17 75.7077 26.23C75.3577 26.29 75.0077 26.37 74.6677 26.46C74.2977 26.56 73.9477 26.67 73.6177 26.8C73.2577 26.94 72.9077 27.09 72.5877 27.27C72.2577 27.45 71.9177 27.65 71.5977 27.88C71.2577 28.13 70.9477 28.39 70.6677 28.66C70.3577 28.95 70.0777 29.27 69.8177 29.6C69.5477 29.94 69.2977 30.31 69.0677 30.69C68.8477 31.07 68.6277 31.49 68.4277 31.94C68.2377 32.39 68.0677 32.84 67.9177 33.31L67.8977 33.37C66.9977 32.08 66.0277 30.64 65.8677 30.38C63.3977 26.51 59.4777 26.02 56.3277 26.02C53.8377 26.02 50.6777 26.32 48.2177 28.67C46.9377 29.89 45.9977 31.51 45.3877 33.58C44.8877 32.77 44.2677 31.74 43.5677 30.56L43.4977 30.45C41.0577 26.52 37.1077 26.02 33.9377 26.02C31.4477 26.02 28.2877 26.32 25.8277 28.67C24.7277 29.72 23.8777 31.07 23.2777 32.75C22.4177 31.07 21.5877 29.6 20.8277 28.87C18.8977 27 16.1577 26.02 12.9077 26.02C4.16766 26.02 0.597656 30.72 0.597656 42.24V44.43C0.597656 50.17 1.04766 53.87 2.09766 56.82C2.71766 58.57 4.97766 61.3 7.16766 63.95C8.03766 65 8.85766 65.99 9.50766 66.84C11.2277 69.09 13.9277 70.13 17.9877 70.13C18.3377 70.13 18.6777 70.12 19.0377 70.09C19.1277 70.09 19.2177 70.07 19.3077 70.06H19.3577C19.5777 70.03 19.8077 70.01 20.0377 69.97C20.1577 69.95 20.2777 69.93 20.3877 69.91C20.5977 69.87 20.8077 69.83 21.0177 69.78C21.1377 69.75 21.2377 69.73 21.3377 69.7C21.5677 69.64 21.8077 69.57 22.0377 69.49L22.0977 69.47L22.1977 69.44C22.4977 69.33 22.7777 69.22 23.0377 69.1C23.0777 69.08 23.1377 69.05 23.1877 69.03L23.2477 69C23.4377 68.91 23.6277 68.81 23.7977 68.71C23.8877 68.66 23.9777 68.6 24.0677 68.55C24.2277 68.45 24.3977 68.34 24.5477 68.23C24.6177 68.18 24.6877 68.13 24.7477 68.09C24.9777 67.91 25.1777 67.75 25.3677 67.58C25.3677 67.58 25.3777 67.57 25.3877 67.56C25.5677 67.39 25.7477 67.21 25.9277 67.02L25.9677 66.98L26.0577 66.88C26.2277 66.69 26.3777 66.49 26.5177 66.3L26.5777 66.22C26.7477 65.98 26.8777 65.77 26.9977 65.57C27.1377 65.33 27.2477 65.12 27.3677 64.85C27.3877 64.8 27.4177 64.74 27.4477 64.68C27.5577 64.44 27.6477 64.2 27.7277 63.97C27.7277 63.95 27.7477 63.9 27.7577 63.88C27.8277 63.65 27.8977 63.42 27.9577 63.18C27.9777 63.12 27.9877 63.05 27.9977 62.99V62.92C27.9977 62.92 28.0277 62.86 28.0277 62.83L31.3177 67.13C33.4077 69.86 36.5777 70.23 39.4077 70.23C39.6677 70.23 39.9277 70.23 40.1877 70.22H40.3277C40.5977 70.2 40.8477 70.19 41.0977 70.17H41.1877C41.4677 70.14 41.7077 70.12 41.9477 70.08C41.9677 70.08 41.9877 70.08 42.0077 70.08C42.2577 70.04 42.5077 70 42.7577 69.95L42.8477 69.93C42.8477 69.93 42.8977 69.92 42.9077 69.92C43.1477 69.87 43.3977 69.81 43.6277 69.74L43.7177 69.71C43.9877 69.63 44.2077 69.55 44.4377 69.47L44.4877 69.45C44.7177 69.36 44.9377 69.26 45.1977 69.13C45.2477 69.11 45.3077 69.08 45.3577 69.05C45.5677 68.94 45.7977 68.81 45.9977 68.67C46.0477 68.64 46.0877 68.61 46.1277 68.58C46.2577 68.49 46.3477 68.42 46.4477 68.35C46.5277 68.28 46.5977 68.23 46.6577 68.18C46.7277 68.13 46.8177 68.05 46.9077 67.97C46.9777 67.91 47.0477 67.85 47.1177 67.78L47.2577 67.65C47.2577 67.65 47.2977 67.61 47.3077 67.6C47.3777 67.53 47.4477 67.45 47.5177 67.37C47.5577 67.33 47.6177 67.26 47.6777 67.19C47.7477 67.11 47.8077 67.04 47.8677 66.96L47.9377 66.88C47.9377 66.88 48.0077 66.79 48.0477 66.74C48.1077 66.66 48.1777 66.57 48.2377 66.48L48.2877 66.41C48.3277 66.36 48.3577 66.3 48.3977 66.25C48.4277 66.2 48.4777 66.13 48.5177 66.05C48.5977 65.93 48.6577 65.83 48.7177 65.72L48.8077 65.55L48.8577 65.45C48.9177 65.34 48.9777 65.23 49.0277 65.13L49.1077 64.97L49.1377 64.9C49.2177 64.73 49.2977 64.55 49.3777 64.37L49.3977 64.32L49.4777 64.13C49.5577 63.93 49.6277 63.73 49.6977 63.53L49.7277 63.46L49.7777 63.31C49.8077 63.21 49.8477 63.1 49.8777 62.99L49.8977 62.93L49.9177 62.85C49.9477 62.76 49.9777 62.67 50.0077 62.57L50.0777 62.32C50.3877 62.69 50.7577 63.14 51.2077 63.68C51.5077 64.04 51.8377 64.43 52.2077 64.86C52.7577 65.51 53.3977 66.26 54.1377 67.15C56.3877 69.87 59.6277 70.22 62.1977 70.22C62.4577 70.22 62.7177 70.22 62.9777 70.21H63.1177C63.3877 70.19 63.6377 70.18 63.8877 70.16H63.9877C64.2677 70.13 64.5077 70.11 64.7577 70.07C64.7677 70.07 64.7777 70.07 64.7977 70.07C65.0477 70.03 65.2977 69.99 65.5477 69.94L65.6377 69.92C65.6377 69.92 65.6877 69.91 65.6977 69.91C65.9377 69.86 66.1877 69.8 66.4177 69.73L66.5077 69.7C66.7777 69.62 67.0077 69.54 67.2277 69.46L67.2977 69.44C67.5177 69.35 67.7577 69.25 67.9877 69.13C68.0177 69.12 68.0777 69.09 68.1277 69.06C68.3477 68.94 68.5777 68.82 68.7877 68.68C68.8377 68.65 68.8877 68.62 68.9277 68.58C69.0477 68.5 69.1477 68.43 69.2477 68.35C69.3277 68.29 69.3977 68.24 69.4577 68.18C69.5277 68.13 69.6177 68.05 69.7077 67.97C69.7677 67.92 69.8477 67.84 69.9277 67.77C69.9677 67.74 70.0277 67.68 70.0877 67.62C70.1577 67.55 70.2277 67.48 70.2877 67.41C70.3477 67.34 70.4177 67.27 70.4777 67.2C70.5377 67.13 70.6077 67.05 70.6777 66.96L70.7177 66.91L70.8277 66.77C70.8977 66.67 70.9677 66.58 71.0277 66.5L71.0577 66.45C71.0977 66.4 71.1377 66.34 71.1677 66.29C71.2077 66.23 71.2477 66.17 71.2877 66.1L71.3277 66.03L71.3677 65.96C71.4177 65.89 71.4577 65.81 71.5077 65.74C71.5677 65.64 71.6177 65.55 71.6577 65.46C71.7077 65.37 71.7677 65.26 71.8277 65.14C71.8377 65.12 71.8677 65.06 71.8977 65L71.9277 64.94C72.0177 64.75 72.0977 64.58 72.1677 64.4C72.1977 64.32 72.2377 64.24 72.2677 64.15C72.3377 63.97 72.4177 63.77 72.4877 63.57L72.5177 63.48L72.5677 63.34L72.6377 63.11L72.6777 62.98L72.7177 62.85C72.7477 62.76 72.7677 62.68 72.7977 62.59C72.8176 62.52 72.8377 62.43 72.8677 62.34V62.3C77.7277 67.75 78.4477 68.43 78.7377 68.62C78.9877 68.8 79.2677 68.99 79.5877 69.16C79.8677 69.31 80.1677 69.45 80.4977 69.58C80.7777 69.69 81.0877 69.79 81.4477 69.89C81.7677 69.97 82.0877 70.04 82.4177 70.1C82.5077 70.11 82.5877 70.13 82.6777 70.14L82.8377 70.16C82.9277 70.17 83.0277 70.18 83.1177 70.19L83.2377 70.21H83.3377C83.3377 70.21 83.3777 70.23 83.3977 70.23C83.4577 70.23 83.5177 70.23 83.5677 70.24H83.6477C83.7877 70.26 83.9177 70.27 84.0477 70.27H84.1577C84.2177 70.28 84.2877 70.29 84.3477 70.29C84.6577 70.3 84.9877 70.31 85.3077 70.31C85.6277 70.31 85.9477 70.31 86.2777 70.29C86.5977 70.28 86.9277 70.26 87.2477 70.23C87.5777 70.19 87.9077 70.15 88.2177 70.1C88.5477 70.04 88.8777 69.97 89.1977 69.89C89.5677 69.79 89.8777 69.69 90.1777 69.58C90.5177 69.45 90.8277 69.32 91.1177 69.17C91.2677 69.1 91.4077 69.02 91.5477 68.93C91.5777 68.91 91.6177 68.89 91.6577 68.86L91.1577 67.99L91.7077 68.82C91.8177 68.75 91.9177 68.69 92.0277 68.61C92.3077 68.42 92.5877 68.2 92.8777 67.94C92.9877 67.85 93.0877 67.74 93.1877 67.64C93.2076 67.62 93.2577 67.58 93.2977 67.53C93.4277 67.39 93.5577 67.25 93.6877 67.1C93.7977 66.97 93.9277 66.81 94.0477 66.65L94.1077 66.57C94.2077 66.43 94.3077 66.29 94.4077 66.14C94.4177 66.12 94.4277 66.11 94.4377 66.09L96.9377 69.36C97.3377 69.88 97.9477 70.06 98.3577 70.06H103.068C103.258 70.06 103.448 70.06 103.628 70.04C103.668 70.04 103.728 70.04 103.778 70.03H103.868C103.978 70.01 104.078 70 104.188 69.99C104.218 69.99 104.268 69.98 104.318 69.97H104.378C104.378 69.97 104.418 69.96 104.428 69.95C104.528 69.94 104.628 69.92 104.718 69.9L104.928 69.86C105.048 69.84 105.148 69.81 105.248 69.79C105.308 69.78 105.388 69.75 105.468 69.73C105.568 69.7 105.668 69.67 105.768 69.64C105.848 69.61 105.918 69.59 105.978 69.57C106.028 69.55 106.118 69.52 106.198 69.48L106.248 69.46L106.308 69.43L106.438 69.38C106.548 69.33 106.648 69.28 106.738 69.23L106.348 68.3L106.798 69.19C106.798 69.19 106.868 69.15 106.908 69.13C107.048 69.05 107.188 68.97 107.318 68.88C107.368 68.85 107.408 68.82 107.448 68.79L107.488 68.76C107.578 68.69 107.658 68.64 107.738 68.58C107.778 68.55 107.818 68.51 107.868 68.48L107.928 68.43C107.988 68.38 108.048 68.33 108.118 68.27L108.198 68.2C108.418 68 108.608 67.8 108.778 67.6C108.788 67.59 108.798 67.58 108.808 67.56C108.978 67.36 109.148 67.13 109.298 66.9L109.338 66.84C109.438 66.69 109.528 66.54 109.618 66.38C109.698 66.25 109.778 66.08 109.858 65.91L109.878 65.86L109.918 65.77C109.998 65.6 110.068 65.43 110.138 65.24C110.138 65.24 110.158 65.2 110.158 65.19C110.228 65 110.298 64.82 110.368 64.63L110.398 64.55L110.418 64.5L110.498 64.26L110.548 64.12L110.618 63.89L110.698 63.64L110.748 63.48L110.798 63.31L110.818 63.24C110.868 63.08 110.908 62.92 110.958 62.76L110.978 62.68L111.048 62.45C111.108 62.24 111.168 62.04 111.228 61.83L111.248 61.77C111.268 61.7 111.288 61.63 111.308 61.56L111.468 60.97L111.538 60.71C114.748 49.77 116.088 45.26 116.668 43.29C116.974 42.2567 117.154 41.6333 117.208 41.42C117.238 41.31 117.268 41.17 117.338 40.91C117.618 39.83 117.838 38.93 117.968 38.32C117.968 38.32 117.968 38.31 117.968 38.3L117.988 38.21C117.988 38.21 117.988 38.18 117.988 38.16V38.14C117.988 38.13 118.008 38.05 118.008 38.04C118.008 38.03 118.018 37.98 118.018 37.97C118.018 37.93 118.038 37.9 118.038 37.86L118.058 37.72C118.068 37.67 118.078 37.57 118.078 37.46C118.078 37.43 118.078 37.37 118.078 37.33C118.078 37.3 118.078 37.22 118.048 37.13C118.048 37.12 118.048 37.11 118.048 37.1C118.048 37.07 118.038 37.04 118.028 37.01C118.028 37 118.018 36.97 118.008 36.96C117.968 36.83 117.918 36.71 117.848 36.59C117.818 36.54 117.788 36.48 117.738 36.42C115.428 33.4 110.138 27.17 110.108 27.13C109.628 26.59 108.948 26.28 108.198 26.28H103.388C101.998 26.28 100.928 27.19 100.718 28.54C100.698 28.63 100.538 29.36 100.238 30.73C96.7977 26.81 96.6677 26.73 96.5077 26.64C96.0977 26.4 95.6077 26.28 95.1077 26.28H90.4277C89.6777 26.28 88.9977 26.58 88.5077 27.13C88.0277 27.68 87.7877 28.43 87.8677 29.15C87.8876 29.35 87.9377 29.54 88.0777 30.05C88.0777 30.04 88.0577 30.03 88.0477 30.01C88.0477 30.01 88.0377 29.99 88.0277 29.98C88.0177 29.97 88.0077 29.95 87.9877 29.94C87.7977 29.7 87.6077 29.48 87.3977 29.27L87.3777 29.25C87.3077 29.17 87.2377 29.1 87.1677 29.03C87.1177 28.98 87.0577 28.93 87.0077 28.88L86.9877 28.86C86.9077 28.77 86.8377 28.7 86.7677 28.64C86.4877 28.37 86.1777 28.11 85.8477 27.88C85.5277 27.65 85.1877 27.44 84.8477 27.26C84.5277 27.09 84.1877 26.93 83.8177 26.79C83.4877 26.66 83.1377 26.55 82.7677 26.45C82.4377 26.36 82.0777 26.28 81.7177 26.22C81.3877 26.16 81.0377 26.12 80.6777 26.08C80.5277 26.06 80.3677 26.06 80.2077 26.05H80.0877C80.0877 26.05 80.0377 26.04 80.0277 26.04H79.9277L79.8577 26.03C79.7877 26.03 79.7177 26.03 79.6577 26.02C79.3477 26.01 79.0177 26 78.6577 26L78.7677 26ZM70.5277 34.51C70.5277 34.51 70.5677 34.43 70.5777 34.38C70.5877 34.34 70.6077 34.29 70.6177 34.25V34.2C70.7577 33.81 70.8977 33.43 71.0477 33.08C71.1977 32.75 71.3577 32.43 71.5277 32.14C71.6977 31.86 71.8777 31.6 72.0577 31.36C72.2377 31.13 72.4377 30.92 72.6377 30.72C72.8377 30.53 73.0477 30.36 73.2577 30.21C73.4677 30.06 73.6977 29.92 73.9277 29.8C74.1577 29.68 74.3977 29.57 74.6377 29.48C74.8777 29.39 75.1277 29.31 75.3877 29.24C75.6477 29.17 75.9077 29.11 76.1877 29.07C76.4576 29.02 76.7377 28.99 77.0177 28.96C77.3077 28.93 77.5977 28.91 77.8877 28.9C78.1777 28.89 78.4677 28.88 78.7677 28.88C79.0677 28.88 79.3577 28.88 79.6477 28.9H79.8077L79.9777 28.92C79.9777 28.92 79.9977 28.92 80.0077 28.92H80.1777C80.2877 28.94 80.3977 28.94 80.4977 28.95C80.7877 28.98 81.0677 29.01 81.3377 29.06C81.6177 29.11 81.8877 29.17 82.1377 29.23C82.3977 29.3 82.6477 29.38 82.8977 29.47C83.1377 29.56 83.3777 29.67 83.6077 29.79C83.8377 29.91 84.0677 30.05 84.2677 30.2C84.4877 30.35 84.6977 30.53 84.8977 30.72C84.9577 30.78 85.0177 30.84 85.0777 30.91C85.0777 30.91 85.1077 30.94 85.1177 30.95C85.9377 31.75 86.5077 32.74 86.7977 33.89V33.93C86.7977 33.93 86.8177 33.99 86.8277 34.02C86.8277 34.02 86.8277 34.1 86.8477 34.13C86.9677 34.67 87.0277 35.23 87.0277 35.79V38.29C86.1877 38.29 84.0477 38.29 83.2577 38.29C83.1577 37.66 83.0277 36.8 82.9277 36.06C82.7977 35.32 82.5277 34.06 82.1677 33.45C81.8977 32.99 81.7177 32.76 81.4277 32.5C81.4077 32.48 81.3877 32.47 81.3777 32.45C80.6577 31.88 79.7677 31.58 78.7977 31.58C76.7777 31.58 74.6277 33.11 74.6277 35.96C74.6277 37.24 75.2577 38.36 75.7877 39.07C76.2477 39.69 77.4477 40.47 78.1177 40.88C80.1077 42.09 81.7877 43.27 82.8477 44.04C82.8577 44.05 82.8777 44.06 82.8877 44.07L82.9577 44.11C83.0677 44.18 83.1577 44.24 83.2477 44.31L83.5077 44.49C83.5877 44.55 83.6777 44.61 83.7577 44.68C83.7877 44.7 83.8177 44.72 83.8477 44.74C84.3777 45.13 84.8677 45.53 85.2777 45.94C85.3377 46 85.3877 46.04 85.4277 46.08C85.4577 46.11 85.4777 46.15 85.5077 46.18L85.5677 46.24C86.0877 46.8 86.4777 47.33 86.7877 47.9C86.7977 47.93 86.8177 47.95 86.8377 47.98C86.9077 48.08 88.4977 50.61 87.2877 54.41C87.2677 54.46 87.2477 54.51 87.2277 54.56L87.1977 54.66C87.1977 54.66 87.1877 54.71 87.1777 54.72C87.0577 55.12 86.9177 55.5 86.7577 55.84C86.6077 56.18 86.4477 56.5 86.2777 56.79C86.1177 57.06 85.9377 57.32 85.7477 57.57C85.5677 57.8 85.3677 58.01 85.1677 58.2C84.9677 58.39 84.7577 58.56 84.5377 58.72C84.3377 58.87 84.1077 59 83.8677 59.13C83.6477 59.25 83.4077 59.36 83.1577 59.45C82.9377 59.53 82.6877 59.61 82.3977 59.69C82.1477 59.76 81.8777 59.81 81.6077 59.86C81.3277 59.91 81.0577 59.94 80.7777 59.97C80.4977 60 80.2077 60.02 79.9177 60.03C79.6277 60.04 79.3277 60.05 79.0377 60.05C78.7477 60.05 78.4477 60.05 78.1577 60.03C78.1077 60.03 78.0677 60.03 78.0177 60.03H77.8877C77.7677 60.01 77.6577 60.01 77.5477 60H77.3877L77.2777 59.98H77.2177L77.0977 59.95C76.9977 59.94 76.9177 59.93 76.8477 59.92L76.6577 59.9C76.5877 59.9 76.5277 59.88 76.4577 59.87C76.1877 59.82 75.9177 59.76 75.6677 59.7C75.3877 59.62 75.1377 59.54 74.9077 59.46C74.6577 59.36 74.4177 59.25 74.1977 59.14C73.9577 59.01 73.7377 58.88 73.5277 58.73C73.5277 58.73 73.5077 58.72 73.4977 58.71C72.2077 57.84 71.3177 56.58 70.9177 55.05C70.7577 54.45 70.6877 53.81 70.6877 53.15V50.65C71.5177 50.65 73.6677 50.65 74.4577 50.65C74.5677 51.36 74.7177 52.39 74.8277 53.17C74.8277 53.2 74.8277 53.23 74.8477 53.26C75.0977 54.35 75.4177 55.12 75.6277 55.48C75.8977 55.93 76.0777 56.16 76.3577 56.43C76.3777 56.45 76.3977 56.47 76.4177 56.48C77.1377 57.05 78.0277 57.35 78.9977 57.35C81.0177 57.35 83.1677 55.82 83.1677 52.97C83.1677 51.69 82.5477 50.57 82.0077 49.86C81.5477 49.24 80.3477 48.46 79.6777 48.05C77.6877 46.84 76.0077 45.66 74.9477 44.89L74.7977 44.79L74.6177 44.66L74.5477 44.61C74.4677 44.56 74.3876 44.49 74.2977 44.43L74.0377 44.24C74.0377 44.24 73.9777 44.2 73.9477 44.18C73.4177 43.8 72.9377 43.4 72.5177 42.99C72.4577 42.93 72.4077 42.89 72.3677 42.85C72.3477 42.82 72.3277 42.79 72.2977 42.77L72.2177 42.69C71.7077 42.15 71.3077 41.6 71.0077 41.04C70.9977 41.01 70.9777 40.99 70.9577 40.96C70.8877 40.86 69.2977 38.33 70.5077 34.52L70.5277 34.51ZM56.3377 59.99C51.6177 59.99 47.3777 59.04 47.3777 47.51V40.83C47.3777 29.8 51.9977 28.88 56.3377 28.88C60.6777 28.88 65.2977 29.8 65.2977 40.83V47.51C65.2977 59.03 61.0577 59.99 56.3377 59.99ZM33.9377 59.99C29.2177 59.99 24.9777 59.04 24.9777 47.51V40.83C24.9777 29.8 29.5977 28.88 33.9377 28.88C38.2777 28.88 42.8977 29.8 42.8977 40.83V47.51C42.8977 59.03 38.6577 59.99 33.9377 59.99ZM12.9077 59.9C6.92766 59.9 3.46766 57.71 3.46766 46.54V42.24C3.46766 31.07 6.92766 28.88 12.9077 28.88C17.7577 28.88 20.7777 31.53 20.7777 35.79V38.29C19.9377 38.29 17.7977 38.29 17.0077 38.29C16.9177 37.69 16.7277 36.48 16.6177 35.63C16.2377 32.92 14.9877 31.55 12.9077 31.55C8.96766 31.55 8.30766 34.45 8.30766 43.18V45.63C8.30766 54.35 8.97766 57.26 12.9077 57.26C14.9877 57.26 16.2377 55.89 16.6177 53.2C16.7277 52.34 16.9077 51.16 17.0077 50.52C17.7977 50.52 19.9377 50.52 20.7777 50.52V53.03C20.7777 57.22 17.6877 59.93 12.9077 59.93V59.9ZM90.8877 29.13H95.0577C95.3577 30.6 97.3977 39.6 98.2677 43.24C98.3777 43.74 98.8177 44.11 99.3377 44.11C99.8577 44.11 100.298 43.75 100.418 43.22C101.318 39.43 103.328 30.53 103.618 29.13H107.968C107.908 29.53 107.768 30.32 107.448 31.85C107.388 32.12 107.358 32.27 107.338 32.38C107.298 32.5667 107.164 33.1267 106.938 34.06C106.468 35.98 105.358 40.49 102.598 51.84C102.128 53.93 101.638 56.07 101.098 57.14C100.188 58.92 98.6777 59.79 96.4577 59.79H91.9577C91.9577 58.92 91.9577 56.54 91.9577 55.7C92.2177 55.68 92.5377 55.68 92.6677 55.68C92.9277 55.68 93.1977 55.68 93.4777 55.68C93.7577 55.68 94.0477 55.68 94.3077 55.68C94.7277 55.68 95.0577 55.67 95.2977 55.65C96.4077 55.55 96.9877 55.01 97.2777 54.59C97.8077 53.8 97.8577 52.73 97.4277 51.3C97.3777 51.13 92.5377 35.98 91.8277 32.78C91.5477 31.51 91.2277 30.35 91.0277 29.59C90.9877 29.42 90.9377 29.26 90.8977 29.11L90.8877 29.13ZM17.4177 43.11C17.4177 43.11 17.4177 43.09 17.4277 43.08C17.4577 43.02 17.4877 42.96 17.5277 42.9L21.1377 47.62C21.1377 47.62 21.0577 47.62 21.0077 47.62C19.6477 47.62 17.2777 47.62 16.7677 47.62C16.6777 47.62 16.5777 47.62 16.4877 47.64C16.4877 47.56 16.5077 47.49 16.5077 47.42V47.33C16.5377 47.08 16.5677 46.87 16.5877 46.67V46.6L16.6077 46.49C16.6277 46.35 16.6477 46.22 16.6577 46.08L16.6877 45.87V45.81L16.7377 45.54L16.7577 45.44L16.7777 45.34L16.8377 45.02V44.97L16.8677 44.86C16.8877 44.74 16.9177 44.62 16.9477 44.51C16.9477 44.49 16.9577 44.45 16.9677 44.41C16.9977 44.3 17.0277 44.18 17.0577 44.05L17.0877 43.95C17.1177 43.86 17.1377 43.78 17.1677 43.71C17.1677 43.7 17.1777 43.67 17.1877 43.66L17.2077 43.62C17.2377 43.54 17.2577 43.48 17.2777 43.42L17.3177 43.33L17.3977 43.16C17.3977 43.16 17.4077 43.13 17.4177 43.12V43.11Z" fill="white"/>
</g>
<g clip-path="url(#clip1_2718_1111)">
<path fill-rule="evenodd" clip-rule="evenodd" d="M130.507 42.6919C130.623 45.8758 138.635 44.1705 138.908 36.4504C139.144 30.064 139.731 29.229 139.921 29.1401L133.772 30.1147C133.772 30.1147 132.119 38.2921 130.498 42.6957L130.507 42.6919Z" fill="#636864"/>
<path d="M130.507 42.6919C130.623 45.8758 138.635 44.1705 138.908 36.4504C139.144 30.064 139.731 29.229 139.921 29.1401L133.772 30.1147C133.772 30.1147 132.119 38.2921 130.498 42.6957L130.507 42.6919Z" stroke="white" stroke-linejoin="round"/>
<path fill-rule="evenodd" clip-rule="evenodd" d="M133.084 25.0052C128.929 26.8916 125.091 32.3984 122.341 35.9461C123.552 40.9072 128.453 38.4667 132.291 35.7807C136.116 33.0893 137.252 32.1698 137.252 32.1698C137.252 32.1698 135.356 24.4308 133.084 25.0052Z" fill="#636864"/>
<path d="M133.084 25.0052C128.929 26.8916 125.091 32.3984 122.341 35.9461C123.552 40.9072 128.453 38.4667 132.291 35.7807C136.116 33.0893 137.252 32.1698 137.252 32.1698C137.252 32.1698 135.356 24.4308 133.084 25.0052Z" stroke="white" stroke-linejoin="round"/>
<path fill-rule="evenodd" clip-rule="evenodd" d="M140.437 35.4781L140.318 41.9675C140.318 41.9675 143.222 43.8577 145.283 40.7113C147.344 37.5649 147.064 36.1447 147.064 36.1447L140.433 35.4688L140.437 35.4781Z" fill="#636864"/>
<path d="M140.437 35.4781L140.318 41.9675C140.318 41.9675 143.222 43.8577 145.283 40.7113C147.344 37.5649 147.064 36.1447 147.064 36.1447L140.433 35.4688L140.437 35.4781Z" stroke="white" stroke-linejoin="round"/>
<path fill-rule="evenodd" clip-rule="evenodd" d="M85.6581 53.8507C85.4361 53.9417 85.1773 53.864 85.0493 53.6571L84.2062 52.3383C84.1384 52.2256 84.1039 52.0885 84.1362 51.9564C84.1685 51.8242 84.253 51.714 84.3657 51.6462L167.434 1.28702C167.434 1.28702 167.48 1.26806 167.508 1.25668C167.73 1.16568 167.989 1.24336 168.12 1.45952L169.854 4.23975C169.922 4.35246 169.956 4.48958 169.915 4.62549C169.883 4.75762 169.798 4.86789 169.685 4.93569L85.7137 53.828C85.7137 53.828 85.6674 53.8469 85.6489 53.8545L85.6581 53.8507Z" fill="white"/>
<path d="M167.695 1.70934L169.428 4.48957L85.4697 53.3873L84.6267 52.0685L167.695 1.70934ZM167.315 0.784022C167.269 0.802982 167.223 0.82194 167.171 0.853944L84.1033 51.2131C83.8686 51.3525 83.7126 51.5785 83.648 51.8427C83.5834 52.107 83.6302 52.3796 83.7789 52.6104L84.6219 53.9293C84.8872 54.3393 85.4048 54.4946 85.8397 54.3164C85.8859 54.2975 85.923 54.2823 85.9692 54.2633L169.924 5.35634C170.159 5.21695 170.328 4.9964 170.392 4.73216C170.457 4.46792 170.41 4.19533 170.271 3.96066L168.537 1.18043C168.277 0.757362 167.75 0.605803 167.315 0.784022Z" fill="#636864"/>
<path fill-rule="evenodd" clip-rule="evenodd" d="M179.99 34.5079C179.219 34.6834 178.261 34.7193 177.172 34.409C174.385 33.595 160.365 16.7862 156.4 14.9959C152.873 13.4044 143.861 12.9584 141.893 12.8784C141.639 12.8638 141.398 12.9086 141.157 13.0071C139.704 13.6025 134.169 15.8923 132.396 16.3381C130.371 16.8546 127.998 20.6369 124.5 24.2857C124.437 24.3438 124.382 24.4204 124.333 24.4839C120.567 29.7988 121.939 30.5115 122.668 30.8396C123.867 31.3644 125.436 30.9482 126.94 30.2132C126.729 29.4888 126.819 28.6524 127.28 27.642C128.192 25.6474 130.299 25.3028 132.458 25.5093L134.963 22.6025C134.963 22.6025 141.139 22.1141 143.976 20.7569C144.553 20.4772 145.248 20.5382 145.762 20.922C147.996 22.6006 148.186 23.884 150.206 25.3582C152.486 27.0178 154.156 33.0446 150.088 31.8476C146.021 30.6506 140.371 26.8597 138.195 26.6384C137.078 26.5234 134.739 25.7204 132.467 25.5056L130.189 28.1468C129.289 28.8508 128.136 29.6256 126.949 30.2094C127.584 32.4455 131.031 33.605 135.183 35.2971C141.062 37.697 143.768 39.9491 145.427 40.8581C145.789 41.0556 146.057 41.3672 146.225 41.752C151.619 54.7039 170.953 56.6806 173.735 56.9023C173.958 56.919 174.165 56.8987 174.376 56.8338L182.334 54.4159C183.132 54.1752 183.642 53.4151 183.574 52.5893L182.152 36.0645C182.057 34.9901 181.039 34.2725 179.99 34.5079Z" fill="#636864"/>
<path d="M177.172 34.409C174.385 33.595 160.365 16.7862 156.4 14.9959C152.873 13.4044 143.861 12.9584 141.893 12.8784C141.639 12.8638 141.398 12.9086 141.157 13.0071C139.704 13.6025 134.169 15.8923 132.396 16.3381C130.371 16.8546 127.998 20.6369 124.5 24.2857C124.437 24.3438 124.382 24.4204 124.333 24.4839C120.567 29.7988 121.939 30.5115 122.668 30.8396C123.867 31.3644 125.436 30.9482 126.94 30.2132C126.729 29.4888 126.819 28.6524 127.28 27.642C128.192 25.6474 130.299 25.3028 132.458 25.5093L134.963 22.6025C134.963 22.6025 141.139 22.1141 143.976 20.7569C144.553 20.4772 145.248 20.5382 145.762 20.922C147.996 22.6006 148.186 23.884 150.206 25.3582C152.486 27.0178 154.156 33.0446 150.088 31.8476C146.021 30.6506 140.371 26.8597 138.195 26.6384C137.078 26.5234 134.739 25.7204 132.467 25.5056L130.189 28.1468C129.289 28.8508 128.136 29.6256 126.949 30.2094C127.584 32.4455 131.031 33.605 135.183 35.2971C141.062 37.697 143.768 39.9491 145.427 40.8581C145.789 41.0556 146.057 41.3672 146.225 41.752C151.619 54.7039 170.953 56.6806 173.735 56.9023C173.958 56.919 174.165 56.8987 174.376 56.8338L182.334 54.4159" stroke="white" stroke-linejoin="round"/>
<g clip-path="url(#clip2_2718_1111)">
<path fill-rule="evenodd" clip-rule="evenodd" d="M88.1672 58.7572C87.9544 58.8444 87.7124 58.7815 87.5789 58.5876L86.5929 57.2625C86.5028 57.1482 86.4829 56.9942 86.5114 56.8528C86.5492 56.7077 86.6391 56.5843 86.7742 56.5182C86.7742 56.5182 172.841 12.7114 172.85 12.7076C173.081 12.6128 173.344 12.6997 173.476 12.9159L175.171 15.7875C175.243 15.9094 175.259 16.0541 175.217 16.19C175.176 16.326 175.082 16.44 174.952 16.4931C174.952 16.4931 88.1819 58.7404 88.1726 58.7442L88.1672 58.7572Z" fill="white"/>
<path d="M173.033 13.1837L174.729 16.0553L87.977 58.2949L86.9909 56.9699L173.033 13.1837ZM172.654 12.2584C172.654 12.2584 172.608 12.2774 172.58 12.2887L86.5415 56.0842C86.2807 56.2126 86.0916 56.4631 86.0253 56.7496C85.959 57.0361 86.0172 57.3365 86.2012 57.5745L87.1873 58.8995C87.4559 59.265 87.9436 59.4001 88.3692 59.2257C88.3877 59.2181 88.4062 59.2105 88.4247 59.203L175.177 16.9633C175.428 16.8386 175.619 16.6197 175.693 16.3517C175.776 16.0799 175.735 15.7942 175.596 15.5596L173.9 12.688C173.65 12.2612 173.111 12.0818 172.658 12.2676L172.654 12.2584Z" fill="#636864"/>
<path d="M110.098 45.502L114.175 48.502L116.645 40.002L110.098 45.502Z" fill="#636864"/>
<path d="M115.576 47L117.577 40.001L116.646 40L114.637 47H115.576Z" fill="white"/>
</g>
<path fill-rule="evenodd" clip-rule="evenodd" d="M138.393 27.2266C136.596 27.0337 129.333 24.1849 127.62 27.7833C126.012 31.1655 130.095 32.691 134.638 34.547C140.091 36.776 144.714 39.8309 146.06 40.3711L146.362 30.8773C142.984 29.8844 140.187 27.4102 138.393 27.2266Z" fill="#636864"/>
<path fill-rule="evenodd" clip-rule="evenodd" d="M131.438 33.2002C134.148 34.3269 136.822 35.4465 138.005 36.0642L136.03 36.2034L130.307 33.8151L131.438 33.2002Z" fill="white"/>
<path fill-rule="evenodd" clip-rule="evenodd" d="M146.485 30.9662C146.485 30.9662 143.553 29.9305 142.104 28.9251C141.157 28.2757 140.68 28.0605 140.68 28.0605L142.097 27.6289L148.097 30.5789L146.597 30.999L146.485 30.9662Z" fill="white"/>
<path fill-rule="evenodd" clip-rule="evenodd" d="M153.75 13.6176L137.211 23.2591L134.69 22.1958L150.056 12.4082L153.75 13.6176Z" fill="white"/>
<path fill-rule="evenodd" clip-rule="evenodd" d="M155.264 13.9048L140.798 22.3292L137.846 22.8796L153.751 13.6167L155.264 13.9048Z" fill="#636864"/>
<path fill-rule="evenodd" clip-rule="evenodd" d="M149.295 12.8709L147.768 13.8642L145.331 14.063L147.794 12.6105L149.295 12.8709Z" fill="#636864"/>
<path d="M126.973 28.978L130.935 30.1536C130.949 28.9483 132.39 27.0067 134.241 26.3022L129.636 25.6928" stroke="white" stroke-width="0.5" stroke-linejoin="round"/>
<path d="M137.415 28.0589C136.07 28.6533 135.556 29.7719 135.294 31.0573" stroke="white" stroke-width="0.5" stroke-linecap="round" stroke-linejoin="round"/>
<path d="M138.454 28.3792C137.109 28.9736 136.595 30.0922 136.333 31.3776" stroke="white" stroke-width="0.5" stroke-linecap="round" stroke-linejoin="round"/>
<path d="M150.094 31.8574C150.094 31.8574 155.584 32.6228 156.861 33.8934" stroke="white" stroke-miterlimit="10"/>
</g>
<defs>
<clipPath id="clip0_2718_1111">
<rect width="117.58" height="44.29" fill="white" transform="translate(0.597656 26)"/>
</clipPath>
<clipPath id="clip1_2718_1111">
<rect width="99.03" height="55.83" fill="white" transform="translate(77.5977 37.5508) rotate(-22.2833)"/>
</clipPath>
<clipPath id="clip2_2718_1111">
<rect width="69.6522" height="11.5" fill="white" transform="translate(109.574 38.1074) rotate(-22.2833)"/>
</clipPath>
</defs>
</svg>
