<svg width="438" height="38" viewBox="0 0 438 38" fill="none" xmlns="http://www.w3.org/2000/svg">
<path d="M22.388 26.86C22.388 29.8413 21.244 32.3893 18.956 34.504C16.7027 36.584 13.9813 37.624 10.792 37.624C8.92 37.624 6.684 37.052 4.084 35.908C3.39067 35.596 2.87067 35.44 2.524 35.44C2.108 35.44 1.848 35.9427 1.744 36.948C1.70933 37.468 1.484 37.728 1.068 37.728C0.721333 37.728 0.548 37.52 0.548 37.104C0.548 36.8267 0.565333 36.6187 0.6 36.48C0.877333 34.3653 1.016 32.4067 1.016 30.604C1.016 30.2573 0.981333 29.2867 0.912 27.692C0.877333 27.484 0.86 27.2067 0.86 26.86C0.86 26.34 1.068 26.08 1.484 26.08C1.83067 26.08 2.07333 26.496 2.212 27.328C3.11333 33.4987 6.04267 36.584 11 36.584C13.1147 36.584 14.744 35.9947 15.888 34.816C17.0667 33.6027 17.656 31.904 17.656 29.72C17.656 27.7787 17.084 26.132 15.94 24.78C14.8307 23.3933 12.9067 22.024 10.168 20.672C6.87467 19.0427 4.58667 17.4653 3.304 15.94C2.02133 14.4147 1.38 12.5253 1.38 10.272C1.38 7.39467 2.29867 5.02 4.136 3.148C6.008 1.276 8.36533 0.339998 11.208 0.339998C12.3867 0.339998 14.016 0.738664 16.096 1.536C16.824 1.81333 17.3613 1.952 17.708 1.952C18.0893 1.952 18.332 1.88267 18.436 1.744C18.5747 1.60533 18.696 1.24133 18.8 0.651997C18.8693 0.305331 19.06 0.131997 19.372 0.131997C19.7187 0.131997 19.892 0.339998 19.892 0.755999C19.892 1.03333 19.8747 1.24133 19.84 1.38C19.736 2.212 19.684 3.21733 19.684 4.396C19.684 6.06 19.7707 7.37733 19.944 8.348L19.996 9.18C20.0307 9.56133 19.8747 9.752 19.528 9.752C19.1467 9.752 18.8867 9.35333 18.748 8.556C18.3667 6.51067 17.4653 4.812 16.044 3.46C14.6227 2.07333 13.028 1.38 11.26 1.38C9.52667 1.38 8.14 1.93466 7.1 3.044C6.09467 4.15333 5.592 5.66133 5.592 7.568C5.592 9.78666 6.33733 11.572 7.828 12.924C8.66 13.6867 10.4627 14.7613 13.236 16.148C16.4947 17.7773 18.8347 19.4413 20.256 21.14C21.6773 22.804 22.388 24.7107 22.388 26.86ZM47.2984 25.768C47.2984 29.1307 46.2758 31.956 44.2304 34.244C42.1851 36.4973 39.6371 37.624 36.5864 37.624C33.4318 37.624 30.7971 36.4973 28.6824 34.244C26.5678 31.956 25.5104 29.1307 25.5104 25.768C25.5104 22.3013 26.5331 19.424 28.5784 17.136C30.6584 14.848 33.2411 13.704 36.3264 13.704C39.4464 13.704 42.0464 14.8653 44.1264 17.188C46.2411 19.476 47.2984 22.336 47.2984 25.768ZM42.5664 25.716C42.5664 21.9027 41.9771 18.9387 40.7984 16.824C39.9318 15.264 38.4758 14.484 36.4304 14.484C34.4891 14.484 32.9638 15.4893 31.8544 17.5C30.7798 19.476 30.2424 22.232 30.2424 25.768C30.2424 29.2693 30.8144 32.008 31.9584 33.984C33.1371 35.9253 34.7664 36.896 36.8464 36.896C38.4411 36.896 39.6198 36.2893 40.3824 35.076C41.8384 32.788 42.5664 29.668 42.5664 25.716ZM72.2828 24.624C72.2828 28.2293 71.1908 31.2973 69.0068 33.828C66.8228 36.3587 64.1881 37.624 61.1028 37.624C60.0281 37.624 58.9015 37.3987 57.7228 36.948C56.5441 36.4973 55.7468 36.272 55.3308 36.272C54.9495 36.272 54.5161 36.4453 54.0308 36.792C53.5455 37.104 53.1815 37.26 52.9388 37.26C52.6615 37.26 52.5228 36.688 52.5228 35.544V8.504C52.5228 5.00266 52.2975 3.11333 51.8468 2.836C51.6735 2.732 50.9975 2.68 49.8188 2.68C48.9868 2.68 48.5708 2.54133 48.5708 2.264C48.5708 2.02133 48.7615 1.9 49.1428 1.9H49.8708C51.7775 1.9 53.6148 1.50133 55.3828 0.703999C55.9028 0.461332 56.2668 0.339998 56.4748 0.339998H56.6828V16.668C58.0001 14.692 59.9761 13.704 62.6108 13.704C65.5228 13.704 67.8628 14.7093 69.6308 16.72C71.3988 18.696 72.2828 21.3307 72.2828 24.624ZM67.5508 24.884C67.5508 21.6253 67.0308 19.112 65.9908 17.344C64.9855 15.576 63.5641 14.692 61.7268 14.692C60.7561 14.692 59.8375 15.004 58.9708 15.628C58.1041 16.2173 57.5148 16.9627 57.2028 17.864C56.8908 18.7653 56.7348 21.504 56.7348 26.08C56.7348 30.864 56.8561 33.7067 57.0988 34.608C57.4801 36.064 58.7455 36.792 60.8948 36.792C62.9401 36.792 64.4481 36.012 65.4188 34.452C66.8401 32.1293 67.5508 28.94 67.5508 24.884ZM96.226 34.66C96.226 35.2493 95.602 35.8733 94.354 36.532C93.1406 37.156 91.962 37.468 90.818 37.468C88.426 37.468 87.178 36.2373 87.074 33.776C85.7566 36.3413 83.7113 37.624 80.938 37.624C79.4473 37.624 78.2166 37.1907 77.246 36.324C76.2753 35.4227 75.79 34.2787 75.79 32.892C75.79 30.0493 77.506 27.796 80.938 26.132C82.1166 25.5773 84.162 25.0227 87.074 24.468V23.168C87.074 20.1173 86.918 18.1067 86.606 17.136C86.0513 15.368 84.8033 14.484 82.862 14.484C81.6486 14.484 80.626 14.8133 79.794 15.472C78.9966 16.1307 78.598 16.9627 78.598 17.968C78.598 18.2453 78.806 18.384 79.222 18.384C79.6726 18.384 80.0713 18.592 80.418 19.008C80.7646 19.424 80.938 19.892 80.938 20.412C80.938 21.9373 80.1753 22.7 78.65 22.7C77.8526 22.7 77.194 22.44 76.674 21.92C76.154 21.3653 75.894 20.672 75.894 19.84C75.894 18.2107 76.5353 16.8067 77.818 15.628C79.2393 14.3453 81.2153 13.704 83.746 13.704C87.5593 13.704 89.8993 14.744 90.766 16.824C91.078 17.6213 91.234 19.1987 91.234 21.556V31.28C91.234 32.8747 91.2513 33.8107 91.286 34.088C91.4593 35.336 91.962 35.96 92.794 35.96C93.7646 35.96 94.562 35.6133 95.186 34.92C95.5326 34.5387 95.7926 34.348 95.966 34.348C96.1393 34.348 96.226 34.452 96.226 34.66ZM87.074 29.148V25.352C84.474 25.9413 82.602 26.7213 81.458 27.692C80.3486 28.628 79.794 29.8933 79.794 31.488C79.794 32.5973 80.106 33.516 80.73 34.244C81.3886 34.9373 82.2033 35.284 83.174 35.284C84.6646 35.284 85.8606 34.452 86.762 32.788C86.97 32.4067 87.074 31.1933 87.074 29.148ZM107.846 2.472C107.846 3.44266 107.153 4.77733 105.766 6.476C103.998 8.62533 102.282 11.3813 100.618 14.744C100.202 15.6107 99.8206 16.044 99.4739 16.044C98.9886 16.044 98.7459 15.836 98.7459 15.42C98.7459 15.316 98.7979 15.1427 98.9019 14.9C100.15 12.196 101.19 9.128 102.022 5.696C102.542 3.58133 103.045 2.16 103.53 1.432C104.05 0.703998 104.795 0.339998 105.766 0.339998C107.153 0.339998 107.846 1.05066 107.846 2.472ZM121.233 30.396C121.233 32.4067 120.488 34.1227 118.997 35.544C117.541 36.9307 115.79 37.624 113.745 37.624C112.566 37.624 111.128 37.208 109.429 36.376C108.978 36.1333 108.58 36.012 108.233 36.012C107.748 36.012 107.384 36.3413 107.141 37C107.002 37.416 106.812 37.624 106.569 37.624C106.326 37.624 106.205 37.4853 106.205 37.208C106.205 37.0347 106.222 36.8267 106.257 36.584C106.361 35.8907 106.413 34.868 106.413 33.516C106.413 33.412 106.396 32.996 106.361 32.268C106.326 31.54 106.309 31.0547 106.309 30.812V30.24C106.309 29.8587 106.43 29.668 106.673 29.668C106.95 29.668 107.106 29.8587 107.141 30.24C107.349 31.8347 107.8 33.0827 108.493 33.984C109.88 35.7867 111.734 36.688 114.057 36.688C115.305 36.688 116.31 36.324 117.073 35.596C117.836 34.868 118.217 33.8973 118.217 32.684C118.217 31.332 117.784 30.2573 116.917 29.46C116.432 29.0093 115.981 28.6973 115.565 28.524C115.184 28.316 114.022 27.848 112.081 27.12C108.233 25.664 106.309 23.48 106.309 20.568C106.309 18.6267 106.968 16.9973 108.285 15.68C109.602 14.3627 111.232 13.704 113.173 13.704C113.866 13.704 114.906 13.912 116.293 14.328C116.64 14.432 116.952 14.484 117.229 14.484C117.957 14.484 118.408 14.1373 118.581 13.444C118.685 13.0973 118.841 12.924 119.049 12.924C119.292 12.924 119.413 13.0627 119.413 13.34C119.413 13.3747 119.396 13.4787 119.361 13.652L119.309 15.836C119.274 16.668 119.361 18.0027 119.569 19.84V19.944C119.569 20.2213 119.43 20.36 119.153 20.36C118.945 20.36 118.685 19.84 118.373 18.8C117.992 17.552 117.316 16.5467 116.345 15.784C115.409 15.0213 114.317 14.64 113.069 14.64C111.89 14.64 110.92 15.004 110.157 15.732C109.394 16.46 109.013 17.3787 109.013 18.488C109.013 20.2213 110.174 21.5387 112.497 22.44C116.102 23.8613 118.39 25.04 119.361 25.976C120.609 27.1893 121.233 28.6627 121.233 30.396ZM167.817 36.532C167.817 36.844 167.488 37 166.829 37L159.653 36.948C159.168 36.948 158.457 36.9653 157.521 37C156.585 37.0347 155.892 37.052 155.441 37.052C154.748 37.052 154.401 36.9133 154.401 36.636C154.401 36.3587 155.216 36.168 156.845 36.064C157.712 35.9947 158.215 35.856 158.353 35.648C158.492 35.4053 158.561 34.5907 158.561 33.204V18.02H142.909V32.736C142.909 34.296 143.031 35.2147 143.273 35.492C143.516 35.7693 144.331 35.96 145.717 36.064C146.619 36.1333 147.069 36.2893 147.069 36.532C147.069 36.844 146.723 37 146.029 37H145.561C144.729 37 143.845 36.9827 142.909 36.948C142.008 36.9133 141.471 36.896 141.297 36.896C140.812 36.896 140.084 36.9133 139.113 36.948C138.143 36.9827 136.687 37 134.745 37C134.052 37 133.705 36.8613 133.705 36.584C133.705 36.3067 134.052 36.1333 134.745 36.064C135.196 36.0293 135.664 35.9947 136.149 35.96C136.912 35.8907 137.397 35.7173 137.605 35.44C137.709 35.2667 137.761 34.296 137.761 32.528V5.072C137.761 3.512 137.675 2.59333 137.501 2.316C137.363 2.03867 136.825 1.88267 135.889 1.848C134.815 1.77866 134.173 1.72667 133.965 1.692C133.792 1.65733 133.705 1.51867 133.705 1.276C133.705 0.998664 133.931 0.859997 134.381 0.859997C134.52 0.859997 134.815 0.877331 135.265 0.912C136.132 0.981332 138.177 1.016 141.401 1.016C143.169 1.016 144.4 0.998665 145.093 0.963999C145.336 0.929333 145.648 0.912 146.029 0.912C146.653 0.912 146.965 1.08533 146.965 1.432C146.965 1.744 146.393 1.9 145.249 1.9C144.14 1.9 143.464 2.03867 143.221 2.316C143.013 2.55866 142.909 3.37333 142.909 4.76V16.72H158.561V5.54C158.561 3.70266 158.423 2.628 158.145 2.316C157.868 1.96933 156.897 1.81333 155.233 1.848C154.713 1.848 154.453 1.692 154.453 1.38C154.453 1.068 154.748 0.912 155.337 0.912H155.597C156.083 0.912 156.932 0.912 158.145 0.912C159.393 0.946666 160.329 0.963999 160.953 0.963999C163.068 0.963999 164.489 0.946666 165.217 0.912C165.98 0.877331 166.465 0.859997 166.673 0.859997C167.401 0.859997 167.765 1.016 167.765 1.328C167.765 1.64 167.003 1.81333 165.477 1.848C165.027 1.848 164.697 1.88266 164.489 1.952C164.143 2.056 163.917 2.24667 163.813 2.524C163.744 2.80133 163.709 3.616 163.709 4.968V32.632C163.709 34.296 163.796 35.2667 163.969 35.544C164.316 35.9253 165.321 36.116 166.985 36.116C167.54 36.0467 167.817 36.1853 167.817 36.532ZM190.277 31.332C190.277 31.6787 190 32.3027 189.445 33.204C188.925 34.0707 188.388 34.7813 187.833 35.336C186.342 36.8613 184.349 37.624 181.853 37.624C178.733 37.624 176.116 36.4973 174.001 34.244C171.921 31.9907 170.881 29.2 170.881 25.872C170.881 22.4053 171.869 19.5107 173.845 17.188C175.856 14.8653 178.352 13.704 181.333 13.704C183.794 13.704 185.857 14.432 187.521 15.888C189.185 17.3093 190.069 19.1467 190.173 21.4C189.064 21.5733 187.59 21.6427 185.753 21.608L182.113 21.556C181.87 21.556 179.79 21.608 175.873 21.712C175.7 22.856 175.613 23.948 175.613 24.988C175.613 28.4893 176.272 31.1933 177.589 33.1C178.941 34.972 180.83 35.908 183.257 35.908C184.644 35.908 185.753 35.596 186.585 34.972C187.417 34.348 188.318 33.152 189.289 31.384C189.428 31.1067 189.618 30.968 189.861 30.968C190.138 30.968 190.277 31.0893 190.277 31.332ZM185.753 20.724C185.614 16.564 184.124 14.484 181.281 14.484C178.473 14.484 176.722 16.564 176.029 20.724H185.753ZM213.921 34.66C213.921 35.2493 213.297 35.8733 212.049 36.532C210.835 37.156 209.657 37.468 208.513 37.468C206.121 37.468 204.873 36.2373 204.769 33.776C203.451 36.3413 201.406 37.624 198.633 37.624C197.142 37.624 195.911 37.1907 194.941 36.324C193.97 35.4227 193.485 34.2787 193.485 32.892C193.485 30.0493 195.201 27.796 198.633 26.132C199.811 25.5773 201.857 25.0227 204.769 24.468V23.168C204.769 20.1173 204.613 18.1067 204.301 17.136C203.746 15.368 202.498 14.484 200.557 14.484C199.343 14.484 198.321 14.8133 197.489 15.472C196.691 16.1307 196.293 16.9627 196.293 17.968C196.293 18.2453 196.501 18.384 196.917 18.384C197.367 18.384 197.766 18.592 198.113 19.008C198.459 19.424 198.633 19.892 198.633 20.412C198.633 21.9373 197.87 22.7 196.345 22.7C195.547 22.7 194.889 22.44 194.369 21.92C193.849 21.3653 193.589 20.672 193.589 19.84C193.589 18.2107 194.23 16.8067 195.513 15.628C196.934 14.3453 198.91 13.704 201.441 13.704C205.254 13.704 207.594 14.744 208.461 16.824C208.773 17.6213 208.929 19.1987 208.929 21.556V31.28C208.929 32.8747 208.946 33.8107 208.981 34.088C209.154 35.336 209.657 35.96 210.489 35.96C211.459 35.96 212.257 35.6133 212.881 34.92C213.227 34.5387 213.487 34.348 213.661 34.348C213.834 34.348 213.921 34.452 213.921 34.66ZM204.769 29.148V25.352C202.169 25.9413 200.297 26.7213 199.153 27.692C198.043 28.628 197.489 29.8933 197.489 31.488C197.489 32.5973 197.801 33.516 198.425 34.244C199.083 34.9373 199.898 35.284 200.869 35.284C202.359 35.284 203.555 34.452 204.457 32.788C204.665 32.4067 204.769 31.1933 204.769 29.148ZM224.033 36.636C224.033 36.948 223.807 37.104 223.357 37.104H222.733C222.663 37.104 221.745 37.0693 219.977 37L218.365 36.948C218.087 36.948 216.701 37 214.205 37.104C213.997 37.1387 213.789 37.156 213.581 37.156C213.061 37.1907 212.801 37.0347 212.801 36.688C212.801 36.4453 212.991 36.324 213.373 36.324H214.725C215.695 36.324 216.181 36.116 216.181 35.7C216.215 35.492 216.233 34.14 216.233 31.644V5.176C216.233 4.032 216.198 3.408 216.129 3.304C216.025 3.02667 215.747 2.888 215.297 2.888H214.881L213.425 2.94C212.939 2.94 212.697 2.784 212.697 2.472C212.697 2.19466 213.13 2.03866 213.997 2.004C215.661 1.9 217.203 1.51866 218.625 0.859997L219.717 0.339998L220.133 0.184C220.41 1.18933 220.531 2.71467 220.497 4.76L220.445 8.452L220.497 33.932C220.497 34.972 220.514 35.596 220.549 35.804C220.583 35.9773 220.705 36.0987 220.913 36.168C220.947 36.2027 221.589 36.2373 222.837 36.272C223.634 36.272 224.033 36.3933 224.033 36.636ZM240.275 33.932C240.275 34.244 239.842 34.7987 238.975 35.596C237.484 36.948 235.716 37.624 233.671 37.624C231.764 37.624 230.326 37.1387 229.355 36.168C228.8 35.6133 228.523 33.984 228.523 31.28V15.784C228.488 15.4373 228.298 15.2467 227.951 15.212H225.975C225.212 15.212 224.831 15.0907 224.831 14.848C224.831 14.6053 225.022 14.4667 225.403 14.432C228.107 14.1893 230.222 12.872 231.747 10.48C231.955 10.168 232.215 10.012 232.527 10.012C232.77 10.012 232.891 10.1333 232.891 10.376V10.584C232.856 10.7573 232.839 11.052 232.839 11.468C232.839 12.924 232.908 13.86 233.047 14.276C233.359 14.3453 233.879 14.38 234.607 14.38C236.514 14.38 237.779 14.2933 238.403 14.12C238.542 14.0853 238.663 14.068 238.767 14.068C239.044 14.068 239.183 14.224 239.183 14.536C239.183 15.056 237.779 15.316 234.971 15.316C234.486 15.316 233.775 15.2987 232.839 15.264V24.884C232.839 29.7373 232.96 32.788 233.203 34.036C233.446 35.2493 234.243 35.856 235.595 35.856C236.739 35.856 238.022 35.2147 239.443 33.932C239.582 33.7587 239.738 33.672 239.911 33.672C240.154 33.672 240.275 33.7587 240.275 33.932ZM263.944 36.688C263.944 36.9653 263.65 37.104 263.06 37.104C262.783 37.104 262.523 37.0867 262.28 37.052C261.067 37.0867 258.363 37.104 254.168 37.104H253.596C253.146 37.104 252.92 36.9653 252.92 36.688C252.92 36.4453 253.579 36.324 254.896 36.324C255.694 36.324 256.144 36.2373 256.248 36.064C256.387 35.856 256.456 35.1973 256.456 34.088V23.532C256.456 20.3773 256.318 18.4187 256.04 17.656C255.451 16.0613 254.151 15.264 252.14 15.264C250.476 15.264 249.124 16.0093 248.084 17.5C247.738 17.9853 247.564 19.06 247.564 20.724V33.984C247.564 34.92 247.582 35.4573 247.616 35.596C247.651 35.9427 247.79 36.1507 248.032 36.22C248.275 36.2547 249.02 36.2893 250.268 36.324C250.684 36.324 250.892 36.4627 250.892 36.74C250.892 36.9827 250.719 37.104 250.372 37.104C250.372 37.104 250.199 37.0867 249.852 37.052L245.744 37C242.867 36.9653 241.272 37 240.96 37.104H240.44C240.059 37.104 239.868 36.9827 239.868 36.74C239.868 36.4627 240.059 36.324 240.44 36.324H241.22L242 36.272C242.798 36.3067 243.214 36.064 243.248 35.544V12.196C243.248 6.64933 243.162 3.65067 242.988 3.2C242.78 2.85333 241.931 2.66267 240.44 2.628C239.608 2.628 239.192 2.50667 239.192 2.264C239.192 2.056 239.279 1.93467 239.452 1.9C239.626 1.86533 240.215 1.83066 241.22 1.796C242.988 1.76133 244.687 1.34533 246.316 0.547998C246.455 0.478666 246.698 0.391999 247.044 0.287998C247.287 0.703999 247.408 2.03867 247.408 4.292V17.032C248.934 14.8133 251.014 13.704 253.648 13.704C256.422 13.704 258.398 14.4667 259.576 15.992C260.166 16.7547 260.53 17.8293 260.668 19.216C260.738 19.7013 260.772 20.8627 260.772 22.7V35.804C260.807 36.1507 261.708 36.324 263.476 36.324C263.788 36.3933 263.944 36.5147 263.944 36.688ZM300.974 27.536C300.974 31.072 299.362 33.6893 296.138 35.388C294.578 36.22 292.342 36.74 289.43 36.948C288.633 36.9827 286.275 37 282.358 37H276.014C275.425 37 275.13 36.844 275.13 36.532C275.13 36.22 275.667 36.064 276.742 36.064C277.99 36.064 278.718 35.9427 278.926 35.7C279.169 35.4227 279.29 34.6253 279.29 33.308V5.176C279.29 3.65067 279.221 2.76667 279.082 2.524C278.839 2.108 277.955 1.88267 276.43 1.848C275.494 1.848 275.026 1.67466 275.026 1.328C275.026 1.016 275.459 0.859997 276.326 0.859997C276.361 0.859997 276.569 0.859997 276.95 0.859997C277.331 0.894666 277.678 0.912 277.99 0.912L288.13 1.016C291.874 1.05066 294.665 1.67466 296.502 2.888C298.651 4.30933 299.726 6.372 299.726 9.076C299.726 11.4333 298.842 13.3747 297.074 14.9C295.306 16.3907 292.827 17.3267 289.638 17.708V18.02C292.793 18.228 295.254 18.8867 297.022 19.996C299.657 21.66 300.974 24.1733 300.974 27.536ZM294.006 9.596C294.006 6.268 293.243 4.04933 291.718 2.94C290.921 2.35066 289.413 2.056 287.194 2.056C286.605 2.056 285.686 2.108 284.438 2.212V17.292H284.906L287.766 17.188C289.742 17.1187 291.267 16.4253 292.342 15.108C293.451 13.756 294.006 11.9187 294.006 9.596ZM295.514 26.964C295.514 22.596 293.746 19.892 290.21 18.852C289.17 18.54 287.246 18.384 284.438 18.384V33.88C284.438 34.8853 284.542 35.4573 284.75 35.596C285.097 35.8387 286.067 35.96 287.662 35.96C290.054 35.96 291.961 35.1973 293.382 33.672C294.803 32.1467 295.514 29.9107 295.514 26.964ZM324.441 31.332C324.441 31.6787 324.164 32.3027 323.609 33.204C323.089 34.0707 322.552 34.7813 321.997 35.336C320.506 36.8613 318.513 37.624 316.017 37.624C312.897 37.624 310.28 36.4973 308.165 34.244C306.085 31.9907 305.045 29.2 305.045 25.872C305.045 22.4053 306.033 19.5107 308.009 17.188C310.02 14.8653 312.516 13.704 315.497 13.704C317.958 13.704 320.021 14.432 321.685 15.888C323.349 17.3093 324.233 19.1467 324.337 21.4C323.228 21.5733 321.754 21.6427 319.917 21.608L316.277 21.556C316.034 21.556 313.954 21.608 310.037 21.712C309.864 22.856 309.777 23.948 309.777 24.988C309.777 28.4893 310.436 31.1933 311.753 33.1C313.105 34.972 314.994 35.908 317.421 35.908C318.808 35.908 319.917 35.596 320.749 34.972C321.581 34.348 322.482 33.152 323.453 31.384C323.592 31.1067 323.782 30.968 324.025 30.968C324.302 30.968 324.441 31.0893 324.441 31.332ZM319.917 20.724C319.778 16.564 318.288 14.484 315.445 14.484C312.637 14.484 310.886 16.564 310.193 20.724H319.917ZM350.997 36.688C350.997 36.9653 350.737 37.104 350.217 37.104H349.593C348.969 37.0347 348.119 37 347.045 37C343.647 37 341.637 37.0347 341.013 37.104H340.649C340.198 37.104 339.973 36.9827 339.973 36.74C339.973 36.5667 340.059 36.4627 340.233 36.428C340.441 36.3933 341.117 36.3587 342.261 36.324C342.919 36.2893 343.301 36.2027 343.405 36.064C343.509 35.8907 343.561 35.3187 343.561 34.348V24.364C343.561 20.5853 343.422 18.332 343.145 17.604C342.555 16.044 341.377 15.264 339.609 15.264C337.875 15.264 336.419 16.0267 335.241 17.552C334.894 18.0027 334.721 18.6267 334.721 19.424L334.773 35.648C334.773 36.064 335.137 36.2893 335.865 36.324L337.425 36.376C337.771 36.376 337.945 36.4973 337.945 36.74C337.945 36.9827 337.737 37.104 337.321 37.104H336.489C335.726 37.0347 334.513 37 332.849 37C332.467 37 331.635 37.0173 330.353 37.052C329.105 37.0867 328.377 37.104 328.169 37.104H327.857C327.337 37.104 327.077 36.9827 327.077 36.74C327.077 36.4973 327.389 36.3413 328.013 36.272C328.463 36.272 328.897 36.272 329.313 36.272C329.833 36.272 330.145 36.1507 330.249 35.908L330.405 35.128V23.792C330.405 19.84 330.37 17.656 330.301 17.24C330.231 16.824 329.798 16.616 329.001 16.616C328.758 16.616 328.342 16.6507 327.753 16.72H327.493C326.799 16.72 326.453 16.5987 326.453 16.356C326.453 16.044 326.817 15.888 327.545 15.888C328.585 15.8533 329.711 15.6627 330.925 15.316C332.138 14.9693 332.987 14.5707 333.473 14.12C333.785 13.8427 334.027 13.704 334.201 13.704C334.443 13.704 334.565 14.0333 334.565 14.692V17.188C336.367 14.8653 338.69 13.704 341.533 13.704C344.029 13.704 345.831 14.6227 346.941 16.46C347.565 17.5 347.877 19.476 347.877 22.388V34.244C347.877 35.3533 347.929 35.96 348.033 36.064C348.241 36.272 348.743 36.376 349.541 36.376C349.645 36.376 349.835 36.3587 350.113 36.324H350.477C350.823 36.324 350.997 36.4453 350.997 36.688ZM372.226 31.332C372.226 31.6787 371.949 32.3027 371.394 33.204C370.874 34.0707 370.337 34.7813 369.782 35.336C368.291 36.8613 366.298 37.624 363.802 37.624C360.682 37.624 358.065 36.4973 355.95 34.244C353.87 31.9907 352.83 29.2 352.83 25.872C352.83 22.4053 353.818 19.5107 355.794 17.188C357.805 14.8653 360.301 13.704 363.282 13.704C365.743 13.704 367.806 14.432 369.47 15.888C371.134 17.3093 372.018 19.1467 372.122 21.4C371.013 21.5733 369.539 21.6427 367.702 21.608L364.062 21.556C363.819 21.556 361.739 21.608 357.822 21.712C357.649 22.856 357.562 23.948 357.562 24.988C357.562 28.4893 358.221 31.1933 359.538 33.1C360.89 34.972 362.779 35.908 365.206 35.908C366.593 35.908 367.702 35.596 368.534 34.972C369.366 34.348 370.267 33.152 371.238 31.384C371.377 31.1067 371.567 30.968 371.81 30.968C372.087 30.968 372.226 31.0893 372.226 31.332ZM367.702 20.724C367.563 16.564 366.073 14.484 363.23 14.484C360.422 14.484 358.671 16.564 357.978 20.724H367.702ZM392.334 4.292C392.334 5.02 392.109 5.62666 391.658 6.112C391.242 6.56266 390.687 6.788 389.994 6.788C389.335 6.788 388.781 6.58 388.33 6.164C387.879 5.748 387.654 5.228 387.654 4.604C387.654 4.084 387.879 3.47733 388.33 2.784C388.434 2.61066 388.486 2.45466 388.486 2.316C388.486 1.51866 387.914 1.12 386.77 1.12C384.829 1.12 383.546 2.368 382.922 4.864C382.61 6.18133 382.454 8.48666 382.454 11.78V14.328H385.886C386.579 14.328 386.926 14.484 386.926 14.796C386.926 15.108 386.475 15.264 385.574 15.264H382.454V35.596C382.454 36.0813 382.939 36.324 383.91 36.324C385.401 36.2893 386.215 36.3587 386.354 36.532C386.389 36.5667 386.406 36.636 386.406 36.74C386.406 36.9827 386.198 37.104 385.782 37.104C385.574 37.104 385.401 37.0867 385.262 37.052L380.998 37L375.33 37.104C374.706 37.104 374.394 36.9827 374.394 36.74C374.394 36.4627 374.637 36.324 375.122 36.324C376.855 36.324 377.809 36.22 377.982 36.012C378.051 35.9427 378.086 35.8387 378.086 35.7L378.138 35.024V15.264C376.855 15.264 376.11 15.2467 375.902 15.212C375.694 15.1773 375.59 15.0387 375.59 14.796C375.59 14.484 375.902 14.328 376.526 14.328H378.19C378.329 9.92533 378.918 6.75333 379.958 4.812C381.553 1.83066 383.945 0.339998 387.134 0.339998C388.659 0.339998 389.907 0.703998 390.878 1.432C391.849 2.16 392.334 3.11333 392.334 4.292ZM400.637 4.292C400.637 5.852 399.857 6.632 398.297 6.632C397.638 6.632 397.083 6.424 396.633 6.008C396.182 5.55733 395.957 5.02 395.957 4.396C395.957 2.76667 396.737 1.952 398.297 1.952C399.857 1.952 400.637 2.732 400.637 4.292ZM404.537 36.688C404.537 37 404.242 37.156 403.653 37.156C403.687 37.156 403.271 37.1213 402.405 37.052C401.365 36.9827 400.498 36.948 399.805 36.948L394.397 37.052C394.223 37.0867 394.015 37.104 393.773 37.104C393.391 37.104 393.201 36.9827 393.201 36.74C393.201 36.3933 393.547 36.22 394.241 36.22C395.558 36.1853 396.269 36.0987 396.373 35.96C396.511 35.7867 396.581 35.0587 396.581 33.776L396.529 18.02C396.494 17.1533 396.442 16.6507 396.373 16.512C396.338 16.3387 396.13 16.252 395.749 16.252L394.241 16.304C394.102 16.3387 393.929 16.356 393.721 16.356C393.339 16.356 393.149 16.2173 393.149 15.94C393.149 15.6973 393.443 15.5587 394.033 15.524C396.355 15.42 398.349 14.8653 400.013 13.86L400.533 13.548C400.81 14.068 400.949 15.0213 400.949 16.408C400.949 16.3387 400.949 16.512 400.949 16.928C400.914 17.344 400.897 18.02 400.897 18.956V33.152C400.897 34.5387 400.914 35.3533 400.949 35.596C401.018 35.8387 401.209 35.9947 401.521 36.064C402.041 36.2027 402.803 36.272 403.809 36.272C404.294 36.272 404.537 36.4107 404.537 36.688ZM420.76 33.932C420.76 34.244 420.326 34.7987 419.46 35.596C417.969 36.948 416.201 37.624 414.156 37.624C412.249 37.624 410.81 37.1387 409.84 36.168C409.285 35.6133 409.008 33.984 409.008 31.28V15.784C408.973 15.4373 408.782 15.2467 408.436 15.212H406.46C405.697 15.212 405.316 15.0907 405.316 14.848C405.316 14.6053 405.506 14.4667 405.888 14.432C408.592 14.1893 410.706 12.872 412.232 10.48C412.44 10.168 412.7 10.012 413.012 10.012C413.254 10.012 413.376 10.1333 413.376 10.376V10.584C413.341 10.7573 413.324 11.052 413.324 11.468C413.324 12.924 413.393 13.86 413.532 14.276C413.844 14.3453 414.364 14.38 415.092 14.38C416.998 14.38 418.264 14.2933 418.888 14.12C419.026 14.0853 419.148 14.068 419.252 14.068C419.529 14.068 419.668 14.224 419.668 14.536C419.668 15.056 418.264 15.316 415.456 15.316C414.97 15.316 414.26 15.2987 413.324 15.264V24.884C413.324 29.7373 413.445 32.788 413.688 34.036C413.93 35.2493 414.728 35.856 416.08 35.856C417.224 35.856 418.506 35.2147 419.928 33.932C420.066 33.7587 420.222 33.672 420.396 33.672C420.638 33.672 420.76 33.7587 420.76 33.932ZM437.253 30.396C437.253 32.4067 436.508 34.1227 435.017 35.544C433.561 36.9307 431.81 37.624 429.765 37.624C428.586 37.624 427.148 37.208 425.449 36.376C424.998 36.1333 424.6 36.012 424.253 36.012C423.768 36.012 423.404 36.3413 423.161 37C423.022 37.416 422.832 37.624 422.589 37.624C422.346 37.624 422.225 37.4853 422.225 37.208C422.225 37.0347 422.242 36.8267 422.277 36.584C422.381 35.8907 422.433 34.868 422.433 33.516C422.433 33.412 422.416 32.996 422.381 32.268C422.346 31.54 422.329 31.0547 422.329 30.812V30.24C422.329 29.8587 422.45 29.668 422.693 29.668C422.97 29.668 423.126 29.8587 423.161 30.24C423.369 31.8347 423.82 33.0827 424.513 33.984C425.9 35.7867 427.754 36.688 430.077 36.688C431.325 36.688 432.33 36.324 433.093 35.596C433.856 34.868 434.237 33.8973 434.237 32.684C434.237 31.332 433.804 30.2573 432.937 29.46C432.452 29.0093 432.001 28.6973 431.585 28.524C431.204 28.316 430.042 27.848 428.101 27.12C424.253 25.664 422.329 23.48 422.329 20.568C422.329 18.6267 422.988 16.9973 424.305 15.68C425.622 14.3627 427.252 13.704 429.193 13.704C429.886 13.704 430.926 13.912 432.313 14.328C432.66 14.432 432.972 14.484 433.249 14.484C433.977 14.484 434.428 14.1373 434.601 13.444C434.705 13.0973 434.861 12.924 435.069 12.924C435.312 12.924 435.433 13.0627 435.433 13.34C435.433 13.3747 435.416 13.4787 435.381 13.652L435.329 15.836C435.294 16.668 435.381 18.0027 435.589 19.84V19.944C435.589 20.2213 435.45 20.36 435.173 20.36C434.965 20.36 434.705 19.84 434.393 18.8C434.012 17.552 433.336 16.5467 432.365 15.784C431.429 15.0213 430.337 14.64 429.089 14.64C427.91 14.64 426.94 15.004 426.177 15.732C425.414 16.46 425.033 17.3787 425.033 18.488C425.033 20.2213 426.194 21.5387 428.517 22.44C432.122 23.8613 434.41 25.04 435.381 25.976C436.629 27.1893 437.253 28.6627 437.253 30.396Z" fill="#333333"/>
</svg>
