<svg width="286" height="400" viewBox="0 0 286 400" fill="none" xmlns="http://www.w3.org/2000/svg">
<g clip-path="url(#clip0_1146_2586)">
<path fill-rule="evenodd" clip-rule="evenodd" d="M361.153 -9.19682C355.46 -7.65479 350.855 -4.75078 347.469 0.20475C344.932 3.91855 340.646 3.44391 337.215 2.64194C318.65 -1.69664 304.627 15.9423 302.922 29.9194C302.665 32.0279 303.466 34.2452 303.577 36.422C303.753 39.8739 301.95 41.0964 298.85 39.5957C288.901 34.7796 278.925 30.0127 269.104 24.9482C266.777 23.7485 264.839 21.623 263.022 19.6483C256.36 12.4128 245.846 15.2991 239.956 19.2548C238.405 20.2973 237.262 22.3815 236.622 24.2253C235.713 26.8447 234.388 27.273 231.951 26.4383C228.468 25.2443 224.71 24.9276 224.992 19.464C225.07 17.9611 221.799 15.8185 219.666 14.7981C217.472 13.7485 215.066 14.5071 213.633 16.8596C211.471 20.4083 208.324 23.5037 209.548 28.3824C210.6 32.5772 211.975 33.1373 216.26 32.4556C218.746 32.0606 221.768 33.0675 224.123 34.2715C227.299 35.894 230.034 38.3575 233.015 40.3777C235.178 41.8429 236.134 43.2376 233.906 45.5659C232.138 47.4147 230.689 49.5843 229.218 51.6949C227.555 54.0823 226.333 53.7059 224.934 51.4095C221.068 45.07 217.43 45.2564 213.8 51.9525C213.005 53.4184 212.016 54.9917 211.901 56.5722C211.542 61.4942 207.541 63.1608 204.263 65.3383C203.359 65.9389 201.086 65.625 200.242 64.8565C199.429 64.115 198.973 61.7917 199.539 60.9499C201.69 57.747 201.706 54.5313 200.94 50.9847C200.713 49.9294 201.269 48.5632 201.814 47.5221C202.463 46.2861 203.831 45.3631 204.263 44.093C204.804 42.5075 204.709 40.7065 204.889 38.9987C203.487 39.1075 202.085 39.2171 199.941 39.3843C199.43 37.3022 199.145 34.838 198.215 32.6456C196.667 28.9944 194.934 25.3759 192.855 22.0037C190.565 18.2899 190.886 15.9125 195.08 14.2174C201.21 11.7397 206.268 7.9846 210.662 3.09951C214.864 -1.57352 214.981 -1.56641 209.675 -5.45811C212.635 -6.85425 213.464 -8.95842 212.64 -12.1072C212.448 -12.8416 215.049 -15.3243 216.004 -15.1407C218.759 -14.6113 221.505 -13.4173 223.931 -11.9521C227.101 -10.0365 229.897 -7.51318 232.993 -5.46024C234.003 -4.79063 235.434 -4.60704 236.698 -4.49105C240.789 -4.11675 244.99 -6.08502 246.011 -8.71507C247.181 -11.7294 245.419 -15.6545 241.88 -18.3607C240.376 -19.5113 238.72 -20.7339 237.796 -22.3101C236.001 -25.3706 237.706 -27.8818 241.243 -27.8605C250.792 -27.8035 250.871 -27.8875 252.711 -37.6513C254.495 -47.1204 256.204 -56.606 258.162 -66.0389C259.391 -71.9614 258.437 -77.5524 256.42 -83.0779C254.691 -87.8129 255.79 -92.1899 257.982 -96.4566C259.137 -98.7052 260.703 -99.5869 262.91 -97.798C269.441 -92.5073 276.92 -88.3494 279.947 -79.5029C284.443 -66.369 294.812 -58.2398 306.077 -51.0157C313.684 -46.137 321.715 -42.6445 330.732 -41.353C334.258 -40.847 337.007 -40.8335 337.364 -45.2326C337.785 -45.2326 338.154 -45.34 338.264 -45.2169C341.452 -41.6575 342.402 -41.8027 345.209 -46.1456C347.652 -49.9255 349.965 -53.8201 352.765 -57.3233C353.728 -58.528 355.987 -58.703 357.655 -59.3485C357.661 -57.6762 358.054 -55.893 357.607 -54.3517C355.325 -46.4736 352.666 -38.7023 350.496 -30.7958C349.802 -28.2654 349.936 -25.414 350.164 -22.7491C350.542 -18.355 352.942 -17.2663 356.816 -19.4644C357.917 -20.0885 358.967 -20.7986 360.944 -21.079C360.15 -18.5699 359.357 -16.0601 358.556 -13.529C363.242 -11.0818 363.466 -18.481 368 -17.3325C366.694 -13.5923 365.238 -10.3033 361.153 -9.19682ZM193.341 170.806C201.008 165.362 198.582 152.933 201.184 148.746C203.786 144.56 210.131 120.13 204.036 121.706C197.899 123.293 194.882 123.394 194.054 116.013C199.628 118.39 203.299 117.521 204.036 110.32C204.773 103.12 204.627 97.0497 199.758 87.5492C204.75 79.2805 214.964 84.2268 215.443 72.6058C214.599 69.7637 215.55 63.2675 216.156 61.9319C216.934 60.2219 219.801 66.0306 221.147 64.7782C222.464 63.5522 222.719 60.039 226.138 64.7782C227.527 66.7038 224.132 79.4883 229.703 79.7217C235.274 79.9558 230.526 69.0976 234.693 71.8942C237.467 74.2752 238.283 76.9194 241.823 76.8753C245.385 76.8312 247.463 64.4566 244.675 60.5087C237.014 64.7967 233.782 66.2683 231.129 65.4898C228.475 64.7114 232.091 57.4816 232.555 54.8159C233.024 52.1147 233.7 48.9844 235.406 49.1232C238.163 49.3474 242.685 54.7014 245.388 55.5275C249.071 56.6533 250.24 54.3442 253.943 54.1044C245.248 79.7644 255.573 86.3552 256.082 89.684C256.419 91.8835 279.914 130.364 271.055 138.784C265.287 144.265 270.446 152.378 264.638 157.285C248.983 170.511 254.895 175.743 255.369 186.461C255.844 197.178 247.647 172.413 238.258 189.307C235.089 195.427 235.391 202.682 237.446 209.549C242.821 227.507 239.409 243.526 233.98 246.234C228.552 248.943 225.699 264.085 224.709 272.753C223.979 279.145 225.98 286.812 231.129 291.776C235.185 295.688 234.413 297.886 226.851 298.181C219.33 298.474 217.581 307.946 217.385 315.198C217.299 318.394 216.223 319.902 212.723 320.487C210.35 320.884 208.01 322.904 206.175 324.72C203.876 326.995 201.145 329.416 199.597 327.347C197.306 324.285 197.169 320.395 199.045 316.682C200.753 313.303 197.078 314.251 199.045 310.989C200.207 309.064 207.731 303.883 208.314 301.739C208.567 300.809 206.171 298.393 205.331 297.95C204.522 297.524 200.281 296.684 198.332 298.892C196.384 301.101 198.506 305.024 192.629 310.989C192.133 311.492 196.057 314.414 195.48 315.259C194.63 315.66 193.374 317.357 193.341 318.817C189.623 320.029 193.339 312.337 184.073 312.413C178.264 312.46 175.289 317.853 174.804 320.952C174.32 324.051 178.88 327.217 174.091 333.76C173.458 334.829 173.714 337.234 172.629 337.624C170.256 338.48 167.777 342.084 165.536 341.588C163.689 341.179 161.669 336.531 163.062 334.521C164.084 333.048 165.388 331.772 166.518 330.37C169.161 327.089 169.139 324.518 166.49 321.797C163.535 318.762 159.735 318.187 156.821 320.81C155.163 322.301 153.907 324.376 152.884 326.396C151.143 329.837 147.726 333.511 146.004 336.963C143.713 341.551 140.48 340.004 135.496 339.146C129.693 338.148 123.75 337.821 117.854 337.607C116.609 337.562 115.117 339.094 114.062 340.204C112.314 342.043 111.329 342.024 107.073 342.299C102.816 342.574 108.503 337.858 115.628 335.184C119.989 333.547 115.083 334.219 109.212 334.472C106.438 334.592 106.01 330.247 103.508 329.491C101.465 328.875 104.638 337.422 102.795 337.318C96.9879 336.992 101.686 324.739 99.2302 323.086C95.5292 320.597 93.483 323.53 93.5264 325.933C93.6063 330.346 89.0205 332.564 89.2487 337.318C89.3741 339.933 101.919 344.93 102.051 348.106C102.087 348.956 102.059 353.765 101.369 354.397C99.2002 356.38 96.1944 354.48 93.7632 356.501C90.6404 354.002 85.2696 357.951 81.406 362.936C77.5425 367.92 71.8117 373.94 69.1958 381.525C68.572 383.333 67.4405 385.334 65.934 386.346C64.908 387.034 56.294 384.328 54.8146 383.789C47.5588 381.149 54.7312 377.787 47.8967 374.321C45.6687 373.191 36.1036 367.732 43.6189 364.359C44.4452 363.988 39.8872 363.294 40.767 362.224C42.1381 360.557 43.2496 356.794 45.0448 357.955C37.3434 352.98 43.6588 353.629 50.0356 347.281C52.3627 344.964 54.8973 340.138 50.7486 337.318C44.8545 333.313 44.1985 340.509 40.767 340.165C35.0127 339.587 30.7991 333.753 22.9429 333.76C15.0868 333.767 12.0681 340.269 9.96768 342.614C5.59222 347.499 1.3458 347.762 -4.81706 345.416C-9.39715 343.671 -3.14088 348.837 -14.1312 348.704C-25.1223 348.571 -37.2577 358.384 -41.2239 355.82C-45.1901 353.256 -45.5366 351.45 -48.5917 350.873C-53.1275 350.017 -55.404 353.721 -53.5539 358.056C-52.5422 360.425 -49.8322 362.914 -52.5379 365.342C-55.0283 367.576 -58.2024 369.112 -61.2454 370.614C-61.6888 370.832 -63.2702 369.284 -63.9953 368.309C-65.9552 365.672 -67.2621 362.29 -69.7418 360.386C-71.6832 358.895 -74.9756 359.023 -77.6992 358.764C-78.3743 358.7 -79.5087 359.778 -79.8559 360.579C-81.4158 364.178 -84.5258 365.569 -88.2061 363.974C-91.2405 362.658 -87.799 351.957 -91.2056 350.379C-90.7728 348.516 -90.7471 346.444 -89.8067 344.94C-88.9626 343.589 -87.2393 342.401 -85.6758 341.977C-83.7415 341.452 -81.4957 342.122 -79.5243 341.668C-77.2044 341.134 -74.2063 340.572 -72.9594 338.926C-69.6462 334.551 -66.3709 337.151 -60.372 329.089C-54.3738 321.027 -46.0542 314.096 -40.5109 313.124C-34.9534 312.15 -45.2821 308.154 -40.5109 307.431C-34.1278 306.465 -22.0416 300.101 -16.9831 300.315C-12.3189 300.513 -23.3028 304.056 -20.5479 305.297C-13.3826 308.522 -11.4954 301.663 1.55399 304.585C14.289 307.437 2.73324 297.138 33.6374 298.181C37.2464 298.302 40.9638 295.058 43.6189 293.911C48.4799 291.811 49.8809 295.591 47.8639 297.384C45.8006 299.219 44.369 302.592 46.6697 304.227C48.9711 305.862 50.0042 302.934 51.5193 302.023C54.0482 300.503 54.5615 299.146 55.1953 301.832C55.529 303.247 55.0206 304.279 56.7061 305.957C58.3908 307.636 61.9286 307.664 69.3862 300.826C71.9108 297.332 72.8526 300.069 74.7327 296.204C75.3416 294.952 74.6878 292.627 73.8664 291.227C65.3387 277.569 89.7156 270.856 95.6653 253.35C96.3983 251.195 97.7301 239.703 94.998 238.412C94.2109 238.04 94.2957 235.051 94.6743 234.056C96.9971 227.076 102.369 225.793 107.32 224.499C109.322 223.975 111.225 223.086 113.197 222.435C114.088 222.141 115.412 221.561 115.877 221.934C116.672 222.569 117.637 224.321 117.321 224.784C115.902 226.864 112.808 228.958 107.786 232.714C106.197 233.903 102.737 233.35 102.082 236.272C100.667 242.584 104.484 237.601 107.073 239.83C111.886 243.975 94.1531 253.306 114.915 252.639C119.387 252.495 118.66 244.32 122.243 243.946C124.412 243.72 130.038 243.608 132.076 242.526C133.203 241.928 134.078 240.725 135.246 240.36C139.654 238.98 141.205 234.264 142.953 229.859C143.879 227.526 145.972 226.514 147.776 229.577C149.26 232.097 151.553 231.663 153.57 230.751C158.353 228.59 161.056 228.434 162.684 217.771C164.948 202.945 177.092 206.325 184.786 195C189.673 187.806 185.675 176.25 193.341 170.806ZM146.699 212.849C146.865 210.626 146.744 209.333 147.092 208.178C147.921 205.425 148.159 203.352 144.203 203.395C143.379 203.404 141.736 201.959 141.845 201.52C142.411 199.225 143.003 195.44 144.346 195.093C149.966 193.642 152.842 189.341 156.269 184.976C158.963 188.798 152.621 207.587 146.699 212.849ZM-83.8848 382.495C-82.4653 382.131 -80.7157 383.017 -79.1244 383.355C-77.0789 383.789 -75.0391 384.251 -72.3726 384.838C-72.3726 385.431 -72.4068 387.043 -72.3655 388.653C-72.2585 392.828 -70.7413 393.82 -66.6546 392.606C-65.6458 392.306 -64.505 392.445 -63.4249 392.382C-63.5055 393.467 -63.5411 394.557 -63.6766 395.635C-63.9126 397.515 -64.2099 399.387 -64.5742 401.9C-62.5066 401.255 -61.4443 400.924 -59.6341 400.359C-61.7466 406.699 -60.3206 413.33 -66.676 418.076C-73.7443 423.356 -76.4821 431.431 -76.8051 440.182C-76.9284 443.528 -76.8614 446.882 -76.84 450.231C-76.8144 454.286 -79.1001 456.99 -81.4743 460.102C-85.3507 465.185 -90.6067 468.509 -95.0891 472.776C-95.8584 473.508 -96.197 474.691 -96.8137 475.811C-97.9951 475.698 -99.2371 475.578 -100.784 475.429C-100.67 474.084 -100.635 472.959 -100.471 471.852C-99.7904 467.24 -98.7516 462.648 -98.527 458.015C-98.44 456.212 -99.9123 454.121 -101.185 452.579C-101.643 452.024 -103.595 452.694 -105.14 453.408C-101.211 454.972 -102.289 457.404 -103 459.899C-104.055 463.595 -104.808 467.379 -105.887 471.069C-106.291 472.451 -107.248 473.674 -107.953 474.97C-109.132 473.919 -110.779 473.086 -111.394 471.772C-112.749 468.877 -113.444 465.683 -114.672 462.719C-115.622 460.427 -117.049 458.338 -118.12 456.09C-119.122 453.984 -120.331 451.834 -120.581 449.606C-120.652 448.977 -117.677 448.008 -116.556 447.431C-115.288 443.719 -115.13 439.134 -112.841 437.481C-109.014 434.72 -107.291 430.904 -104.808 427.434C-104.398 426.862 -104.285 426.081 -103.834 424.848C-105.376 424.96 -106.482 425.183 -107.556 425.078C-108.603 424.976 -110.14 424.829 -110.508 424.172C-110.934 423.412 -110.71 421.67 -110.08 421.059C-108.196 419.231 -105.913 417.819 -103.915 416.097C-102.981 415.292 -101.622 414.033 -101.755 413.181C-101.921 412.113 -103.408 411.238 -104.362 410.318C-104.512 410.173 -104.863 410.253 -105.113 410.192C-106.984 409.736 -108.854 409.27 -110.724 408.807C-109.544 407.247 -108.364 405.687 -106.738 403.538C-110.021 402.102 -113.305 400.665 -117.893 398.658C-114.644 404.582 -118.324 408.11 -120.779 411.784C-119.996 412.267 -119.772 412.527 -119.571 412.511C-111.839 411.889 -112.305 415.611 -114.714 421.214C-115.858 423.874 -116.515 426.612 -120.615 426.692C-122.186 426.721 -123.702 429.594 -125.595 431.531C-128.236 430.782 -127.13 428.494 -126.514 426.549C-125.173 422.316 -123.688 418.128 -122.262 413.921C-122.607 413.621 -122.952 413.321 -123.298 413.02C-124.384 413.97 -125.64 414.789 -126.514 415.905C-127.507 417.173 -128.158 418.705 -129.056 420.298C-132.254 417.674 -133.151 415.251 -130.572 411.965C-128.808 409.719 -128.891 407.481 -131.95 406.024C-136.611 403.804 -135.834 398.972 -136.98 395.091C-137.108 394.657 -136.599 393.708 -136.144 393.483C-131.928 391.394 -127.816 388.915 -123.369 387.509C-115.578 385.046 -109.137 381.328 -105.274 373.758C-103.659 370.592 -101.686 370.652 -99.2086 373.306C-98.512 374.054 -97.9723 374.944 -97.3121 375.728C-93.8164 379.883 -90.4819 384.188 -83.8848 382.495ZM-42.6498 380.014C-38.412 378.932 -33.5909 360.676 -30.5294 360.801C-27.4679 360.926 -26.8391 370.61 -19.9091 367.432C-12.9798 364.253 -13.1031 367.582 -8.42752 364.359C-3.7519 361.136 -11.2758 358.457 -8.42752 355.82C-5.57923 353.183 3.37206 353.282 7.79601 349.15C18.7842 351.263 14.7075 353.903 17.2392 355.108C19.4922 356.181 24.4359 354.051 25.7948 356.531C26.7238 358.228 23.8855 363.865 25.7948 365.07C27.1145 365.904 28.7679 367.244 28.6467 367.917C28.2474 370.143 30.2551 372.159 28.6467 372.898C21.9498 375.976 15.9152 381.103 13.3892 387.234C12.4196 389.588 12.714 395.774 10.8225 395.669C8.93103 395.564 4.74522 389.363 2.96994 387.538C-1.30286 383.148 -13.6792 386.867 -18.409 390.688C-25.2478 396.212 -12.475 392.029 -28.9017 409.467C-31.1668 411.872 -31.2124 415.091 -36.7001 412.522C-40.9587 410.528 -47.2385 403.033 -47.6406 398.515C-47.8202 396.496 -43.8975 398.4 -44.0757 396.381C-44.6696 389.66 -49.3995 392.707 -48.3535 388.553C-47.3076 384.399 -46.2517 380.934 -42.6498 380.014Z" stroke="white" stroke-width="0.5"/>
<path opacity="0.051" fill-rule="evenodd" clip-rule="evenodd" d="M178.056 151.215C176.021 151.252 174.762 151.597 174.282 152.252C173.838 152.651 172.246 155.741 169.508 161.521C168.287 164.076 167.139 166.323 166.066 168.265C165.325 169.601 164.901 170.511 164.79 170.999C164.679 171.486 164.623 172.541 164.623 174.164V184.391C164.623 185.581 164.78 186.286 165.095 186.501C165.409 186.718 166.511 186.88 168.398 186.988C169.397 187.057 169.897 187.226 169.897 187.498C169.897 187.77 169.637 187.906 169.119 187.906H168.453L160.682 187.744C158.498 187.744 156.704 187.78 155.298 187.852C155.076 187.888 154.816 187.906 154.521 187.906C154.002 187.906 153.744 187.736 153.744 187.395C153.744 187.054 154.168 186.865 155.02 186.827C157.055 186.755 158.258 186.576 158.628 186.289C158.997 186.002 159.183 185.142 159.183 183.709V172.366C158.813 171.576 157.74 169.471 155.964 166.053L150.413 155.37C149.858 154.327 149.192 153.158 148.415 151.863C148.007 151.504 147.128 151.323 145.778 151.323C144.427 151.323 143.752 151.126 143.752 150.73C143.752 150.442 144.049 150.298 144.64 150.298C145.417 150.298 146.972 150.334 149.303 150.406C150.635 150.442 151.597 150.46 152.189 150.46L158.628 150.379C158.886 150.325 159.183 150.298 159.516 150.298C160.183 150.298 160.516 150.479 160.516 150.841C160.516 151.167 159.886 151.329 158.628 151.329C156.333 151.329 155.187 151.727 155.187 152.523C155.187 153.138 156.351 155.617 158.679 159.959L163.721 169.237C164.642 167.629 165.693 165.646 166.872 163.288L170.148 156.868C171.387 154.551 172.006 153.031 172.006 152.307C172.006 151.837 171.691 151.565 171.062 151.493C169.766 151.312 168.897 151.24 168.453 151.275C167.639 151.312 167.232 151.131 167.232 150.732C167.232 150.443 167.583 150.298 168.287 150.298H171.506H173.338C177.113 150.19 179 150.36 179 150.807C179 151.079 178.685 151.215 178.056 151.215ZM144.54 187.15C144.54 187.115 144.521 187.079 144.485 187.042C144.299 186.647 144.207 186.323 144.207 186.071C144.207 185.316 144.614 184.938 145.428 184.938C146.317 184.938 146.761 185.389 146.761 186.287C146.761 187.798 145.465 188.553 142.875 188.553C139.989 188.553 137.731 187.385 136.103 185.046C135.399 184.04 134.946 183.068 134.743 182.132C134.539 181.197 134.234 178.823 133.827 175.01C133.605 172.709 132.846 171.081 131.551 170.127C130.256 169.175 128.146 168.662 125.223 168.589V185.586C125.223 186.306 125.815 186.755 127 186.934C127.333 186.971 128.183 187.007 129.553 187.042C130.034 187.042 130.275 187.187 130.275 187.474C130.275 187.798 129.96 187.96 129.331 187.96H128.665C128.332 187.96 126.722 187.96 123.836 187.96C123.28 187.96 122.337 187.96 121.005 187.96C119.709 187.96 118.858 187.96 118.451 187.96H116.286C115.472 187.96 115.065 187.798 115.065 187.474C115.065 187.223 115.601 187.079 116.675 187.042C118.414 187.007 119.357 186.791 119.506 186.395C119.653 186.215 119.728 185.514 119.728 184.291V154.506C119.728 153.069 119.57 152.205 119.256 151.917C118.941 151.629 117.988 151.467 116.397 151.431C115.472 151.431 115.01 151.269 115.01 150.945C115.01 150.587 115.305 150.406 115.898 150.406C116.009 150.406 116.175 150.425 116.397 150.46L123.78 150.622C124.52 150.622 125.556 150.598 126.889 150.55C128.368 150.454 129.404 150.406 129.997 150.406C133.439 150.406 136.167 151.153 138.185 152.645C140.201 154.138 141.21 156.162 141.21 158.715C141.21 161.234 140.173 163.311 138.101 164.947C136.028 166.585 133.216 167.546 129.664 167.834C129.331 167.87 129.145 167.924 129.109 167.997C129.109 168.141 129.293 168.212 129.664 168.212C133.55 168.862 136.223 170.188 137.685 172.189C139.146 174.192 140.118 177.808 140.599 183.038C140.895 185.996 141.931 187.474 143.708 187.474C144.263 187.474 144.54 187.366 144.54 187.15ZM132.911 165.568C134.483 164.273 135.27 162.168 135.27 159.255C135.27 154.111 132.976 151.539 128.387 151.539C127.166 151.539 126.333 151.701 125.889 152.024C125.445 152.348 125.223 152.924 125.223 153.751V167.456C128.776 167.493 131.338 166.863 132.911 165.568ZM95.0775 188.553C89.9707 188.553 85.6771 186.674 82.1995 182.915C78.7205 179.157 76.9817 174.524 76.9817 169.021C76.9817 163.409 78.6553 158.815 82.0052 155.235C85.3538 151.656 89.6376 149.866 94.8554 149.866C99.7763 149.866 103.903 151.737 107.234 155.478C110.564 159.22 112.23 163.86 112.23 169.399C112.23 174.759 110.573 179.291 107.262 182.996C103.949 186.701 99.8873 188.553 95.0775 188.553ZM101.85 154.247C100.109 151.939 97.6864 150.783 94.5779 150.783C91.6165 150.783 89.3226 151.668 87.6948 153.435C84.6974 156.683 83.1986 161.968 83.1986 169.291C83.1986 175.099 84.2436 179.61 86.3349 182.82C88.4248 186.031 91.3584 187.636 95.133 187.636C98.6481 187.636 101.294 186.121 103.071 183.09C105.032 179.736 106.013 175.262 106.013 169.67C106.013 163.068 104.625 157.927 101.85 154.247ZM72.8407 160.765C72.3967 160.765 72.0816 160.299 71.8971 159.363C71.8226 158.715 71.7486 158.068 71.675 157.42C71.4155 156.125 70.99 155.029 70.3983 154.129C69.6212 152.942 68.3445 152.186 66.5683 151.863C65.4206 151.647 64.4955 151.558 63.7928 151.593C62.0531 151.641 60.9984 151.677 60.6288 151.701V184.287C60.6288 185.584 60.9799 186.394 61.6835 186.718C62.0531 186.898 63.0893 187.007 64.792 187.042C65.236 187.076 65.4581 187.23 65.4581 187.501C65.4581 187.807 65.1616 187.96 64.5699 187.96C64.2734 187.96 64.0149 187.941 63.7928 187.906C61.5725 187.834 59.9993 187.798 59.0746 187.798C57.8534 187.798 56.7058 187.825 55.6331 187.879C54.5594 187.933 53.1907 187.96 51.5254 187.96C50.6738 187.96 50.2487 187.816 50.2487 187.527C50.2487 187.203 51.0439 187.023 52.6356 186.987C53.7823 186.987 54.5229 186.753 54.8559 186.285C55.0405 185.996 55.1335 185.258 55.1335 184.069V151.701C51.4699 151.737 49.1941 151.917 48.3059 152.24C45.9746 153.069 44.6049 155.281 44.1983 158.877C44.0873 159.956 43.8278 160.496 43.4212 160.496C42.9771 160.496 42.7551 160.118 42.7551 159.363C42.7551 158.967 42.7731 158.572 42.8106 158.176L42.9216 156.935C43.0326 155.281 43.1991 153.104 43.4212 150.406H45.9191L57.2428 150.568C58.575 150.604 60.6469 150.604 63.4598 150.568L72.6742 150.406C72.7477 152.421 72.9883 155.406 73.3958 159.363C73.3958 159.471 73.4138 159.605 73.4513 159.767C73.4879 159.929 73.5068 160.029 73.5068 160.064C73.5068 160.532 73.2848 160.765 72.8407 160.765ZM27.9352 188.553C25.9369 188.553 23.55 187.96 20.7746 186.773C20.0335 186.449 19.4785 186.287 19.1093 186.287C18.6653 186.287 18.3877 186.785 18.2767 187.376C18.2392 188.295 17.9992 188.553 17.5551 188.553C17.1846 188.553 17 188.337 17 187.906C17 187.618 17.018 187.403 17.0555 187.258C17.3511 185.065 17.4996 183.032 17.4996 181.161C17.4996 180.802 17.4621 179.795 17.3886 178.139C17.3511 177.924 17.3331 177.636 17.3331 177.276C17.3331 176.737 17.5551 176.467 17.9992 176.467C18.3683 176.467 18.6278 176.903 18.7763 177.774C19.738 184.241 22.8645 187.474 28.1572 187.474C30.4137 187.474 32.1622 186.854 33.4028 185.612C34.642 184.371 35.2623 182.618 35.2623 180.352C35.2623 178.338 34.6601 176.621 33.4583 175.199C32.2552 173.778 30.1916 172.366 27.2691 170.963C23.7526 169.273 21.3102 167.637 19.942 166.053C18.5723 164.471 17.8881 162.511 17.8881 160.172C17.8881 157.187 18.8776 154.722 20.8578 152.78C22.8367 150.837 25.3443 149.866 28.3793 149.866C29.6365 149.866 31.3767 150.28 33.5971 151.107C34.3742 151.396 34.9473 151.539 35.3178 151.539C35.7244 151.539 35.9923 151.467 36.1227 151.323C36.2518 151.18 36.3725 150.802 36.4835 150.19C36.5571 149.831 36.7611 149.65 37.0941 149.65C37.4632 149.65 37.6492 149.866 37.6492 150.298C37.6492 150.587 37.6298 150.802 37.5937 150.945C37.4827 151.809 37.4272 152.853 37.4272 154.075C37.4272 155.801 37.5188 157.169 37.7047 158.176L37.7602 159.039C37.7963 159.435 37.6298 159.632 37.2606 159.632C36.8526 159.632 36.5751 159.22 36.428 158.391C36.02 156.27 35.0583 154.498 33.5416 153.077C32.0234 151.656 30.3221 150.945 28.4348 150.945C26.5836 150.945 25.1126 151.521 24.0218 152.672C22.9297 153.824 22.3843 155.389 22.3843 157.366C22.3843 159.669 23.1795 161.521 24.7712 162.924C25.6593 163.716 27.5827 164.831 30.5441 166.269C34.0217 167.961 36.5196 169.678 38.0378 171.422C39.5545 173.167 40.3136 175.154 40.3136 177.384C40.3136 180.479 39.1007 183.113 36.6778 185.289C34.2535 187.466 31.3393 188.553 27.9352 188.553Z" fill="white"/>
<rect x="128" y="222.444" width="57" height="22.9426" fill="#636864"/>
<rect x="203" y="250.374" width="32" height="23.9401" fill="#636864"/>
<path fill-rule="evenodd" clip-rule="evenodd" d="M222.897 262.49C222.828 262.543 222.728 262.569 222.599 262.569L220.649 262.58C220.58 262.58 220.545 262.595 220.545 262.625C220.545 262.647 220.557 262.678 220.58 262.715C220.618 262.774 220.637 262.827 220.637 262.872C220.637 262.939 220.595 262.969 220.511 262.962C220.312 262.931 220.178 263.003 220.109 263.175C219.918 263.676 219.677 264.185 219.387 264.701C219.096 265.217 218.787 265.688 218.458 266.114C218.404 266.174 218.377 266.234 218.377 266.294C218.377 266.339 218.4 266.373 218.446 266.395C218.492 266.417 218.553 266.425 218.63 266.417C219.387 266.32 220.228 266.189 221.153 266.025C221.306 266.002 221.383 265.931 221.383 265.811C221.383 265.767 221.371 265.722 221.348 265.677C221.127 265.175 220.878 264.727 220.603 264.33C220.557 264.263 220.534 264.199 220.534 264.14C220.534 264.042 220.576 263.994 220.66 263.994C220.706 263.994 220.763 264.016 220.832 264.061C221.214 264.345 221.597 264.751 221.979 265.279C222.361 265.806 222.606 266.342 222.713 266.889C222.721 266.926 222.725 266.975 222.725 267.035C222.725 267.184 222.685 267.305 222.604 267.399C222.524 267.492 222.43 267.539 222.323 267.539C222.247 267.539 222.176 267.511 222.111 267.455C222.046 267.399 221.994 267.319 221.956 267.214C221.857 266.952 221.769 266.713 221.692 266.496C221.631 266.369 221.547 266.305 221.44 266.305C221.425 266.305 221.386 266.313 221.325 266.328C219.98 266.709 218.653 266.997 217.345 267.192C217.261 267.206 217.202 267.225 217.167 267.248C217.133 267.27 217.119 267.311 217.127 267.371V267.405C217.127 267.472 217.101 267.506 217.047 267.506C217.009 267.506 216.966 267.487 216.921 267.45C216.829 267.382 216.76 267.3 216.714 267.203C216.668 267.105 216.645 267.012 216.645 266.922C216.645 266.81 216.683 266.718 216.76 266.647C216.837 266.577 216.943 266.541 217.081 266.541C217.204 266.541 217.296 266.537 217.356 266.53C217.502 266.53 217.617 266.473 217.701 266.361C218.473 265.337 218.997 264.136 219.272 262.76C219.257 262.633 219.211 262.569 219.134 262.569H218.618C218.312 262.569 217.941 262.584 217.506 262.614L217.23 262.636C217.154 262.644 217.095 262.623 217.052 262.574C217.01 262.526 216.989 262.471 216.989 262.412C216.989 262.344 217.01 262.288 217.052 262.243C217.095 262.199 217.154 262.18 217.23 262.187L217.506 262.21C217.987 262.24 218.358 262.255 218.618 262.255H221.027C221.18 262.255 221.308 262.223 221.411 262.159C221.515 262.095 221.624 261.377 221.738 261.896C221.907 261.731 222.074 261.649 222.243 261.649C222.449 261.649 222.659 261.769 222.874 261.377C222.958 262.105 223 262.199 223 262.288C223 262.37 222.966 262.438 222.897 262.49ZM221.945 259.27L220.373 259.281L219.157 259.27C218.851 259.27 218.481 259.285 218.045 259.315L217.769 259.337C217.693 259.345 217.634 259.324 217.592 259.276C217.549 259.227 217.529 259.173 217.529 259.113C217.529 259.046 217.549 258.99 217.592 258.945C217.634 258.9 217.693 258.881 217.769 258.889L218.045 258.911C218.526 258.941 218.897 258.956 219.157 258.956H220.373C220.526 258.956 220.654 258.924 220.757 258.86C220.861 258.797 220.97 258.709 221.084 258.597C221.253 258.432 221.425 258.35 221.601 258.35C221.7 258.35 221.799 258.38 221.899 258.44C222.014 258.515 222.12 258.605 222.22 258.709C222.304 258.806 222.346 258.9 222.346 258.99C222.346 259.072 222.312 259.139 222.243 259.191C222.174 259.244 222.074 259.27 221.945 259.27ZM216.852 259.91L215.223 259.921C215.031 259.921 214.936 260.014 214.936 260.201V260.594C214.936 260.781 215.031 260.875 215.223 260.875H215.326C215.395 260.875 215.462 260.858 215.527 260.824C215.592 260.79 215.651 260.751 215.705 260.706C215.751 260.669 215.8 260.633 215.854 260.6C215.908 260.566 215.961 260.549 216.014 260.549C216.098 260.549 216.207 260.586 216.341 260.661C216.475 260.736 216.591 260.822 216.691 260.919C216.791 261.017 216.84 261.095 216.84 261.155C216.84 261.208 216.829 261.247 216.806 261.273C216.783 261.299 216.748 261.331 216.703 261.368C216.642 261.413 216.594 261.461 216.559 261.514C216.525 261.567 216.508 261.645 216.508 261.75V264.218C216.508 264.361 216.454 264.473 216.347 264.555C216.24 264.637 216.121 264.678 215.991 264.678C215.885 264.678 215.816 264.642 215.785 264.572C215.754 264.501 215.739 264.39 215.739 264.241C215.739 264.128 215.705 264.039 215.636 263.971C215.567 263.904 215.467 263.87 215.338 263.87H215.223C215.031 263.87 214.936 263.964 214.936 264.151V264.992C214.936 265.18 215.031 265.273 215.223 265.273H215.613C215.773 265.273 215.89 265.254 215.963 265.217C216.035 265.18 216.118 265.116 216.209 265.026C216.378 264.861 216.546 264.779 216.714 264.779C216.921 264.779 217.131 264.899 217.345 265.138C217.406 265.206 217.437 265.273 217.437 265.34C217.437 265.415 217.394 265.475 217.311 265.52C217.227 265.565 217.108 265.587 216.955 265.587L215.223 265.598C215.031 265.598 214.936 265.692 214.936 265.879V267.472C214.936 267.607 214.885 267.717 214.781 267.803C214.678 267.889 214.569 267.932 214.454 267.932C214.378 267.932 214.315 267.908 214.265 267.859C214.216 267.81 214.194 267.741 214.202 267.652V265.868C214.202 265.68 214.107 265.587 213.915 265.587H213.651C213.345 265.587 212.975 265.602 212.539 265.632L212.263 265.654C212.187 265.662 212.128 265.641 212.086 265.593C212.043 265.544 212.023 265.49 212.023 265.43C212.023 265.363 212.043 265.307 212.086 265.262C212.128 265.217 212.187 265.198 212.263 265.206L212.539 265.228C213.021 265.258 213.391 265.273 213.651 265.273H213.915C214.107 265.273 214.202 265.18 214.202 264.992V264.151C214.202 263.964 214.107 263.87 213.915 263.87H213.766C213.506 263.87 213.376 263.968 213.376 264.162C213.376 264.334 213.327 264.463 213.227 264.549C213.127 264.635 213.013 264.678 212.883 264.678C212.806 264.678 212.743 264.656 212.694 264.611C212.644 264.566 212.619 264.506 212.619 264.431V264.196C212.634 263.732 212.642 262.569 212.642 260.706C212.642 260.624 212.699 260.583 212.814 260.583C212.952 260.583 213.064 260.602 213.152 260.639C213.241 260.676 213.33 260.725 213.422 260.785C213.514 260.844 213.579 260.875 213.617 260.875H213.915C214.107 260.875 214.202 260.781 214.202 260.594V260.19C214.202 260.003 214.102 259.91 213.904 259.91C213.522 259.917 213.15 259.932 212.791 259.954L212.504 259.977C212.428 259.985 212.369 259.964 212.327 259.915C212.284 259.867 212.263 259.812 212.263 259.752C212.263 259.685 212.284 259.629 212.327 259.584C212.369 259.539 212.428 259.52 212.504 259.528L212.894 259.551C213.216 259.573 213.556 259.588 213.915 259.595C214.107 259.595 214.202 259.502 214.202 259.315V258.002C214.202 257.815 214.257 257.675 214.368 257.581C214.479 257.488 214.619 257.441 214.787 257.441C214.925 257.441 215.039 257.467 215.131 257.52C215.223 257.572 215.269 257.624 215.269 257.677C215.269 257.736 215.208 257.77 215.085 257.778C215.039 257.785 215.003 257.811 214.976 257.856C214.95 257.901 214.936 257.95 214.936 258.002V259.315C214.936 259.502 215.031 259.595 215.223 259.595H215.28C215.433 259.595 215.561 259.564 215.665 259.5C215.768 259.436 215.877 259.349 215.991 259.236C216.16 259.072 216.328 258.99 216.496 258.99C216.703 258.99 216.913 259.109 217.127 259.349C217.211 259.446 217.253 259.539 217.253 259.629C217.253 259.711 217.219 259.778 217.15 259.831C217.081 259.884 216.981 259.91 216.852 259.91ZM214.936 263.287C214.936 263.474 215.031 263.567 215.223 263.567H215.372C215.502 263.567 215.601 263.532 215.67 263.461C215.739 263.39 215.773 263.295 215.773 263.175V262.95C215.773 262.823 215.743 262.726 215.682 262.659C215.621 262.591 215.536 262.558 215.429 262.558H215.223C215.031 262.558 214.936 262.651 214.936 262.838V263.287ZM214.936 261.918C214.936 262.105 215.031 262.199 215.223 262.199H215.383C215.506 262.199 215.601 262.165 215.67 262.098C215.739 262.03 215.773 261.933 215.773 261.806V261.57C215.773 261.443 215.739 261.346 215.67 261.278C215.601 261.211 215.502 261.177 215.372 261.177H215.223C215.031 261.177 214.936 261.271 214.936 261.458V261.918ZM214.202 261.458C214.202 261.271 214.107 261.177 213.915 261.177H213.778C213.655 261.177 213.558 261.211 213.485 261.278C213.413 261.346 213.376 261.443 213.376 261.57V261.795C213.376 261.922 213.411 262.019 213.479 262.086C213.548 262.154 213.644 262.187 213.766 262.187H213.915C214.107 262.187 214.202 262.094 214.202 261.907V261.458ZM214.202 262.849C214.202 262.662 214.107 262.569 213.915 262.569H213.766C213.644 262.569 213.548 262.602 213.479 262.67C213.411 262.737 213.376 262.835 213.376 262.962V263.163C213.376 263.283 213.413 263.379 213.485 263.45C213.558 263.52 213.655 263.556 213.778 263.556H213.915C214.107 263.556 214.202 263.463 214.202 263.276V262.849ZM210.149 262.064C210.05 262.109 209.968 262.156 209.903 262.204C209.838 262.253 209.79 262.322 209.759 262.412C209.323 263.534 208.735 264.471 207.993 265.222C207.252 265.974 206.435 266.544 205.544 266.934C204.653 267.322 203.737 267.562 202.797 267.652H202.774C202.728 267.652 202.688 267.638 202.653 267.612C202.619 267.586 202.602 267.554 202.602 267.517C202.602 267.479 202.621 267.445 202.659 267.416C202.698 267.386 202.747 267.367 202.808 267.36C203.504 267.277 204.25 267.049 205.045 266.675C205.841 266.302 206.596 265.759 207.31 265.049C208.026 264.338 208.589 263.466 209.002 262.434C209.033 262.344 209.048 262.285 209.048 262.255C209.048 262.165 209.016 262.095 208.951 262.047C208.886 261.999 208.796 261.974 208.681 261.974H207.947C207.802 261.974 207.687 262.03 207.603 262.142C207.32 262.501 207.052 262.816 206.8 263.085C206.77 263.115 206.754 263.149 206.754 263.186C206.754 263.246 206.796 263.283 206.88 263.298C207.171 263.343 207.412 263.407 207.603 263.489C207.878 263.616 208.016 263.758 208.016 263.915C208.016 264.013 207.97 264.095 207.878 264.162C207.786 264.229 207.683 264.263 207.568 264.263C207.477 264.263 206.748 264.237 207.316 264.185C207.125 264.05 206.831 263.878 206.433 263.668C206.41 263.654 206.375 263.646 206.33 263.646C206.277 263.646 206.231 263.665 206.192 263.702C205.626 264.241 205.026 264.723 204.391 265.149C204.33 265.187 204.276 265.206 204.23 265.206C204.192 265.206 204.16 265.194 204.133 265.172C204.106 265.149 204.093 265.124 204.093 265.093C204.093 265.034 204.143 264.959 204.242 264.869C204.77 264.457 205.32 263.923 205.894 263.264C206.467 262.606 206.98 261.858 207.431 261.02C207.607 260.699 207.821 260.538 208.073 260.538C208.257 260.538 208.44 260.609 208.624 260.751C208.677 260.796 208.704 260.841 208.704 260.886C208.704 260.923 208.691 260.951 208.664 260.97C208.637 260.989 208.597 260.994 208.543 260.987H208.532C208.456 260.987 208.376 261.051 208.291 261.177L208.188 261.335C208.15 261.387 208.13 261.443 208.13 261.503C208.13 261.615 208.211 261.671 208.371 261.671H208.83C208.945 261.663 209.071 261.593 209.209 261.458C209.255 261.413 209.305 261.374 209.358 261.34C209.412 260.675 209.465 261.29 209.518 261.29C209.641 261.29 209.769 261.323 209.903 261.391C210.037 261.458 210.148 261.537 210.235 261.626C210.323 261.716 210.367 261.791 210.367 261.851C210.367 261.903 210.35 261.943 210.316 261.969C210.281 261.994 210.226 262.027 210.149 262.064ZM208.337 258.855C208.238 258.907 208.158 258.956 208.096 259.001C208.035 259.046 207.989 259.113 207.958 258.572C207.637 260.048 207.207 260.822 206.668 261.525C206.129 262.229 205.561 262.818 204.965 263.293C204.368 263.767 203.817 264.106 203.313 264.308C203.267 264.323 203.237 264.33 203.221 264.33C203.191 264.33 203.162 264.319 203.135 264.297C203.108 264.274 203.095 264.248 203.095 264.218C203.095 264.128 203.156 264.058 203.278 264.005C203.661 263.84 204.103 263.532 204.603 263.079C205.104 262.627 205.59 262.066 206.06 261.396C206.53 260.727 206.911 260.003 207.201 259.225C207.224 259.158 207.236 259.102 207.236 259.057C207.236 258.967 207.203 258.896 207.138 258.844C207.074 258.791 206.988 258.765 206.88 258.765H206.226C206.074 258.765 205.314 258.829 205.882 258.956C205.592 259.435 205.4 259.738 205.309 259.865C205.286 259.895 205.274 259.929 205.274 259.966C205.274 260.011 205.32 260.041 205.412 260.055C205.557 260.063 205.722 260.104 205.905 260.179C206.196 260.314 206.341 260.463 206.341 260.628C206.341 260.717 206.301 260.792 206.221 260.852C206.14 260.912 206.051 260.942 205.951 260.942C205.859 260.942 205.783 260.923 205.722 260.886L205.458 260.717C205.374 260.65 205.24 260.56 205.056 260.448C205.026 260.426 204.992 260.414 204.953 260.414C204.915 260.414 204.869 260.44 204.815 260.493C204.395 261.001 203.982 261.424 203.577 261.761C203.524 261.806 203.466 261.828 203.405 261.828C203.374 261.828 203.347 261.819 203.324 261.8C203.301 261.781 203.29 261.757 203.29 261.727C203.29 261.66 203.329 261.589 203.405 261.514C203.749 261.155 204.118 260.656 204.511 260.016C204.906 259.377 205.244 258.679 205.527 257.924C205.595 257.729 205.695 257.587 205.825 257.497C205.955 257.407 206.093 257.363 206.238 257.363C206.437 257.363 206.609 257.422 206.754 257.542C206.808 257.587 206.834 257.632 206.834 257.677C206.834 257.714 206.821 257.742 206.794 257.761C206.768 257.78 206.727 257.785 206.674 257.778H206.662C206.616 257.778 206.57 257.797 206.525 257.834C206.479 257.871 206.444 257.916 206.421 257.968L206.341 258.126C206.311 258.178 206.295 258.23 206.295 258.283C206.295 258.403 206.38 258.462 206.548 258.462H207.018C207.133 258.454 207.259 258.384 207.396 258.249C207.442 258.204 207.492 258.165 207.545 258.131C207.599 258.097 207.653 258.081 207.706 258.081C207.829 258.081 207.957 258.114 208.09 258.182C208.224 258.249 208.335 258.328 208.423 258.417C208.511 258.507 208.555 258.582 208.555 258.642C208.555 258.694 208.538 258.734 208.503 258.759C208.469 258.785 208.414 258.818 208.337 258.855ZM202.074 260.515C202.12 260.613 202.17 260.639 202.223 260.594C202.277 260.557 202.342 260.501 202.418 260.426C202.587 260.261 202.755 260.179 202.923 260.179C203.129 260.179 203.34 260.299 203.554 260.538C203.638 260.635 203.68 260.729 203.68 260.818C203.68 260.9 203.645 260.966 203.577 261.015C203.508 261.063 203.409 261.091 203.278 261.099L202.407 261.11C202.285 261.11 202.187 261.144 202.114 261.211C202.042 261.278 202.005 261.376 202.005 261.503V261.75C202.005 261.832 202.051 261.899 202.143 261.952C202.526 262.139 202.841 262.352 203.089 262.591C203.338 262.83 203.462 263.085 203.462 263.354C203.462 263.474 203.422 263.571 203.341 263.646C203.261 263.721 203.168 263.758 203.06 263.758C202.9 263.758 202.793 263.683 202.739 263.534C202.647 263.295 202.567 263.111 202.498 262.984C202.43 262.857 202.338 262.726 202.223 262.591C202.177 262.539 202.136 262.513 202.097 262.513C202.036 262.513 202.005 262.565 202.005 262.67V267.293C202.005 267.427 201.954 267.537 201.85 267.624C201.747 267.709 201.638 267.753 201.523 267.753C201.447 267.753 201.384 267.728 201.334 267.68C201.285 267.631 201.264 267.562 201.271 267.472V263.433C201.271 263.343 201.248 263.298 201.202 263.298C201.164 263.298 201.122 263.328 201.076 263.388C200.442 264.188 199.917 264.704 199.505 264.936C199.451 264.966 199.398 264.981 199.344 264.981C199.298 264.981 199.26 264.966 199.229 264.936C199.199 264.906 199.183 264.872 199.183 264.835C199.183 264.768 199.222 264.701 199.298 264.633C199.596 264.379 199.897 264.033 200.198 263.595C200.501 263.158 200.751 262.735 200.95 262.328C201.149 261.92 201.248 261.649 201.248 261.514C201.248 261.237 201.115 261.099 200.847 261.099C200.472 261.114 200.143 261.133 199.86 261.155L199.631 261.166C199.555 261.174 199.495 261.153 199.453 261.105C199.411 261.056 199.39 261.001 199.39 260.942C199.39 260.875 199.411 260.818 199.453 260.774C199.495 260.729 199.555 260.71 199.631 260.717L199.929 260.74L200.87 260.785C201 260.785 201.099 260.751 201.168 260.684C201.237 260.616 201.271 260.519 201.271 260.392V259.562C201.271 259.45 201.244 259.363 201.191 259.304C201.138 259.244 201.065 259.214 200.973 259.214C200.92 259.214 200.866 259.225 200.812 259.248C200.422 259.375 199.994 259.491 199.527 259.595L199.459 259.607C199.406 259.607 199.365 259.595 199.338 259.573C199.312 259.551 199.298 259.52 199.298 259.483C199.298 259.446 199.314 259.41 199.344 259.377C199.375 259.343 199.413 259.318 199.459 259.304C200.048 259.087 200.545 258.851 200.95 258.597C201.356 258.342 201.764 258.051 202.177 257.722C202.369 257.565 202.564 257.486 202.762 257.486C203.03 257.486 203.283 257.635 203.519 257.935C203.55 257.965 203.565 258.002 203.565 258.047C203.565 258.1 203.544 258.139 203.502 258.165C203.46 258.191 203.416 258.189 203.37 258.159C203.34 258.137 203.306 258.126 203.267 258.126C203.214 258.126 203.149 258.148 203.072 258.193C202.996 258.238 202.939 258.271 202.9 258.294L202.372 258.597C202.25 258.672 202.159 258.746 202.097 258.821C202.036 258.896 202.005 258.99 202.005 259.102V260.134C202.005 260.291 202.028 260.418 202.074 260.515ZM192.186 233.3C192.018 233.359 191.844 233.388 191.663 233.388C191.284 233.388 191.022 233.262 190.876 233.009C190.841 232.951 190.794 232.921 190.734 232.921C190.682 232.921 190.635 232.939 190.592 232.972C190.17 233.258 189.762 233.401 189.366 233.401C188.841 233.401 188.441 233.317 188.166 233.148C187.89 232.98 187.761 232.686 187.779 232.265C187.804 231.777 188.108 231.418 188.688 231.185C189.269 230.954 189.886 230.818 190.54 230.775C190.661 230.758 190.721 230.692 190.721 230.573V229.929C190.721 229.619 190.639 229.374 190.476 229.197C190.312 229.021 190.101 228.932 189.843 228.932C189.559 228.932 189.336 229.014 189.172 229.178C189.009 229.342 188.927 229.551 188.927 229.803C188.927 229.98 188.884 230.111 188.798 230.195C188.712 230.279 188.605 230.321 188.475 230.321C188.364 230.321 188.263 230.279 188.172 230.195C188.082 230.111 188.037 229.988 188.037 229.828C188.037 229.619 188.125 229.418 188.301 229.229C188.478 229.04 188.71 228.887 188.998 228.768C189.286 228.65 189.585 228.591 189.895 228.591C190.394 228.591 190.807 228.711 191.134 228.951C191.461 229.191 191.624 229.538 191.624 229.993V232.277C191.624 232.8 191.732 233.06 191.947 233.06C191.973 233.06 192.033 233.037 192.127 232.991C192.222 232.945 192.278 232.921 192.295 232.921C192.338 232.921 192.373 232.934 192.398 232.959C192.424 232.984 192.437 233.018 192.437 233.06C192.437 233.161 192.353 233.242 192.186 233.3ZM190.721 231.305C190.721 231.179 190.656 231.116 190.527 231.116C189.28 231.159 188.656 231.528 188.656 232.227C188.656 232.472 188.746 232.661 188.927 232.795C189.108 232.929 189.331 232.997 189.598 232.997C189.822 232.997 190.033 232.945 190.23 232.839C190.428 232.734 190.566 232.589 190.643 232.404C190.704 232.277 190.734 232.063 190.734 231.76L190.721 231.305ZM186.352 233.376H184.21C184.124 233.376 184.056 233.359 184.01 233.325C183.963 233.292 183.939 233.249 183.939 233.199C183.939 233.141 183.965 233.094 184.016 233.06C184.068 233.027 184.14 233.018 184.236 233.035C184.485 233.077 184.646 232.983 184.72 232.751C184.792 232.519 184.829 232.159 184.829 231.671V230.99C184.829 230.636 184.771 230.321 184.655 230.043C184.539 229.765 184.388 229.551 184.203 229.399C184.018 229.248 183.831 229.172 183.642 229.172C183.298 229.172 183.037 229.351 182.861 229.709C182.685 230.067 182.597 230.468 182.597 230.914L182.584 232.05C182.584 232.387 182.614 232.637 182.674 232.801C182.734 232.965 182.855 233.047 183.036 233.047C183.104 233.047 183.156 233.043 183.19 233.035L183.268 233.022C183.337 233.022 183.39 233.04 183.429 233.073C183.468 233.106 183.487 233.148 183.487 233.199C183.487 233.249 183.463 233.292 183.416 233.325C183.369 233.359 183.302 233.376 183.216 233.376H181.074C180.988 233.376 180.921 233.359 180.874 233.325C180.827 233.292 180.803 233.249 180.803 233.199C180.803 233.141 180.829 233.094 180.88 233.06C180.932 233.027 181.005 233.018 181.1 233.035C181.349 233.077 181.511 232.983 180.939 232.751C181.656 232.519 181.693 232.159 181.693 231.671V230.99C181.693 230.636 181.635 230.321 181.519 230.043C181.403 229.765 181.253 229.551 181.068 229.399C180.882 229.248 180.695 229.172 180.506 229.172C180.317 229.172 180.143 229.246 179.984 229.393C179.824 229.54 179.7 229.72 179.609 229.929C179.519 230.14 179.474 230.326 179.474 230.485C179.465 230.695 179.461 230.982 179.461 231.343C179.461 231.866 179.482 232.295 179.526 232.631C179.551 232.775 179.598 232.879 179.667 232.946C179.736 233.014 179.835 233.047 179.964 233.047C180.024 233.047 180.075 233.043 180.119 233.035L180.197 233.022C180.265 233.022 180.319 233.04 180.358 233.073C180.397 233.106 180.416 233.148 180.416 233.199C180.416 233.249 180.392 233.292 180.345 233.325C180.298 233.359 180.23 233.376 180.145 233.376H178.042C177.955 233.376 177.888 233.359 177.841 233.325C177.794 233.292 177.771 233.249 177.771 233.199C177.771 233.141 177.796 233.094 177.848 233.06C177.9 233.027 177.972 233.018 178.067 233.035C178.325 233.085 178.497 232.951 178.583 232.631C178.635 232.446 178.661 232.159 178.661 231.772C178.661 231.495 178.656 231.28 178.648 231.129L178.635 230.283C178.635 230.056 178.598 229.873 178.525 229.734C178.452 229.595 178.333 229.526 178.171 229.526C178.085 229.526 178.017 229.513 177.971 229.488C177.923 229.462 177.9 229.429 177.9 229.387C177.9 229.354 177.923 229.317 177.971 229.279C178.017 229.241 178.085 229.215 178.171 229.197C178.437 229.13 178.713 228.991 178.996 228.781C179.03 228.764 179.091 228.729 179.177 228.673C179.262 228.619 179.332 228.591 179.384 228.591C179.504 228.591 179.564 228.642 179.564 228.743C179.564 228.836 179.559 228.92 179.551 228.995C179.551 229.054 179.566 229.09 179.596 229.103C179.627 229.115 179.662 229.105 179.706 229.071C180.059 228.751 180.433 228.591 180.829 228.591C181.104 228.591 181.371 228.669 181.629 228.825C181.887 228.981 182.101 229.206 182.274 229.5C182.326 229.584 182.377 229.589 182.429 229.513C182.566 229.294 182.782 229.086 183.074 228.888C183.366 228.691 183.663 228.591 183.965 228.591C184.249 228.591 184.526 228.676 184.797 228.844C185.068 229.013 185.292 229.272 185.468 229.62C185.644 229.969 185.733 230.401 185.733 230.914L185.72 232.05C185.72 232.387 185.75 232.637 185.81 232.801C185.87 232.965 185.991 233.047 186.171 233.047C186.24 233.047 186.292 233.043 186.326 233.035L186.404 233.022C186.472 233.022 186.526 233.04 186.565 233.073C186.604 233.106 186.623 233.148 186.623 233.199C186.623 233.249 186.599 233.292 186.552 233.325C186.505 233.359 186.437 233.376 186.352 233.376ZM176.35 233.376H175.279H174.246C174.16 233.376 174.093 233.359 174.046 233.325C173.999 233.292 173.975 233.249 173.975 233.199C173.975 233.141 174.001 233.094 174.053 233.06C174.104 233.027 174.177 233.018 174.272 233.035C174.53 233.085 174.702 232.951 174.788 232.631C174.84 232.446 174.866 232.159 174.866 231.772C174.866 231.495 174.861 231.28 174.853 231.129L174.84 230.283C174.84 230.056 174.803 229.873 174.73 229.734C174.657 229.595 174.539 229.526 174.375 229.526C174.289 229.526 174.222 229.513 174.175 229.488C174.128 229.462 174.104 229.429 174.104 229.387C174.104 229.354 174.128 229.317 174.175 229.279C174.222 229.241 174.289 229.215 174.375 229.197C174.642 229.13 174.917 228.991 175.201 228.781C175.235 228.764 175.296 228.729 175.382 228.673C175.468 228.619 175.537 228.591 175.588 228.591C175.709 228.591 175.769 228.642 175.769 228.743L175.743 229.248L175.691 230.119C175.674 230.43 175.666 230.843 175.666 231.356C175.666 231.954 175.687 232.378 175.73 232.631C175.756 232.775 175.803 232.879 175.872 232.946C175.941 233.014 176.04 233.047 176.169 233.047C176.229 233.047 176.281 233.043 176.324 233.035L176.401 233.022C176.47 233.022 176.524 233.04 176.563 233.073C176.601 233.106 176.621 233.148 176.621 233.199C176.621 233.249 176.597 233.292 176.55 233.325C176.502 233.359 176.436 233.376 176.35 233.376ZM175.188 227.758C174.99 227.758 174.82 227.689 174.678 227.55C174.537 227.411 174.466 227.246 174.466 227.051C174.466 226.849 174.537 226.679 174.678 226.54C174.82 226.401 174.99 226.332 175.188 226.332C175.386 226.332 175.556 226.401 175.698 226.54C175.84 226.679 175.911 226.849 175.911 227.051C175.911 227.246 175.84 227.411 175.698 227.55C175.556 227.689 175.386 227.758 175.188 227.758ZM174.416 289.299C174.416 289.755 174.309 290.144 174.095 290.466C173.881 290.787 173.605 291.027 173.269 291.184C172.932 291.341 172.581 291.42 172.214 291.42C171.847 291.42 171.495 291.341 171.158 291.184C170.821 291.027 170.548 290.787 170.338 290.466C170.127 290.144 170.023 289.755 170.023 289.299C170.023 288.835 170.13 288.442 170.344 288.121C170.558 287.799 170.831 287.558 171.164 287.397C171.497 287.236 171.847 287.156 172.214 287.156C172.581 287.156 172.932 287.236 173.269 287.397C173.605 287.558 173.881 287.799 174.095 288.121C174.309 288.442 174.416 288.835 174.416 289.299ZM173.16 287.958C172.919 287.618 172.604 287.448 172.214 287.448C171.824 287.448 171.508 287.618 171.267 287.958C171.026 288.299 170.906 288.742 170.906 289.288C170.906 289.834 171.026 290.277 171.267 290.618C171.508 290.958 171.824 291.128 172.214 291.128C172.611 291.128 172.928 290.96 173.166 290.623C173.402 290.287 173.521 289.841 173.521 289.288C173.521 288.742 173.401 288.299 173.16 287.958ZM170.935 230.472C171.012 230.506 171.085 230.537 171.154 230.567C171.223 230.597 171.287 230.624 171.348 230.649C171.675 230.784 171.939 230.908 172.141 231.021C172.343 231.135 172.516 231.282 172.657 231.463C172.799 231.645 172.87 231.866 172.87 232.126C172.87 232.497 172.713 232.8 172.399 233.035C172.085 233.27 171.7 233.388 171.244 233.388C170.874 233.388 170.584 233.343 170.373 233.249C170.163 233.157 170.008 233.071 169.909 232.991C169.81 232.911 169.756 232.871 169.748 232.871C169.722 232.871 169.704 232.894 169.696 232.94C169.687 232.986 169.683 233.052 169.683 233.136C169.683 233.186 169.666 233.232 169.631 233.275C169.597 233.317 169.554 233.338 169.502 233.338C169.39 233.338 169.335 233.275 169.335 233.148V232.391V231.772C169.335 231.714 169.352 231.667 169.386 231.634C169.421 231.601 169.464 231.583 169.515 231.583C169.558 231.583 169.597 231.601 169.631 231.634C169.666 231.667 169.683 231.714 169.683 231.772C169.683 231.949 169.758 232.137 169.909 232.334C170.059 232.532 170.249 232.699 170.477 232.833C170.705 232.967 170.93 233.035 171.154 233.035C171.429 233.035 171.653 232.974 171.825 232.852C171.997 232.73 172.083 232.563 172.083 232.353C172.083 232.194 171.982 232.044 171.78 231.905C171.578 231.766 171.262 231.591 170.831 231.381L170.586 231.267C170.302 231.134 170.077 231.015 169.909 230.914C169.741 230.813 169.599 230.679 169.483 230.51C169.367 230.342 169.309 230.136 169.309 229.892C169.309 229.664 169.375 229.452 169.509 229.254C169.642 229.057 169.836 228.896 170.089 228.774C170.343 228.653 170.638 228.591 170.973 228.591C171.283 228.591 171.535 228.625 171.728 228.692C171.922 228.76 172.072 228.825 172.18 228.888C172.288 228.951 172.35 228.983 172.367 228.983C172.41 228.983 172.432 228.92 172.432 228.793C172.432 228.743 172.449 228.704 172.483 228.673C172.518 228.644 172.556 228.629 172.599 228.629C172.651 228.629 172.694 228.647 172.728 228.68C172.763 228.713 172.78 228.756 172.78 228.806V229.5V230.119C172.78 230.169 172.761 230.212 172.722 230.245C172.683 230.279 172.642 230.296 172.599 230.296C172.556 230.296 172.518 230.279 172.483 230.245C172.449 230.212 172.432 230.169 172.432 230.119C172.432 229.95 172.369 229.777 172.245 229.595C172.12 229.414 171.946 229.263 171.722 229.141C171.498 229.019 171.249 228.957 170.973 228.957C170.69 228.957 170.472 229.019 170.322 229.141C170.171 229.263 170.096 229.412 170.096 229.589C170.096 229.917 170.376 230.212 170.935 230.472ZM169.375 287.324C169.375 287.369 169.352 287.409 169.307 287.442C169.261 287.476 169.196 287.489 169.112 287.482C169.043 287.474 168.985 287.491 168.94 287.532C168.894 287.573 168.836 287.642 168.767 287.74C168.707 287.829 168.575 288.117 168.372 288.604C168.17 289.09 168.026 289.437 167.942 289.647C167.529 290.664 167.235 291.371 167.058 291.768C166.944 291.999 166.795 292.235 166.611 292.475C166.427 292.714 166.252 292.86 166.083 292.912C165.954 292.949 165.854 292.968 165.785 292.968C165.655 292.968 165.554 292.936 165.481 292.873C165.409 292.809 165.372 292.736 165.372 292.654C165.372 292.564 165.414 292.486 165.498 292.418C165.583 292.351 165.701 292.318 165.854 292.318C165.992 292.318 166.139 292.256 166.296 292.132C166.453 292.009 166.581 291.85 166.68 291.656L166.806 291.397C166.829 291.353 166.84 291.308 166.84 291.263C166.84 291.24 166.833 291.207 166.817 291.162L166.278 289.86C166.088 289.389 165.91 288.963 165.745 288.581C165.581 288.2 165.449 287.93 165.349 287.773C165.204 287.556 165.07 287.451 164.948 287.459H164.936C164.86 287.459 164.799 287.444 164.753 287.414C164.707 287.384 164.684 287.347 164.684 287.302C164.684 287.257 164.705 287.221 164.747 287.195C164.789 287.169 164.849 287.156 164.925 287.156H166.6C166.676 287.156 166.736 287.171 166.777 287.201C166.82 287.23 166.84 287.268 166.84 287.313C166.84 287.365 166.817 287.406 166.772 287.437C166.726 287.466 166.661 287.474 166.577 287.459C166.546 287.451 166.508 287.448 166.462 287.448C166.309 287.448 166.232 287.538 166.232 287.717C166.232 287.844 166.275 288.022 166.359 288.25C166.443 288.478 166.581 288.82 166.772 289.277L167.127 290.141C167.158 290.215 167.196 290.253 167.242 290.253C167.296 290.253 167.334 290.219 167.357 290.152C167.602 289.561 167.808 289.031 167.976 288.564C168.144 288.097 168.225 287.814 168.217 287.717C168.217 287.612 168.185 287.543 168.119 287.51C168.055 287.476 167.957 287.466 167.827 287.482H167.77C167.709 287.482 167.659 287.466 167.62 287.437C167.582 287.406 167.563 287.373 167.563 287.336C167.563 287.291 167.585 287.253 167.626 287.223C167.668 287.193 167.728 287.179 167.804 287.179H169.135C169.211 287.179 169.271 287.191 169.312 287.218C169.355 287.244 169.375 287.28 169.375 287.324ZM167.863 232.997C167.682 233.047 167.493 233.131 167.295 233.249C167.14 233.343 167.033 233.388 166.972 233.388C166.723 233.388 166.568 233.216 166.508 232.871C166.499 232.795 166.473 232.757 166.43 232.757C166.405 232.757 166.37 232.778 166.327 232.82C165.949 233.191 165.51 233.376 165.011 233.376C164.77 233.376 164.527 233.325 164.282 233.224C164.037 233.123 163.832 232.978 163.669 232.789C163.505 232.599 163.424 232.374 163.424 232.113V230.283C163.424 230.056 163.387 229.873 163.314 229.734C163.241 229.595 163.122 229.526 162.959 229.526C162.778 229.526 162.688 229.483 162.688 229.399C162.688 229.366 162.712 229.33 162.759 229.292C162.806 229.254 162.873 229.223 162.959 229.197C163.148 229.139 163.385 229.016 163.669 228.831C163.703 228.806 163.751 228.774 163.811 228.737C163.871 228.699 163.918 228.672 163.953 228.655C164.039 228.612 164.103 228.591 164.146 228.591C164.258 228.591 164.314 228.642 164.314 228.743L164.301 229.904C164.284 230.78 164.275 231.449 164.275 231.911C164.275 232.189 164.381 232.431 164.591 232.637C164.802 232.844 165.05 232.946 165.333 232.946C165.703 232.946 166.043 232.74 166.353 232.328C166.405 232.235 166.426 232.156 166.417 232.088C166.409 231.954 166.405 231.781 166.405 231.57L166.417 230.283C166.417 230.056 166.381 229.873 166.308 229.734C166.235 229.595 166.116 229.526 165.953 229.526C165.772 229.526 165.682 229.483 165.682 229.399C165.682 229.366 165.706 229.33 165.753 229.292C165.8 229.254 165.867 229.223 165.953 229.197C166.142 229.139 166.379 229.016 166.663 228.831C166.697 228.806 166.744 228.774 166.805 228.737C166.865 228.699 166.912 228.672 166.947 228.655C167.033 228.612 167.097 228.591 167.14 228.591C167.252 228.591 167.308 228.642 167.308 228.743L167.282 229.513C167.248 230.136 167.23 230.662 167.23 231.091C167.23 231.579 167.254 231.97 167.301 232.265C167.349 232.56 167.441 232.706 167.579 232.706C167.622 232.706 167.684 232.696 167.766 232.675C167.848 232.655 167.906 232.643 167.94 232.643C168.052 232.643 168.108 232.686 168.108 232.77C168.108 232.812 168.086 232.857 168.043 232.902C168 232.948 167.94 232.98 167.863 232.997ZM163.416 242.934C163.515 242.934 163.614 242.963 163.714 243.024C163.829 243.098 163.935 243.188 164.035 243.293C164.119 243.39 164.161 243.484 164.161 243.573C164.161 243.655 164.127 243.723 164.058 243.775C163.989 243.827 163.89 243.854 163.76 243.854L162.188 243.865L158.254 243.854C158.131 243.854 158.034 243.888 157.961 243.955C157.889 244.022 157.852 244.119 157.852 244.247V244.292C157.852 244.411 157.889 244.506 157.961 244.578C158.034 244.648 158.131 244.684 158.254 244.684H163.14C163.209 244.684 163.276 244.667 163.341 244.634C163.406 244.6 163.465 244.561 163.519 244.516C163.649 244.418 163.752 244.37 163.829 244.37C163.913 244.37 164.022 244.407 164.156 244.482C164.29 244.557 164.406 244.643 164.505 244.74C164.605 244.837 164.655 244.916 164.655 244.976C164.655 245.028 164.643 245.067 164.62 245.094C164.597 245.12 164.563 245.151 164.517 245.189C164.456 245.234 164.408 245.282 164.374 245.335C164.339 245.387 164.322 245.465 164.322 245.571L164.333 246.154C164.333 247.022 164.192 247.672 163.909 248.106C163.817 248.248 163.708 248.357 163.582 248.432C163.456 248.506 163.328 248.544 163.198 248.544C163.014 248.544 162.877 248.477 162.785 248.342C162.724 248.245 162.621 248.163 162.475 248.095C162.33 248.028 162.131 247.956 161.879 247.882C161.741 247.837 161.672 247.77 161.672 247.68C161.672 247.613 161.718 247.579 161.81 247.579C161.833 247.579 161.875 247.586 161.936 247.602C162.318 247.751 162.628 247.826 162.865 247.826C163.011 247.826 163.102 247.796 163.14 247.736C163.447 247.362 163.599 246.789 163.599 246.019L163.588 245.391C163.588 245.263 163.553 245.167 163.485 245.099C163.416 245.032 163.316 244.998 163.186 244.998H157.979C157.933 244.998 157.895 245.01 157.864 245.032C157.833 245.055 157.803 245.084 157.772 245.122C157.726 245.189 157.665 245.241 157.589 245.279C157.512 245.316 157.436 245.335 157.359 245.335C157.275 245.335 157.207 245.31 157.153 245.262C157.099 245.213 157.076 245.144 157.084 245.055L157.107 239.635C157.107 239.552 157.164 239.512 157.279 239.512C157.348 239.512 157.422 239.528 157.503 239.562C157.583 239.596 157.65 239.642 157.703 239.702C157.772 239.77 157.845 239.803 157.921 239.803H158.128C158.288 239.803 158.403 239.743 158.472 239.624C158.579 239.444 158.684 239.237 158.787 239.001C158.891 238.765 158.962 238.569 159 238.412C159.03 238.277 159.095 238.176 159.195 238.109C159.294 238.042 159.409 238.008 159.539 238.008C159.638 238.008 159.739 238.028 159.843 238.07C159.946 238.11 160.028 238.165 160.089 238.233C160.12 238.262 160.135 238.3 160.135 238.345C160.135 238.39 160.116 238.423 160.078 238.446C160.04 238.468 159.99 238.468 159.929 238.446L159.883 238.434C159.814 238.434 159.742 238.505 159.665 238.648C159.542 238.895 159.355 239.167 159.103 239.467C159.042 239.541 159.011 239.601 159.011 239.646C159.011 239.691 159.032 239.728 159.074 239.758C159.116 239.788 159.175 239.803 159.252 239.803H160.078C160.147 239.796 160.21 239.775 160.267 239.742C160.324 239.708 160.387 239.661 160.456 239.601C160.571 239.489 160.666 239.433 160.743 239.433C160.866 239.425 160.993 239.453 161.127 239.517C161.261 239.58 161.374 239.659 161.466 239.753C161.557 239.846 161.607 239.923 161.615 239.983C161.623 240.035 161.615 240.074 161.592 240.101C161.569 240.127 161.531 240.162 161.477 240.207C161.408 240.267 161.357 240.321 161.322 240.37C161.288 240.418 161.271 240.495 161.271 240.6L161.282 242.429C161.29 242.564 161.242 242.674 161.139 242.76C161.036 242.845 160.923 242.889 160.8 242.889C160.724 242.889 160.661 242.868 160.611 242.827C160.562 242.786 160.537 242.724 160.537 242.642H158.254C158.131 242.642 158.034 242.676 157.961 242.743C157.889 242.81 157.852 242.907 157.852 243.035V243.147C157.852 243.266 157.889 243.362 157.961 243.433C158.034 243.504 158.131 243.54 158.254 243.54H162.188C162.341 243.54 162.469 243.507 162.573 243.444C162.676 243.381 162.785 243.293 162.9 243.181C163.068 243.016 163.24 242.934 163.416 242.934ZM160.537 240.51C160.537 240.383 160.502 240.286 160.433 240.219C160.365 240.151 160.265 240.118 160.135 240.118H158.242C158.12 240.118 158.022 240.151 157.95 240.219C157.878 240.286 157.841 240.383 157.841 240.51V240.735C157.841 240.854 157.878 240.949 157.95 241.021C158.022 241.092 158.12 241.127 158.242 241.127H160.135C160.265 241.127 160.365 241.092 160.433 241.021C160.502 240.949 160.537 240.854 160.537 240.735V240.51ZM157.95 242.233C158.022 242.303 158.12 242.339 158.242 242.339H160.135C160.265 242.339 160.365 242.303 160.433 242.233C160.502 242.161 160.537 242.066 160.537 241.946V241.823C160.537 241.695 160.502 241.599 160.433 241.531C160.365 241.464 160.265 241.43 160.135 241.43H158.242C158.12 241.43 158.022 241.464 157.95 241.531C157.878 241.599 157.841 241.695 157.841 241.823V241.946C157.841 242.066 157.878 242.161 157.95 242.233ZM161.63 233.376H159.488C159.402 233.376 159.335 233.359 159.288 233.325C159.24 233.292 159.217 233.249 159.217 233.199C159.217 233.141 159.243 233.094 159.294 233.06C159.346 233.027 159.419 233.018 159.514 233.035C159.634 233.052 159.716 233.06 159.759 233.06C159.896 233.06 159.965 233.014 159.965 232.921C159.965 232.812 159.864 232.614 159.662 232.328C159.46 232.042 159.122 231.629 158.649 231.091C158.597 231.033 158.541 231.002 158.481 231.002C158.438 231.002 158.399 231.02 158.365 231.053L158.171 231.217C158.094 231.276 158.055 231.356 158.055 231.457V231.899C158.055 232.295 158.085 232.585 158.146 232.77C158.206 232.955 158.335 233.047 158.533 233.047C158.584 233.047 158.627 233.043 158.662 233.035L158.739 233.022C158.808 233.022 158.862 233.04 158.901 233.073C158.939 233.106 158.959 233.148 158.959 233.199C158.959 233.249 158.935 233.292 158.888 233.325C158.84 233.359 158.774 233.376 158.688 233.376H156.584C156.498 233.376 156.432 233.359 156.384 233.325C156.337 233.292 156.313 233.249 156.313 233.199C156.313 233.141 156.339 233.094 156.391 233.06C156.442 233.027 156.515 233.018 156.61 233.035C156.928 233.085 157.126 232.829 157.204 232.265C157.255 231.81 157.281 231.197 157.281 230.422C157.281 229 157.26 227.754 157.217 226.685C157.208 226.517 157.204 226.332 157.204 226.13C157.204 225.903 157.167 225.72 157.094 225.581C157.021 225.442 156.903 225.373 156.739 225.373C156.653 225.373 156.586 225.36 156.539 225.335C155.847 225.309 156.468 225.276 156.468 225.234C156.468 225.201 155.847 225.164 156.539 225.126C156.586 225.089 156.653 225.062 156.739 225.044C156.989 224.994 157.277 224.855 157.604 224.628C157.629 224.611 157.688 224.576 157.778 224.521C157.868 224.466 157.943 224.438 158.004 224.438C158.124 224.438 158.184 224.489 158.184 224.59L158.159 225.474C158.098 226.87 158.068 228.032 158.068 228.957V230.409C158.068 230.51 158.107 230.561 158.184 230.561C158.227 230.561 158.279 230.54 158.339 230.497C158.89 230.035 159.279 229.69 159.507 229.462C159.735 229.235 159.849 229.084 159.849 229.008C159.849 228.957 159.802 228.932 159.707 228.932C159.664 228.932 159.574 228.941 159.436 228.957L159.359 228.97C159.29 228.97 159.236 228.953 159.197 228.92C159.159 228.887 159.139 228.844 159.139 228.793C159.139 228.743 159.163 228.701 159.21 228.667C159.258 228.634 159.324 228.617 159.41 228.617H161.165C161.251 228.617 161.318 228.631 161.365 228.661C161.413 228.691 161.436 228.73 161.436 228.781C161.436 228.831 161.408 228.874 161.352 228.907C161.297 228.941 161.221 228.957 161.127 228.957C160.937 228.957 160.694 229.071 160.397 229.298C160.101 229.526 159.694 229.875 159.178 230.346C159.135 230.38 159.113 230.427 159.113 230.485C159.113 230.535 159.131 230.578 159.165 230.611C159.294 230.755 159.569 231.078 159.991 231.583C160.395 232.08 160.718 232.446 160.959 232.681C161.2 232.917 161.41 233.035 161.591 233.035C161.686 233.035 161.761 233.054 161.817 233.091C161.873 233.129 161.901 233.174 161.901 233.224C161.901 233.267 161.877 233.302 161.83 233.331C161.783 233.361 161.716 233.376 161.63 233.376ZM156.384 245.93C156.384 245.989 156.323 246.023 156.201 246.031C156.155 246.038 156.118 246.064 156.092 246.109C156.065 246.154 156.052 246.202 156.052 246.255V246.816C156.052 246.935 156.088 247.031 156.161 247.102C156.233 247.173 156.33 247.209 156.453 247.209H157.657C157.849 247.209 157.944 247.115 157.944 246.928V245.773C157.944 245.585 157.999 245.445 158.111 245.352C158.222 245.258 158.361 245.212 158.529 245.212C158.667 245.212 158.782 245.238 158.873 245.29C158.965 245.342 159.011 245.395 159.011 245.447C159.011 245.507 158.95 245.54 158.827 245.548C158.782 245.555 158.745 245.582 158.718 245.627C158.692 245.672 158.678 245.72 158.678 245.773V246.928C158.678 247.115 158.774 247.209 158.965 247.209H160.17C160.299 247.209 160.399 247.173 160.468 247.102C160.537 247.031 160.571 246.935 160.571 246.816V246.255C160.571 246.068 160.626 245.928 160.737 245.834C160.848 245.74 160.988 245.694 161.156 245.694C161.294 245.694 161.408 245.72 161.5 245.773C161.592 245.825 161.638 245.877 161.638 245.93C161.638 245.989 161.577 246.023 161.454 246.031C161.408 246.038 161.372 246.064 161.345 246.109C161.319 246.154 161.305 246.202 161.305 246.255L161.317 247.736C161.317 247.886 161.265 248.007 161.162 248.101C161.058 248.194 160.946 248.241 160.823 248.241C160.747 248.241 160.682 248.217 160.628 248.168C160.575 248.119 160.548 248.05 160.548 247.961V247.803C160.548 247.616 160.453 247.523 160.261 247.523H156.327C156.235 247.523 156.166 247.551 156.12 247.607C156.074 247.663 156.044 247.751 156.029 247.871C156.021 247.99 155.969 248.082 155.874 248.146C155.778 248.209 155.677 248.241 155.57 248.241C155.486 248.241 155.419 248.219 155.369 248.174C155.32 248.129 155.294 248.057 155.294 247.961L155.317 246.255C155.325 246.068 155.384 245.928 155.495 245.834C155.606 245.74 155.742 245.694 155.902 245.694C156.04 245.694 156.155 245.72 156.247 245.773C156.338 245.825 156.384 245.877 156.384 245.93ZM154.937 232.997C154.757 233.047 154.568 233.131 154.37 233.249C154.215 233.343 154.107 233.388 154.047 233.388C153.798 233.388 153.643 233.216 153.582 232.871C153.574 232.795 153.548 232.757 153.505 232.757C153.479 232.757 153.445 232.778 153.402 232.82C153.023 233.191 152.585 233.376 152.086 233.376C151.845 233.376 151.602 233.325 151.356 233.224C151.111 233.123 150.907 232.978 150.744 232.789C150.58 232.599 150.498 232.374 150.498 232.113V230.283C150.498 230.056 150.462 229.873 150.389 229.734C150.316 229.595 150.197 229.526 150.034 229.526C149.853 229.526 149.763 229.483 149.763 229.399C149.763 229.366 149.786 229.33 149.834 229.292C149.881 229.254 149.948 229.223 150.034 229.197C150.223 229.139 150.46 229.016 150.744 228.831C150.778 228.806 150.825 228.774 150.885 228.737C150.946 228.699 150.993 228.672 151.027 228.655C151.113 228.612 151.178 228.591 151.221 228.591C151.333 228.591 151.389 228.642 151.389 228.743L151.376 229.904C151.359 230.78 151.35 231.449 151.35 231.911C151.35 232.189 151.455 232.431 151.666 232.637C151.877 232.844 152.124 232.946 152.408 232.946C152.778 232.946 153.118 232.74 153.428 232.328C153.479 232.235 153.501 232.156 153.492 232.088C153.484 231.954 153.479 231.781 153.479 231.57L153.492 230.283C153.492 230.056 153.456 229.873 153.382 229.734C153.309 229.595 153.191 229.526 153.028 229.526C152.847 229.526 152.757 229.483 152.757 229.399C152.757 229.366 152.78 229.33 152.828 229.292C152.875 229.254 152.942 229.223 153.028 229.197C153.217 229.139 153.453 229.016 153.737 228.831C153.772 228.806 153.819 228.774 153.879 228.737C153.94 228.699 153.987 228.672 154.021 228.655C154.107 228.612 154.172 228.591 154.215 228.591C154.327 228.591 154.383 228.642 154.383 228.743L154.357 229.513C154.322 230.136 154.305 230.662 154.305 231.091C154.305 231.579 154.329 231.97 154.376 232.265C154.423 232.56 154.516 232.706 154.654 232.706C154.697 232.706 154.759 232.696 154.841 232.675C154.922 232.655 154.98 232.643 155.015 232.643C155.127 232.643 155.183 232.686 155.183 232.77C155.183 232.812 155.161 232.857 155.118 232.902C155.075 232.948 155.015 232.98 154.937 232.997ZM149.238 227.455C149.169 227.455 149.109 227.426 149.057 227.367C149.006 227.309 148.98 227.228 148.98 227.127C148.98 226.294 148.735 225.722 148.244 225.41C148.038 225.276 147.775 225.196 147.457 225.171C147.139 225.145 146.64 225.133 145.96 225.133C145.625 225.133 145.373 225.164 145.205 225.227C145.038 225.291 144.928 225.428 144.876 225.638C144.799 225.941 144.76 226.913 144.76 228.554C144.76 228.773 144.872 228.882 145.096 228.882C145.853 228.882 146.377 228.856 146.67 228.806C146.885 228.773 147.049 228.672 147.16 228.503C147.272 228.335 147.328 228.142 147.328 227.922C147.328 227.83 147.324 227.763 147.315 227.72V227.683C147.315 227.632 147.332 227.594 147.367 227.569C147.401 227.544 147.44 227.531 147.483 227.531C147.535 227.531 147.578 227.546 147.612 227.575C147.646 227.605 147.664 227.65 147.664 227.708V230.333C147.664 230.392 147.646 230.436 147.612 230.466C147.578 230.496 147.535 230.51 147.483 230.51C147.431 230.51 147.388 230.493 147.354 230.46C147.32 230.427 147.307 230.38 147.315 230.321C147.324 230.279 147.328 230.212 147.328 230.119C147.328 229.934 147.274 229.772 147.167 229.633C147.059 229.494 146.894 229.404 146.67 229.361C146.507 229.328 146.296 229.307 146.038 229.298C145.78 229.291 145.466 229.286 145.096 229.286C144.872 229.286 144.76 229.395 144.76 229.614C144.76 231.255 144.799 232.227 144.876 232.53C144.928 232.724 145.031 232.86 145.186 232.94C145.341 233.021 145.547 233.06 145.805 233.06C145.9 233.06 146.051 233.052 146.257 233.035H146.309C146.386 233.035 146.446 233.052 146.489 233.085C146.532 233.119 146.554 233.161 146.554 233.211C146.554 233.254 146.53 233.292 146.483 233.325C146.436 233.359 146.369 233.376 146.283 233.376H142.334C142.248 233.376 142.181 233.359 142.134 233.325C142.087 233.292 142.063 233.249 142.063 233.199C142.063 233.148 142.091 233.106 142.147 233.073C142.203 233.04 142.274 233.027 142.36 233.035C142.566 233.052 142.717 233.06 142.812 233.06C143.07 233.06 143.276 233.021 143.431 232.94C143.586 232.86 143.689 232.724 143.741 232.53C143.818 232.227 143.857 231.078 143.857 229.084C143.857 227.089 143.818 225.941 143.741 225.638C143.689 225.444 143.586 225.308 143.431 225.227C143.276 225.147 143.07 225.107 142.812 225.107C142.717 225.107 142.566 225.116 142.36 225.133H142.308C142.231 225.133 142.171 225.116 142.128 225.082C142.085 225.049 142.063 225.007 142.063 224.956C142.063 224.914 142.087 224.876 142.134 224.842C142.181 224.809 142.248 224.792 142.334 224.792L148.954 224.805C149.152 224.805 149.268 224.956 149.303 225.259C149.397 226.092 149.444 226.723 149.444 227.152C149.444 227.246 149.425 227.319 149.386 227.373C149.348 227.429 149.298 227.455 149.238 227.455ZM143.984 243.119C144.527 242.449 144.902 241.834 145.109 241.273C145.124 241.235 145.131 241.187 145.131 241.127C145.131 241.038 145.099 240.966 145.034 240.914C144.969 240.862 144.879 240.836 144.764 240.836H143.996C143.82 240.836 143.514 240.85 143.078 240.881L142.677 240.903C142.6 240.91 142.541 240.892 142.499 240.847C142.457 240.802 142.436 240.746 142.436 240.679C142.436 240.618 142.457 240.564 142.499 240.516C142.541 240.467 142.6 240.446 142.677 240.454L143.204 240.488C143.449 240.503 143.602 240.51 143.663 240.51C143.908 240.51 144.03 240.383 144.03 240.129V238.715C144.03 238.528 144.086 238.388 144.197 238.294C144.308 238.2 144.447 238.154 144.615 238.154C144.753 238.154 144.868 238.18 144.959 238.233C145.051 238.284 145.097 238.337 145.097 238.39C145.097 238.449 145.036 238.483 144.914 238.491C144.868 238.498 144.831 238.524 144.805 238.569C144.778 238.614 144.764 238.662 144.764 238.715V239.916C144.764 240.073 144.791 240.196 144.845 240.286C144.898 240.376 144.959 240.394 145.028 240.342C145.089 240.304 145.166 240.241 145.258 240.151C145.426 239.986 145.594 239.904 145.762 239.904C145.961 239.904 146.175 240.024 146.405 240.263C146.496 240.368 146.542 240.465 146.542 240.555C146.542 240.667 146.47 240.746 146.324 240.791C146.233 240.82 146.162 240.852 146.112 240.886C146.063 240.92 146.026 240.974 146.003 241.049C145.751 241.714 145.403 242.324 144.959 242.878C144.914 242.945 144.891 243.005 144.891 243.057C144.891 243.147 144.944 243.214 145.051 243.259C145.41 243.378 145.762 243.564 146.106 243.815C146.451 244.065 146.634 244.303 146.657 244.527C146.672 244.699 146.651 244.837 146.594 244.942C146.537 245.047 146.462 245.099 146.37 245.099C146.279 245.099 146.195 245.047 146.118 244.942C145.988 244.77 145.829 244.585 145.642 244.387C145.455 244.188 145.281 244.029 145.12 243.91C145.043 243.857 144.974 243.831 144.914 243.831C144.814 243.831 144.764 243.906 144.764 244.056V247.815C144.764 247.949 144.713 248.059 144.61 248.146C144.506 248.231 144.397 248.275 144.283 248.275C144.206 248.275 144.143 248.25 144.093 248.202C144.044 248.153 144.022 248.084 144.03 247.994V244.303C144.03 244.146 143.973 244.067 143.858 244.067C143.797 244.067 143.736 244.093 143.675 244.146C143.422 244.348 143.176 244.538 142.935 244.718C142.694 244.897 142.501 245.021 142.356 245.088C142.287 245.125 142.222 245.144 142.161 245.144C142.054 245.144 142 245.099 142 245.01C142 244.927 142.057 244.848 142.172 244.774C142.837 244.34 143.442 243.788 143.984 243.119ZM146.537 239.36C146.494 239.311 146.474 239.257 146.474 239.197C146.474 239.13 146.494 239.074 146.537 239.029C146.579 238.984 146.638 238.965 146.714 238.973L146.99 238.996C147.472 239.025 147.842 239.04 148.102 239.04H151.039C151.192 239.04 151.32 239.008 151.423 238.945C151.526 238.881 151.635 238.794 151.75 238.681C151.919 238.517 152.091 238.434 152.266 238.434C152.366 238.434 152.465 238.464 152.564 238.524C152.679 238.599 152.786 238.688 152.886 238.794C152.97 238.89 153.012 238.984 153.012 239.074C153.012 239.156 152.977 239.223 152.909 239.276C152.84 239.328 152.74 239.355 152.61 239.355L151.039 239.366L148.102 239.355C147.796 239.355 147.426 239.369 146.99 239.399L146.714 239.422C146.638 239.429 146.579 239.409 146.537 239.36ZM151.624 242.62C151.524 242.694 151.406 242.732 151.268 242.732C151.169 242.732 151.102 242.702 151.068 242.642C151.033 242.582 151.012 242.507 151.004 242.418C150.982 242.208 150.847 242.104 150.603 242.104H148.607C148.363 242.104 148.229 242.182 148.206 242.339C148.191 242.458 148.135 242.554 148.039 242.625C147.944 242.696 147.835 242.732 147.712 242.732C147.644 242.732 147.586 242.709 147.54 242.665C147.494 242.62 147.472 242.552 147.472 242.463V240.162C147.472 240.08 147.529 240.039 147.644 240.039C147.781 240.039 147.894 240.057 147.982 240.095C148.07 240.132 148.16 240.181 148.252 240.241C148.343 240.301 148.409 240.331 148.447 240.331H150.592C150.66 240.331 150.727 240.314 150.792 240.28C150.857 240.247 150.916 240.207 150.97 240.162C151.016 240.125 151.065 240.089 151.119 240.056C151.173 240.022 151.226 240.005 151.28 240.005C151.402 240.005 151.526 240.043 151.653 240.118C151.779 240.192 151.886 240.278 151.974 240.376C152.062 240.472 152.106 240.551 152.106 240.611C152.106 240.663 152.094 240.702 152.071 240.729C152.048 240.755 152.014 240.787 151.968 240.824C151.907 240.869 151.859 240.918 151.825 240.97C151.79 241.022 151.773 241.101 151.773 241.206V242.317C151.773 242.444 151.724 242.545 151.624 242.62ZM151.039 241.026C151.039 240.899 151.004 240.802 150.936 240.735C150.867 240.667 150.767 240.634 150.637 240.634H148.607C148.485 240.634 148.387 240.667 148.315 240.735C148.242 240.802 148.206 240.899 148.206 241.026V241.397C148.206 241.516 148.242 241.611 148.315 241.683C148.387 241.754 148.485 241.789 148.607 241.789L150.637 241.801C150.767 241.801 150.867 241.765 150.936 241.694C151.004 241.622 151.039 241.527 151.039 241.408V241.026ZM152.203 247.882C152.108 247.956 151.991 247.994 151.853 247.994C151.754 247.994 151.689 247.966 151.658 247.91C151.627 247.854 151.601 247.777 151.578 247.68C151.555 247.47 151.421 247.366 151.177 247.366H148.045C147.801 247.366 147.667 247.448 147.644 247.613C147.621 247.725 147.561 247.816 147.466 247.888C147.37 247.958 147.265 247.994 147.15 247.994C147.074 247.994 147.011 247.97 146.961 247.921C146.912 247.872 146.886 247.807 146.886 247.725L146.909 243.125C146.909 243.042 146.967 243.001 147.081 243.001C147.219 243.001 147.332 243.019 147.42 243.057C147.508 243.094 147.598 243.143 147.689 243.203C147.781 243.263 147.846 243.293 147.884 243.293H151.165C151.234 243.293 151.301 243.276 151.366 243.242C151.431 243.209 151.49 243.169 151.544 243.125C151.589 243.087 151.639 243.052 151.693 243.018C151.746 242.984 151.8 242.968 151.853 242.968C151.976 242.968 152.1 243.005 152.226 243.08C152.352 243.154 152.459 243.24 152.547 243.338C152.635 243.435 152.679 243.513 152.679 243.573C152.679 243.625 152.668 243.665 152.645 243.691C152.622 243.717 152.587 243.749 152.542 243.787C152.481 243.831 152.433 243.88 152.398 243.932C152.364 243.984 152.347 244.063 152.347 244.168V247.579C152.347 247.706 152.298 247.807 152.203 247.882ZM149.261 243.876C149.261 243.689 149.166 243.596 148.974 243.596H148.045C147.922 243.596 147.825 243.63 147.753 243.697C147.68 243.764 147.644 243.861 147.644 243.989V244.886C147.644 245.073 147.739 245.167 147.93 245.167H148.974C149.166 245.167 149.261 245.073 149.261 244.886V243.876ZM149.261 245.75C149.261 245.563 149.166 245.47 148.974 245.47H147.93C147.739 245.47 147.644 245.563 147.644 245.75V246.659C147.644 246.778 147.68 246.874 147.753 246.945C147.825 247.016 147.922 247.052 148.045 247.052H148.974C149.166 247.052 149.261 246.958 149.261 246.771V245.75ZM151.612 243.989C151.612 243.861 151.578 243.764 151.509 243.697C151.44 243.63 151.341 243.596 151.211 243.596H150.282C150.09 243.596 149.995 243.689 149.995 243.876V244.886C149.995 245.073 150.09 245.167 150.282 245.167H151.326C151.517 245.167 151.612 245.073 151.612 244.886V243.989ZM151.612 245.75C151.612 245.563 151.517 245.47 151.326 245.47H150.282C150.09 245.47 149.995 245.563 149.995 245.75V246.782C149.995 246.969 150.09 247.063 150.282 247.063H151.211C151.341 247.063 151.44 247.027 151.509 246.956C151.578 246.885 151.612 246.789 151.612 246.67V245.75ZM146.745 283.79L150.072 283.779L153.398 283.79C153.575 283.79 153.678 283.925 153.708 284.194C153.793 285.039 153.834 285.6 153.834 285.877C153.834 285.959 153.817 286.024 153.783 286.073C153.748 286.122 153.704 286.146 153.651 286.146C153.59 286.146 153.536 286.12 153.49 286.068C153.444 286.015 153.421 285.944 153.421 285.855C153.421 285.114 153.203 284.605 152.767 284.329C152.6 284.216 152.429 284.147 152.257 284.121C152.085 284.094 151.777 284.082 151.334 284.082H150.863C150.665 284.082 150.558 284.167 150.542 284.34C150.496 284.841 150.473 285.925 150.473 287.594C150.473 289.367 150.508 290.388 150.576 290.657C150.622 290.829 150.714 290.95 150.852 291.022C150.989 291.092 151.173 291.128 151.402 291.128C151.487 291.128 151.62 291.12 151.804 291.106H151.85C151.919 291.106 151.972 291.12 152.01 291.151C152.049 291.18 152.068 291.218 152.068 291.263C152.068 291.3 152.047 291.334 152.005 291.364C151.963 291.393 151.903 291.409 151.827 291.409H150.072H148.317C148.241 291.409 148.181 291.393 148.139 291.364C148.097 291.334 148.076 291.296 148.076 291.252C148.076 291.207 148.101 291.169 148.15 291.139C148.201 291.109 148.264 291.098 148.34 291.106C148.523 291.12 148.657 291.128 148.741 291.128C148.971 291.128 149.154 291.092 149.292 291.022C149.429 290.95 149.521 290.829 149.567 290.657C149.636 290.388 149.67 289.367 149.67 287.594L149.682 286.416C149.69 286.169 149.693 285.813 149.693 285.35C149.693 284.916 149.682 284.575 149.659 284.329C149.636 284.164 149.529 284.082 149.338 284.082H148.867C148.409 284.082 148.087 284.094 147.904 284.121C147.72 284.147 147.545 284.216 147.376 284.329C146.94 284.605 146.722 285.114 146.722 285.855C146.722 285.944 146.699 286.015 146.654 286.068C146.608 286.12 146.555 286.146 146.493 286.146C146.44 286.146 146.395 286.122 146.361 286.073C146.327 286.024 146.309 285.959 146.309 285.877C146.309 285.6 146.352 285.039 146.436 284.194C146.466 283.925 146.57 283.79 146.745 283.79ZM146.768 306.659C147.579 306.487 148.29 306.203 148.902 305.807C149.514 305.41 150.009 304.984 150.387 304.527C150.766 304.072 151.043 303.649 151.219 303.259C151.235 303.23 151.242 303.203 151.242 303.181C151.242 303.151 151.227 303.125 151.196 303.102C151.166 303.08 151.127 303.069 151.081 303.069H150.152C150.022 303.069 149.923 303.097 149.854 303.153C149.785 303.209 149.751 303.29 149.751 303.394C149.751 303.529 149.698 303.64 149.59 303.725C149.483 303.811 149.368 303.854 149.246 303.854C149.17 303.854 149.107 303.832 149.057 303.787C149.007 303.742 148.982 303.679 148.982 303.596L148.994 303.136C149.001 303.062 149.005 302.953 149.005 302.811L149.016 300.062C149.016 299.98 149.074 299.938 149.189 299.938C149.326 299.938 149.439 299.957 149.527 299.994C149.615 300.032 149.705 300.081 149.796 300.14C149.888 300.201 149.953 300.23 149.991 300.23H151.161C151.353 300.23 151.448 300.137 151.448 299.949V299.422C151.448 299.295 151.414 299.198 151.345 299.13C151.276 299.063 151.177 299.029 151.047 299.029H149.097C148.791 299.029 148.42 299.045 147.984 299.074L147.709 299.097C147.633 299.104 147.573 299.084 147.531 299.035C147.489 298.987 147.468 298.933 147.468 298.872C147.468 298.805 147.489 298.749 147.531 298.704C147.573 298.659 147.633 298.641 147.709 298.648L147.984 298.67C148.466 298.701 148.837 298.715 149.097 298.715H151.047C151.177 298.715 151.276 298.68 151.345 298.609C151.414 298.538 151.448 298.442 151.448 298.323V297.234C151.448 297.048 151.504 296.907 151.615 296.813C151.726 296.72 151.865 296.673 152.033 296.673C152.171 296.673 152.286 296.7 152.377 296.752C152.469 296.804 152.515 296.857 152.515 296.909C152.515 296.969 152.454 297.003 152.331 297.01C152.286 297.017 152.25 297.043 152.223 297.088C152.196 297.133 152.182 297.182 152.182 297.234V298.323C152.182 298.442 152.219 298.538 152.291 298.609C152.364 298.68 152.462 298.715 152.584 298.715H154.259C154.412 298.715 154.54 298.684 154.643 298.62C154.746 298.557 154.855 298.468 154.97 298.356C155.138 298.192 155.31 298.109 155.486 298.109C155.586 298.109 155.685 298.139 155.784 298.199C155.899 298.274 156.006 298.364 156.105 298.468C156.19 298.566 156.231 298.659 156.231 298.749C156.231 298.832 156.197 298.899 156.128 298.951C156.059 299.003 155.96 299.029 155.83 299.029L152.584 299.041C152.462 299.041 152.364 299.074 152.291 299.142C152.219 299.209 152.182 299.306 152.182 299.433V299.949C152.182 300.137 152.278 300.23 152.469 300.23H153.444C153.513 300.23 153.58 300.213 153.645 300.179C153.71 300.146 153.77 300.107 153.823 300.062C153.869 300.025 153.919 299.989 153.972 299.955C154.026 299.921 154.079 299.905 154.132 299.905C154.255 299.905 154.379 299.942 154.505 300.017C154.631 300.092 154.739 300.178 154.826 300.275C154.915 300.372 154.958 300.451 154.958 300.51C154.958 300.563 154.947 300.602 154.924 300.628C154.901 300.655 154.866 300.687 154.821 300.724C154.76 300.769 154.712 300.818 154.677 300.87C154.643 300.922 154.626 301.001 154.626 301.105V303.394C154.626 303.536 154.573 303.649 154.465 303.731C154.358 303.813 154.24 303.854 154.109 303.854C154.003 303.854 153.934 303.823 153.903 303.759C153.873 303.696 153.857 303.612 153.857 303.506C153.857 303.372 153.823 303.265 153.754 303.187C153.685 303.108 153.586 303.069 153.456 303.069H152.412C152.313 303.069 152.263 303.107 152.263 303.181L152.286 303.271C152.661 303.914 153.248 304.524 154.046 305.1C154.846 305.676 155.876 306.072 157.138 306.289C157.222 306.297 157.264 306.334 157.264 306.401C157.264 306.446 157.243 306.485 157.201 306.519C157.159 306.553 157.103 306.566 157.034 306.558C156.874 306.544 156.727 306.558 156.593 306.603C156.459 306.648 156.369 306.719 156.323 306.816C156.262 306.943 156.159 306.992 156.014 306.962C154.752 306.753 153.544 305.926 152.389 304.482C152.343 304.431 152.305 304.404 152.274 304.404C152.213 304.404 152.182 304.453 152.182 304.55V306.771C152.182 306.906 152.131 307.016 152.028 307.102C151.924 307.189 151.815 307.231 151.701 307.231C151.625 307.231 151.562 307.207 151.511 307.159C151.462 307.11 151.441 307.041 151.448 306.951V304.752C151.448 304.655 151.418 304.606 151.356 304.606C151.318 304.606 151.28 304.628 151.242 304.673C150.714 305.234 150.043 305.73 149.229 306.16C148.414 306.59 147.606 306.854 146.803 306.951H146.78C146.727 306.951 146.682 306.936 146.648 306.906C146.613 306.876 146.596 306.842 146.596 306.805C146.596 306.775 146.612 306.746 146.642 306.715C146.673 306.685 146.715 306.667 146.768 306.659ZM152.182 302.485C152.182 302.673 152.278 302.766 152.469 302.766H153.49C153.62 302.766 153.719 302.731 153.788 302.659C153.857 302.588 153.891 302.493 153.891 302.373V302.238C153.891 302.111 153.857 302.014 153.788 301.947C153.719 301.879 153.62 301.846 153.49 301.846H152.469C152.278 301.846 152.182 301.94 152.182 302.126V302.485ZM152.182 301.206C152.182 301.393 152.278 301.487 152.469 301.487H153.49C153.62 301.487 153.719 301.452 153.788 301.38C153.857 301.309 153.891 301.214 153.891 301.094V300.926C153.891 300.799 153.857 300.701 153.788 300.634C153.719 300.567 153.62 300.533 153.49 300.533H152.469C152.278 300.533 152.182 300.627 152.182 300.813V301.206ZM151.448 300.813C151.448 300.627 151.353 300.533 151.161 300.533H150.152C150.03 300.533 149.933 300.567 149.86 300.634C149.787 300.701 149.751 300.799 149.751 300.926V301.094C149.751 301.214 149.787 301.309 149.86 301.38C149.933 301.452 150.03 301.487 150.152 301.487H151.161C151.353 301.487 151.448 301.393 151.448 301.206V300.813ZM151.448 302.474V302.126C151.448 301.94 151.353 301.846 151.161 301.846H150.152C150.03 301.846 149.933 301.879 149.86 301.947C149.787 302.014 149.751 302.111 149.751 302.238V302.362C149.751 302.482 149.787 302.577 149.86 302.648C149.933 302.719 150.03 302.755 150.152 302.755H151.161C151.353 302.755 151.448 302.661 151.448 302.474ZM155.92 291.42C155.553 291.42 155.201 291.341 154.864 291.184C154.528 291.027 154.254 290.787 154.044 290.466C153.834 290.144 153.729 289.755 153.729 289.299C153.729 288.835 153.836 288.442 154.05 288.121C154.264 287.799 154.537 287.558 154.87 287.397C155.203 287.236 155.553 287.156 155.92 287.156C156.287 287.156 156.639 287.236 156.975 287.397C157.311 287.558 157.586 287.799 157.801 288.121C158.015 288.442 158.122 288.835 158.122 289.299C158.122 289.755 158.015 290.144 157.801 290.466C157.586 290.787 157.311 291.027 156.975 291.184C156.639 291.341 156.287 291.42 155.92 291.42ZM156.866 287.958C156.625 287.618 156.31 287.448 155.92 287.448C155.53 287.448 155.214 287.618 154.973 287.958C154.732 288.299 154.612 288.742 154.612 289.288C154.612 289.834 154.732 290.277 154.973 290.618C155.214 290.958 155.53 291.128 155.92 291.128C156.318 291.128 156.634 290.96 156.872 290.623C157.109 290.287 157.227 289.841 157.227 289.288C157.227 288.742 157.107 288.299 156.866 287.958ZM159.215 291.106C159.498 291.151 159.674 290.922 159.743 290.421C159.789 290.017 159.812 289.471 159.812 288.783C159.812 287.519 159.792 286.411 159.754 285.462C159.747 285.312 159.743 285.148 159.743 284.968C159.743 284.766 159.71 284.604 159.645 284.48C159.58 284.357 159.475 284.295 159.33 284.295C159.253 284.295 159.194 284.284 159.152 284.261C159.11 284.239 159.089 284.209 159.089 284.172C159.089 284.141 159.11 284.11 159.152 284.076C159.194 284.042 159.253 284.018 159.33 284.003C159.552 283.958 159.807 283.835 160.099 283.633C160.121 283.618 160.173 283.586 160.253 283.538C160.334 283.488 160.4 283.465 160.454 283.465C160.561 283.465 160.615 283.51 160.615 283.599L160.592 284.385C160.538 285.626 160.511 286.658 160.511 287.482V288.772C160.511 288.862 160.546 288.907 160.615 288.907C160.653 288.907 160.699 288.888 160.752 288.85C161.241 288.439 161.588 288.132 161.79 287.93C161.993 287.728 162.094 287.594 162.094 287.526C162.094 287.482 162.052 287.459 161.968 287.459C161.93 287.459 161.849 287.466 161.727 287.482L161.659 287.493C161.597 287.493 161.55 287.477 161.515 287.448C161.481 287.418 161.464 287.381 161.464 287.336C161.464 287.291 161.484 287.253 161.527 287.223C161.568 287.193 161.628 287.179 161.704 287.179H163.264C163.34 287.179 163.4 287.191 163.442 287.218C163.484 287.244 163.505 287.28 163.505 287.324C163.505 287.369 163.48 287.406 163.431 287.437C163.381 287.466 163.314 287.482 163.23 287.482C163.062 287.482 162.846 287.583 162.582 287.784C162.318 287.986 161.957 288.296 161.498 288.716C161.459 288.745 161.441 288.787 161.441 288.839C161.441 288.884 161.456 288.921 161.486 288.951C161.601 289.078 161.846 289.367 162.221 289.815C162.58 290.256 162.867 290.582 163.081 290.792C163.295 291.001 163.482 291.106 163.643 291.106C163.727 291.106 163.794 291.123 163.844 291.156C163.893 291.19 163.918 291.229 163.918 291.274C163.918 291.311 163.897 291.343 163.855 291.369C163.813 291.395 163.753 291.409 163.677 291.409H161.773C161.697 291.409 161.637 291.393 161.595 291.364C161.553 291.334 161.532 291.296 161.532 291.252C161.532 291.199 161.555 291.158 161.601 291.128C161.647 291.098 161.712 291.09 161.796 291.106C161.903 291.12 161.975 291.128 162.014 291.128C162.136 291.128 162.198 291.087 162.198 291.005C162.198 290.907 162.107 290.731 161.928 290.477C161.748 290.223 161.448 289.856 161.028 289.378C160.982 289.325 160.932 289.299 160.879 289.299C160.84 289.299 160.805 289.314 160.775 289.344L160.603 289.49C160.534 289.542 160.5 289.613 160.5 289.703V290.096C160.5 290.447 160.527 290.705 160.58 290.87C160.633 291.034 160.748 291.117 160.924 291.117C160.97 291.117 161.008 291.113 161.039 291.106L161.108 291.094C161.169 291.094 161.217 291.109 161.251 291.139C161.286 291.169 161.303 291.207 161.303 291.252C161.303 291.296 161.281 291.334 161.24 291.364C161.198 291.393 161.138 291.409 161.062 291.409H159.192C159.116 291.409 159.056 291.393 159.015 291.364C158.972 291.334 158.951 291.296 158.951 291.252C158.951 291.199 158.974 291.158 159.02 291.128C159.066 291.098 159.131 291.09 159.215 291.106ZM159.907 306.244C160.114 306.207 160.335 306.109 160.572 305.952C160.809 305.795 161.027 305.584 161.226 305.318C161.425 305.053 161.57 304.752 161.662 304.415C161.715 304.229 161.801 304.092 161.92 304.006C162.039 303.92 162.174 303.877 162.327 303.877C162.541 303.877 162.729 303.948 162.889 304.09C162.988 304.187 163.039 304.266 163.039 304.325C163.039 304.356 163.021 304.378 162.987 304.393C162.953 304.408 162.901 304.412 162.832 304.404H162.821C162.775 304.404 162.73 304.423 162.689 304.46C162.646 304.498 162.614 304.539 162.591 304.583C162.423 304.973 162.18 305.311 161.863 305.599C161.545 305.887 161.21 306.112 160.859 306.272C160.507 306.433 160.186 306.528 159.896 306.558H159.85C159.788 306.558 159.741 306.547 159.706 306.525C159.672 306.502 159.655 306.472 159.655 306.435C159.655 306.337 159.739 306.274 159.907 306.244ZM162.408 305.762C162.423 305.762 162.545 305.792 162.775 305.851C162.805 305.859 162.922 305.893 163.125 305.952C163.327 306.013 163.501 306.042 163.647 306.042C163.837 306.042 163.979 306.001 164.071 305.919C164.163 305.837 164.209 305.702 164.209 305.515V303.136C164.209 303.009 164.174 302.912 164.105 302.844C164.037 302.777 163.937 302.743 163.807 302.743H163.096C162.965 302.743 162.867 302.771 162.798 302.827C162.729 302.884 162.694 302.964 162.694 303.069C162.694 303.203 162.641 303.314 162.534 303.4C162.426 303.486 162.312 303.529 162.19 303.529C162.113 303.529 162.05 303.506 162.001 303.461C161.95 303.417 161.926 303.353 161.926 303.271L161.96 299.983C161.96 299.901 162.018 299.86 162.132 299.86C162.27 299.86 162.383 299.879 162.471 299.916C162.558 299.954 162.649 300.002 162.74 300.062C162.832 300.122 162.897 300.151 162.935 300.151H166.01C166.078 300.151 166.145 300.135 166.21 300.101C166.275 300.067 166.334 300.028 166.388 299.983C166.434 299.946 166.483 299.91 166.537 299.877C166.59 299.843 166.644 299.826 166.698 299.826C166.82 299.826 166.944 299.864 167.071 299.938C167.197 300.013 167.304 300.1 167.392 300.196C167.479 300.294 167.524 300.372 167.524 300.432C167.524 300.485 167.512 300.524 167.489 300.55C167.466 300.576 167.432 300.608 167.386 300.645C167.324 300.69 167.277 300.739 167.243 300.791C167.208 300.844 167.191 300.922 167.191 301.027V303.069C167.191 303.211 167.137 303.323 167.03 303.405C166.923 303.488 166.805 303.529 166.675 303.529C166.567 303.529 166.498 303.497 166.468 303.433C166.438 303.37 166.422 303.286 166.422 303.181C166.422 303.046 166.388 302.94 166.319 302.861C166.25 302.783 166.151 302.743 166.021 302.743H165.344C165.222 302.743 165.124 302.777 165.052 302.844C164.979 302.912 164.943 303.009 164.943 303.136V306.177C164.943 306.491 164.864 306.734 164.708 306.906C164.551 307.078 164.35 307.164 164.105 307.164C163.983 307.164 163.895 307.138 163.842 307.086C163.788 307.033 163.738 306.954 163.692 306.85C163.654 306.76 163.612 306.684 163.566 306.62C163.52 306.556 163.452 306.499 163.36 306.446C163.153 306.342 162.839 306.248 162.419 306.166C162.35 306.151 162.299 306.123 162.264 306.081C162.23 306.041 162.213 305.997 162.213 305.952C162.213 305.9 162.23 305.856 162.264 305.818C162.299 305.781 162.346 305.762 162.408 305.762ZM166.055 302.44C166.185 302.44 166.285 302.405 166.354 302.334C166.422 302.263 166.457 302.168 166.457 302.048V300.847C166.457 300.72 166.422 300.623 166.354 300.555C166.285 300.488 166.185 300.454 166.055 300.454H163.096C162.973 300.454 162.876 300.488 162.803 300.555C162.73 300.623 162.694 300.72 162.694 300.847V302.036C162.694 302.156 162.73 302.252 162.803 302.323C162.876 302.394 162.973 302.429 163.096 302.429L166.055 302.44ZM166.17 303.966C166.468 303.989 166.825 304.112 167.243 304.337C167.659 304.561 168.018 304.83 168.321 305.145C168.623 305.459 168.774 305.762 168.774 306.053C168.774 306.218 168.72 306.358 168.613 306.474C168.506 306.59 168.388 306.648 168.258 306.648C168.074 306.648 167.944 306.544 167.868 306.334C167.707 305.915 167.449 305.487 167.093 305.049C166.738 304.612 166.388 304.352 166.044 304.269C165.967 304.247 165.929 304.202 165.929 304.135C165.929 304.083 165.95 304.039 165.992 304.006C166.034 303.972 166.093 303.959 166.17 303.966ZM160.332 299.041L160.056 299.063C159.98 299.071 159.92 299.05 159.878 299.001C159.836 298.953 159.815 298.899 159.815 298.839C159.815 298.771 159.836 298.715 159.878 298.67C159.92 298.625 159.98 298.607 160.056 298.614L160.332 298.637C160.813 298.667 161.184 298.682 161.444 298.682H163.807C163.937 298.682 164.037 298.646 164.105 298.575C164.174 298.504 164.209 298.409 164.209 298.289V297.358C164.209 297.171 164.264 297.031 164.375 296.937C164.485 296.844 164.625 296.797 164.794 296.797C164.931 296.797 165.046 296.823 165.138 296.875C165.23 296.928 165.275 296.98 165.275 297.032C165.275 297.092 165.214 297.126 165.092 297.133C165.046 297.141 165.009 297.167 164.983 297.212C164.956 297.257 164.943 297.306 164.943 297.358V298.289C164.943 298.409 164.979 298.504 165.052 298.575C165.124 298.646 165.222 298.682 165.344 298.682H167.547C167.699 298.682 167.828 298.65 167.931 298.586C168.034 298.523 168.143 298.435 168.258 298.323C168.426 298.158 168.598 298.076 168.774 298.076C168.873 298.076 168.973 298.106 169.072 298.165C169.187 298.24 169.294 298.33 169.393 298.435C169.477 298.532 169.52 298.625 169.52 298.715C169.52 298.798 169.485 298.865 169.416 298.917C169.347 298.97 169.248 298.996 169.118 298.996H161.444C161.138 298.996 160.767 299.011 160.332 299.041Z" fill="white"/>
<path fill-rule="evenodd" clip-rule="evenodd" d="M202 226.434C204.209 226.434 206 228.221 206 230.424C206 232.627 204.209 234.414 202 234.414C199.791 234.414 198 232.627 198 230.424C198 228.221 199.791 226.434 202 226.434Z" fill="white"/>
<path fill-rule="evenodd" clip-rule="evenodd" d="M183.5 286.284C185.985 286.284 188 287.848 188 289.776C188 291.704 185.985 293.267 183.5 293.267C181.015 293.267 179 291.704 179 289.776C179 287.848 181.015 286.284 183.5 286.284Z" fill="white"/>
<path d="M185 283.291L202 233.416" stroke="white" stroke-linejoin="round"/>
<path d="M183 278.305L187 280.585L185.545 286.285L183 278.305Z" fill="white"/>
</g>
<defs>
<clipPath id="clip0_1146_2586">
<rect width="286" height="400" fill="white"/>
</clipPath>
</defs>
</svg>
