<svg width="18" height="18" viewBox="0 0 18 18" fill="none" xmlns="http://www.w3.org/2000/svg">
<path d="M10.9739 16.2643C10.3333 16.4349 9.67328 16.5215 9.01036 16.5218C7.27268 16.5217 5.58881 15.919 4.24564 14.8166C2.90247 13.7141 1.98312 12.18 1.64423 10.4757C1.30534 8.77139 1.56788 7.0023 2.38712 5.46986C3.20635 3.93742 4.53159 2.73644 6.13704 2.07156C7.74248 1.40668 9.5288 1.31903 11.1916 1.82355C12.8544 2.32807 14.2909 3.39354 15.2562 4.83842C16.2215 6.2833 16.656 8.01819 16.4856 9.74749C16.3152 11.4768 15.5504 13.0935 14.3216 14.3222" stroke="#333333" stroke-linecap="round" stroke-linejoin="round"/>
<path d="M16.737 16.927L14.3203 14.3232" stroke="#333333" stroke-linecap="round" stroke-linejoin="round"/>
<path d="M6.32812 9.01172H11.693" stroke="#333333" stroke-linecap="round" stroke-linejoin="round"/>
<path d="M9.00781 6.32812V11.693" stroke="#333333" stroke-linecap="round" stroke-linejoin="round"/>
</svg>
